<?xml version="1.0" standalone="no"?>
<!DOCTYPE svg PUBLIC "-//W3C//DTD SVG 1.1//EN" "http://www.w3.org/Graphics/SVG/1.1/DTD/svg11.dtd" >
<svg xmlns="http://www.w3.org/2000/svg">
<metadata>
This is a custom SVG webfont generated by Font Squirrel.
Copyright   : nullnamesubstitute
Designer    : Tom Giannattasio
</metadata>
<defs>
<font id="MonstrrrSerifRegular" horiz-adv-x="1228" >
<font-face units-per-em="2048" ascent="1638" descent="-410" />
<missing-glyph horiz-adv-x="819" />
<glyph unicode=" "  horiz-adv-x="819" />
<glyph unicode="&#x09;" horiz-adv-x="819" />
<glyph unicode="&#xa0;" horiz-adv-x="819" />
<glyph unicode="&#x22;" horiz-adv-x="634" d="M86 1489l25 -352l137 24l8 340zM389 1489l25 -352l137 24l8 340z" />
<glyph unicode="'" horiz-adv-x="348" d="M86 1489l25 -352l137 24l8 340z" />
<glyph unicode="," horiz-adv-x="348" d="M59.5 144q24.5 44 83.5 65q76 23 123 -3t35 -100v-26q-33 -162 -115 -209l-26 66q39 29 39 73q-31 -10 -70 0t-59 37q-35 53 -10.5 97z" />
<glyph unicode="." horiz-adv-x="348" d="M42 109.5q-3 35.5 19.5 58t69.5 45.5q53 25 116.5 -1t63.5 -91q0 -63 -95 -95t-128 5q-43 43 -46 78.5z" />
<glyph unicode="0" d="M16 621q-12 178 39 337.5t136 262t182.5 162t181.5 59.5q248 31 446.5 -144.5t198.5 -463.5q16 -193 -58.5 -393.5t-206.5 -330.5t-271 -130q-266 0 -443.5 155.5t-204.5 485.5zM158 659q68 -315 141 -393l508 998q-53 18 -83 27t-74 18.5t-75.5 6.5t-56.5 -16 q-43 -14 -101.5 -67t-117.5 -133t-100 -198t-41 -243zM444 154q18 0 72.5 -16.5t71.5 -16.5q68 0 154.5 67.5t160.5 172t119 242.5t33 265q-49 195 -144 289z" />
<glyph unicode="1" horiz-adv-x="696" d="M10 1165h246v-1015l-211 36v-176l631 -37v177h-211l-70 1298h-139q-16 -31 -77.5 -84t-115.5 -90l-53 -37v-72z" />
<glyph unicode="2" horiz-adv-x="1024" d="M14 176q47 37 124 96.5t240 211t243 261.5q88 121 99 247t-53.5 214t-187.5 107q-86 18 -150.5 8t-110.5 -41t-74.5 -63.5t-41.5 -57.5l-14 -26l-74 110q6 10 17.5 26.5t51.5 56.5t86 69.5t119.5 49t153.5 9.5q141 0 246 -65.5t152 -165t47 -219t-53 -226.5 q-80 -125 -230.5 -284.5t-261.5 -255.5l-111 -99h603v176l176 39l-33 -354h-922z" />
<glyph unicode="3" horiz-adv-x="1024" d="M12 328l103 32q6 -6 55 -58t76.5 -77.5t80 -59.5t99.5 -44q119 -35 237.5 19.5t180 166t26.5 225.5q-78 188 -405 234l-111 8l346 516h-618l-35 140h897l-313 -551q12 -2 30.5 -8.5t70.5 -32t95 -57t87 -89t63 -125.5q16 -61 18 -128.5t-13 -136.5t-53 -129t-94.5 -105 t-143.5 -69t-195 -15q-90 0 -165 24.5t-120 54t-89 87t-61.5 88.5t-48.5 90z" />
<glyph unicode="4" horiz-adv-x="1044" d="M12 549v137l582 756h170v-756h242l32 -137h-274v-414h207v-137h-551l-31 106l238 31v414h-615zM219 686h408v512z" />
<glyph unicode="5" horiz-adv-x="1146" d="M8 365l139 32q2 -10 9.5 -26.5t38 -60.5t72.5 -78.5t122 -68.5t178 -42q100 0 192.5 37t149 96t83 128t-1 138.5t-107.5 120.5q-258 174 -674 150l-94 -9l32 666l838 -37l-33 -170l-665 31v-383q18 2 51 6t124 4t174 -10t182.5 -46t166.5 -93q84 -72 120 -177.5 t15.5 -211t-82 -195.5t-186.5 -142.5t-285 -41.5q-406 23 -524 260q-35 68 -35 123z" />
<glyph unicode="6" horiz-adv-x="1167" d="M11 659.5q-7 98.5 7 188.5q27 285 123.5 417t337.5 179q92 8 181.5 -12.5t149.5 -56.5t107.5 -72.5t69.5 -63.5l23 -27l-101 -65q-31 59 -152.5 105t-277.5 26q-125 -16 -200.5 -109.5t-95 -210t-1.5 -241.5q104 104 243.5 147t264.5 26.5t228.5 -63.5t154.5 -110 q33 -51 49.5 -123t14.5 -153t-35 -160.5t-90.5 -144t-160.5 -104.5t-237 -40q-135 0 -241.5 38t-170 103.5t-109.5 151.5t-60.5 181t-21.5 193.5zM213 588q0 -14 1 -37t12.5 -83t29.5 -110.5t60 -100.5t98 -71q104 -45 210.5 -28.5t194.5 72t121 122.5q29 57 39 106.5 t-1 104.5t-70.5 102.5t-164.5 82.5q-233 80 -467 -103q-38 -30 -63 -57z" />
<glyph unicode="7" horiz-adv-x="962" d="M10 1155h140l34 141h592q-117 -127 -195.5 -292.5t-108.5 -311t-42 -273.5t-8 -202l4 -76h-207l-35 -141h629v141h-211q-49 139 -34.5 291t70.5 299.5t117.5 265t112.5 191.5l50 72l32 174h-940v-279z" />
<glyph unicode="8" horiz-adv-x="1187" d="M8 389q0 125 65.5 224.5t172.5 150.5q-100 51 -151.5 122.5t-51.5 149.5q0 68 22.5 134.5t69.5 129t137 101.5t209 39q221 29 369.5 -36t171.5 -233q27 -100 -18.5 -198.5t-147.5 -173.5q123 -27 201 -98.5t100 -174.5q20 -41 12 -95t-29.5 -111.5t-69.5 -113.5 t-106.5 -102.5t-140.5 -78t-170 -37.5q-283 0 -450.5 102t-194.5 299zM180 389q0 -104 133 -181t305 -54q174 25 286 131t87 207q-27 102 -158 164.5t-286 41.5q-145 0 -256 -100t-111 -209zM209 1036q0 -117 110.5 -157.5t227.5 -14.5q70 14 130 39t113.5 64t70 89 t-4.5 115q-27 100 -135.5 147.5t-239.5 18.5q-119 -25 -205.5 -105.5t-66.5 -195.5z" />
<glyph unicode="9" horiz-adv-x="1146" d="M11 994q-1 79 29 159t86 145.5t159.5 106.5t240.5 41q131 0 233.5 -39t164 -105.5t106.5 -152.5t59.5 -180.5t21.5 -189.5t-5 -181q-29 -297 -132.5 -441.5t-342.5 -166.5q-96 -10 -190.5 10t-162 57t-121 75t-79.5 65l-27 28l103 66q35 -66 180 -128.5t328 -41.5 q84 12 146 70.5t95 144.5t48.5 177t15.5 187q-109 -121 -242 -166t-253 -21t-220 82t-166 140q-35 43 -54.5 111.5t-20.5 147.5zM174 1026q-8 -80 17.5 -156.5t103.5 -134t199 -69.5q254 -29 393 204q33 55 47 101q0 18 -5 51t-48 114t-119 140q-66 49 -173.5 56t-213 -35 t-154.5 -123q-39 -68 -47 -148z" />
<glyph unicode=":" horiz-adv-x="348" d="M42 109.5q-3 35.5 19.5 58t69.5 45.5q53 25 116.5 -1t63.5 -91q0 -63 -95 -95t-128 5q-43 43 -46 78.5zM42 642q-3 36 19.5 58.5t69.5 44.5q53 25 116.5 -0.5t63.5 -91.5q0 -63 -95 -95t-128 5q-43 43 -46 79z" />
<glyph unicode=";" horiz-adv-x="348" d="M42 642q-3 36 19.5 58.5t69.5 44.5q53 25 116.5 -0.5t63.5 -91.5q0 -63 -95 -95t-128 5q-43 43 -46 79zM59.5 144q24.5 44 83.5 65q76 23 123 -3t35 -100v-26q-33 -162 -115 -209l-26 66q39 29 39 73q-31 -10 -70 0t-59 37q-35 53 -10.5 97z" />
<glyph unicode="A" horiz-adv-x="1372" d="M12 0v106h148l432 1344h106l514 -1307l107 -37l35 -106h-398v106h72l-106 291h-512l-144 -291h144l39 -106h-437zM483 580h363l-180 579z" />
<glyph unicode="B" horiz-adv-x="1259" d="M10 1305v106q179 38 350 38q166 0 325 -36q323 -74 378 -213q7 -33 7 -65q0 -46 -14 -89q-24 -75 -77 -153t-55 -82q78 0 183 -104.5t132 -210.5q8 -30 8 -68q0 -53 -16 -121q-27 -115 -100.5 -210t-172.5 -95h-843l-35 139h139l-69 1164h-140zM289 1305l35 -494 q285 0 426 35q41 14 84 67.5t68 117.5q15 38 15 78q0 27 -7 55q-17 69 -91 106q-119 60 -289 60q-96 0 -208 -19zM324 141q248 -17 397.5 -17t202.5 17q74 0 125 82t51 168q0 92 -75 204t-171 112h-530v-566z" />
<glyph unicode="C" horiz-adv-x="1239" d="M5 617q-1 19 -1 39q0 113 26 235q30 143 87 268t164.5 206t244.5 81q309 0 418 -105v138l137 -33v-352h-137v104q-18 12 -54 29.5t-145.5 46.5t-218.5 29q-152 -25 -265.5 -223.5t-113.5 -434.5q23 -221 145 -343t339 -175q49 -13 97 -13q171 0 333 158l57 64l105 -39 q-4 -10 -13.5 -29.5t-46.5 -68.5t-83 -88t-129 -76t-179 -45q-246 0 -449.5 107.5t-279.5 303.5q-33 86 -38 216z" />
<glyph unicode="D" horiz-adv-x="1454" d="M16 1325l35 105q78 4 199 8q44 1 105 1q107 0 269 -4q253 -7 363 -40q90 -25 169 -99.5t130 -175t85 -205t48 -202.5q5 -32 6 -69q0 -89 -32 -204q-45 -162 -137.5 -288.5t-192.5 -126.5q-98 -16 -351 -24.5t-458 -8.5l-203 -2v110h178l-32 1225h-181zM340 100 q467 0 647 70q86 16 169 130t120 255q18 71 18 127.5t-18 99.5q-31 78 -48.5 120t-60.5 121t-84 124t-105.5 86t-135.5 51q-169 50 -348 50q-76 0 -154 -9v-1225z" />
<glyph unicode="E" horiz-adv-x="1085" d="M8 -14v141h178l-36 1141h-109l37 108l930 74l69 -287l-141 -35v140l-643 -31v-537l430 35v-182l-430 -31v-360h643v69h108v-213z" />
<glyph unicode="F" horiz-adv-x="1044" d="M10 -2v149h142l-33 1162l-109 39v104l1018 -33v-293h-110l-39 146l-629 37l67 -584l349 -33l-41 -147l-328 28l31 -438l188 12l39 -149h-545z" />
<glyph unicode="G" horiz-adv-x="1280" d="M7 587q-1 22 -1 43q0 114 23 239q27 148 82 278.5t156.5 215.5t230.5 85q92 0 164.5 -16.5t152.5 -50t98 -40.5v72l138 35l34 -350l-137 -35l-35 106q-63 61 -163 96q-58 20 -123 19q-47 0 -99 -10q-115 0 -195.5 -102.5t-114.5 -248t-34 -311.5q0 -227 116 -342.5 t335 -142.5q23 -3 46 -3q55 0 111 17q79 25 135 68t102 87t69 77l22 33l-348 69v103l490 -35q0 -195 -167 -376t-390 -181q-47 -5 -91 -5q-179 0 -318 79q-173 99 -253 309q-31 84 -36 218z" />
<glyph unicode="H" d="M8 -6v108h142v1211h-142v100l500 41v-141h-217l41 -531l565 -41l74 533l-142 -33l-38 139h430v-106l-142 -33l-108 -1139h209v-108l-459 -33v141l143 41l33 455h-565v-496h143v-108h-467z" />
<glyph unicode="I" horiz-adv-x="716" d="M4 1313l35 73l596 72v-176l-246 -8v-1120h246l74 -144l-670 -35v179h211v1130z" />
<glyph unicode="J" horiz-adv-x="901" d="M12 395h109q2 -12 9 -34.5t37 -78t69.5 -98.5t113.5 -77.5t164 -34.5q212 23 212 690q0 37 -1 76q-4 262 -31 489h-645l35 107h754l11 -79q7 -50 18.5 -196.5t13.5 -279.5v-32q0 -121 -14 -265q-15 -164 -52 -284t-113.5 -205t-187.5 -93q-48 -7 -90 -7q-39 0 -74 6 q-72 13 -124 47t-90 78t-61.5 92t-37.5 88t-21 65z" />
<glyph unicode="K" d="M2 154h180l35 1179h-106v109h428v-144h-144v-499l467 499h-110l36 109h429v-109h-179l-573 -641l504 -467l211 -36v-107h-283l-539 500l-34 -393h180l35 -142l-502 -35z" />
<glyph unicode="L" horiz-adv-x="1034" d="M4 143h184l35 1160l-219 38l41 70l508 35l33 -143h-178l-39 -1160h512l-41 181h143l41 -324h-979z" />
<glyph unicode="M" horiz-adv-x="1525" d="M6 0v143h217l41 1188h-184v103h289l465 -789l321 789h356v-144h-243v-1116h104v-174h-432v174h215l-33 827l-217 -569h-141l-356 684v-973h174v-143h-576z" />
<glyph unicode="N" horiz-adv-x="1320" d="M4 0l539 -23v129h-178l30 1043l537 -1149h379v178h-129l-72 1102l145 51v127l-284 -22l33 -1176l-568 1126h-358v-106h180l-41 -1174l-213 -24v-82z" />
<glyph unicode="O" horiz-adv-x="1187" d="M10 631q-2 35 -2 69q0 136 39 258q49 154 135 252.5t179.5 156.5t177.5 71q37 5 73 4q202 0 366 -147q194 -173 193 -455q0 -213 -71.5 -408.5t-195.5 -316.5t-263 -121q-254 0 -429 155.5t-202 481.5zM152 666q27 -250 151.5 -390.5t269.5 -140.5q66 0 156 67.5t167 170 t120 239.5q27 87 27 170q0 47 -9 92q-20 113 -69.5 202t-109.5 137.5t-128 78.5q-60 27 -111 27h-14q-57 -4 -102 -21q-43 -14 -103.5 -65t-122 -130t-98.5 -197q-28 -88 -28 -179q1 -30 4 -61z" />
<glyph unicode="P" horiz-adv-x="1187" d="M6 1434q375 19 607.5 19t322.5 -19q106 -35 173 -171q55 -113 55 -238q0 -25 -2 -50q-13 -152 -115 -219q-82 -49 -236 -77t-266 -32l-113 -2l41 -502h109l30 -143h-462l30 143h180l-143 1114h-178zM397 1290l76 -502q49 0 123 2.5t210 19.5t167 48q37 39 48 112 q4 25 4 51q0 50 -14 102q-22 81 -75 134q-45 33 -180 41q-68 4 -130 4.5t-118 -4.5z" />
<glyph unicode="Q" horiz-adv-x="1208" d="M4 698q-2 29 -2 57q0 142 44 264q52 146 138 233t179.5 135.5t175.5 48.5q242 0 440.5 -194.5t198.5 -471.5q6 -51 6 -99q0 -270 -185 -470l205 -174l-106 -39l-178 106q-113 -106 -277 -106q-123 16 -226.5 59t-193.5 123t-147.5 214t-71.5 314zM150 698 q23 -246 151.5 -408.5t271.5 -195.5q78 0 250 107l-108 110l71 33l62 -72q115 106 164 256q29 90 29 181q0 61 -13 122q-23 135 -89.5 243t-145 164t-154.5 80q-47 15 -86 15q-23 0 -43 -6q-45 -16 -104.5 -66.5t-123 -127t-102.5 -193.5q-32 -96 -32 -198z" />
<glyph unicode="R" horiz-adv-x="1239" d="M6 -16v129l215 32l-39 1137l-176 41v107q319 13 540.5 13t344.5 -13q88 -12 165 -128t113.5 -257.5t53.5 -275.5q6 -47 5 -83q0 -68 -20 -100q-59 -100 -299 -142l-18 -2l98 -286h180l39 -140l-428 -39l-37 144l111 35l-111 286h-381l-36 -297l202 -8v-114zM291 1249 l71 -663q55 -4 141 -9q22 -1 50 -2q79 0 206 11q171 14 230 63q72 33 75 174v15q0 133 -51 260q-54 133 -122 151q-66 33 -216.5 33t-266.5 -16z" />
<glyph unicode="S" d="M10 84l39 326h146l-25 -70q90 -184 461 -184q127 0 217 52t123 124q30 66 30 132q0 6 -1 12q-3 73 -44 114q-31 49 -146.5 71.5t-288.5 55.5t-294 96q-92 53 -147 152q-58 104 -59 203q0 93 69 167q72 78 213 92q108 14 213 14q206 0 406 -52v112l116 -6l-26 -285 l-92 -36v108q-6 0 -133.5 16.5t-231.5 24.5q-42 3 -79 3q-56 0 -103 -7q-55 -14 -101.5 -63.5t-65.5 -112.5q-8 -25 -8 -51q0 -41 19 -84q31 -72 119 -123q106 -39 292.5 -61.5t315.5 -60.5t193 -136q27 -62 27 -130q0 -67 -26 -140q-52 -146 -182.5 -253.5t-287.5 -126.5 q-246 0 -510 179l-39 -72h-109z" />
<glyph unicode="T" d="M8 1094l109 39v141h424l32 -1133l-200 -4l-8 -137h565l8 96l-219 8v1170l352 33l35 -138h102l-30 283l-1170 -41v-317z" />
<glyph unicode="U" horiz-adv-x="1392" d="M4 1403h492v-105l-177 -34q-6 -37 -13 -100.5t-16 -229.5q-5 -88 -5 -167q0 -70 4 -133q8 -134 51 -263t123 -168q133 -68 256 -77q27 -2 52 -2q89 0 152 26q81 33 138 92q63 45 81 309q10 155 10 302q0 104 -5 204l-14 241h-105v140h354v-140h-108q35 -850 35 -989 q0 -125 -142.5 -209t-349.5 -108q-48 -9 -109 -9q-25 0 -53 2q-94 5 -181 20t-160.5 58t-100.5 105q-31 78 -40 352q-5 145 -5 279q0 119 4 229l6 236l-166 4z" />
<glyph unicode="V" horiz-adv-x="1167" d="M6 1276v104l393 72v-143h-145l321 -1002l291 969l-71 33v110h356v-110h-72l-536 -1325h-72l-321 1292h-144z" />
<glyph unicode="W" horiz-adv-x="1699" d="M4 1280l35 139h461v-139l-144 -35l281 -989l248 633l178 35l209 -490l178 811h-178v139l391 35l35 -139h-109l-243 -1307h-109l-248 674l-317 -639h-172l-353 1272h-143z" />
<glyph unicode="X" horiz-adv-x="1331" d="M49 1298v136h418v-136h-98l307 -493l285 493h-142v101l492 35v-103l-144 -33l-417 -565l380 -624h113l-4 -109h-385l4 100l103 9l-285 524l-279 -527h115l-8 -106h-416l4 131l131 16l352 553l-423 598h-103z" />
<glyph unicode="Y" horiz-adv-x="1208" d="M4 1329v105l395 39l35 -144h-143l323 -541l250 504h-69l34 142h361v-105l-111 -37l-393 -684v-465l143 -34v-111h-538v111l254 34v465l-395 684z" />
<glyph unicode="Z" horiz-adv-x="1167" d="M6 0h1077l68 242h-135l-39 -105l-760 37l830 1038l36 242l-1077 -31v-245l174 -33v135h729l-903 -1106v-174z" />
<glyph unicode="a" horiz-adv-x="1003" d="M50 162q-39 73 -39 145q0 90 61 180q66 102 208 143q107 30 201 30q32 0 62 -4q121 -13 159 -52q-12 63 -40.5 103.5t-63.5 52.5t-76 17q-19 2 -37 3q-22 0 -43 -4q-111 -6 -237 -98l-133 31q6 8 16 20t47 43t80 55.5t112.5 44t147.5 19.5q193 0 279 -91t86 -241l-9 -424 l115 -10l37 -113l-291 -12v150q0 -20 -23.5 -49t-65.5 -58t-110 -46q-56 -14 -118 -14q-14 0 -29 1q-209 14 -296 178zM140 288q0 -76 62 -130q62 -55 171 -56q133 0 234 105q90 93 91 183q0 11 -2 22q-6 53 -58 90t-123 47q-19 3 -38 3q-55 0 -120 -22q-87 -29 -152 -96 t-65 -146z" />
<glyph unicode="b" horiz-adv-x="1044" d="M8 1346l37 102h244q0 -383 37 -664q111 63 218 74q25 2 48 2q78 0 139 -25q80 -34 136.5 -83.5t84.5 -106.5q41 -84 63 -169q12 -46 11 -99q0 -46 -8 -98q-18 -113 -98 -195q-78 -76 -279 -93q-92 -8 -176 -8q-99 0 -186 11l-164 20l-37 107h141l-72 1225h-139zM326 645 q0 -492 32 -524q27 -27 150 -27t201 27q74 16 131 76.5t75 149.5q5 23 5 47q0 70 -39 149q-80 164 -225 195q-29 6 -60 7q-121 0 -270 -100z" />
<glyph unicode="c" horiz-adv-x="901" d="M17 487q9 92 41 172t113 144.5t198 91.5q62 14 120 14q109 0 207 -49v105l117 -33v-293h-117v72q-16 12 -43.5 29.5t-104.5 39.5q-44 13 -85 13q-30 0 -57 -7q-121 -33 -204 -153q-61 -88 -61 -180q0 -34 9 -68q29 -119 130 -206t232 -87q70 0 121 18.5t75.5 44t40 52 t17.5 45.5l2 18h113q0 -10 -2 -26.5t-15.5 -60.5t-38 -80.5t-77 -73.5t-121.5 -52q-52 -11 -104 -10q-136 0 -266 75q-179 103 -222 269q-20 62 -20 130q0 22 2 46z" />
<glyph unicode="d" horiz-adv-x="1085" d="M14 326q-5 38 -5 75q0 148 80 272q99 155 278 181q73 8 129 8q53 0 91 -7q79 -15 107 -44l29 -27v527h-176v104l280 39l72 -1341h137l39 -74l-284 -31l-35 31q-104 -70 -320 -70q-147 0 -271 92.5t-151 264.5zM123 325q16 -89 67 -141q96 -96 290 -101h18q180 0 258 101 q0 317 -33 455q-55 111 -224 128q-24 2 -47 2q-137 0 -225 -89q-68 -72 -94 -169q-16 -60 -16 -117q0 -35 6 -69z" />
<glyph unicode="e" horiz-adv-x="901" d="M14 525q10 85 47 164t124 136.5t216 67.5q28 2 56 2q84 0 153 -24q92 -32 142.5 -85t83 -107t41.5 -93l10 -39l-731 -139q0 -127 114 -228q100 -88 232 -88q19 0 39 2q68 6 117 23.5t71.5 37t35.5 39t13 31.5l2 13h107q0 -10 -2 -26.5t-18.5 -58.5t-46 -75t-95.5 -59.5 t-154 -26.5q-229 0 -357 87t-165 191q-23 35 -34 103q-6 35 -6 75q0 37 5 77zM156 514l555 102q-4 8 -12.5 23.5t-37 53.5t-61.5 65.5t-87 48.5q-45 17 -93 17q-9 0 -19 -1q-127 -10 -186 -95t-59 -214z" />
<glyph unicode="f" horiz-adv-x="819" d="M10 0v109l213 32l-26 441l-187 -13v142l213 34v308q0 41 1 65.5t7.5 70.5t22.5 80t42 71.5t71 65.5t104 44q30 4 57 4q46 0 84 -11q61 -17 92 -51t51.5 -68t26.5 -58l4 -27q-39 -20 -77 -37q-33 86 -111 119q-39 16 -76 16t-72 -16q-71 -33 -88 -119q-16 -78 -21 -192 q-3 -64 -3 -116q0 -41 2 -75l2 -78l231 41v-143l-247 -33l36 -465l179 -32v-109h-531z" />
<glyph unicode="g" horiz-adv-x="962" d="M8 625q4 39 21 82q33 84 100.5 132t153.5 57q28 3 56 3q60 0 125 -13q95 -19 185 -65q12 29 36 53.5t40 34.5l16 11l86 -7l-57 -147q57 -55 57 -180q0 -256 -264 -295q-152 0 -207 31q-6 -4 -14 -9.5t-22.5 -23t6.5 -31.5q31 -27 57 -27q58 10 118 11q116 0 240 -39 q70 -23 123.5 -88.5t71.5 -144.5q6 -24 6 -49q0 -56 -29 -115q-41 -85 -143 -136q-141 -73 -265 -73q-22 0 -44 3q-143 15 -242.5 93t-130.5 184q-3 23 -3 44q0 40 10 76q15 54 43 86t56.5 53.5t49.5 29.5l20 8q-37 43 -37 89q0 50 37 87q-14 6 -47 21.5t-52.5 26t-50 28.5 t-47 34.5t-35 43t-23.5 54.5q-3 15 -3 34q0 16 2 33zM209 496q47 -47 181 -72q52 -10 98 -10q73 0 133 24q76 39 76 113q0 11 -2 23q-13 91 -103 159q-31 25 -105 41q-51 11 -107 12q-24 0 -49 -3q-83 -7 -122 -50q-56 -65 -56 -124t56 -113zM236 -123q43 -111 146 -149 q50 -19 108 -19q61 0 131 21q214 62 214 207q0 27 -8 57q-18 53 -62 91t-134 56q-25 5 -52 5q-73 0 -167 -35q-100 -23 -159 -87q-34 -38 -34 -82q0 -31 17 -65z" />
<glyph unicode="h" horiz-adv-x="1064" d="M6 -4v104l139 35v1213l-139 -35v104l311 35l-34 -590q98 66 225 66t219 -49.5t111 -118.5q16 -61 33.5 -218t25.5 -282l10 -125h137v-104l-276 -35q0 485 -70 694q-25 74 -94 101q-45 17 -91 17q-25 0 -49 -5q-71 -14 -126 -55t-55 -93v-520h139v-139h-416z" />
<glyph unicode="i" horiz-adv-x="471" d="M10 -2l37 135h123l39 645h-141v101l286 8l-37 -754h89l38 -123zM177 1190q15 51 71 70q38 12 65 11q25 0 43 -9q37 -20 37 -78q0 -55 -69 -81q-32 -12 -59 -12q-32 0 -56 17q-36 23 -36 58q0 11 4 24z" />
<glyph unicode="j" horiz-adv-x="593" d="M8 -125l133 47q-4 -2 9.5 -50t48 -96t80.5 -48q121 0 120 227v833h-127v97h254q6 -803 6 -930q0 -174 -51 -264t-202 -90q-63 0 -114.5 28.5t-79.5 68.5t-46.5 80t-24.5 68zM348 1198q20 39 70 39q76 0 113 -32q23 -19 23 -50q0 -20 -9 -45q-25 -56 -88 -56q-4 0 -8 1 q-70 4 -97 55q-13 27 -13 51q0 19 9 37z" />
<glyph unicode="k" horiz-adv-x="1105" d="M8 -2l39 139h141v1172l-141 -43l37 143l287 39l-33 -795l215 140h-72l39 110h363l32 -123l-182 13l-284 -252l434 -404l215 39l-33 -178h-254l-473 432v-293h182l33 -139h-545z" />
<glyph unicode="l" horiz-adv-x="512" d="M6 1311v106h359l-37 -1274h143v-143h-428v143h107l34 1168h-178z" />
<glyph unicode="m" horiz-adv-x="1540" d="M4 0v150h178l-30 614h-148v119l254 30l43 -73q35 37 134 48q35 4 72 4q66 0 135 -13q108 -20 157 -72q70 74 194 86q21 2 41 2q103 0 199 -52q115 -62 149 -184q18 -96 29.5 -223t13.5 -207v-79l107 -31v-119h-254q0 444 -43 659q-35 106 -131 131q-27 7 -54 6 q-66 0 -125 -42q-83 -59 -83 -162l24 -473h191v-142h-332q0 393 -31 639q0 102 -93 150q-60 31 -120 30q-33 0 -65 -9q-92 -26 -92 -97q-10 -66 -10.5 -201t5.5 -237l5 -102h192l72 -150h-584z" />
<glyph unicode="n" horiz-adv-x="1024" d="M4 815l293 37v-37q41 41 116.5 67.5t157.5 27.5h4q80 0 151 -49q73 -50 99 -150q35 -129 53.5 -271.5t20.5 -220.5l2 -78h105v-141h-252q0 426 -33 643q-14 74 -75 108q-51 29 -107 28q-10 0 -21 -1q-68 -6 -124 -34.5t-64 -67.5q-14 -70 -22.5 -195t-8.5 -215l-2 -92 l104 -33v-141h-323l-31 141h107v584l-107 -14z" />
<glyph unicode="o" horiz-adv-x="880" d="M8 422q-1 16 -1 32q0 140 111 266q124 140 279 165q44 8 86 8q119 0 217 -70q133 -94 162 -301q5 -38 5 -75q0 -170 -101 -307q-109 -149 -284 -148q-21 0 -44 2q-203 0 -308.5 116.5t-121.5 311.5zM156 391q29 -131 117 -198q75 -57 164 -58q16 0 32 2q119 14 197 110 q62 75 61 186q0 29 -4 61q-33 133 -128 220q-74 68 -153 68q-22 0 -45 -6q-127 -29 -196 -141q-51 -83 -52 -177q1 -33 7 -67z" />
<glyph unicode="p" horiz-adv-x="1003" d="M4 -584l139 -16l35 1386h-174l35 107l244 33l30 -103q137 60 253 61q231 0 378 -239q35 -57 43 -166q2 -28 2 -56q0 -81 -17 -164q-24 -112 -104 -193.5t-202 -81.5q-88 0 -160 14t-112 35.5t-66.5 42t-36.5 35.5l-8 14v-729h170l-35 -109h-414v129zM297 497 q-1 -19 -1 -38q0 -38 3 -77q4 -58 14 -97q14 -51 96.5 -102.5t176.5 -66.5q26 -4 50 -4q65 0 120 29q94 61 107 215q2 24 2 47q0 123 -60 209q-92 138 -296 138q-87 0 -196 -25q0 -2 -4 -37t-7 -85t-5 -106z" />
<glyph unicode="q" horiz-adv-x="1003" d="M4 458q-3 -34 -3 -67q0 -77 16 -151q24 -106 104 -181t205 -75q90 0 162.5 14t112.5 35.5t66.5 43t37.5 36.5l8 14v-717l-172 -20l34 -109h418v115l-141 12l-35 1385h176l-35 108l-245 33l-31 -103q-135 61 -245 62q-19 0 -37 -2q-124 -12 -205.5 -72.5t-137.5 -167.5 q-43 -81 -53 -193zM108 346q-2 16 -2 32q0 110 80 240q109 164 323 165q79 0 173 -23q14 -167 14 -286t-14 -189q-23 -104 -189 -151q-66 -18 -123 -18q-85 0 -149 42q-100 65 -113 188z" />
<glyph unicode="r" horiz-adv-x="819" d="M10 819l39 76l184 39l39 -76q111 65 213 65q17 0 33 -1q117 -12 191.5 -52.5t99.5 -85.5l-117 -75q-35 72 -120 90q-28 6 -55 6q-56 0 -108 -26q-79 -38 -100 -111q-16 -70 -16 -203t8 -232l8 -98h226l38 -135h-524v135h111v684h-150z" />
<glyph unicode="s" horiz-adv-x="778" d="M6 31l10 256h107v-78q37 -39 135 -74q88 -31 183 -31h22q106 4 143 70q19 43 19 77q0 50 -41 82q-70 52 -283 101q-106 25 -169.5 88.5t-71.5 131.5q-1 8 0 17q0 60 46 115q53 63 158 91q82 16 155 16t135 -8t85 -8v75l106 -6l-10 -254l-96 -39v82q-29 33 -156 40 q-17 1 -33 1q-106 0 -186 -41q-53 -20 -61 -58l-2 -14q0 -31 31 -62q38 -38 112 -56q344 -59 401 -219q12 -39 17 -82q1 -10 1 -21q0 -34 -10 -71q-13 -49 -44 -86t-98 -59q-48 -16 -111 -15q-24 0 -49 2q-221 16 -328 74v-74z" />
<glyph unicode="t" horiz-adv-x="819" d="M6 782v111l187 35v286l141 121v-407l252 35l41 -113l-293 -27v-366q0 -63 5 -107.5t19.5 -92.5t47 -80t83.5 -44q28 -6 52 -6q14 0 27 2q34 6 58.5 23.5t41 37t24.5 33.5l6 15l109 -39q-2 -8 -6 -22.5t-22.5 -51.5t-44 -65.5t-75 -51t-110.5 -22.5q-160 0 -247 90 t-109 274q-6 47 -6.5 120t3 169t3.5 143h-187z" />
<glyph unicode="u" horiz-adv-x="1105" d="M4 776v105l293 37q0 -510 37 -652q25 -98 87 -135t157 -37q86 0 137 51.5t51 157.5v506h-107v109h254v-799l146 -37l37 -105h-219l-37 37q-106 -37 -291 -37q-168 0 -252 46.5t-111 169.5q-14 63 -14 209.5t8 261.5l6 112h-182z" />
<glyph unicode="v" horiz-adv-x="901" d="M4 893h371l8 -115l-115 8l213 -573l113 573l-47 5l8 102l330 -12l-33 -95h-119l-178 -786l-174 -12l-258 798l-111 11z" />
<glyph unicode="w" horiz-adv-x="1269" d="M6 762v104l383 39v-143h-102l69 -590l205 487h176l105 -487l141 590h-102v104l385 8l-9 -112h-133l-180 -762h-168l-141 518l-176 -518l-172 -6l-105 768h-176z" />
<glyph unicode="x" horiz-adv-x="901" d="M49 -2v108l86 21l238 299l-217 354h-107v97l324 12l8 -105l-115 -4l209 -282l193 250l-107 4v137h324l4 -133l-111 -8l-217 -312l219 -305h103l-6 -123h-281l-35 84l107 27l-211 246l-217 -246l94 -10v-111h-285z" />
<glyph unicode="y" d="M4 -578h191l337 578l-380 766l-148 37v76l496 34v-147h-191l303 -619l271 619h-113v113l455 34v-147h-195l-721 -1454h-305v110z" />
<glyph unicode="z" horiz-adv-x="860" d="M6 674l39 217h807v-146l-625 -626h518v74l107 -35v-185l-807 35v111l590 626h-477v-71h-152z" />
<glyph unicode="&#xaa;" horiz-adv-x="1003" d="M50 162q-39 73 -39 145q0 90 61 180q66 102 208 143q107 30 201 30q32 0 62 -4q121 -13 159 -52q-12 63 -40.5 103.5t-63.5 52.5t-76 17q-19 2 -37 3q-22 0 -43 -4q-111 -6 -237 -98l-133 31q6 8 16 20t47 43t80 55.5t112.5 44t147.5 19.5q193 0 279 -91t86 -241l-9 -424 l115 -10l37 -113l-291 -12v150q0 -20 -23.5 -49t-65.5 -58t-110 -46q-56 -14 -118 -14q-14 0 -29 1q-209 14 -296 178zM140 288q0 -76 62 -130q62 -55 171 -56q133 0 234 105q90 93 91 183q0 11 -2 22q-6 53 -58 90t-123 47q-19 3 -38 3q-55 0 -120 -22q-87 -29 -152 -96 t-65 -146z" />
<glyph unicode="&#xb2;" horiz-adv-x="1024" d="M14 176q47 37 124 96.5t240 211t243 261.5q88 121 99 247t-53.5 214t-187.5 107q-86 18 -150.5 8t-110.5 -41t-74.5 -63.5t-41.5 -57.5l-14 -26l-74 110q6 10 17.5 26.5t51.5 56.5t86 69.5t119.5 49t153.5 9.5q141 0 246 -65.5t152 -165t47 -219t-53 -226.5 q-80 -125 -230.5 -284.5t-261.5 -255.5l-111 -99h603v176l176 39l-33 -354h-922z" />
<glyph unicode="&#xb3;" horiz-adv-x="1024" d="M12 328l103 32q6 -6 55 -58t76.5 -77.5t80 -59.5t99.5 -44q119 -35 237.5 19.5t180 166t26.5 225.5q-78 188 -405 234l-111 8l346 516h-618l-35 140h897l-313 -551q12 -2 30.5 -8.5t70.5 -32t95 -57t87 -89t63 -125.5q16 -61 18 -128.5t-13 -136.5t-53 -129t-94.5 -105 t-143.5 -69t-195 -15q-90 0 -165 24.5t-120 54t-89 87t-61.5 88.5t-48.5 90z" />
<glyph unicode="&#xb9;" horiz-adv-x="696" d="M10 1165h246v-1015l-211 36v-176l631 -37v177h-211l-70 1298h-139q-16 -31 -77.5 -84t-115.5 -90l-53 -37v-72z" />
<glyph unicode="&#xba;" horiz-adv-x="880" d="M8 422q-1 16 -1 32q0 140 111 266q124 140 279 165q44 8 86 8q119 0 217 -70q133 -94 162 -301q5 -38 5 -75q0 -170 -101 -307q-109 -149 -284 -148q-21 0 -44 2q-203 0 -308.5 116.5t-121.5 311.5zM156 391q29 -131 117 -198q75 -57 164 -58q16 0 32 2q119 14 197 110 q62 75 61 186q0 29 -4 61q-33 133 -128 220q-74 68 -153 68q-22 0 -45 -6q-127 -29 -196 -141q-51 -83 -52 -177q1 -33 7 -67z" />
<glyph unicode="&#x152;" horiz-adv-x="2273" d="M1196 -14v141h178l-36 1141h-109l37 108l930 74l69 -287l-141 -35v140l-643 -31v-537l430 35v-182l-430 -31v-360h643v69h108v-213zM10 631q-2 35 -2 69q0 136 39 258q49 154 135 252.5t179.5 156.5t177.5 71q37 5 73 4q202 0 366 -147q194 -173 193 -455 q0 -213 -71.5 -408.5t-195.5 -316.5t-263 -121q-254 0 -429 155.5t-202 481.5zM152 666q27 -250 151.5 -390.5t269.5 -140.5q66 0 156 67.5t167 170t120 239.5q27 87 27 170q0 47 -9 92q-20 113 -69.5 202t-109.5 137.5t-128 78.5q-60 27 -111 27h-14q-57 -4 -102 -21 q-43 -14 -103.5 -65t-122 -130t-98.5 -197q-28 -88 -28 -179q1 -30 4 -61z" />
<glyph unicode="&#x153;" horiz-adv-x="1781" d="M895 525q10 85 47 164t124 136.5t216 67.5q28 2 56 2q84 0 153 -24q92 -32 142.5 -85t83 -107t41.5 -93l10 -39l-731 -139q0 -127 114 -228q100 -88 232 -88q19 0 39 2q68 6 117 23.5t71.5 37t35.5 39t13 31.5l2 13h107q0 -10 -2 -26.5t-18.5 -58.5t-46 -75t-95.5 -59.5 t-154 -26.5q-229 0 -357 87t-165 191q-23 35 -34 103q-6 35 -6 75q0 37 5 77zM1037 514l555 102q-4 8 -12.5 23.5t-37 53.5t-61.5 65.5t-87 48.5q-45 17 -93 17q-9 0 -19 -1q-127 -10 -186 -95t-59 -214zM8 422q-1 16 -1 32q0 140 111 266q124 140 279 165q44 8 86 8 q119 0 217 -70q133 -94 162 -301q5 -38 5 -75q0 -170 -101 -307q-109 -149 -284 -148q-21 0 -44 2q-203 0 -308.5 116.5t-121.5 311.5zM156 391q29 -131 117 -198q75 -57 164 -58q16 0 32 2q119 14 197 110q62 75 61 186q0 29 -4 61q-33 133 -128 220q-74 68 -153 68 q-22 0 -45 -6q-127 -29 -196 -141q-51 -83 -52 -177q1 -33 7 -67z" />
<glyph unicode="&#x2000;" horiz-adv-x="790" />
<glyph unicode="&#x2001;" horiz-adv-x="1583" />
<glyph unicode="&#x2002;" horiz-adv-x="790" />
<glyph unicode="&#x2003;" horiz-adv-x="1583" />
<glyph unicode="&#x2004;" horiz-adv-x="526" />
<glyph unicode="&#x2005;" horiz-adv-x="395" />
<glyph unicode="&#x2006;" horiz-adv-x="262" />
<glyph unicode="&#x2007;" horiz-adv-x="262" />
<glyph unicode="&#x2008;" horiz-adv-x="196" />
<glyph unicode="&#x2009;" horiz-adv-x="315" />
<glyph unicode="&#x200a;" horiz-adv-x="86" />
<glyph unicode="&#x2013;" horiz-adv-x="1024" d="M205 512v205h614v-205h-614z" />
<glyph unicode="&#x2014;" horiz-adv-x="2048" d="M205 512v205h1638v-205h-1638z" />
<glyph unicode="&#x2018;" horiz-adv-x="307" d="M61 1434q6 10 21 30q63 92 160 92l-9 -59q-39 -2 -59 -37q27 -4 51.5 -27.5t26.5 -52.5q8 -51 -30 -73.5t-91 -12.5q-131 34 -70 140z" />
<glyph unicode="&#x2019;" horiz-adv-x="307" d="M59 1442q-25 47 3 80.5t81 42.5q63 8 93 -18.5t22 -86.5q-2 -12 -8 -37q-27 -106 -117 -143l-14 59q37 16 43 56q-27 -4 -58 9t-45 38z" />
<glyph unicode="&#x201c;" horiz-adv-x="552" d="M61 1434q6 10 21 30q63 92 160 92l-9 -59q-39 -2 -59 -37q27 -4 51.5 -27.5t26.5 -52.5q8 -51 -30 -73.5t-91 -12.5q-131 34 -70 140zM311 1415q6 10 21 31q63 92 160 92l-9 -59q-39 -2 -59 -37q27 -4 51.5 -27.5t26.5 -52.5q8 -51 -30 -73.5t-91 -12.5q-131 33 -70 139z " />
<glyph unicode="&#x201d;" horiz-adv-x="552" d="M59 1442q-25 47 3 80.5t81 42.5q63 8 93 -18.5t22 -86.5q-2 -12 -8 -37q-27 -106 -117 -143l-14 59q37 16 43 56q-27 -4 -58 9t-45 38zM309 1460q-25 47 3 81t81 42q63 8 93 -18.5t22 -85.5q-2 -12 -8 -37q-27 -106 -117 -144l-14 60q37 16 43 55q-27 -4 -58 9t-45 38z " />
<glyph unicode="&#x2026;" horiz-adv-x="0" d="M42 109.5q-3 35.5 19.5 58t69.5 45.5q53 25 116.5 -1t63.5 -91q0 -63 -95 -95t-128 5q-43 43 -46 78.5z" />
<glyph unicode="&#x202f;" horiz-adv-x="315" />
<glyph unicode="&#x205f;" horiz-adv-x="395" />
<glyph unicode="&#x2122;" horiz-adv-x="2754" d="M1235 0v143h217l41 1188h-184v103h289l465 -789l321 789h356v-144h-243v-1116h104v-174h-432v174h215l-33 827l-217 -569h-141l-356 684v-973h174v-143h-576zM8 1094l109 39v141h424l32 -1133l-200 -4l-8 -137h565l8 96l-219 8v1170l352 33l35 -138h102l-30 283 l-1170 -41v-317z" />
<glyph unicode="&#xe000;" horiz-adv-x="890" d="M0 890h890v-890h-890v890z" />
<glyph unicode="&#xfb01;" horiz-adv-x="1290" d="M829 -2l37 135h123l39 645h-141v101l286 8l-37 -754h89l38 -123zM996 1190q15 51 71 70q38 12 65 11q25 0 43 -9q37 -20 37 -78q0 -55 -69 -81q-32 -12 -59 -12q-32 0 -56 17q-36 23 -36 58q0 11 4 24zM10 0v109l213 32l-26 441l-187 -13v142l213 34v308q0 41 1 65.5 t7.5 70.5t22.5 80t42 71.5t71 65.5t104 44q30 4 57 4q46 0 84 -11q61 -17 92 -51t51.5 -68t26.5 -58l4 -27q-39 -20 -77 -37q-33 86 -111 119q-39 16 -76 16t-72 -16q-71 -33 -88 -119q-16 -78 -21 -192q-3 -64 -3 -116q0 -41 2 -75l2 -78l231 41v-143l-247 -33l36 -465 l179 -32v-109h-531z" />
<glyph unicode="&#xfb02;" horiz-adv-x="1331" d="M825 1311v106h359l-37 -1274h143v-143h-428v143h107l34 1168h-178zM10 0v109l213 32l-26 441l-187 -13v142l213 34v308q0 41 1 65.5t7.5 70.5t22.5 80t42 71.5t71 65.5t104 44q30 4 57 4q46 0 84 -11q61 -17 92 -51t51.5 -68t26.5 -58l4 -27q-39 -20 -77 -37 q-33 86 -111 119q-39 16 -76 16t-72 -16q-71 -33 -88 -119q-16 -78 -21 -192q-3 -64 -3 -116q0 -41 2 -75l2 -78l231 41v-143l-247 -33l36 -465l179 -32v-109h-531z" />
<glyph unicode="&#xfb03;" horiz-adv-x="2109" d="M1648 -2l37 135h123l39 645h-141v101l286 8l-37 -754h89l38 -123zM1815 1190q15 51 71 70q38 12 65 11q25 0 43 -9q37 -20 37 -78q0 -55 -69 -81q-32 -12 -59 -12q-32 0 -56 17q-36 23 -36 58q0 11 4 24zM829 0v109l213 32l-26 441l-187 -13v142l213 34v308q0 41 1 65.5 t7.5 70.5t22.5 80t42 71.5t71 65.5t104 44q30 4 57 4q46 0 84 -11q61 -17 92 -51t51.5 -68t26.5 -58l4 -27q-39 -20 -77 -37q-33 86 -111 119q-39 16 -76 16t-72 -16q-71 -33 -88 -119q-16 -78 -21 -192q-3 -64 -3 -116q0 -41 2 -75l2 -78l231 41v-143l-247 -33l36 -465 l179 -32v-109h-531zM10 0v109l213 32l-26 441l-187 -13v142l213 34v308q0 41 1 65.5t7.5 70.5t22.5 80t42 71.5t71 65.5t104 44q30 4 57 4q46 0 84 -11q61 -17 92 -51t51.5 -68t26.5 -58l4 -27q-39 -20 -77 -37q-33 86 -111 119q-39 16 -76 16t-72 -16q-71 -33 -88 -119 q-16 -78 -21 -192q-3 -64 -3 -116q0 -41 2 -75l2 -78l231 41v-143l-247 -33l36 -465l179 -32v-109h-531z" />
<glyph unicode="&#xfb04;" horiz-adv-x="2150" d="M1644 1311v106h359l-37 -1274h143v-143h-428v143h107l34 1168h-178zM829 0v109l213 32l-26 441l-187 -13v142l213 34v308q0 41 1 65.5t7.5 70.5t22.5 80t42 71.5t71 65.5t104 44q30 4 57 4q46 0 84 -11q61 -17 92 -51t51.5 -68t26.5 -58l4 -27q-39 -20 -77 -37 q-33 86 -111 119q-39 16 -76 16t-72 -16q-71 -33 -88 -119q-16 -78 -21 -192q-3 -64 -3 -116q0 -41 2 -75l2 -78l231 41v-143l-247 -33l36 -465l179 -32v-109h-531zM10 0v109l213 32l-26 441l-187 -13v142l213 34v308q0 41 1 65.5t7.5 70.5t22.5 80t42 71.5t71 65.5t104 44 q30 4 57 4q46 0 84 -11q61 -17 92 -51t51.5 -68t26.5 -58l4 -27q-39 -20 -77 -37q-33 86 -111 119q-39 16 -76 16t-72 -16q-71 -33 -88 -119q-16 -78 -21 -192q-3 -64 -3 -116q0 -41 2 -75l2 -78l231 41v-143l-247 -33l36 -465l179 -32v-109h-531z" />
</font>
</defs>
</svg>
