<?xml version="1.0" encoding="utf-8"?>
<!-- Generator: Adobe Illustrator 15.0.0, SVG Export Plug-In . SVG Version: 6.00 Build 0)  -->
<!DOCTYPE svg PUBLIC "-//W3C//DTD SVG 1.1//EN" "http://www.w3.org/Graphics/SVG/1.1/DTD/svg11.dtd">
<svg version="1.1" id="Layer_1" xmlns="http://www.w3.org/2000/svg" xmlns:xlink="http://www.w3.org/1999/xlink" x="0px" y="0px"
	 width="1200px" height="500px" viewBox="0 0 1200 500" enable-background="new 0 0 1200 500" xml:space="preserve">
<g id="Layer_2">
	
		<linearGradient id="SVGID_1_" gradientUnits="userSpaceOnUse" x1="974.9668" y1="-306.1831" x2="981.9667" y2="-373.1819" gradientTransform="matrix(1 0 0 -1 -256 155)">
		<stop  offset="0" style="stop-color:#FBBD46"/>
		<stop  offset="1" style="stop-color:#DEA73E"/>
	</linearGradient>
	<path fill="url(#SVGID_1_)" d="M712.159,496.574c0.69,0.016,14.39-1.396,15.081-1.38c0.462,0.011,1.246,2.895,1.869,4.806h22.005
		c-0.602-5.823-12.842-52.656-13.46-53.969c-0.659-1.398-36.957,6.752-37.169,8.477c-0.189,1.531-4.762,37.215-5.555,45.492h16.091
		C711.388,498.499,711.729,496.562,712.159,496.574z M713.116,477.741c0.534-0.681,8.48-0.841,8.841-0.833
		c0.691,0.017,5.572,5.839,4.709,5.817c-0.865-0.02-14.201,0.708-14.716,0.523S712.581,478.421,713.116,477.741z"/>
	
		<linearGradient id="SVGID_2_" gradientUnits="userSpaceOnUse" x1="1027.7646" y1="-300.667" x2="1034.7646" y2="-367.667" gradientTransform="matrix(1 0 0 -1 -256 155)">
		<stop  offset="0" style="stop-color:#FBBD46"/>
		<stop  offset="1" style="stop-color:#DEA73E"/>
	</linearGradient>
	<path fill="url(#SVGID_2_)" d="M771.207,492.381c0.527-0.333,27.421-3.858,27.803-5.407c0.383-1.548-7.859-41.353-9.564-42.431
		c-1.704-1.077-36.817-1.201-38.052-0.192c-0.495,0.405,0.433,48.318,0.98,55.649h19.493
		C771.812,497.891,770.783,492.65,771.207,492.381z M769.885,482.318c-0.511-0.358-0.889-6.422-0.186-6.925
		c0.704-0.503,11.406,0.438,12.263,0.805s1.999,3.334,1.813,3.848C783.591,480.562,770.606,482.823,769.885,482.318z"/>
	
		<linearGradient id="SVGID_3_" gradientUnits="userSpaceOnUse" x1="1076.7305" y1="-295.5513" x2="1083.7305" y2="-362.5512" gradientTransform="matrix(1 0 0 -1 -256 155)">
		<stop  offset="0" style="stop-color:#FBBD46"/>
		<stop  offset="1" style="stop-color:#DEA73E"/>
	</linearGradient>
	<path fill="url(#SVGID_3_)" d="M820.707,492.381c0.527-0.333,27.421-3.858,27.803-5.407c0.383-1.548-7.859-41.353-9.564-42.431
		c-1.704-1.077-36.817-1.201-38.052-0.192c-0.495,0.405,0.433,48.318,0.98,55.649h19.493
		C821.312,497.891,820.283,492.65,820.707,492.381z M819.385,482.318c-0.511-0.358-0.889-6.422-0.186-6.925
		c0.704-0.503,11.406,0.438,12.263,0.805s1.999,3.334,1.813,3.848C833.091,480.562,820.106,482.823,819.385,482.318z"/>
	
		<linearGradient id="SVGID_4_" gradientUnits="userSpaceOnUse" x1="1088.7627" y1="-294.2969" x2="1095.7622" y2="-361.2919" gradientTransform="matrix(1 0 0 -1 -256 155)">
		<stop  offset="0" style="stop-color:#FBBD46"/>
		<stop  offset="1" style="stop-color:#DEA73E"/>
	</linearGradient>
	<polygon fill="url(#SVGID_4_)" points="839.25,487.75 847,500 832.25,500 828,489.25 	"/>
	<g>
		
			<linearGradient id="SVGID_5_" gradientUnits="userSpaceOnUse" x1="1117.5693" y1="-291.2842" x2="1124.5692" y2="-358.2826" gradientTransform="matrix(1 0 0 -1 -256 155)">
			<stop  offset="0" style="stop-color:#FBBD46"/>
			<stop  offset="1" style="stop-color:#DEA73E"/>
		</linearGradient>
		<path fill="url(#SVGID_5_)" d="M877.25,458.75l-26.25,3c-1,0.5,1.25,38.25,1.25,38.25H882C882,500,878.274,459.979,877.25,458.75z
			"/>
		
			<linearGradient id="SVGID_6_" gradientUnits="userSpaceOnUse" x1="1118.8125" y1="-291.1543" x2="1125.813" y2="-358.1594" gradientTransform="matrix(1 0 0 -1 -256 155)">
			<stop  offset="0" style="stop-color:#FBBD46"/>
			<stop  offset="1" style="stop-color:#DEA73E"/>
		</linearGradient>
		<path fill="url(#SVGID_6_)" d="M876.25,456c1.25-0.5-0.5-12.25-1.5-12.25s-21.75,1.5-22.75,2s-1.75,9.75-1.25,10.5
			C851.338,457.133,875,456.5,876.25,456z"/>
	</g>
	
		<linearGradient id="SVGID_7_" gradientUnits="userSpaceOnUse" x1="1159.0176" y1="-286.9531" x2="1166.0177" y2="-353.9542" gradientTransform="matrix(1 0 0 -1 -256 155)">
		<stop  offset="0" style="stop-color:#FBBD46"/>
		<stop  offset="1" style="stop-color:#DEA73E"/>
	</linearGradient>
	<path fill="url(#SVGID_7_)" d="M883.25,443.25C882.5,444,886,500,886,500h43.5c0,0,1.5-19,0.5-19s-23,2.25-23,2.25
		s0.25-36.5-1-37.25S884,442.5,883.25,443.25z"/>
	
		<linearGradient id="SVGID_8_" gradientUnits="userSpaceOnUse" x1="1222.9209" y1="-280.2778" x2="1229.9208" y2="-347.2768" gradientTransform="matrix(1 0 0 -1 -256 155)">
		<stop  offset="0" style="stop-color:#FBBD46"/>
		<stop  offset="1" style="stop-color:#DEA73E"/>
	</linearGradient>
	<path fill="url(#SVGID_8_)" d="M949,443.5c-0.75,0.25,34.5-2.75,41,14S978.25,486,978.25,486s16.5-1.75,17.5-1s1,15,1,15h-47
		c0,0,1-19.5,1.75-20s21.25-8.25,17.75-14s-15.5-3-16.75-3S949,443.5,949,443.5z"/>
	
		<linearGradient id="SVGID_9_" gradientUnits="userSpaceOnUse" x1="1324.3438" y1="-269.6807" x2="1331.3438" y2="-336.6807" gradientTransform="matrix(1 0 0 -1 -256 155)">
		<stop  offset="0" style="stop-color:#FBBD46"/>
		<stop  offset="1" style="stop-color:#DEA73E"/>
	</linearGradient>
	<path fill="url(#SVGID_9_)" d="M1064.688,473.621c-0.351,0.116,16.107-1.284,19.144,6.536c3.034,7.819-5.486,13.307-5.486,13.307
		s7.703-0.816,8.17-0.467c0.469,0.351,0.469,7.003,0.469,7.003h-21.943c0,0,0.466-9.104,0.816-9.338
		c0.35-0.232,9.921-3.853,8.286-6.536c-1.634-2.685-7.235-1.401-7.82-1.401S1064.688,473.621,1064.688,473.621z"/>
	
		<linearGradient id="SVGID_10_" gradientUnits="userSpaceOnUse" x1="1386.0127" y1="-263.2397" x2="1393.0125" y2="-330.2375" gradientTransform="matrix(1 0 0 -1 -256 155)">
		<stop  offset="0" style="stop-color:#FBBD46"/>
		<stop  offset="1" style="stop-color:#DEA73E"/>
	</linearGradient>
	<path fill="url(#SVGID_10_)" d="M1127.03,473.621c-0.352,0.116,16.107-1.284,19.143,6.536c3.035,7.819-5.485,13.307-5.485,13.307
		s7.702-0.816,8.171-0.467c0.467,0.351,0.467,7.003,0.467,7.003h-21.943c0,0,0.468-9.104,0.817-9.338
		c0.349-0.232,9.921-3.853,8.286-6.536c-1.634-2.685-7.236-1.401-7.82-1.401S1127.03,473.621,1127.03,473.621z"/>
	
		<linearGradient id="SVGID_11_" gradientUnits="userSpaceOnUse" x1="1274.2207" y1="-274.917" x2="1281.2207" y2="-341.917" gradientTransform="matrix(1 0 0 -1 -256 155)">
		<stop  offset="0" style="stop-color:#FBBD46"/>
		<stop  offset="1" style="stop-color:#DEA73E"/>
	</linearGradient>
	<path fill="url(#SVGID_11_)" d="M1046.165,473.566c-7.853-14.134-28.527-2.355-28.527-2.355s2.355-8.113,18.582-9.684
		l-3.141-17.013c0,0-22.246,0-30.884,13.871c-8.637,13.871-4.711,41.613,13.872,41.613c18.582,0,19.629,0,24.078,0
		C1044.594,499.999,1054.017,487.699,1046.165,473.566z M1026.25,486.25c-6,2.25-9.5-3.5-8-5.75s6.318-2.092,8.25-2
		C1030.826,478.706,1032.25,484,1026.25,486.25z"/>
	
		<linearGradient id="SVGID_12_" gradientUnits="userSpaceOnUse" x1="1348.7383" y1="-267.1343" x2="1355.738" y2="-334.1319" gradientTransform="matrix(1 0 0 -1 -256 155)">
		<stop  offset="0" style="stop-color:#FBBD46"/>
		<stop  offset="1" style="stop-color:#DEA73E"/>
	</linearGradient>
	<path fill="url(#SVGID_12_)" d="M1109.332,476.4c-2.014-1.728-15.828-2.877-18.418-1.728c-1.341,0.597-3.741,25.326-1.151,25.326
		c2.591,0,18.707,0,20.722,0C1112.498,500,1111.348,478.128,1109.332,476.4z M1096.641,486.756c0.465-0.929,5.568-0.078,6.031,0.231
		c0.463,0.309-5.721,5.182-6.264,5.104C1095.866,492.014,1096.177,487.684,1096.641,486.756z M1104.451,494.024
		c-0.388,0.464-6.959-0.618-6.572-0.93c0.387-0.31,6.729-4.482,6.729-4.482C1105.146,488.768,1104.839,493.561,1104.451,494.024z"/>
	
		<linearGradient id="SVGID_13_" gradientUnits="userSpaceOnUse" x1="1367.7842" y1="-265.1475" x2="1374.7837" y2="-332.1425" gradientTransform="matrix(1 0 0 -1 -256 155)">
		<stop  offset="0" style="stop-color:#FBBD46"/>
		<stop  offset="1" style="stop-color:#DEA73E"/>
	</linearGradient>
	<path fill="url(#SVGID_13_)" d="M1113.031,482.015c-0.465-0.278-1.676-4.008-1.49-4.38s11.646-4.192,12.02-4.192
		s2.146,26.559,1.679,26.559c-0.466,0-8.945,0-9.411,0c-0.467,0,0.372-19.011,0.093-19.011
		C1115.643,480.99,1113.496,482.295,1113.031,482.015z"/>
	
		<linearGradient id="SVGID_14_" gradientUnits="userSpaceOnUse" x1="1298.6289" y1="-272.3677" x2="1305.6289" y2="-339.3677" gradientTransform="matrix(1 0 0 -1 -256 155)">
		<stop  offset="0" style="stop-color:#FBBD46"/>
		<stop  offset="1" style="stop-color:#DEA73E"/>
	</linearGradient>
	<path fill="url(#SVGID_14_)" d="M1042.203,445.787c-0.141,0.242,0.102,2.511,0.102,2.511s-2.318,0.05-2.567,0.035
		c-0.25-0.015-0.196,4.371-0.018,4.507c0.181,0.137,2.569-0.035,2.569-0.035s0.645,6.048,1.378,6.342
		c0.733,0.295,7.811-0.789,7.811-0.789s-0.457-4.974-1.205-5.019c-0.749-0.044-4.485,0.674-4.485,0.674l-0.462-1.718
		c0,0,2.514-0.164,2.778-0.398s0.101-3.812-0.264-4.021c-0.362-0.21-2.885,0.079-2.885,0.079s-0.183-2.202-0.491-2.283
		C1044.156,445.59,1042.343,445.545,1042.203,445.787z"/>
	
		<linearGradient id="SVGID_15_" gradientUnits="userSpaceOnUse" x1="1309.0732" y1="-271.2754" x2="1316.0735" y2="-338.2779" gradientTransform="matrix(1 0 0 -1 -256 155)">
		<stop  offset="0" style="stop-color:#FBBD46"/>
		<stop  offset="1" style="stop-color:#DEA73E"/>
	</linearGradient>
	<path fill="url(#SVGID_15_)" d="M1050.375,445.25c-0.111,0.224,1.812,13,2.062,13s3.438-0.75,3.438-0.75s-0.812-4.062-0.625-4.125
		s0.625-0.312,0.625-0.312s0.812,4.188,1,4.188s4-0.312,4.062-0.625c0.062-0.313-1.312-6.188-2.938-7.25s-3.875,0.625-4.062,0.562
		c-0.188-0.062-0.562-4.875-0.875-4.938C1052.749,444.938,1050.5,445,1050.375,445.25z"/>
	
		<linearGradient id="SVGID_16_" gradientUnits="userSpaceOnUse" x1="1306.5791" y1="-271.5342" x2="1313.5796" y2="-338.5385" gradientTransform="matrix(1 0 0 -1 -256 155)">
		<stop  offset="0" style="stop-color:#FBBD46"/>
		<stop  offset="1" style="stop-color:#DEA73E"/>
	</linearGradient>
	<path fill="url(#SVGID_16_)" d="M1041.763,460.964c-0.188,0.122,1.614,5.771,1.989,5.775s23.151-1.954,23.219-2.328
		c0.068-0.374-2.475-6.907-2.91-7.102C1063.626,457.118,1042.141,460.719,1041.763,460.964z"/>
</g>
</svg>
