<?xml version="1.0" encoding="utf-8"?>
<!-- Generator: Adobe Illustrator 15.0.0, SVG Export Plug-In . SVG Version: 6.00 Build 0)  -->
<!DOCTYPE svg PUBLIC "-//W3C//DTD SVG 1.1//EN" "http://www.w3.org/Graphics/SVG/1.1/DTD/svg11.dtd">
<svg version="1.1" id="Layer_1" xmlns="http://www.w3.org/2000/svg" xmlns:xlink="http://www.w3.org/1999/xlink" x="0px" y="0px"
	 width="1200px" height="500px" viewBox="0 0 1200 500" enable-background="new 0 0 1200 500" xml:space="preserve">
<g id="Layer_1_1_">
	
		<linearGradient id="SVGID_1_" gradientUnits="userSpaceOnUse" x1="443.2373" y1="-233.6348" x2="455.379" y2="-349.8479" gradientTransform="matrix(1 0 0 -1 -256 155)">
		<stop  offset="0" style="stop-color:#242424"/>
		<stop  offset="1" style="stop-color:#0D0D0D"/>
	</linearGradient>
	<path fill="url(#SVGID_1_)" d="M245.848,499.899c2.397-5.766-3.327-37.698-4.53-41.606c-1.202-3.907-9.904-5.08-9.904-5.08
		s6.395-10.845,6.485-14.722c0.09-3.879-5.887-52.722-12.989-53.21s-77.126,7.582-78.479,10.138
		c-1.238,2.339,2.633,87.593,3.985,104.581h95.365C245.801,499.967,245.833,499.934,245.848,499.899z M176.178,443.555
		c-0.841-1.082-1.722-12.27-1.722-12.27c0.522-1.562,19.005-3.482,20.528-2.643c1.522,0.844,5.01,4.211,4.088,6.375
		C198.149,437.184,177.02,444.638,176.178,443.555z M180.468,475.025c-0.969-0.022-2.696-12.52-1.938-13.947
		c0.676-1.276,17.134,0.075,18.096,0.421c0.961,0.346,3.097,5.893,3.059,7.507C199.647,470.621,181.438,475.048,180.468,475.025z"/>
	
		<linearGradient id="SVGID_2_" gradientUnits="userSpaceOnUse" x1="545.6724" y1="-224.1772" x2="558.7467" y2="-349.3174" gradientTransform="matrix(1 0 0 -1 -256 155)">
		<stop  offset="0" style="stop-color:#242424"/>
		<stop  offset="1" style="stop-color:#0D0D0D"/>
	</linearGradient>
	<path fill="url(#SVGID_2_)" d="M343.189,471.124c-0.916-2.285-60.181,1.834-61.465,1.481c-1.284-0.355-1.157-5.848-0.487-6.803
		c0.668-0.955,38.221-2.991,38.244-3.962c0.021-0.969-0.316-28.136-1.939-27.85c-1.624,0.284-35.966,3.367-36.921,2.698
		c-0.955-0.67-1.203-3.908,0.105-4.524s55.355-2.916,57-4.171c1.646-1.256,1.226-52.674-0.714-52.719
		c-1.938-0.045-88.767,7.637-89.437,8.592c-0.787,1.122,5.112,113.928,6.69,115.58c0.156,0.164,1.152,0.351,2.801,0.552h87.02
		C344.698,491.989,343.932,472.974,343.189,471.124z"/>
	
		<linearGradient id="SVGID_3_" gradientUnits="userSpaceOnUse" x1="647.8164" y1="-227.0068" x2="660.6035" y2="-349.3973" gradientTransform="matrix(1 0 0 -1 -256 155)">
		<stop  offset="0" style="stop-color:#242424"/>
		<stop  offset="1" style="stop-color:#0D0D0D"/>
	</linearGradient>
	<path fill="url(#SVGID_3_)" d="M441.28,466.7c-1.206-0.028-60.18,5.241-61.386,5.213c-1.205-0.027-2.308-4.581-1.402-4.56
		c0.904,0.021,71.697-7.389,71.738-9.198c0.043-1.811-3.036-71.608-3.935-71.931c-0.896-0.324-99.691-1.156-101.55,0.912
		c-0.906,1.01,2.783,92.949,5.26,112.862h96.696C445.639,488.213,442.166,466.721,441.28,466.7z M375.876,437.113
		c0.624-0.894,28.95,0.975,30.156,1.003c1.207,0.026,1.942,7.288,1.922,8.191c-0.021,0.904-29.363,5.89-30.598,5.022
		C376.465,450.707,375.251,438.003,375.876,437.113z"/>
	
		<linearGradient id="SVGID_4_" gradientUnits="userSpaceOnUse" x1="760.877" y1="-225.9399" x2="773.8999" y2="-350.5891" gradientTransform="matrix(1 0 0 -1 -256 155)">
		<stop  offset="0" style="stop-color:#242424"/>
		<stop  offset="1" style="stop-color:#0D0D0D"/>
	</linearGradient>
	<path fill="url(#SVGID_4_)" d="M502.411,475.796c0.493-0.704,14.282,15.575,22.021,24.204h46.956
		c-4.643-9.515-16.455-30.419-16.455-30.419s13.935-1.294,15.91-2.864c1.978-1.57-20.66-84.865-23.222-85.896
		c-2.563-1.029-91.924,4.33-93.247,5.593c-0.718,0.687,3.625,87.3,5.714,113.588h49.535
		C506.866,491.343,501.928,476.485,502.411,475.796z M497.076,454.979c-0.955-0.669-2.585-13.963-1.917-14.918
		c0.669-0.953,26.812,0.947,28.105,0.979c1.293,0.03,4.945,9.814,4.601,10.776C527.52,452.776,498.135,455.722,497.076,454.979z"/>
	
		<linearGradient id="SVGID_5_" gradientUnits="userSpaceOnUse" x1="879.9102" y1="-216.0181" x2="893.8679" y2="-349.6147" gradientTransform="matrix(1 0 0 -1 -256 155)">
		<stop  offset="0" style="stop-color:#242424"/>
		<stop  offset="1" style="stop-color:#0D0D0D"/>
	</linearGradient>
	<path fill="url(#SVGID_5_)" d="M685.751,464.214c-1.188-1.665-70.383,1.635-71.153-0.428c-0.77-2.064-1.767-11.902-0.104-13.091
		c1.665-1.188,76.866,0.97,76.505-1.083c-0.361-2.055-9.283-66.882-10.443-69.771c-1.157-2.89-102.939-5.256-105.021-3.668
		c-0.92,0.701-3.708,53.899-1.797,77.256c1.453,17.761,4.504,37.908,6.781,46.571h101.516
		C683.673,489.978,686.716,465.562,685.751,464.214z"/>
	
		<linearGradient id="SVGID_6_" gradientUnits="userSpaceOnUse" x1="1001.9619" y1="-221.6582" x2="1015.5655" y2="-351.8636" gradientTransform="matrix(1 0 0 -1 -256 155)">
		<stop  offset="0" style="stop-color:#242424"/>
		<stop  offset="1" style="stop-color:#0D0D0D"/>
	</linearGradient>
	<path fill="url(#SVGID_6_)" d="M733.162,491.899c1.635,0.037,34.022-3.3,35.656-3.262c1.094,0.025,2.945,6.845,4.42,11.361h52.026
		c-1.42-13.768-30.361-124.496-31.822-127.599c-1.56-3.309-87.378,15.963-87.881,20.041c-0.446,3.618-11.256,87.985-13.131,107.558
		h38.044C731.338,496.451,732.146,491.876,733.162,491.899z M735.425,447.372c1.266-1.606,20.054-1.987,20.903-1.968
		c1.635,0.038,13.176,13.804,11.133,13.756c-2.045-0.047-33.576,1.673-34.793,1.236C731.451,459.959,734.16,448.979,735.425,447.372
		z"/>
	
		<linearGradient id="SVGID_7_" gradientUnits="userSpaceOnUse" x1="1142.4482" y1="-214.4292" x2="1156.8561" y2="-352.3329" gradientTransform="matrix(1 0 0 -1 -256 155)">
		<stop  offset="0" style="stop-color:#242424"/>
		<stop  offset="1" style="stop-color:#0D0D0D"/>
	</linearGradient>
	<path fill="url(#SVGID_7_)" d="M871.01,499.808c0.827-0.391-1.824-27.034-0.209-26.18c1.616,0.855,14.469,10.971,16.104,11.009
		c1.634,0.038,19.221-17.548,20.445-17.52c1.228,0.028,8.682,32.854,9.906,32.883c0.755,0.018,21.183-0.459,36.871,0h16.913
		c0.608-0.075,0.956-0.173,0.99-0.298c0.445-1.626-26.028-129.435-27.188-132.324s-62.123,33.318-64.593,34.08
		c-2.473,0.761-53.368-26.599-56.667-25.446c-1.431,0.498,2.911,107.657,4.516,123.988h41.434
		C870.396,499.915,870.923,499.849,871.01,499.808z"/>
	
		<linearGradient id="SVGID_8_" gradientUnits="userSpaceOnUse" x1="1273.2725" y1="-208.4321" x2="1287.425" y2="-343.8936" gradientTransform="matrix(1 0 0 -1 -256 155)">
		<stop  offset="0" style="stop-color:#242424"/>
		<stop  offset="1" style="stop-color:#0D0D0D"/>
	</linearGradient>
	<path fill="url(#SVGID_8_)" d="M1019.271,481.986c1.244-0.788,64.83-9.126,65.732-12.785c0.904-3.659-18.585-97.771-22.614-100.318
		c-4.03-2.547-87.049-2.841-89.966-0.455c-1.172,0.957,1.021,114.24,2.318,131.572h46.089
		C1020.705,495.012,1018.269,482.622,1019.271,481.986z M1016.144,458.194c-1.206-0.848-2.101-15.184-0.438-16.37
		c1.664-1.188,26.968,1.036,28.992,1.899c2.025,0.865,4.727,7.883,4.289,9.099C1048.55,454.04,1017.852,459.389,1016.144,458.194z"
		/>
</g>
</svg>
