<?xml version="1.0" encoding="utf-8"?>
<!-- Generator: Adobe Illustrator 14.0.0, SVG Export Plug-In . SVG Version: 6.00 Build 43363)  -->
<!DOCTYPE svg PUBLIC "-//W3C//DTD SVG 1.1//EN" "http://www.w3.org/Graphics/SVG/1.1/DTD/svg11.dtd" [
	<!ENTITY ns_extend "http://ns.adobe.com/Extensibility/1.0/">
	<!ENTITY ns_ai "http://ns.adobe.com/AdobeIllustrator/10.0/">
	<!ENTITY ns_graphs "http://ns.adobe.com/Graphs/1.0/">
	<!ENTITY ns_vars "http://ns.adobe.com/Variables/1.0/">
	<!ENTITY ns_imrep "http://ns.adobe.com/ImageReplacement/1.0/">
	<!ENTITY ns_sfw "http://ns.adobe.com/SaveForWeb/1.0/">
	<!ENTITY ns_custom "http://ns.adobe.com/GenericCustomNamespace/1.0/">
	<!ENTITY ns_adobe_xpath "http://ns.adobe.com/XPath/1.0/">
]>
<svg version="1.1" xmlns:x="&ns_extend;" xmlns:i="&ns_ai;" xmlns:graph="&ns_graphs;"
	 xmlns="http://www.w3.org/2000/svg" xmlns:xlink="http://www.w3.org/1999/xlink" x="0px" y="0px" width="1200px" height="500px"
	 viewBox="0 0 1200 500" enable-background="new 0 0 1200 500" xml:space="preserve">

<g id="building">
	<g id="main_tower_1_">
		<path d="M876.725,266.224l18.942,23.11L894,420c0,0-37.332-14.999-36.666-16.666S876.725,266.224,876.725,266.224z"/>
		<linearGradient id="SVGID_17_" gradientUnits="userSpaceOnUse" x1="745.332" y1="264.9814" x2="849.9083" y2="513.9025">
			<stop  offset="0" style="stop-color:#404A6E"/>
			<stop  offset="1" style="stop-color:#1F2435"/>
		</linearGradient>
		<polygon fill="url(#SVGID_17_)" points="713.196,500 717.936,276.491 876.725,266.224 883,500 		"/>
		<linearGradient id="SVGID_18_" gradientUnits="userSpaceOnUse" x1="786.832" y1="274.7373" x2="788.332" y2="294.7373">
			<stop  offset="0" style="stop-color:#F2E77C;stop-opacity:0"/>
			<stop  offset="0.5215" style="stop-color:#F2E77C;stop-opacity:0.2"/>
			<stop  offset="1" style="stop-color:#F2E77C;stop-opacity:0"/>
		</linearGradient>
		<polygon fill="url(#SVGID_18_)" points="713.196,500 717.936,276.491 876.725,266.224 883,500 		"/>
		<radialGradient id="SVGID_19_" cx="799" cy="320" r="71.1758" gradientUnits="userSpaceOnUse">
			<stop  offset="0" style="stop-color:#F2E77C;stop-opacity:0.2"/>
			<stop  offset="1" style="stop-color:#F2E77C;stop-opacity:0"/>
		</radialGradient>
		<polygon fill="url(#SVGID_19_)" points="713.196,500 717.936,276.491 876.725,266.224 883,500 		"/>
		<polygon fill="#F2E77C" points="714,289 879,281 878,276 711,286 		"/>
		<polygon fill="#F2E77C" points="765.5,297.5 766.5,329 769.5,329 770,298 		"/>
		<polygon fill="#F2E77C" points="782.5,296.5 781.5,329 787.5,329 786,297 		"/>
		<polygon fill="#F2E77C" points="798,296 796,328.5 799,328 801,296.5 		"/>
		<polygon fill="#F2E77C" points="809,296.5 807,328.5 810,328.5 811.5,297 		"/>
		<polygon fill="#F2E77C" points="820,295.5 820,327.5 826,327.5 822.5,295.5 		"/>
	</g>
</g>
</svg>
