<?xml version="1.0" encoding="utf-8"?>
<!-- Generator: Adobe Illustrator 14.0.0, SVG Export Plug-In . SVG Version: 6.00 Build 43363)  -->
<!DOCTYPE svg PUBLIC "-//W3C//DTD SVG 1.1//EN" "http://www.w3.org/Graphics/SVG/1.1/DTD/svg11.dtd" [
	<!ENTITY ns_extend "http://ns.adobe.com/Extensibility/1.0/">
	<!ENTITY ns_ai "http://ns.adobe.com/AdobeIllustrator/10.0/">
	<!ENTITY ns_graphs "http://ns.adobe.com/Graphs/1.0/">
	<!ENTITY ns_vars "http://ns.adobe.com/Variables/1.0/">
	<!ENTITY ns_imrep "http://ns.adobe.com/ImageReplacement/1.0/">
	<!ENTITY ns_sfw "http://ns.adobe.com/SaveForWeb/1.0/">
	<!ENTITY ns_custom "http://ns.adobe.com/GenericCustomNamespace/1.0/">
	<!ENTITY ns_adobe_xpath "http://ns.adobe.com/XPath/1.0/">
]>
<svg version="1.1" xmlns:x="&ns_extend;" xmlns:i="&ns_ai;" xmlns:graph="&ns_graphs;"
	 xmlns="http://www.w3.org/2000/svg" xmlns:xlink="http://www.w3.org/1999/xlink" x="0px" y="0px" width="1200px" height="500px"
	 viewBox="0 0 1200 500" enable-background="new 0 0 1200 500" xml:space="preserve">

<g id="building">
	<g id="two_towers">
		<polygon points="768.25,382.5 780,500 735,500 740.5,388 		"/>
		<linearGradient id="SVGID_20_" gradientUnits="userSpaceOnUse" x1="701.0225" y1="415.7236" x2="751.2306" y2="527.0547">
			<stop  offset="0" style="stop-color:#404A6E"/>
			<stop  offset="1" style="stop-color:#1F2435"/>
		</linearGradient>
		<polygon fill="url(#SVGID_20_)" points="752,389 687,392 676,500 766,500 		"/>
		<linearGradient id="SVGID_21_" gradientUnits="userSpaceOnUse" x1="849.3926" y1="410.5" x2="901.438" y2="525.905">
			<stop  offset="0" style="stop-color:#404A6E"/>
			<stop  offset="1" style="stop-color:#1F2435"/>
		</linearGradient>
		<polygon fill="url(#SVGID_21_)" points="828,389 905,388 912,500 824,500 		"/>
		<polygon fill="#14171E" points="687,392 715.75,384.25 715.5,387.5 768.25,382.5 752,389 		"/>
		<polygon fill="#14171E" points="828,389 848.5,384 880,384.5 909.5,385 905,388 		"/>
		<polygon points="909.5,385 905,388 912,500 925.5,500 		"/>
	</g>
</g>
</svg>
