<?xml version="1.0" encoding="utf-8"?>
<!-- Generator: Adobe Illustrator 14.0.0, SVG Export Plug-In . SVG Version: 6.00 Build 43363)  -->
<!DOCTYPE svg PUBLIC "-//W3C//DTD SVG 1.1//EN" "http://www.w3.org/Graphics/SVG/1.1/DTD/svg11.dtd">
<svg version="1.1" xmlns="http://www.w3.org/2000/svg" xmlns:xlink="http://www.w3.org/1999/xlink" x="0px" y="0px" width="1200px"
	 height="500px" viewBox="0 0 1200 500" enable-background="new 0 0 1200 500" xml:space="preserve">
<g id="back_buildings">
	<path fill="#12141E" d="M1150,446l2-92h-118v78l-9,2l-4-101h-19l-7-46v46l-48,2l3,89h-7v-55l-104,1v10l-9,2l-3-86l-119,3l7,68
		l-11,2l-1-40l-70,3l4,71l-6-2l1-11l-202,10l2,25h-12l5-104l-108-2l6,105l-15,5l-3-59L78,388l2,8H67l-3-36L0,372v128h1200v-55
		L1150,446z M410,372l-11-2v-16l12-1L410,372z M606,409l-10,1l-1-11h11V409z M621,406h-8v-9h8V406z M641,367v-10l32-2l2,10L641,367z
		 M722,331l-1-15l11-1l1,15L722,331z M740,314h11l2,18l-12-2L740,314z M744,354l-2-15h11l2,15H744z M929,409l-6-2l-2-16l9,2L929,409
		z M993,396l-6,5l-1-15h7V396z M1009,356l-1-12l6,1l2,11H1009z M1104,392l-3-16h11l3,15L1104,392z M1122,392l-1-17l11,4l2,13H1122z"
		/>
</g>
</svg>
