<?xml version="1.0" encoding="utf-8"?>
<!-- Generator: Adobe Illustrator 15.0.0, SVG Export Plug-In . SVG Version: 6.00 Build 0)  -->
<!DOCTYPE svg PUBLIC "-//W3C//DTD SVG 1.1//EN" "http://www.w3.org/Graphics/SVG/1.1/DTD/svg11.dtd">
<svg version="1.1" id="Layer_1" xmlns="http://www.w3.org/2000/svg" xmlns:xlink="http://www.w3.org/1999/xlink" x="0px" y="0px"
	 width="1200px" height="500px" viewBox="0 0 1200 500" enable-background="new 0 0 1200 500" xml:space="preserve">
<g id="building_2">
	<path d="M1080.973,180.763c0,0-2.045-5.208-2.604-5.208c-0.182,0-1.896,0.687-4.12,1.613l-1.506-17.941l0.791-0.227v-2.79
		l-1.031,0.159l-1.2-14.294l-2.576,1.878l-0.446,13.066l-2,0.308l0.744,3.534l1.137-0.324l-0.664,19.488
		c-2.656,1.134-4.75,2.04-4.75,2.04l-0.558,2.231l5.195-0.977l-1.037,30.416l10.31-7.93l-2.004-23.854L1080.973,180.763z"/>
	<polygon points="1095.654,194.041 1120.072,229.952 1125.819,500 1099.245,500 	"/>
	
		<linearGradient id="SVGID_1_" gradientUnits="userSpaceOnUse" x1="1499.6611" y1="532.7783" x2="1664.8506" y2="835.8649" gradientTransform="matrix(1 0 0 1 -512 -291)">
		<stop  offset="0" style="stop-color:#404A6E"/>
		<stop  offset="1" style="stop-color:#1F2435"/>
	</linearGradient>
	<polygon fill="url(#SVGID_1_)" points="994.387,500 987.922,214.151 1095.654,194.041 1105.709,500 	"/>
	
		<linearGradient id="SVGID_2_" gradientUnits="userSpaceOnUse" x1="1505.4238" y1="642.4893" x2="1607.0659" y2="638.2548" gradientTransform="matrix(1 0 0 1 -512 -291)">
		<stop  offset="0" style="stop-color:#8CA9DD;stop-opacity:0.2"/>
		<stop  offset="0.0798" style="stop-color:#8CA9DD;stop-opacity:0"/>
		<stop  offset="0.8957" style="stop-color:#8CA9DD;stop-opacity:0"/>
		<stop  offset="1" style="stop-color:#8CA9DD;stop-opacity:0.2"/>
	</linearGradient>
	<polygon fill="url(#SVGID_2_)" points="994.387,500 987.922,214.151 1095.654,194.041 1105.709,500 	"/>
	
		<radialGradient id="SVGID_3_" cx="1501.2637" cy="567.6836" r="46.165" gradientTransform="matrix(0.9371 0 0 0.9371 -371.7095 -259.5673)" gradientUnits="userSpaceOnUse">
		<stop  offset="0" style="stop-color:#F2E77C;stop-opacity:0.2"/>
		<stop  offset="1" style="stop-color:#F2E77C;stop-opacity:0"/>
	</radialGradient>
	<polygon fill="url(#SVGID_3_)" points="994.387,500 987.922,214.151 1095.654,194.041 1105.709,500 	"/>
	
		<radialGradient id="SVGID_4_" cx="1524.3926" cy="645.5303" r="32.1549" gradientTransform="matrix(0.9371 0 0 0.9371 -371.7095 -259.5673)" gradientUnits="userSpaceOnUse">
		<stop  offset="0" style="stop-color:#F2E77C;stop-opacity:0.2"/>
		<stop  offset="1" style="stop-color:#F2E77C;stop-opacity:0"/>
	</radialGradient>
	<polygon fill="url(#SVGID_4_)" points="994.387,500 987.922,214.151 1095.654,194.041 1105.709,500 	"/>
	
		<radialGradient id="SVGID_5_" cx="1492.8018" cy="741.9941" r="32.0754" gradientTransform="matrix(0.9371 0 0 0.9371 -371.7095 -259.5673)" gradientUnits="userSpaceOnUse">
		<stop  offset="0" style="stop-color:#F2E77C;stop-opacity:0.2"/>
		<stop  offset="1" style="stop-color:#F2E77C;stop-opacity:0"/>
	</radialGradient>
	<polygon fill="url(#SVGID_5_)" points="994.387,500 987.922,214.151 1095.654,194.041 1105.709,500 	"/>
	<polygon fill="#8CA9DD" points="987.922,214.151 994.387,500 998.678,500 993.92,212.677 	"/>
	<polygon fill="#8CA9DD" points="1095.654,194.041 1105.709,500 1102.822,500 1087.453,195.471 	"/>
	<polygon fill="#F2E77C" points="1015.596,266.864 1016.389,272.415 1029.076,271.622 1026.697,262.105 	"/>
	<polygon fill="#F2E77C" points="1033.041,270.037 1033.041,263.691 1044.936,262.898 1047.314,270.829 	"/>
	<polygon fill="#F2E77C" points="1032.248,276.381 1047.314,275.588 1048.9,285.104 1033.834,285.104 	"/>
	<polygon fill="#F2E77C" points="1041.764,342.197 1041.764,352.506 1053.658,351.713 1052.865,343.783 	"/>
	<polygon fill="#F2E77C" points="1059.209,342.99 1060.002,351.713 1072.689,350.127 1071.896,342.197 	"/>
	<polygon fill="#F2E77C" points="1019.561,433.39 1018.767,441.32 1034.626,440.527 1033.834,431.804 	"/>
</g>
<g id="building_4">
	
		<linearGradient id="SVGID_6_" gradientUnits="userSpaceOnUse" x1="965.5029" y1="-144.333" x2="1035.7405" y2="-367.2306" gradientTransform="matrix(1 0 0 -1 -256 155)">
		<stop  offset="0" style="stop-color:#404A6E"/>
		<stop  offset="1" style="stop-color:#1F2435"/>
	</linearGradient>
	<polygon fill="url(#SVGID_6_)" points="663.333,440.333 670.001,500 856.666,500 856.666,440.333 	"/>
	
		<radialGradient id="SVGID_7_" cx="955.667" cy="-316" r="70.2032" gradientTransform="matrix(1 0 0 -1 -256 155)" gradientUnits="userSpaceOnUse">
		<stop  offset="0" style="stop-color:#F2E77C;stop-opacity:0.2"/>
		<stop  offset="1" style="stop-color:#F2E77C;stop-opacity:0"/>
	</radialGradient>
	<polygon fill="url(#SVGID_7_)" points="663.333,440.333 670.001,500 856.666,500 856.666,440.333 	"/>
	
		<radialGradient id="SVGID_8_" cx="1081.667" cy="-315.334" r="37.2022" gradientTransform="matrix(1 0 0 -1 -256 155)" gradientUnits="userSpaceOnUse">
		<stop  offset="0" style="stop-color:#F2E77C;stop-opacity:0.2"/>
		<stop  offset="1" style="stop-color:#F2E77C;stop-opacity:0"/>
	</radialGradient>
	<polygon fill="url(#SVGID_8_)" points="663.333,440.333 670.001,500 856.666,500 856.666,440.333 	"/>
	
		<linearGradient id="SVGID_9_" gradientUnits="userSpaceOnUse" x1="1020.5693" y1="-265.2207" x2="1095.2358" y2="-464.5535" gradientTransform="matrix(1 0 0 -1 -256 155)">
		<stop  offset="0" style="stop-color:#404A6E"/>
		<stop  offset="1" style="stop-color:#1F2435"/>
	</linearGradient>
	<polyline fill="url(#SVGID_9_)" points="649.838,500 642.951,443.061 611.599,422.819 610.875,417.27 659.02,431.439 
		832.326,434.926 919.667,423.305 917.371,431.439 871.349,446.546 870.666,500 864.463,500 861.02,446.546 762.314,444.222 
		661.314,451.194 656.724,500 	"/>
	
		<linearGradient id="SVGID_10_" gradientUnits="userSpaceOnUse" x1="973.5957" y1="-99.6128" x2="1040.676" y2="-312.4911" gradientTransform="matrix(1 0 0 -1 -256 155)">
		<stop  offset="0" style="stop-color:#404A6E"/>
		<stop  offset="1" style="stop-color:#1F2435"/>
	</linearGradient>
	<polygon fill="url(#SVGID_10_)" points="609.614,419.333 606.665,410.333 661.999,420.333 833.332,428.333 926.665,410.333 
		926.665,424.666 919.667,426.305 834.273,437.926 660.967,434.439 	"/>
	<polygon fill="#F2E77C" points="673.667,462.667 673.667,472.667 686.667,471 684.334,461 	"/>
	<path fill="#F2E77C" d="M689.667,461l1.333,9.667l12.334-1.334c0,0,1.666-8,0.666-8S689.667,461,689.667,461z"/>
	<polygon fill="#F2E77C" points="710.334,469 709,461.333 722.667,461 722.334,469.333 	"/>
	<polygon fill="#F2E77C" points="692,476.333 702.667,475.333 702.667,484.333 691.334,483 	"/>
	<polygon fill="#F2E77C" points="708,474.667 707.667,485.333 721.667,483.667 722,476 	"/>
	<polygon fill="#F2E77C" points="845.334,460.667 845.334,469.333 834.667,469.667 835,462 	"/>
	<polygon fill="#F2E77C" points="831.334,476 830.334,484 823.334,484 821.667,476.333 	"/>
	<polygon fill="#F2E77C" points="819.667,469.333 807,470 806.334,463 820,462.667 	"/>
</g>
</svg>
