<?xml version="1.0" encoding="utf-8"?>
<!-- Generator: Adobe Illustrator 14.0.0, SVG Export Plug-In . SVG Version: 6.00 Build 43363)  -->
<!DOCTYPE svg PUBLIC "-//W3C//DTD SVG 1.1//EN" "http://www.w3.org/Graphics/SVG/1.1/DTD/svg11.dtd">
<svg version="1.1" xmlns="http://www.w3.org/2000/svg" xmlns:xlink="http://www.w3.org/1999/xlink" x="0px" y="0px" width="1200px"
	 height="500px" viewBox="0 0 1200 500" enable-background="new 0 0 1200 500" xml:space="preserve">
<g id="bg" display="none">
	<rect display="inline" fill="#1A1B1C" width="1200" height="500"/>
</g>
<g id="back_buildings" display="none">
	<path display="inline" fill="#12141E" d="M1150,446l2-92h-118v78l-9,2l-4-101h-19l-7-46v46l-48,2l3,89h-7v-55l-104,1v10l-9,2l-3-86
		l-119,3l7,68l-11,2l-1-40l-70,3l4,71l-6-2l1-11l-202,10l2,25h-12l5-104l-108-2l6,105l-15,5l-3-59L78,388l2,8H67l-3-36L0,372v128
		h1200v-55L1150,446z M410,372l-11-2v-16l12-1L410,372z M606,409l-10,1l-1-11h11V409z M621,406h-8v-9h8V406z M641,367v-10l32-2l2,10
		L641,367z M722,331l-1-15l11-1l1,15L722,331z M740,314h11l2,18l-12-2L740,314z M744,354l-2-15h11l2,15H744z M929,409l-6-2l-2-16
		l9,2L929,409z M993,396l-6,5l-1-15h7V396z M1009,356l-1-12l6,1l2,11H1009z M1104,392l-3-16h11l3,15L1104,392z M1122,392l-1-17l11,4
		l2,13H1122z"/>
</g>
<g id="monster_back_body" display="none">
	<linearGradient id="SVGID_1_" gradientUnits="userSpaceOnUse" x1="569.5767" y1="298.585" x2="686.5767" y2="507.585">
		<stop  offset="0" style="stop-color:#9424CF"/>
		<stop  offset="1" style="stop-color:#8320B7"/>
	</linearGradient>
	<path display="inline" fill="url(#SVGID_1_)" d="M577,481l87-90c0,0,86.676,71.933,120,70c33.487-1.94,56.562,20.127,31-32
		c-51-104-113-161-162-159S484,372,460,398S577,481,577,481z"/>
	<g display="inline">
		<g>
			<path fill="#6D19A3" d="M765,425c-72-21-80-66-98.416-72.974S618,387,547,412c-50.547,17.798-32.292,37.367-17.578,47.527
				c5.377,2.649,10.616,5.142,15.533,7.424c7.409,0.545,23.884,1.422,43.324,2.381L664,391c0,0,58.038,48.161,97.389,64.605
				C785.053,446.206,798.466,434.761,765,425z"/>
		</g>
	</g>
</g>
<g id="building" display="none">
	<g id="clock_1_" display="inline">
		<polygon points="796.124,168.291 797.703,113.006 800.072,165.131 		"/>
		<polygon points="816.25,182.917 804.021,160.393 805.666,183.833 808.421,183.705 810.167,212.667 813.5,213.5 812.833,183.5 		
			"/>
		<linearGradient id="SVGID_2_" gradientUnits="userSpaceOnUse" x1="798.123" y1="198.6914" x2="803.6516" y2="223.1747">
			<stop  offset="0" style="stop-color:#404A6E"/>
			<stop  offset="1" style="stop-color:#1F2435"/>
		</linearGradient>
		<polygon fill="url(#SVGID_2_)" points="786.252,216.073 788.226,180.927 809.55,179.348 811.13,213.308 		"/>
		<radialGradient id="SVGID_3_" cx="800.6553" cy="193.1792" r="21.9411" gradientUnits="userSpaceOnUse">
			<stop  offset="0" style="stop-color:#FFFFFF;stop-opacity:0.25"/>
			<stop  offset="1" style="stop-color:#FFFFFF;stop-opacity:0"/>
		</radialGradient>
		<polygon fill="url(#SVGID_3_)" points="786.252,216.073 788.226,180.927 809.55,179.348 811.13,213.308 		"/>
		<polygon points="825.346,211.729 832.5,227.5 829.75,289.75 817,276.75 		"/>
		<linearGradient id="SVGID_4_" gradientUnits="userSpaceOnUse" x1="777.3652" y1="207.4116" x2="812.1246" y2="290.1488">
			<stop  offset="0" style="stop-color:#404A6E"/>
			<stop  offset="1" style="stop-color:#1F2435"/>
		</linearGradient>
		<polygon fill="url(#SVGID_4_)" points="764.532,286.758 770.851,210.149 825.346,211.729 827.715,283.599 		"/>
		<radialGradient id="SVGID_5_" cx="797.5" cy="251" r="39.5285" gradientUnits="userSpaceOnUse">
			<stop  offset="0" style="stop-color:#F2E77C;stop-opacity:0.2"/>
			<stop  offset="1" style="stop-color:#F2E77C;stop-opacity:0"/>
		</radialGradient>
		<polygon fill="url(#SVGID_5_)" points="764.532,286.758 770.851,210.149 825.346,211.729 827.715,283.599 		"/>
		<linearGradient id="SVGID_6_" gradientUnits="userSpaceOnUse" x1="790.0215" y1="161.7935" x2="803.0518" y2="190.751">
			<stop  offset="0" style="stop-color:#404A6E"/>
			<stop  offset="1" style="stop-color:#1F2435"/>
		</linearGradient>
		<polygon fill="url(#SVGID_6_)" points="785.066,183.296 812.709,180.137 804.021,160.393 792.175,163.552 		"/>
		<path fill="#FFFFFF" d="M795.523,188.187c6.281-6.294,10.912,3.275,10.735,7.71c-0.178,4.435-3.122,8.361-7.96,8.011
			C793.461,203.557,789.243,194.482,795.523,188.187z"/>
		<path d="M798.719,196.385c-0.64-0.32-2.804-3.155-2.664-3.505c0.14-0.351,3.226,2.313,3.295,2.734
			C799.42,196.035,799.139,196.596,798.719,196.385z"/>
		<path d="M798.509,196.315c0.611,0.68,6.239-1.332,6.66-1.963C805.59,193.721,797.246,194.913,798.509,196.315z"/>
		<polygon fill="#F2E77C" points="780,229 777,264.5 781,264 783.5,228.5 		"/>
		<polygon fill="#F2E77C" points="794,227.5 794,265.5 800,263.5 799.5,227 		"/>
		<polygon fill="#F2E77C" points="807,228 806.5,261.5 811.5,260.5 810,228 		"/>
	</g>
	<g id="main_tower_1_" display="inline">
		<path d="M876.725,266.224l18.942,23.11L894,420c0,0-37.332-14.999-36.666-16.666S876.725,266.224,876.725,266.224z"/>
		<linearGradient id="SVGID_7_" gradientUnits="userSpaceOnUse" x1="745.332" y1="264.9814" x2="849.9083" y2="513.9025">
			<stop  offset="0" style="stop-color:#404A6E"/>
			<stop  offset="1" style="stop-color:#1F2435"/>
		</linearGradient>
		<polygon fill="url(#SVGID_7_)" points="713.196,500 717.936,276.491 876.725,266.224 883,500 		"/>
		<linearGradient id="SVGID_8_" gradientUnits="userSpaceOnUse" x1="786.832" y1="274.7373" x2="788.332" y2="294.7373">
			<stop  offset="0" style="stop-color:#F2E77C;stop-opacity:0"/>
			<stop  offset="0.5215" style="stop-color:#F2E77C;stop-opacity:0.2"/>
			<stop  offset="1" style="stop-color:#F2E77C;stop-opacity:0"/>
		</linearGradient>
		<polygon fill="url(#SVGID_8_)" points="713.196,500 717.936,276.491 876.725,266.224 883,500 		"/>
		<radialGradient id="SVGID_9_" cx="799" cy="320" r="71.1758" gradientUnits="userSpaceOnUse">
			<stop  offset="0" style="stop-color:#F2E77C;stop-opacity:0.2"/>
			<stop  offset="1" style="stop-color:#F2E77C;stop-opacity:0"/>
		</radialGradient>
		<polygon fill="url(#SVGID_9_)" points="713.196,500 717.936,276.491 876.725,266.224 883,500 		"/>
		<polygon fill="#F2E77C" points="714,289 879,281 878,276 711,286 		"/>
		<polygon fill="#F2E77C" points="765.5,297.5 766.5,329 769.5,329 770,298 		"/>
		<polygon fill="#F2E77C" points="782.5,296.5 781.5,329 787.5,329 786,297 		"/>
		<polygon fill="#F2E77C" points="798,296 796,328.5 799,328 801,296.5 		"/>
		<polygon fill="#F2E77C" points="809,296.5 807,328.5 810,328.5 811.5,297 		"/>
		<polygon fill="#F2E77C" points="820,295.5 820,327.5 826,327.5 822.5,295.5 		"/>
	</g>
	<g id="two_towers" display="inline">
		<polygon points="768.25,382.5 780,500 735,500 740.5,388 		"/>
		<linearGradient id="SVGID_10_" gradientUnits="userSpaceOnUse" x1="701.0225" y1="415.7236" x2="751.2306" y2="527.0547">
			<stop  offset="0" style="stop-color:#404A6E"/>
			<stop  offset="1" style="stop-color:#1F2435"/>
		</linearGradient>
		<polygon fill="url(#SVGID_10_)" points="752,389 687,392 676,500 766,500 		"/>
		<linearGradient id="SVGID_11_" gradientUnits="userSpaceOnUse" x1="849.3926" y1="410.5" x2="901.438" y2="525.905">
			<stop  offset="0" style="stop-color:#404A6E"/>
			<stop  offset="1" style="stop-color:#1F2435"/>
		</linearGradient>
		<polygon fill="url(#SVGID_11_)" points="828,389 905,388 912,500 824,500 		"/>
		<polygon fill="#14171E" points="687,392 715.75,384.25 715.5,387.5 768.25,382.5 752,389 		"/>
		<polygon fill="#14171E" points="828,389 848.5,384 880,384.5 909.5,385 905,388 		"/>
		<polygon points="909.5,385 905,388 912,500 925.5,500 		"/>
	</g>
</g>
<g id="monster_arm_drink" display="none">
	<linearGradient id="SVGID_12_" gradientUnits="userSpaceOnUse" x1="411.8262" y1="149.2402" x2="371.8262" y2="255.5737">
		<stop  offset="0" style="stop-color:#9424CF"/>
		<stop  offset="1" style="stop-color:#8320B7"/>
	</linearGradient>
	<path display="inline" fill="url(#SVGID_12_)" d="M427.789,135.686c0,0-5.918,47.657-127.989,100.644
		c-14.778,6.415,2.874,71.358,40.7,67.67c37.827-3.688,110-69,138-123s28.276-80.196,24.5-88c-13.881-28.684-75.333-17-75.333-17
		L427.789,135.686z"/>
	<path display="inline" fill="#6D19A3" d="M503,93c-0.033-0.068-0.07-0.131-0.104-0.199l-46.687,16.34c0,0,5.512,6.699,7.815,13.247
		c3.247-4.329,35.191-3.495,34.093,13.562C506.221,111.601,505.518,98.204,503,93z"/>
	<linearGradient id="SVGID_13_" gradientUnits="userSpaceOnUse" x1="438.8535" y1="66.8184" x2="433.2285" y2="108.4434">
		<stop  offset="0" style="stop-color:#A35521"/>
		<stop  offset="1" style="stop-color:#773E18"/>
	</linearGradient>
	<path display="inline" fill="url(#SVGID_13_)" d="M358.084,82.689c0,0,32.703,7.537,40.327,12.038
		c12.719,7.504,15.431,12.61,25.002,14.141c15.312,2.446,62.716,10.938,76.796,12.476c14.079,1.54,21.264-46.858,8.249-49.886
		c-13.016-3.029-48.637-9.394-71.037-12.309c-22.4-2.913-15.868,2.476-30.279,5.079c-13.551,2.448-44.147-0.556-46.049,0.208
		C357.169,66.013,358.084,82.689,358.084,82.689z"/>
	<path display="inline" fill="#AD6647" d="M395.667,67.833c0,0,12-0.333,16.5-2.167S422.833,62.333,424,62.5s-0.5,5.5-0.5,5.5
		s-7.5,2-11.5,2.333s-16.667,0.333-16.667,0.333L395.667,67.833z"/>
	<linearGradient id="SVGID_14_" gradientUnits="userSpaceOnUse" x1="377.4971" y1="92.8237" x2="378.6641" y2="61.9907">
		<stop  offset="0" style="stop-color:#ECECEC"/>
		<stop  offset="0.2086" style="stop-color:#B2B2B2"/>
		<stop  offset="1" style="stop-color:#FFFFFF"/>
	</linearGradient>
	<path display="inline" fill="url(#SVGID_14_)" d="M358.767,83.292l3.073-19.223l35.433,0.666c0,0,0.613,3.984-0.404,13.817
		c-1.017,9.834-2.992,14.377-2.992,14.377S362.216,83.426,358.767,83.292z"/>
	
		<linearGradient id="SVGID_15_" gradientUnits="userSpaceOnUse" x1="453.7358" y1="14.0029" x2="471.9923" y2="32.4368" gradientTransform="matrix(0.1578 -0.9875 0.9875 0.1578 263.2451 525.5795)">
		<stop  offset="0" style="stop-color:#A35521"/>
		<stop  offset="1" style="stop-color:#773E18"/>
	</linearGradient>
	<path display="inline" fill="url(#SVGID_15_)" d="M353.573,83.319c0.414,2.395,4.409,2.965,5.434,0.912
		c1.025-2.052,2.797-17.188,3.008-20.591c0.211-3.405-4.19-3.208-5.418-1.667C355.368,63.515,353.159,80.923,353.573,83.319z"/>
	<linearGradient id="SVGID_16_" gradientUnits="userSpaceOnUse" x1="363.5801" y1="84.29" x2="364.3457" y2="64.0618">
		<stop  offset="0" style="stop-color:#F2D857"/>
		<stop  offset="0.2086" style="stop-color:#B39F40"/>
		<stop  offset="1" style="stop-color:#F2D857"/>
	</linearGradient>
	<path display="inline" fill="url(#SVGID_16_)" d="M362.174,83.962c0,0,2.141-10.816,2.003-19.86
		c0.614,0.029,1.308,0.002,1.308,0.002s0.96,6.49-2.191,20.174C362.834,84.137,362.174,83.962,362.174,83.962z"/>
	<linearGradient id="SVGID_17_" gradientUnits="userSpaceOnUse" x1="392.3931" y1="92.4053" x2="393.444" y2="64.6395">
		<stop  offset="0" style="stop-color:#F2D857"/>
		<stop  offset="0.2086" style="stop-color:#B39F40"/>
		<stop  offset="1" style="stop-color:#F2D857"/>
	</linearGradient>
	<path display="inline" fill="url(#SVGID_17_)" d="M392.093,92.394c0,0,1.939-7.817,2.542-14.608
		c0.603-6.791,0.438-13.084,0.438-13.084l-1.242,0.009c0,0-0.35,6.073-0.822,14.193c-0.471,8.121-2.429,13.042-2.429,13.042
		L392.093,92.394z"/>
	
		<linearGradient id="SVGID_18_" gradientUnits="userSpaceOnUse" x1="455.3691" y1="126.6025" x2="477.8863" y2="77.3458" gradientTransform="matrix(0.9936 -0.1134 0.1134 0.9936 -11.0959 46.4572)">
		<stop  offset="0" style="stop-color:#ECECEC"/>
		<stop  offset="0.2086" style="stop-color:#B2B2B2"/>
		<stop  offset="1" style="stop-color:#FFFFFF"/>
	</linearGradient>
	<path display="inline" fill="url(#SVGID_18_)" d="M468.573,90.757c-0.279,0.062-0.64,0.989-0.918,1.856
		c-0.338-0.067-0.669-0.127-0.989-0.182c-9.421-1.591-29.287-1.526-36.128,7.319c-1.913,0.052-5.854,0.496-6.374,3.279
		c-0.413,2.212,2.481,3.521,4.545,4.166c1.021,2.56,3.937,3.388,3.937,3.388l56.386,9.297c0,0,5.4-1.084,6.146-6.397
		c0.759-5.398-3.635-10.166-9.538-13.826c0.534-1.497,1.128-3.326,1.031-3.805C486.497,95.004,469.104,90.636,468.573,90.757z"/>
	<path display="inline" fill="#C9351C" d="M469.335,93.031c0.29-0.092,14.559,3.704,14.876,4.306c0.317,0.602-1.702,6.34-1.702,6.34
		l-14.677-4.688L469.335,93.031z"/>
	<linearGradient id="SVGID_19_" gradientUnits="userSpaceOnUse" x1="473.6533" y1="125.2417" x2="476.4526" y2="92.584">
		<stop  offset="0" style="stop-color:#F2D857"/>
		<stop  offset="0.2086" style="stop-color:#B39F40"/>
		<stop  offset="1" style="stop-color:#F2D857"/>
	</linearGradient>
	<path display="inline" fill="url(#SVGID_19_)" d="M467.832,98.988l1.503-5.957c0.29-0.092,14.559,3.704,14.876,4.306
		c0.05,0.095,0.042,0.319-0.007,0.626c-0.263,1.644-1.694,5.714-1.694,5.714L467.832,98.988 M466.527,99.714l0.973,0.311
		l14.679,4.688l1.006,0.32l0.351-0.997c0.06-0.169,1.468-4.18,1.743-5.902c0.07-0.441,0.107-0.904-0.104-1.305
		c-0.259-0.492-0.431-0.817-8.12-2.954c-7.449-2.071-7.753-1.976-8.046-1.883l-0.58,0.183l-0.148,0.589l-1.504,5.958L466.527,99.714
		L466.527,99.714z"/>
	<linearGradient id="SVGID_20_" gradientUnits="userSpaceOnUse" x1="446.5664" y1="122.9199" x2="449.3657" y2="90.2622">
		<stop  offset="0" style="stop-color:#F2D857"/>
		<stop  offset="0.2086" style="stop-color:#B39F40"/>
		<stop  offset="1" style="stop-color:#F2D857"/>
	</linearGradient>
	<path display="inline" fill="url(#SVGID_20_)" d="M465.408,94.332c-0.046,0.291-0.314,0.492-0.608,0.454
		c-0.218-0.029-21.994-2.753-31.795,6.189c-0.222,0.203-0.566,0.186-0.769-0.036c-0.203-0.222-0.186-0.566,0.036-0.768
		c10.175-9.284,31.755-6.584,32.67-6.465c0.297,0.039,0.507,0.312,0.469,0.61C465.409,94.321,465.408,94.327,465.408,94.332
		L465.408,94.332z"/>
	<path display="inline" fill="#F2D857" d="M433.142,110.666l3.141,0.517c-3.431-1.661-4.796-3.289-4.811-3.308
		c-0.188-0.233-0.53-0.27-0.764-0.082c-0.233,0.187-0.271,0.528-0.085,0.763C430.67,108.613,431.408,109.514,433.142,110.666z"/>
	<linearGradient id="SVGID_21_" gradientUnits="userSpaceOnUse" x1="488.251" y1="126.4932" x2="491.0503" y2="93.8354">
		<stop  offset="0" style="stop-color:#F2D857"/>
		<stop  offset="0.2086" style="stop-color:#B39F40"/>
		<stop  offset="1" style="stop-color:#F2D857"/>
	</linearGradient>
	<path display="inline" fill="url(#SVGID_21_)" d="M485.908,101.761c-0.181,0.242-0.129,0.583,0.112,0.761l0.432,0.315
		c2.167,1.569,7.245,5.243,6.292,11.199c-0.422,2.646-4.299,4.399-6.974,5.307l2.135,0.353c2.622-1.114,5.499-2.9,5.913-5.488
		c1.057-6.616-4.4-10.565-6.729-12.252l-0.421-0.306C486.429,101.469,486.088,101.52,485.908,101.761z"/>
	<path display="inline" fill="#C9351C" d="M430.754,105.804c0,0,0.008-1.901,0.782-3.271c-1.836-1.785-5.677-2.295-4.344,0.95
		C426.312,105.328,427.491,106.616,430.754,105.804z"/>
	<path display="inline" fill="#F2D857" d="M430.818,105.849c0,0,0.11-2.311,0.788-3.421c-0.289-0.231-0.618-0.443-0.618-0.443
		s-0.999,1.941-1.855,1.908c0.719,0.459,1.115,2.072,1.115,2.072L430.818,105.849z"/>
	<polygon display="inline" fill="#F2D857" points="427.533,103.705 426.729,103.75 426.717,104.04 426.138,104.245 426.142,103.655 
		425.764,103.647 425.821,103.16 426.234,103.187 426.313,102.801 426.907,102.843 426.848,103.214 427.6,103.28 	"/>
	<path display="inline" fill="#C9351C" d="M460.752,115.218l15.829,2.609c2.625-3.748,4.277-11.104,5.117-15.107
		c0.101-0.48-15.624-5.665-15.688-5.262C465.947,97.853,464.292,109.221,460.752,115.218z"/>
	<linearGradient id="SVGID_22_" gradientUnits="userSpaceOnUse" x1="469.8174" y1="124.9131" x2="472.6167" y2="92.2554">
		<stop  offset="0" style="stop-color:#F2D857"/>
		<stop  offset="0.2086" style="stop-color:#B39F40"/>
		<stop  offset="1" style="stop-color:#F2D857"/>
	</linearGradient>
	<path display="inline" fill="url(#SVGID_22_)" d="M465.637,96.427l-0.586,0.224l-0.115,0.635l-0.01,0.063l-0.049,0.309
		c-0.308,1.928-2.042,12.214-5.271,17.357l-0.008,0.012l1.147,0.19c3.213-5.441,4.885-15.369,5.207-17.386
		c0.032-0.208,0.053-0.335,0.058-0.372c0.065-0.403,15.767,4.774,15.689,5.262c0,0,0,0,0,0c-0.84,4.003-2.492,11.359-5.117,15.107
		l1.185,0.195c2.484-3.873,4.043-10.533,4.997-15.079c0-0.002,0-0.005,0.001-0.007c0.039-0.249,0.054-0.737-0.429-1.129
		c-0.696-0.565-4.899-2.028-8.303-3.157C466.42,96.126,466.022,96.279,465.637,96.427z"/>
	<g display="inline">
		<g>
			<linearGradient id="SVGID_23_" gradientUnits="userSpaceOnUse" x1="435.8145" y1="99.7988" x2="436.8145" y2="79.6318">
				<stop  offset="0" style="stop-color:#000000;stop-opacity:0.05"/>
				<stop  offset="1" style="stop-color:#000000;stop-opacity:0.15"/>
			</linearGradient>
			<path fill="url(#SVGID_23_)" d="M511.693,73.546c-0.896-1.065-1.968-1.794-3.234-2.088c-13.016-3.029-48.637-9.394-71.037-12.309
				c-0.63-0.082-1.231-0.155-1.816-0.224l-11.439,15.742c2.167,5,4.167,9.666,11.167,11.833s16-0.333,16-0.333s6.333,6.5,13.833,8.5
				s18-1.167,18-1.167s10.5,7.333,19,6C509.988,98.273,513.853,86.462,511.693,73.546z"/>
		</g>
	</g>
	<g display="inline">
		<g>
			<linearGradient id="SVGID_24_" gradientUnits="userSpaceOnUse" x1="435.5083" y1="105.9717" x2="436.4823" y2="86.3285">
				<stop  offset="0" style="stop-color:#000000;stop-opacity:0.05"/>
				<stop  offset="1" style="stop-color:#000000;stop-opacity:0.15"/>
			</linearGradient>
			<path fill="url(#SVGID_24_)" d="M423.037,108.802c0.126,0.021,0.248,0.045,0.376,0.066c7.849,1.254,24.129,4.096,40.032,6.776
				c-5.113-10.693-18.188-14.277-26.112-12.144c-1.333-7.5-5.5-14-13.167-16.5L423.037,108.802z"/>
		</g>
	</g>
	<linearGradient id="SVGID_25_" gradientUnits="userSpaceOnUse" x1="436.561" y1="120.6338" x2="417.0971" y2="89.9475">
		<stop  offset="0" style="stop-color:#9424CF"/>
		<stop  offset="1" style="stop-color:#8320B7"/>
	</linearGradient>
	<path display="inline" fill="url(#SVGID_25_)" d="M427.75,136.125c1.085-4.171-20.245-15.275-23.461-21.351
		c-3.216-6.074-5.064-22.507,2.573-27.766S424.946,83.816,430,92.25c3.267,5.451,3.25,13.25,3.25,13.25s23.926-3.795,30,13
		c6.075,16.795-8.574,29.866-12.862,30.938C446.1,150.51,420.5,164,427.75,136.125z"/>
	<linearGradient id="SVGID_26_" gradientUnits="userSpaceOnUse" x1="419.3364" y1="32.4165" x2="506.3364" y2="96.9165">
		<stop  offset="0" style="stop-color:#9424CF"/>
		<stop  offset="1" style="stop-color:#8320B7"/>
	</linearGradient>
	<path display="inline" fill="url(#SVGID_26_)" d="M431.698,41.995c-6.042,6.191-12.774,22.371-8.341,31.462
		c4.433,9.09,19.22,10.286,26.421,6.731c6.295,10.185,17.77,12.11,28.927,6.816c2.04,4.526,16.357,10.165,23.652,2.309
		s12.297-22.961,7.367-29.049c-5.053-6.242-18.396-11.277-24.241-5.245c-2.47-10.681-24.671-11.399-29.432-5.432
		C454.246,41.133,437.739,35.804,431.698,41.995z"/>
	<path display="inline" fill="#6D19A3" d="M449.778,80.188c6.295,10.185,17.77,12.11,28.927,6.816
		c2.04,4.526,16.357,10.165,23.652,2.309c6.886-7.417,11.725-21.288,8.099-27.94c0.642,7.497-2.778,16.845-7.831,19.251
		c-5.25,2.5-19.5-1.25-20.5-4.75s3.358-20.855,3.358-20.855c-0.254-1.098-0.726-2.084-1.356-2.976
		c0.188,1.364,0.169,3.545-0.752,6.706c-1.75,6-3.75,17.375-12.375,16.75s-16.5-2.25-17.5-5.75s2.552-20.162,2.552-20.162
		c-0.287-1.344-0.948-2.608-1.877-3.76c0.214,1.138,0.343,2.467,0.2,3.797c-0.375,3.5-3.5,18.375-8.125,19.5s-20-1.25-22.375-4.75
		c-0.696-1.025-1.118-2.243-1.375-3.454c-0.897,4.578-0.832,9.072,0.857,12.536C427.79,82.547,442.577,83.743,449.778,80.188z"/>
	<path display="inline" fill="#6D19A3" d="M464.073,121.287c-0.216-0.917-0.482-1.845-0.823-2.787c-6.074-16.795-30-13-30-13
		s0.017-7.799-3.25-13.25c-3.401-5.676-9.244-8.453-15.03-8.069c4.212,0.845,8.764,2.882,8.364,8.486
		c-0.5,7-3.371,12.633,3.833,17.667C434.254,115.285,455.451,106.964,464.073,121.287z"/>
	<path display="inline" fill="#AD6647" d="M354.625,75.875c0,0,1.75-10.375,2-11.625s3.5-1.125,4.25-0.5s-0.125,2.375-0.75,2.25
		s-2.75-1.375-3.125,0.625S354.625,75.875,354.625,75.875z"/>
</g>
<g id="monster_body_copy" display="none">
	<g display="inline">
		<g>
			<linearGradient id="SVGID_27_" gradientUnits="userSpaceOnUse" x1="109.708" y1="271.873" x2="923.6729" y2="271.873">
				<stop  offset="0" style="stop-color:#9424CF"/>
				<stop  offset="1" style="stop-color:#8320B7"/>
			</linearGradient>
			<path fill="url(#SVGID_27_)" d="M877.577,422.582C862.654,398.74,779,430.414,779,430.414s-120.893-18.081-178.667-20.081
				c-9.034-0.312-18.161-0.145-27.13,0.361c0.788-46.349-16.705-96.989-64.663-120.968c-88.19-44.094-163.875-21.061-150.71-59.89
				c13.164-38.83,7.239-66.471,7.239-66.471s-69.104,17.77-125.703,3.291c80.95-1.316,114.514-17.111,114.514-17.111
				s-13.162-94.113-88.848-104.643c-75.685-10.53-154.661,50.676-155.319,190.856C109.055,375.94,168.288,500,168.288,500
				s198.892,0,306.712,0h312c78.406,0,113.543-4.114,134.82-25.19C932.893,463.844,891.301,444.506,877.577,422.582z"/>
		</g>
	</g>
	<path display="inline" fill="#6D19A3" d="M118.333,273c0,0-4,22-4.935,27.329C126.24,411.918,168.287,500,168.288,500
		c0,0,10.973,0,29.156,0c1.547-2.897,2.31-6.962,1.557-12.667c-2.851-21.581-38.667-25.999-36.667-34.999
		c3.052-13.732,6.333-57.666,9.333-90c1.053-11.346,1.477-32.577-3.866-53.358C156.667,265.667,118.333,273,118.333,273z"/>
	<circle display="inline" fill="#FFFFFF" cx="313.859" cy="102.607" r="8.226"/>
	<circle display="inline" fill="#6D19A3" cx="268.748" cy="105.958" r="30.663"/>
	<circle display="inline" fill="#FFFFFF" cx="275.248" cy="106.436" r="20.403"/>
	<path display="inline" d="M315.819,127.456c-1.323,0.48,0.821,6.587,1.58,6.508C318.157,133.885,318.599,126.445,315.819,127.456z"
		/>
	<path display="inline" d="M309.501,127.391c-1.181,0.646-0.379,9.778,2.558,10.284C314.997,138.18,311.634,126.222,309.501,127.391
		z"/>
	<path display="inline" fill="none" stroke="#6D19A3" stroke-width="4" stroke-linecap="round" d="M532.575,353.649
		c2.909-2.051,0.392-22.724-10.412-20.466c-10.803,2.258,4.465,19.634,5.271,12.701"/>
	<path display="inline" fill="#6D19A3" d="M557.667,409.001c-0.458,1.025-0.936,2.039-1.425,3.046
		c5.545-0.563,11.217-1.027,16.956-1.352c0.611-36.247-9.961-75.119-37.542-101.81C551.696,329.65,575.263,369.645,557.667,409.001z
		"/>
	<path display="inline" fill="#6D19A3" d="M823,484c0,0-330,21-497-10c-127.688-23.703-176.333-125.666-176.333-125.666
		l-14.451,60.074C151.006,463.791,168.288,500,168.288,500s542.562,0,616.046,0c16.295,0,30.717-0.179,43.539-0.649L823,484z"/>
	<linearGradient id="SVGID_28_" gradientUnits="userSpaceOnUse" x1="843.4834" y1="383.8477" x2="927.996" y2="529.6272">
		<stop  offset="0" style="stop-color:#2E2E2E"/>
		<stop  offset="1" style="stop-color:#000000"/>
	</linearGradient>
	<path display="inline" fill="url(#SVGID_28_)" d="M779,430.414c0,0,35.48,5.761,44.15,30.914
		c8.841,25.653-11.005,38.669-11.005,38.669s34.328,0.003,57.209,0.006c15.502,0.003,36.387,3.628,70.02-25.742
		c30.347-26.498,27.711-107.834-41.874-96.511C815.166,391.149,779,430.414,779,430.414z"/>
	<path display="inline" fill="#7D7D7D" d="M884.892,410.311c9.438-11.889,3.826-29.592,3.769-29.77l-0.951,0.31
		c0.057,0.173,5.501,17.374-3.601,28.839c-8.705,10.97-68.037,27.924-78.621,30.88c0.375,0.235,0.747,0.483,1.118,0.729
		C819.41,437.723,876.093,421.398,884.892,410.311z"/>
	<path display="inline" fill="#7D7D7D" d="M901.884,458.014c-15.827,3.793-62.886,24.512-81.19,32.7
		c-0.334,0.54-0.674,1.058-1.018,1.551c17.131-7.681,66.262-29.401,82.44-33.278c18.487-4.43,34.72,17.091,34.879,17.304
		l0.406-1.088C937.24,474.983,921.015,453.429,901.884,458.014z"/>
	<path display="inline" fill="#FFFFFF" d="M900.396,376.297c-0.062,0.008-0.124,0.014-0.187,0.022
		c-0.891,0.118-1.791,0.249-2.705,0.397c-1.607,0.262-3.191,0.537-4.765,0.818c-0.21,0.038-0.419,0.077-0.628,0.115
		c-1.512,0.273-3.007,0.557-4.485,0.848c-0.008,0.002-0.017,0.003-0.024,0.005l0,0C812.269,393.362,779,430.414,779,430.414
		s0.999,0.166,2.679,0.545c-0.28-0.082-0.562-0.163-0.838-0.235c11.293-10.236,46.194-37.485,107.858-49.753
		c42.899,21.913,56.264,68.927,48.296,95.319c0,0,0.001-0.263,0,0c0.788-0.664,1.576-1.329,2.379-2.029
		c8.854-7.73,14.992-20.269,17.488-33.846C962.938,408.219,948.854,369.963,900.396,376.297z"/>
	<path display="inline" fill="#FFFFFF" d="M869.056,420.101c0.324,16.731-0.188,44.084-6.112,58.637
		c-1.25,3.069,0.225,6.57,3.294,7.819c0.741,0.302,1.507,0.445,2.261,0.445c2.367,0,4.611-1.411,5.559-3.739
		c7.59-18.642,7.41-53.303,6.846-69.487C877.926,415.813,873.827,417.951,869.056,420.101z"/>
	<path display="inline" fill="#EBEBEB" d="M880.902,413.775c-2.977,2.038-7.075,4.176-11.847,6.325
		c0.031,1.632,0.055,3.366,0.066,5.179c5.033-2.215,8.936-4.244,11.932-6.053C881.012,417.247,880.959,415.412,880.902,413.775z"/>
	<path display="inline" fill="#FFFFFF" d="M902.993,475.5c-3.056,0-5.667-2.322-5.966-5.426c-4.558-47.4-25.051-59.126-25.256-59.23
		c-2.951-1.507-4.122-5.121-2.615-8.072s5.121-4.123,8.072-2.615c1.079,0.551,26.489,14.124,31.744,68.77
		c0.317,3.299-2.1,6.229-5.398,6.547C903.379,475.491,903.185,475.5,902.993,475.5L902.993,475.5z"/>
	<path display="inline" fill="#FFFFFF" d="M839.988,418.689c15.391,8.933,27.759,19.815,48.74,43.54
		c4.971-1.808,9.247-3.216,12.43-4.029c-24.074-27.57-37.665-39.743-55.146-49.89c-2.867-1.663-6.538-0.688-8.201,2.178
		S837.122,417.026,839.988,418.689z"/>
	<path display="inline" fill="#FFFFFF" d="M836.412,432.284c-1.787,43.847-5.643,59.405-5.716,59.693
		c-0.839,3.199,1.068,6.475,4.267,7.322c0.516,0.137,1.032,0.202,1.541,0.202c2.655,0,5.084-1.777,5.796-4.465
		c0.2-0.754,4.528-17.631,6.282-66.885C844.519,429.591,840.408,430.979,836.412,432.284z"/>
	<path display="inline" fill="#EBEBEB" d="M836.144,438.309c3.65-1.467,7.728-3.083,12.232-4.838
		c0.072-1.733,0.142-3.497,0.206-5.318c-4.063,1.438-8.174,2.826-12.17,4.132C836.327,434.362,836.236,436.356,836.144,438.309z"/>
	<path display="inline" fill="#FFFFFF" d="M856.923,474.937c3.826-1.614,7.679-3.22,11.462-4.768
		c-20.479-27.626-53.809-47.438-55.343-48.341c-2.855-1.679-6.53-0.727-8.212,2.128c-1.681,2.855-0.729,6.532,2.126,8.215
		C807.298,432.372,837.706,450.472,856.923,474.937z"/>
	<path display="inline" fill="#EBEBEB" d="M956.862,440.415c3.547-18.798,0.218-39.657-12.809-52.506
		c9.362,15.086,8.089,40.613-5.116,65.978c0.63,7.929-0.047,16.125-1.942,22.403c0,0,0.001-0.263,0,0
		c0.788-0.664,1.576-1.329,2.379-2.029C948.228,466.53,954.366,453.992,956.862,440.415z"/>
	<path display="inline" fill="#EBEBEB" d="M881.03,436.268c-0.133,5.315-0.401,10.914-0.878,16.469
		c0.52,0.561,1.041,1.127,1.571,1.705c0.441-5.155,0.696-12.057,0.827-16.621C882.039,437.293,881.534,436.778,881.03,436.268z"/>
	<path display="inline" fill="#EBEBEB" d="M846.563,463.287c0.627,0.633,1.25,1.273,1.868,1.92
		c0.506-4.896,1.032-11.617,1.328-15.578c-0.697-0.651-1.395-1.293-2.093-1.927C847.325,453.503,846.952,458.693,846.563,463.287z"
		/>
</g>
<g id="monster_arm_prop" display="none">
	<linearGradient id="SVGID_29_" gradientUnits="userSpaceOnUse" x1="154.8057" y1="273.917" x2="91.8057" y2="517.917">
		<stop  offset="0" style="stop-color:#9424CF"/>
		<stop  offset="1" style="stop-color:#8320B7"/>
	</linearGradient>
	<path display="inline" fill="url(#SVGID_29_)" d="M149.333,439.333c3.515-13.621,14.133-61.389,18.333-83.667
		c7.667-40.666,11.823-129.12-42.473-121.222c-23.487,3.417-46.398,77.989-52.321,127.348C69.083,393.37,66.656,428.904,65,456
		c-19,3-31.667,8-43.333,14s-15,30-1,30s145.833-0.001,151-0.001s18.667-1.665,16.333-19.332
		C185.149,459.086,144,459.999,149.333,439.333z"/>
	<g>
		<g display="inline">
			<path fill="#6D19A3" d="M188.187,482.527c-2.169,9.85-15.791,15.494-44.937,4.723c-0.802,8.017-2.068,9.926-4.221,12.749
				c0.002,0,0.005,0,0.008,0c17.94,0,31.069,0,32.63,0C176.645,499.999,189.356,498.447,188.187,482.527z M153.043,451.781
				c-3.36-3.218-5.086-7.112-3.709-12.448c3.515-13.621,14.133-61.389,18.333-83.667c3.959-21.001,6.981-54.746,1.501-81.385
				c-0.826,14.897-3.46,42.462-11.167,75.219c-12,51-22.5,84.5-13.5,96.25C146.35,448.165,149.351,450.12,153.043,451.781z"/>
		</g>
	</g>
	<path fill="#6D19A3" d="M82.333,467.666c0,0-28,1.334-38,10.667S40.333,500,45.667,500s60.667,0,60.667,0L82.333,467.666z"/>
	<path fill="#60059B" d="M94.333,468.333c-7,3.667-18,31.667-2.667,31.667S121,500,131,500s5-30.001-7.667-33.334
		S101.333,464.666,94.333,468.333z"/>
	<path display="inline" fill="#6D19A3" d="M135.333,466.667c0,0,21.959,10.666,4.959,33.333H97.625c0,0-6.25-3.25-3.375-9.75
		c4.25,5.25,23.75,6.249,32.917,2.25S140.333,477.833,135.333,466.667z"/>
	<path display="inline" fill="#6D19A3" d="M103.833,462.667c-14,11.834-11.5,37.333-2.5,37.333L54,500.333
		c0,0-8.667-3.667-7.5-14.333c5.167,8.334,30.999,8.168,35.666,2.668S93.167,465.166,103.833,462.667z"/>
	<path display="inline" fill="#6D19A3" d="M67.907,463.284c0,0-15.157,3.501-21.844,10.053s-4.339,12.008-8.599,16.787
		c-2.03,2.277-20.2,6.141-25.659,1.501c-0.042,0.002-0.077,0.008-0.119,0.01c0.745,4.76,3.558,8.365,8.979,8.365
		c3.889,0,16.878,0,33.713,0C31.408,479.573,67.907,463.284,67.907,463.284z"/>
	<path display="inline" fill="#6D19A3" d="M187.337,490.621c-9.833,8.59-43.13,1.076-43.13,1.076s-3.574,5.512-6.102,8.302
		c8.921,0,19.868,0,28.97,0c2.509,0,4.107,0,4.591,0C175.623,499.999,184.459,499.014,187.337,490.621z"/>
</g>
<g id="flat_buildings_2" display="none">
	<path display="inline" fill="#1F2233" d="M1034,333l5,91l-111,3l1-18l-71,2l5,89h302l6-173L1034,333z M874,448l-1-15l14-1l3,13
		L874,448z M900,445v-13l15-4l3,16L900,445z M1149,382l-35,1l1-21l37-8L1149,382z"/>
</g>
<g id="building_2" display="none">
	<path display="inline" d="M1077.001,122.728c0,0-2.417-6.155-3.077-6.155c-0.214,0-2.238,0.812-4.869,1.907l-1.78-21.203
		l0.935-0.268v-3.297l-1.219,0.188l-1.419-16.893l-3.045,2.219L1062,94.668l-2.363,0.364l0.879,4.176l1.343-0.383l-0.785,23.031
		c-3.139,1.341-5.614,2.411-5.614,2.411l-0.658,2.637l6.14-1.155l-1.226,35.945l12.183-9.372l-2.368-28.189L1077.001,122.728z"/>
	<polygon display="inline" points="1094.352,138.42 1123.209,180.859 1130,497.454 1098.595,500 	"/>
	<linearGradient id="SVGID_30_" gradientUnits="userSpaceOnUse" x1="966.7275" y1="194.8389" x2="1161.9473" y2="553.0247">
		<stop  offset="0" style="stop-color:#404A6E"/>
		<stop  offset="1" style="stop-color:#1F2435"/>
	</linearGradient>
	<polygon display="inline" fill="url(#SVGID_30_)" points="974.674,500 967.034,162.186 1094.352,138.42 1106.234,500 	"/>
	<linearGradient id="SVGID_31_" gradientUnits="userSpaceOnUse" x1="973.5371" y1="324.4902" x2="1093.6542" y2="319.4861">
		<stop  offset="0" style="stop-color:#8CA9DD;stop-opacity:0.2"/>
		<stop  offset="0.0798" style="stop-color:#8CA9DD;stop-opacity:0"/>
		<stop  offset="0.8957" style="stop-color:#8CA9DD;stop-opacity:0"/>
		<stop  offset="1" style="stop-color:#8CA9DD;stop-opacity:0.2"/>
	</linearGradient>
	<polygon display="inline" fill="url(#SVGID_31_)" points="974.674,500 967.034,162.186 1094.352,138.42 1106.234,500 	"/>
	
		<radialGradient id="SVGID_32_" cx="1015.667" cy="213.0005" r="54.5571" gradientTransform="matrix(0.9371 0 0 0.9371 71.0376 31.4325)" gradientUnits="userSpaceOnUse">
		<stop  offset="0" style="stop-color:#F2E77C;stop-opacity:0.2"/>
		<stop  offset="1" style="stop-color:#F2E77C;stop-opacity:0"/>
	</radialGradient>
	<polygon display="inline" fill="url(#SVGID_32_)" points="974.674,500 967.034,162.186 1094.352,138.42 1106.234,500 	"/>
	
		<radialGradient id="SVGID_33_" cx="1043" cy="305" r="38.0001" gradientTransform="matrix(0.9371 0 0 0.9371 71.0376 31.4325)" gradientUnits="userSpaceOnUse">
		<stop  offset="0" style="stop-color:#F2E77C;stop-opacity:0.2"/>
		<stop  offset="1" style="stop-color:#F2E77C;stop-opacity:0"/>
	</radialGradient>
	<polygon display="inline" fill="url(#SVGID_33_)" points="974.674,500 967.034,162.186 1094.352,138.42 1106.234,500 	"/>
	
		<radialGradient id="SVGID_34_" cx="1005.667" cy="419" r="37.9061" gradientTransform="matrix(0.9371 0 0 0.9371 71.0376 31.4325)" gradientUnits="userSpaceOnUse">
		<stop  offset="0" style="stop-color:#F2E77C;stop-opacity:0.2"/>
		<stop  offset="1" style="stop-color:#F2E77C;stop-opacity:0"/>
	</radialGradient>
	<polygon display="inline" fill="url(#SVGID_34_)" points="974.674,500 967.034,162.186 1094.352,138.42 1106.234,500 	"/>
	<polygon display="inline" fill="#8CA9DD" points="967.034,162.186 974.674,500 979.745,500 974.123,160.444 	"/>
	<polygon display="inline" fill="#8CA9DD" points="1094.352,138.42 1106.234,500 1102.822,500 1084.66,140.11 	"/>
	<polygon display="inline" fill="#F2E77C" points="999.738,224.482 1000.676,231.042 1015.67,230.105 1012.858,218.859 	"/>
	<polygon display="inline" fill="#F2E77C" points="1020.355,228.231 1020.355,220.734 1034.412,219.796 1037.224,229.168 	"/>
	<polygon display="inline" fill="#F2E77C" points="1019.418,235.728 1037.224,234.791 1039.098,246.037 1021.292,246.037 	"/>
	<polygon display="inline" fill="#F2E77C" points="1030.664,313.51 1030.664,325.693 1044.721,324.756 1043.783,315.385 	"/>
	<polygon display="inline" fill="#F2E77C" points="1051.28,314.447 1052.218,324.756 1067.212,322.882 1066.275,313.51 	"/>
	<polygon display="inline" fill="#F2E77C" points="1004.424,421.28 1003.486,430.652 1022.229,429.715 1021.292,419.406 	"/>
</g>
<g id="Layer_13">
	<polygon points="212,348 219.667,361 219,376.333 196.333,385 	"/>
	<linearGradient id="SVGID_35_" gradientUnits="userSpaceOnUse" x1="156.0317" y1="336.3574" x2="163.0317" y2="383.3574">
		<stop  offset="0" style="stop-color:#404A6E"/>
		<stop  offset="1" style="stop-color:#1F2435"/>
	</linearGradient>
	<polygon fill="url(#SVGID_35_)" points="108,378 105,342 212,348 212,382 	"/>
	<polygon points="398,369 406.333,399 399,477 388.333,478.333 390.066,500 369.56,500 	"/>
	<linearGradient id="SVGID_36_" gradientUnits="userSpaceOnUse" x1="120.0771" y1="317.6807" x2="258.0771" y2="510.6807">
		<stop  offset="0" style="stop-color:#404A6E"/>
		<stop  offset="1" style="stop-color:#080D20"/>
	</linearGradient>
	<polygon fill="url(#SVGID_36_)" points="92,500 91,459 386,468 383,500 	"/>
	<linearGradient id="SVGID_37_" gradientUnits="userSpaceOnUse" x1="215.8408" y1="313.002" x2="266.8333" y2="506.2366">
		<stop  offset="0" style="stop-color:#404A6E"/>
		<stop  offset="1" style="stop-color:#1F2435"/>
	</linearGradient>
	<path fill="url(#SVGID_37_)" d="M92,478l-7-111c0,0,150,6,212,6s101-4,101-4l-1,105h-11L92,478z"/>
	<radialGradient id="SVGID_38_" cx="334" cy="405" r="186.0108" gradientUnits="userSpaceOnUse">
		<stop  offset="0" style="stop-color:#F2E77C;stop-opacity:0.2"/>
		<stop  offset="1" style="stop-color:#F2E77C;stop-opacity:0"/>
	</radialGradient>
	<path fill="url(#SVGID_38_)" d="M92,478l-7-111c0,0,150,6,212,6s101-4,101-4l-1,105h-11L92,478z"/>
	<radialGradient id="SVGID_39_" cx="122" cy="399" r="44.3847" gradientUnits="userSpaceOnUse">
		<stop  offset="0" style="stop-color:#F2E77C;stop-opacity:0.2"/>
		<stop  offset="1" style="stop-color:#F2E77C;stop-opacity:0"/>
	</radialGradient>
	<path fill="url(#SVGID_39_)" d="M92,478l-7-111c0,0,150,6,212,6s101-4,101-4l-1,105h-11L92,478z"/>
	<path fill="#F2E77C" d="M397.789,380.979c0,0-52.789,7.021-150.789,6.021l-3,25c0,0,132,10,153.672-1.467
		C397.672,400.533,397.789,380.979,397.789,380.979z"/>
	<path fill="#F2E77C" d="M397.672,424.137c0,0-35.672,7.863-84.672,5.863s-63-3-63-3l1,20c0,0,66,3,87,2s59.085-2.11,59.085-2.11
		L397.672,424.137z"/>
	<polygon fill="#F2E77C" points="104,395 104,408 115,408 115,394 	"/>
	<polygon fill="#F2E77C" points="127,406 127,392 137,392 138,406 	"/>
</g>
</svg>
