<?xml version="1.0" encoding="utf-8"?>
<!-- Generator: Adobe Illustrator 15.0.0, SVG Export Plug-In . SVG Version: 6.00 Build 0)  -->
<!DOCTYPE svg PUBLIC "-//W3C//DTD SVG 1.1//EN" "http://www.w3.org/Graphics/SVG/1.1/DTD/svg11.dtd">
<svg version="1.1" id="Layer_1" xmlns="http://www.w3.org/2000/svg" xmlns:xlink="http://www.w3.org/1999/xlink" x="0px" y="0px"
	 width="1200px" height="500px" viewBox="0 0 1200 500" enable-background="new 0 0 1200 500" xml:space="preserve">
<g id="building">
	<g id="clock_1_">
		<polygon points="796.124,168.291 797.703,113.006 800.072,165.131 		"/>
		<polygon points="816.25,182.917 804.021,160.393 805.666,183.833 808.421,183.705 810.167,212.667 813.5,213.5 812.833,183.5 		
			"/>
		
			<linearGradient id="SVGID_1_" gradientUnits="userSpaceOnUse" x1="1310.1221" y1="489.6924" x2="1315.6506" y2="514.1757" gradientTransform="matrix(1 0 0 1 -512 -291)">
			<stop  offset="0" style="stop-color:#404A6E"/>
			<stop  offset="1" style="stop-color:#1F2435"/>
		</linearGradient>
		<polygon fill="url(#SVGID_1_)" points="786.252,216.073 788.226,180.927 809.55,179.348 811.13,213.308 		"/>
		
			<radialGradient id="SVGID_2_" cx="1312.6553" cy="484.1797" r="21.9411" gradientTransform="matrix(1 0 0 1 -512 -291)" gradientUnits="userSpaceOnUse">
			<stop  offset="0" style="stop-color:#FFFFFF;stop-opacity:0.25"/>
			<stop  offset="1" style="stop-color:#FFFFFF;stop-opacity:0"/>
		</radialGradient>
		<polygon fill="url(#SVGID_2_)" points="786.252,216.073 788.226,180.927 809.55,179.348 811.13,213.308 		"/>
		<polygon points="825.346,211.729 832.5,227.5 829.75,289.75 817,276.75 		"/>
		
			<linearGradient id="SVGID_3_" gradientUnits="userSpaceOnUse" x1="1289.3652" y1="498.4121" x2="1324.1248" y2="581.1492" gradientTransform="matrix(1 0 0 1 -512 -291)">
			<stop  offset="0" style="stop-color:#404A6E"/>
			<stop  offset="1" style="stop-color:#1F2435"/>
		</linearGradient>
		<polygon fill="url(#SVGID_3_)" points="764.532,286.758 770.851,210.149 825.346,211.729 827.715,283.6 		"/>
		
			<radialGradient id="SVGID_4_" cx="1309.5" cy="542" r="39.5284" gradientTransform="matrix(1 0 0 1 -512 -291)" gradientUnits="userSpaceOnUse">
			<stop  offset="0" style="stop-color:#F2E77C;stop-opacity:0.2"/>
			<stop  offset="1" style="stop-color:#F2E77C;stop-opacity:0"/>
		</radialGradient>
		<polygon fill="url(#SVGID_4_)" points="764.532,286.758 770.851,210.149 825.346,211.729 827.715,283.6 		"/>
		
			<linearGradient id="SVGID_5_" gradientUnits="userSpaceOnUse" x1="1302.0205" y1="452.791" x2="1315.0502" y2="481.7473" gradientTransform="matrix(1 0 0 1 -512 -291)">
			<stop  offset="0" style="stop-color:#404A6E"/>
			<stop  offset="1" style="stop-color:#1F2435"/>
		</linearGradient>
		<polygon fill="url(#SVGID_5_)" points="785.066,183.296 812.709,180.137 804.021,160.393 792.175,163.552 		"/>
		<path fill="#FFFFFF" d="M795.523,188.187c6.279-6.294,10.91,3.275,10.733,7.71c-0.178,4.435-3.122,8.361-7.96,8.011
			C793.461,203.557,789.243,194.482,795.523,188.187z"/>
		<path d="M798.719,196.385c-0.64-0.32-2.804-3.155-2.664-3.505c0.142-0.351,3.228,2.313,3.295,2.734
			C799.42,196.035,799.139,196.596,798.719,196.385z"/>
		<path d="M798.509,196.315c0.611,0.68,6.239-1.332,6.66-1.963S797.246,194.913,798.509,196.315z"/>
		<polygon fill="#F2E77C" points="780,229 777,264.5 781,264 783.5,228.5 		"/>
		<polygon fill="#F2E77C" points="794,227.5 794,265.5 800,263.5 799.5,227 		"/>
		<polygon fill="#F2E77C" points="807,228 806.5,261.5 811.5,260.5 810,228 		"/>
	</g>
	<g id="main_tower_1_">
		<path d="M876.725,266.225l18.942,23.109L894,420c0,0-37.332-14.999-36.666-16.666S876.725,266.225,876.725,266.225z"/>
		
			<linearGradient id="SVGID_6_" gradientUnits="userSpaceOnUse" x1="1257.332" y1="555.9805" x2="1361.9083" y2="804.9015" gradientTransform="matrix(1 0 0 1 -512 -291)">
			<stop  offset="0" style="stop-color:#404A6E"/>
			<stop  offset="1" style="stop-color:#1F2435"/>
		</linearGradient>
		<polygon fill="url(#SVGID_6_)" points="713.196,500 717.936,276.491 876.725,266.225 883,500 		"/>
		
			<linearGradient id="SVGID_7_" gradientUnits="userSpaceOnUse" x1="1298.832" y1="565.7373" x2="1300.332" y2="585.7372" gradientTransform="matrix(1 0 0 1 -512 -291)">
			<stop  offset="0" style="stop-color:#F2E77C;stop-opacity:0"/>
			<stop  offset="0.5215" style="stop-color:#F2E77C;stop-opacity:0.2"/>
			<stop  offset="1" style="stop-color:#F2E77C;stop-opacity:0"/>
		</linearGradient>
		<polygon fill="url(#SVGID_7_)" points="713.196,500 717.936,276.491 876.725,266.225 883,500 		"/>
		
			<radialGradient id="SVGID_8_" cx="1311" cy="611" r="71.1757" gradientTransform="matrix(1 0 0 1 -512 -291)" gradientUnits="userSpaceOnUse">
			<stop  offset="0" style="stop-color:#F2E77C;stop-opacity:0.2"/>
			<stop  offset="1" style="stop-color:#F2E77C;stop-opacity:0"/>
		</radialGradient>
		<polygon fill="url(#SVGID_8_)" points="713.196,500 717.936,276.491 876.725,266.225 883,500 		"/>
		<polygon fill="#F2E77C" points="714,289 879,281 878,276 711,286 		"/>
		<polygon fill="#F2E77C" points="765.5,297.5 766.5,329 769.5,329 770,298 		"/>
		<polygon fill="#F2E77C" points="782.5,296.5 781.5,329 787.5,329 786,297 		"/>
		<polygon fill="#F2E77C" points="798,296 796,328.5 799,328 801,296.5 		"/>
		<polygon fill="#F2E77C" points="809,296.5 807,328.5 810,328.5 811.5,297 		"/>
		<polygon fill="#F2E77C" points="820,295.5 820,327.5 826,327.5 822.5,295.5 		"/>
	</g>
	<g id="two_towers">
		<polygon points="768.25,382.5 780,500 735,500 740.5,388 		"/>
		
			<linearGradient id="SVGID_9_" gradientUnits="userSpaceOnUse" x1="1213.0225" y1="706.7246" x2="1263.2297" y2="818.0541" gradientTransform="matrix(1 0 0 1 -512 -291)">
			<stop  offset="0" style="stop-color:#404A6E"/>
			<stop  offset="1" style="stop-color:#1F2435"/>
		</linearGradient>
		<polygon fill="url(#SVGID_9_)" points="752,389 687,392 676,500 766,500 		"/>
		
			<linearGradient id="SVGID_10_" gradientUnits="userSpaceOnUse" x1="1361.3926" y1="701.499" x2="1413.4375" y2="816.9032" gradientTransform="matrix(1 0 0 1 -512 -291)">
			<stop  offset="0" style="stop-color:#404A6E"/>
			<stop  offset="1" style="stop-color:#1F2435"/>
		</linearGradient>
		<polygon fill="url(#SVGID_10_)" points="828,389 905,388 912,500 824,500 		"/>
		<polygon fill="#14171E" points="687,392 715.75,384.25 715.5,387.5 768.25,382.5 752,389 		"/>
		<polygon fill="#14171E" points="828,389 848.5,384 880,384.5 909.5,385 905,388 		"/>
		<polygon points="909.5,385 905,388 912,500 925.5,500 		"/>
	</g>
</g>
</svg>
