<?xml version="1.0" encoding="utf-8"?>
<!-- Generator: Adobe Illustrator 15.0.0, SVG Export Plug-In . SVG Version: 6.00 Build 0)  -->
<!DOCTYPE svg PUBLIC "-//W3C//DTD SVG 1.1//EN" "http://www.w3.org/Graphics/SVG/1.1/DTD/svg11.dtd">
<svg version="1.1" id="Layer_1" xmlns="http://www.w3.org/2000/svg" xmlns:xlink="http://www.w3.org/1999/xlink" x="0px" y="0px"
	 width="1200px" height="500px" viewBox="0 0 1200 500" enable-background="new 0 0 1200 500" xml:space="preserve">
<g id="crowd">
	<path d="M53.951,429.32c1.093,3.516,7.192,4.938,8.519,6.358c1.327,1.421-3.4,4.818-1.982,8.265
		c1.418,3.446,8.03,4.074,8.588,6.685c0.558,2.607-2.54,5.656-1.518,8.846c1.023,3.19,6.285,5.476,7.843,9.572
		c1.559,4.101-1.806,8.271-1.806,8.271s-8.217-3.153-10.386-7.3c-2.168-4.146-3.412-2.985-3.828-4.296
		c-0.417-1.31-0.683-4.277-1.843-5.521s-3.062-2.42-3.587-3.271c-0.526-0.851-16.659-37.117-16.059-43.758
		c0.6-6.639-7.081,9.469-7.248,14.272c-0.167,4.805,5.981,38.227,20.513,56.678c5.263,6.683,8.884,11.673,11.37,15.329
		c-0.029,0.182-0.05,0.365-0.077,0.547h1079.846c-0.041-2.648-0.098-5.366-0.146-8.144c1.536,0.637,3.063,1.252,4.518,1.811
		c-0.37-3.146-2.182-6.551-4.604-9.826c-0.001-0.229-0.002-0.456-0.002-0.685c0-3.519-0.304-6.964-0.858-10.324
		c2.141,0.868,4.246,1.82,6.131,2.835c-1.263-3.577-4.188-6.755-7.599-9.431c-0.976-3.493-2.231-6.868-3.77-10.087
		c2.055,0,4.292,0.051,6.7,0.185c-2.451-3.788-6.691-6.38-11.249-8.158c-1.779-2.646-3.76-5.148-5.911-7.489
		c3.366-0.794,6.71-1.464,9.16-1.687c-3.745-5.617-14.715-7.617-20.921-8.311c-1.026-0.677-2.076-1.318-3.144-1.935
		c1.248-1.352,3.537-3.438,7.396-5.756c-6.432-2.572-15.336-1.285-20.879-0.038c-4.941-1.462-10.138-2.331-15.505-2.528
		c6.118-22.147,8.464-51.117,1.152-87.754c0.793-1.275,2.848-5.432,2.539-13.939c-0.381-10.508-2.884-22.424-4.117-27.811
		c-1.23-5.387-7.932-11.461-16.691-4.229c-3.59-6.351-14.987-5.597-19.035,2.487c-5.171-5.849-18.069,1.432-17.62,6.951
		c0.448,5.519,2.721,12.112,2.721,12.112s-6.904,5.683-3.828,10.976c3.009,5.172,13.982,12.961,16.517,19.795
		c5.508,26.649,4.939,47.818,1.398,64.427c-4.768-13.337-11.252-29.757-24.65-34.447c-32.719-11.456-84.429,6.938-90,17
		c-5.815,10.5-6.721,24.737-5.996,39.516c-5.953,0.65-11.221,3.569-14.928,7.873c-0.183-0.002-0.361-0.014-0.546-0.014
		c-4.749,0-9.358,0.59-13.771,1.685c-5.463-7.63-13.639-15.715-25.536-20.578c-27.622-11.295-69.942-13.156-88.462-21.344
		c-11.979-5.296-11.474-0.084-7.235,5.521c-1.092,1.456-0.382,4.109,1.712,6.11c2.167,2.069,4.978,2.643,6.335,1.313
		c0.274,0.165,0.549,0.32,0.819,0.464c0.68,0.358,1.594,0.755,2.705,1.19c-0.432,1.721,1.114,3.905,3.695,5.062
		c2.771,1.239,5.66,0.813,6.449-0.951c0.068-0.152,0.098-0.317,0.131-0.479c1.008,0.346,2.053,0.706,3.128,1.08
		c-0.423,1.718,1.123,3.896,3.697,5.05c2.772,1.239,5.66,0.812,6.45-0.95c0.056-0.122,0.07-0.253,0.104-0.381
		c1.555,0.595,3.132,1.215,4.721,1.86c-1.002,1.888,0.583,4.703,3.545,6.291c2.965,1.589,6.188,1.347,7.2-0.542
		c0.143-0.268,0.228-0.554,0.271-0.852c1.699,0.833,3.38,1.697,5.023,2.597c-0.105,0.133-0.226,0.253-0.307,0.404
		c-1.104,2.062,0.628,5.138,3.865,6.871c2.978,1.594,6.172,1.478,7.527-0.152c1.745,1.346,3.375,2.747,4.865,4.209
		c-1.322,1.821-0.257,5.062,2.469,7.362c1.449,1.224,3.08,1.93,4.53,2.091c2.573,4.894,4.943,9.948,7.084,14.89
		c-0.656,1.099-1.271,2.226-1.854,3.369c-17.892-18.648-44.031-30.898-69.027-30.898c-13.909,0-25.787,3.801-35.535,10.378
		c-1.477-2.834-3.158-5.543-5.04-8.098c2.522-5.863,4.066-10.327,3.241-10.947c-1.161-0.871-4.981,1.422-8.922,4.286
		c-2.473-2.517-5.162-4.813-8.033-6.876c0.597-11.134-0.259-22.38-1.711-22.743c-1.688-0.423-7.389,8.78-11.341,15.588
		c-1.746-0.697-3.529-1.318-5.351-1.855C715.803,396.198,704.68,381,702.666,381c-2.308,0-12.592,24.438-15.324,31.031
		C669.804,415.899,660.106,429.202,652,447c-3.354,0.197-6.646,1.883-9.625,4.385c-9.506-6.015-20.764-9.51-32.844-9.51
		c-2.241,0-4.451,0.127-6.63,0.36c-6.594-5.221-13.979-9.476-21.953-12.559c4.061-7.294,7.645-15.749,7.766-23.012
		C592.518,404.122,595,400,595,395.334c0-7.732-6.79-14-15.167-14c-8.376,0-15.167,6.268-15.167,14
		c0,6.828,5.298,12.507,12.305,13.743c-0.777,6.57-2.66,12.604-4.832,17.73c-6.907-1.824-14.157-2.809-21.64-2.809
		c-14.37,0-27.896,3.598-39.744,9.925c-3.633-5.341-10.562-17.149-12.245-31.514c6.936-1.236,12.18-6.915,12.18-13.743
		c0-7.731-6.722-14-15.012-14c-8.291,0-15.012,6.269-15.012,14c0,4.666,2.458,8.788,6.221,11.332
		c0.226,13.592,12.472,31.381,17.278,37.848c-6.842,4.496-12.989,9.955-18.252,16.19c-3.394-0.501-6.832-0.856-10.315-1.049
		c0.148-1.575,1.009-4.266,4.533-7.419c-4.928,0.245-17.002,5.803-20.977,7.69c-0.38,0.033-0.763,0.064-1.143,0.103
		c0.376-1.212,1.409-4.328,2.812-6.902c-8.911,2.673-16.336,8.91-16.336,8.91s1.782-10.692,4.752-14.851
		c-5.438,2.99-10.995,8.593-15.569,14.019c-0.666-9.726-3.514-16.172-9.37-19.026c0.489-5.689,0.511-19.7-9.968-26.512
		c1.402,9.609-0.083,17.771-1.492,22.762c-0.892-1.14-1.816-2.255-2.78-3.342c-0.303-4.47-1.767-10.261-6.854-13.567
		c0.371,2.54,0.438,4.925,0.335,7.101c-11.633-10.157-26.519-16.619-41.543-16.619c-29.449,0-44.535,21.605-53.791,52.564
		c-2.756-0.584-5.612-0.897-8.542-0.897c-7.36,0-14.262,1.949-20.233,5.345c-1.369-4.524-3.149-8.986-5.276-13.25
		c4.498-6.838,10.06-18.559,4.841-29.43c-5.325,5.787-11.05,9.723-16.257,12.398c-10.217-11.425-23.332-18.095-36.803-14.397
		c-10.303,2.827-18.295,7.726-24.336,14.292c-3.422-2.367-6.952-5.843-9.938-10.96c-2.721,6.082-3.431,11.194-2.958,15.466
		c-9.185-7.664-20.772-12.535-33.468-13.334c1.127-7.316,2.332-14.44,3.459-19.715c-8.971,4.385-15.823,13.069-20.615,21.172
		c-13.34,3.169-24.899,10.93-32.902,21.536c-15.033-46.11-85.6-65.181-74.724-50.69C41.512,410.154,52.859,425.804,53.951,429.32z"
		/>
</g>
</svg>
