<?xml version="1.0" encoding="utf-8"?>
<!-- Generator: Adobe Illustrator 15.0.0, SVG Export Plug-In . SVG Version: 6.00 Build 0)  -->
<!DOCTYPE svg PUBLIC "-//W3C//DTD SVG 1.1//EN" "http://www.w3.org/Graphics/SVG/1.1/DTD/svg11.dtd">
<svg version="1.1" id="Layer_1" xmlns="http://www.w3.org/2000/svg" xmlns:xlink="http://www.w3.org/1999/xlink" x="0px" y="0px"
	 width="1200px" height="500px" viewBox="0 0 1200 500" enable-background="new 0 0 1200 500" xml:space="preserve">
<linearGradient id="SVGID_1_" gradientUnits="userSpaceOnUse" x1="111.9502" y1="432.4941" x2="1075.9442" y2="246.4953">
	<stop  offset="0" style="stop-color:#8BBC11"/>
	<stop  offset="0.3742" style="stop-color:#C62A9A"/>
	<stop  offset="0.6748" style="stop-color:#FFEF59"/>
	<stop  offset="1" style="stop-color:#850ABF"/>
</linearGradient>
<path fill="url(#SVGID_1_)" d="M1124.547,390.589l-29.559-51.196l29.559-51.199c0.893-1.547,0.893-3.452,0-5l-29.413-50.945
	l29.414-50.946c0.491-0.85,0.702-1.807,0.653-2.754c0.048-0.946-0.164-1.901-0.654-2.75l-0.254,0.063l-30.748-53.256
	c-0.893-1.548-2.544-2.5-4.33-2.5h-62.005c-1.786,0-3.437,0.952-4.33,2.5l-29.558,51.197H937.09l-29.559-51.197
	c-0.893-1.548-2.544-2.5-4.33-2.5h-62.006c-1.786,0-3.437,0.952-4.33,2.5l-29.558,51.197h-56.232l-29.559-51.197
	c-0.893-1.548-2.544-2.5-4.33-2.5h-62.005c-1.786,0-3.438,0.952-4.33,2.5l-29.558,51.197h-56.232l-29.559-51.197
	c-0.895-1.548-2.544-2.5-4.33-2.5h-62.006c-1.786,0-3.438,0.952-4.33,2.5l-29.558,51.197h-56.231l-29.561-51.197
	c-0.894-1.548-2.544-2.5-4.33-2.5h-0.002h-62.003h-0.003c-1.786,0-3.438,0.952-4.33,2.5l-29.557,51.197h-56.231l-29.558-51.197
	c-0.894-1.548-2.544-2.5-4.33-2.5H97.138c-1.786,0-3.438,0.952-4.33,2.5L62.06,175.862l-0.256-0.063
	c-0.491,0.85-0.702,1.808-0.653,2.755c-0.047,0.945,0.165,1.9,0.655,2.749l29.413,50.945l-29.415,50.945
	c-0.893,1.548-0.893,3.453,0,5l29.56,51.199l-29.56,51.196c-0.893,1.547-0.893,3.453,0,5l29.56,51.199l-29.56,51.197
	c-0.893,1.547-0.893,3.452,0,5l31.003,53.697c0.893,1.548,2.544,2.5,4.33,2.5h62.005c1.786,0,3.437-0.952,4.33-2.5l29.558-51.197
	h56.232l29.559,51.197c0.893,1.548,2.544,2.5,4.33,2.5h62.006c1.786,0,3.437-0.952,4.33-2.5l29.558-51.197h56.232l29.559,51.197
	c0.893,1.548,2.544,2.5,4.33,2.5h62.005c1.786,0,3.438-0.952,4.33-2.5l29.558-51.197h56.232l29.559,51.197
	c0.895,1.548,2.544,2.5,4.33,2.5h62.006c1.786,0,3.438-0.952,4.33-2.5l29.558-51.197h56.231l29.561,51.197
	c0.894,1.548,2.544,2.5,4.33,2.5h0.002H903.2h0.003c1.786,0,3.438-0.952,4.33-2.5l29.557-51.197h56.231l29.558,51.197
	c0.894,1.548,2.544,2.5,4.33,2.5h62.006c1.786,0,3.438-0.952,4.33-2.5l31.002-53.697c0.895-1.548,0.895-3.453,0-5l-29.559-51.197
	l29.559-51.199C1125.441,394.042,1125.441,392.136,1124.547,390.589z M1086.328,334.393h-56.232l-28.113-48.697l28.113-48.697
	h56.232l28.115,48.697L1086.328,334.393z M629.952,285.695l28.115-48.697h56.23l27.113,46.963l1.001,1.734l-1.622,2.81
	l-26.492,45.89h-56.23v-0.002L629.952,285.695z M286.038,236.998h56.231l28.115,48.697l-0.506,0.875l-27.609,47.822h-56.231
	l-28.115-48.697L286.038,236.998z M351.077,232.25l27.971-48.448h56.231l27.967,48.444l-27.969,48.447h-56.232L351.077,232.25z
	 M472.053,236.998h56.23l28.116,48.697l-28.116,48.697h-56.23l-28.115-48.697L472.053,236.998z M537.091,232.249l27.97-48.447
	h56.232l27.969,48.445l-27.97,48.446H565.06L537.091,232.249z M723.106,232.249l27.969-48.447h56.232l27.969,48.445l-27.971,48.446
	h-56.231L723.106,232.249z M844.084,236.998h56.229l28.115,48.697l-0.506,0.875l-27.609,47.822h-56.229l-28.116-48.697
	L844.084,236.998z M909.121,232.248l27.969-48.446h56.232l27.968,48.444l-26.968,46.715l-1.001,1.734H937.09L909.121,232.248z
	 M192.029,185.536l1.002-1.734h56.231l27.969,48.447l-27.969,48.444H193.03l-27.968-48.444L192.029,185.536z M249.262,290.695
	l0.976,1.691l27.139,47.006l-28.115,48.697H193.03l-28.114-48.697l28.114-48.697H249.262z M286.038,344.393h56.231l28.115,48.697
	l-1.173,2.032l-26.942,46.667h-56.231l-28.115-48.699L286.038,344.393z M350.931,339.393l28.114-48.697h56.232l28.113,48.697
	l-28.113,48.697h-56.232L350.931,339.393z M472.053,344.393h56.23l28.116,48.697l-28.116,48.699h-56.23l-28.115-48.699
	L472.053,344.393z M536.945,339.393l28.114-48.697h56.232l0.506,0.875l27.608,47.822l-28.114,48.697H565.06L536.945,339.393z
	 M658.067,344.393h56.23l27.113,46.963l1.001,1.734l-2.188,3.787l-25.928,44.912h-56.229l-28.115-48.699L658.067,344.393z
	 M722.96,339.393l28.113-48.697h56.231l28.115,48.697l-28.115,48.697h-56.231L722.96,339.393z M844.084,344.393h56.229
	l28.115,48.697l-1.174,2.032l-26.941,46.667h-56.229l-28.116-48.699L844.084,344.393z M908.977,339.393l28.113-48.697h56.231
	l1.622,2.81l26.491,45.888l-27.111,46.963l-1.001,1.734H937.09L908.977,339.393z M1030.097,130.104h56.231l27.971,48.445
	l-27.971,48.448h-56.232l-27.969-48.447L1030.097,130.104z M844.081,130.104h56.233l27.865,48.264l-0.258,0.806l-27.609,47.822
	h-56.229l-27.971-48.447L844.081,130.104z M658.067,130.104H714.3l27.97,48.444l-1.479,2.562l-26.492,45.889h-56.23l-27.971-48.448
	L658.067,130.104z M472.053,130.104h56.231l27.97,48.446l-27.971,48.447h-56.23l-27.969-48.445L472.053,130.104z M286.038,130.104
	h56.23l27.971,48.446l-0.361,0.625l-27.609,47.822h-56.231l-27.969-48.445L286.038,130.104z M100.024,130.104h56.232l27.968,48.446
	l-27.971,48.447h-56.23l-27.97-48.446L100.024,130.104z M71.908,285.693l28.116-48.696h56.23l28.116,48.696l-28.116,48.699h-56.23
	L71.908,285.693z M71.908,393.09l28.116-48.697h56.23l28.116,48.697l-0.405,0.702l-27.71,47.997h-56.23L71.908,393.09z
	 M156.256,549.185h-56.232l-28.116-48.697l28.116-48.697h56.23l28.116,48.697L156.256,549.185z M193.03,495.486l-28.114-48.697
	l28.114-48.699h56.232l2.166,3.752l25.949,44.947l-28.115,48.697H193.03z M342.271,549.185h-56.233l-28.115-48.697l28.115-48.697
	h56.231l28.115,48.697L342.271,549.185z M379.045,495.486l-28.114-48.697l28.114-48.699h56.232l0.404,0.702l27.709,47.997
	l-28.113,48.697H379.045z M528.285,549.185h-56.232l-28.116-48.697l28.116-48.697h56.23l28.116,48.697L528.285,549.185z
	 M565.06,495.486l-28.114-48.697l28.114-48.699h56.232l1.174,2.032l26.94,46.667l-28.114,48.697H565.06z M714.3,549.185h-56.231
	l-28.115-48.697l28.115-48.697h56.23l27.113,46.963l1.001,1.734L714.3,549.185z M751.073,495.486l-28.113-48.697l28.113-48.699
	h56.231l28.115,48.699l-28.115,48.697H751.073z M900.314,549.185h-56.23l-28.116-48.697l28.116-48.697h56.229l28.115,48.697
	L900.314,549.185z M993.321,495.486H937.09l-28.113-48.697l28.113-48.699h56.231l2.187,3.787l25.928,44.912l-27.112,46.963
	L993.321,495.486z M1114.443,500.487l-28.115,48.697h-56.232l-28.113-48.697l28.113-48.697h56.232L1114.443,500.487z
	 M1086.328,441.789h-56.232l-28.113-48.699l28.113-48.697h56.232l28.115,48.697L1086.328,441.789z"/>
</svg>
