<?xml version="1.0" encoding="utf-8"?>
<!-- Generator: Adobe Illustrator 15.0.0, SVG Export Plug-In . SVG Version: 6.00 Build 0)  -->
<!DOCTYPE svg PUBLIC "-//W3C//DTD SVG 1.1//EN" "http://www.w3.org/Graphics/SVG/1.1/DTD/svg11.dtd">
<svg version="1.1" id="Layer_1" xmlns="http://www.w3.org/2000/svg" xmlns:xlink="http://www.w3.org/1999/xlink" x="0px" y="0px"
	 width="1200px" height="500px" viewBox="0 0 1200 500" enable-background="new 0 0 1200 500" xml:space="preserve">
<g id="monster_head_copy_2">
	
		<linearGradient id="SVGID_1_" gradientUnits="userSpaceOnUse" x1="1138.5928" y1="381.8701" x2="1173.1854" y2="433.4449" gradientTransform="matrix(1 0 0 1 -512 -291)">
		<stop  offset="0" style="stop-color:#FFF2CF"/>
		<stop  offset="1" style="stop-color:#D6CBAE"/>
	</linearGradient>
	<path fill="url(#SVGID_1_)" d="M667.608,117.183c-3.132-0.671-25.067,1.357-32.771-31.843
		c-27.512,40.358,7.104,58.225,10.172,59.963c3.066,1.739,12.154,1.555,20.115-5.974C673.087,131.8,672.184,118.164,667.608,117.183
		z"/>
	<path fill="#D1C6AA" d="M650.777,125.264c8.066,5.405,14.92,3.778,20.309-0.298c0.004-4.086-1.334-7.324-3.478-7.783
		c-3.132-0.671-25.067,1.357-32.771-31.843C634.838,85.34,629.631,111.095,650.777,125.264z"/>
	
		<radialGradient id="SVGID_2_" cx="1195.8164" cy="412.7529" r="169.7526" gradientTransform="matrix(1 0 0 1 -512 -291)" gradientUnits="userSpaceOnUse">
		<stop  offset="0" style="stop-color:#262637"/>
		<stop  offset="1" style="stop-color:#000000"/>
	</radialGradient>
	<path fill="url(#SVGID_2_)" d="M833.245,182.976c0,31.944-2.728,42.693-4.088,45.873c-3.634,5.905-59.044,48.598-125.354,41.785
		c-66.312-6.812-68.129-41.331-68.129-41.331s-6.207-17.902-6.207-45.115c0-57.191,44.396-102.041,101.586-102.041
		C788.245,82.146,833.245,125.784,833.245,182.976z"/>
	<path fill="#898F99" d="M833.116,178.615c-0.526,4.754-1.321,9.484-2.308,14.155c-1.184,5.475-2.696,10.882-4.76,16.052
		c-2.062,5.15-4.705,10.116-8.33,14.152c-1.825,2.006-3.896,3.708-6.279,4.934c-2.48,1.323-4.966,2.628-7.467,3.892
		c-9.996,5.07-20.312,9.464-30.931,12.934c-10.598,3.52-21.479,6.167-32.51,7.821c-11.028,1.659-22.197,2.34-33.341,2.068
		c-5.562-0.145-11.164-0.494-16.645-1.113c-5.492-0.646-10.926-1.705-16.227-3.204c-5.309-1.478-10.477-3.429-15.396-5.884
		c-4.931-2.426-9.603-5.376-13.906-8.799c-3.834-3.029-7.328-6.48-10.503-10.216c0.683,2.533,1.152,3.896,1.152,3.896
		s0.053,0.966,0.445,2.6c2.085,2.282,4.312,4.438,6.666,6.445c4.395,3.733,9.238,6.931,14.346,9.614
		c5.124,2.651,10.515,4.765,16.037,6.384c5.527,1.604,11.188,2.689,16.879,3.377c5.711,0.686,11.37,0.924,17.066,1.029
		c11.38,0.164,22.771-0.646,34.004-2.451c11.229-1.807,22.299-4.591,33.029-8.316c10.723-3.76,21.094-8.447,31.074-13.782
		c2.496-1.33,4.971-2.698,7.432-4.079c2.604-1.408,4.91-3.39,6.818-5.591c1.927-2.208,3.512-4.653,4.854-7.195
		c1.349-2.542,2.474-5.179,3.446-7.858c1.938-5.364,3.293-10.892,4.311-16.458c0.466-2.561,0.844-5.133,1.154-7.712
		c0.004-0.523,0.004-1.055,0.005-1.589C833.24,182.006,833.199,180.304,833.116,178.615z"/>
	<path fill="#2D323A" d="M833.116,177.706c-0.526,4.754-1.321,9.484-2.308,14.155c-1.184,5.475-2.696,10.883-4.76,16.053
		c-2.062,5.15-4.705,10.115-8.33,14.152c-1.825,2.007-3.896,3.708-6.279,4.934c-2.48,1.324-4.966,2.628-7.467,3.892
		c-9.996,5.07-20.312,9.464-30.931,12.934c-10.598,3.52-21.479,6.167-32.51,7.82c-11.028,1.66-22.197,2.34-33.341,2.067
		c-5.562-0.144-11.164-0.493-16.645-1.112c-5.492-0.646-10.926-1.705-16.227-3.204c-5.309-1.479-10.477-3.43-15.396-5.884
		c-4.931-2.426-9.603-5.377-13.906-8.8c-3.97-3.135-7.581-6.714-10.843-10.601c0.861,3.362,1.492,5.189,1.492,5.189
		s0.029,0.514,0.195,1.423c2.152,2.383,4.468,4.626,6.916,6.714c4.395,3.733,9.239,6.931,14.346,9.614
		c5.124,2.651,10.515,4.764,16.037,6.383c5.527,1.604,11.188,2.69,16.879,3.377c5.711,0.687,11.37,0.924,17.066,1.03
		c11.38,0.164,22.771-0.646,34.004-2.45c11.229-1.807,22.299-4.59,33.029-8.314c10.723-3.76,21.094-8.447,31.074-13.782
		c2.496-1.331,4.971-2.699,7.432-4.08c2.604-1.408,4.91-3.39,6.818-5.591c1.927-2.208,3.512-4.653,4.854-7.195
		c1.349-2.542,2.474-5.179,3.446-7.858c1.938-5.364,3.293-10.891,4.311-16.458c0.467-2.568,0.846-5.146,1.158-7.733
		c0-0.469,0.003-0.927,0.003-1.405C833.245,181.206,833.201,179.449,833.116,177.706z"/>
	<g display="none">
		<path display="inline" fill="#2D323A" d="M791.356,175.274c-0.264,5.654-0.897,11.277-1.902,16.852
			c-1.008,5.571-2.354,11.104-4.286,16.478c-1.959,5.341-4.439,10.641-8.301,15.099c-1.913,2.211-4.232,4.207-6.85,5.625
			c-2.458,1.383-4.931,2.755-7.429,4.088c-9.979,5.349-20.354,10.047-31.081,13.825c-10.74,3.731-21.814,6.526-33.057,8.338
			c-11.241,1.813-22.646,2.631-34.037,2.469c-2.848-0.039-5.694-0.133-8.538-0.297c-2.836-0.155-5.697-0.37-8.55-0.726
			c-5.701-0.688-11.373-1.775-16.913-3.385c-5.532-1.627-10.937-3.75-16.069-6.411c-5.111-2.696-9.968-5.906-14.367-9.655
			c-4.39-3.756-8.367-7.995-11.71-12.689c-1.678-2.339-3.214-4.777-4.584-7.305c-1.377-2.54-2.553-5.124-3.462-7.951l1.899-0.626
			c1.007,2.472,2.396,4.929,3.822,7.269c1.452,2.346,3.059,4.595,4.791,6.737c3.479,4.271,7.396,8.171,11.708,11.565
			c4.301,3.408,8.964,6.345,13.886,8.758c4.907,2.445,10.063,4.388,15.358,5.859c5.289,1.494,10.714,2.549,16.193,3.194
			c5.468,0.613,11.067,0.974,16.622,1.114c11.131,0.281,22.289-0.396,33.308-2.048c11.021-1.643,21.894-4.288,32.483-7.793
			c10.612-3.458,20.927-7.834,30.923-12.891c2.502-1.26,4.985-2.562,7.468-3.883c2.373-1.216,4.435-2.903,6.253-4.9
			c3.614-4.016,6.267-8.965,8.332-14.106c2.067-5.16,3.593-10.562,4.782-16.032c1.163-5.476,2.095-11.031,2.604-16.614
			L791.356,175.274z"/>
	</g>
	<g>
		<g enable-background="new    ">
			<g enable-background="new    ">
				<g>
					<path fill="#FFF24D" d="M692.426,119.569c-1.816,0.006-3.039,2.463-2.06,3.337c1.057,0.943,3.246-0.712,3.082-2.33
						C693.389,119.986,692.996,119.6,692.426,119.569"/>
					<path fill="#FFF24D" d="M696.393,119.783c-1.785,0.004-2.973,2.282-2.088,3.25c0.955,1.046,3.113-0.238,3.206-1.908
						C697.554,120.361,697.104,119.822,696.393,119.783"/>
					<path fill="#FFF24D" d="M700.508,120.004c-1.85,0-2.975,2.287-2.017,3.261c1.032,1.049,3.202-0.237,3.226-1.912
						C701.729,120.598,701.23,120.043,700.508,120.004"/>
					<path fill="#FFF24D" d="M704.755,120.23c-1.903-0.002-2.963,2.292-1.937,3.272c1.104,1.056,3.287-0.234,3.238-1.916
						C706.037,120.829,705.501,120.271,704.755,120.23"/>
					<path fill="#FFF24D" d="M709.13,120.463c-1.953-0.003-2.944,2.298-1.851,3.283c1.18,1.062,3.362-0.23,3.245-1.92
						C710.471,121.064,709.896,120.504,709.13,120.463"/>
					<path fill="#FFF24D" d="M679.367,123.436c-1.654,0.011-2.982,2.538-2.17,3.434c0.832,0.917,2.848-0.588,2.996-2.237
						C680.256,123.94,679.932,123.47,679.367,123.436"/>
					<path fill="#FFF24D" d="M682.975,123.647c-1.729,0.008-3.01,2.545-2.121,3.448c0.914,0.926,2.964-0.583,3.047-2.243
						C683.934,124.156,683.571,123.683,682.975,123.647"/>
					<path fill="#FFF24D" d="M686.758,123.866c-1.805,0.004-3.033,2.553-2.066,3.461c0.991,0.934,3.065-0.58,3.08-2.249
						C687.777,124.378,687.381,123.902,686.758,123.866"/>
					<path fill="#FFF24D" d="M690.705,124.092c-1.875,0.002-3.048,2.56-2.008,3.475c1.069,0.94,3.164-0.577,3.109-2.255
						C691.787,124.608,691.354,124.129,690.705,124.092"/>
					<path fill="#FFF24D" d="M694.811,124.324c-1.846,0-2.992,2.373-2.052,3.383c1.02,1.091,3.203-0.243,3.249-1.982
						C696.027,124.929,695.547,124.366,694.811,124.324"/>
					<path fill="#FFF24D" d="M699.069,124.562c-1.909-0.002-3.005,2.379-1.989,3.395c1.093,1.093,3.298-0.244,3.277-1.987
						C700.348,125.183,699.818,124.604,699.069,124.562"/>
					<path fill="#FFF24D" d="M703.467,124.806c-1.966-0.005-3.004,2.384-1.919,3.406c1.167,1.1,3.386-0.241,3.3-1.992
						C704.807,125.43,704.239,124.849,703.467,124.806"/>
					<path fill="#FFF24D" d="M707.997,125.054c-1.926-0.005-2.951,2.187-1.962,3.298c1.101,1.236,3.414,0.096,3.438-1.694
						C709.486,125.776,708.865,125.102,707.997,125.054"/>
					<path fill="#FFF24D" d="M712.65,125.306c-1.974-0.007-2.94,2.192-1.888,3.308c1.12,1.187,3.315,0.229,3.454-1.507
						C714.295,126.149,713.605,125.358,712.65,125.306"/>
					<path fill="#FFF24D" d="M717.419,125.562c-2.009-0.008-2.915,2.198-1.802,3.317c1.186,1.193,3.391,0.233,3.469-1.51
						C719.129,126.409,718.396,125.615,717.419,125.562"/>
					<path fill="#FFF24D" d="M722.293,125.822c-2.047-0.009-2.892,2.202-1.717,3.327c1.254,1.199,3.467,0.238,3.484-1.514
						C724.07,126.671,723.293,125.875,722.293,125.822"/>
					<path fill="#FFF24D" d="M673.874,127.857c-1.746,0.008-2.982,2.822-2.027,3.632c0.972,0.822,2.981-1.113,2.835-2.725
						C674.631,128.226,674.33,127.886,673.874,127.857"/>
					<path fill="#FFF24D" d="M677.405,128.081c-1.695,0.006-2.951,2.625-2.082,3.558c0.891,0.955,2.896-0.601,2.979-2.311
						C678.34,128.607,677.987,128.119,677.405,128.081"/>
					<path fill="#FFF24D" d="M681.123,128.312c-1.777,0.002-2.991,2.633-2.043,3.572c0.973,0.963,3.018-0.597,3.038-2.318
						C682.127,128.844,681.736,128.351,681.123,128.312"/>
					<path fill="#FFF24D" d="M685.02,128.551c-1.853,0-3.021,2.642-1.995,3.586c1.051,0.971,3.127-0.594,3.084-2.325
						C686.088,129.086,685.661,128.59,685.02,128.551"/>
					<path fill="#FFF24D" d="M689.088,128.796c-1.83-0.002-2.984,2.447-2.055,3.493c1,1.125,3.176-0.25,3.232-2.043
						C690.293,129.422,689.82,128.84,689.088,128.796"/>
					<path fill="#FFF24D" d="M693.32,129.046c-1.896-0.004-3.006,2.455-2.005,3.506c1.073,1.13,3.28-0.249,3.276-2.049
						C694.594,129.689,694.068,129.091,693.32,129.046"/>
					<path fill="#FFF24D" d="M697.713,129.302c-1.962-0.007-3.025,2.461-1.953,3.518c1.15,1.133,3.382-0.249,3.316-2.054
						C699.047,129.949,698.486,129.348,697.713,129.302"/>
					<path fill="#FFF24D" d="M702.249,129.562c-2.022-0.008-3.034,2.467-1.894,3.529c1.224,1.139,3.475-0.247,3.348-2.06
						C703.645,130.213,703.047,129.608,702.249,129.562"/>
					<path fill="#FFF24D" d="M706.923,129.827c-1.981-0.009-2.993,2.262-1.952,3.417c1.104,1.223,3.324,0.235,3.496-1.554
						C708.561,130.7,707.883,129.881,706.923,129.827"/>
					<path fill="#FFF24D" d="M711.725,130.094c-2.028-0.009-2.989,2.269-1.888,3.427c1.17,1.228,3.413,0.238,3.53-1.558
						C713.432,130.97,712.711,130.149,711.725,130.094"/>
					<path fill="#FFF24D" d="M716.646,130.364c-2.069-0.009-2.978,2.275-1.813,3.437c1.232,1.234,3.49,0.242,3.552-1.562
						C718.418,131.244,717.654,130.42,716.646,130.364"/>
					<path fill="#FFF24D" d="M721.676,130.637c-2.108-0.011-2.96,2.28-1.737,3.446c1.298,1.239,3.568,0.245,3.573-1.565
						C723.515,131.519,722.707,130.693,721.676,130.637"/>
					<path fill="#FFF24D" d="M726.803,130.911c-2.145-0.011-2.937,2.286-1.659,3.454c1.358,1.243,3.64,0.246,3.585-1.569
						C728.701,131.794,727.854,130.966,726.803,130.911"/>
					<path fill="#FFF24D" d="M668.539,132.411c-1.686,0.005-2.871,2.9-1.946,3.736c0.938,0.847,2.874-1.14,2.729-2.799
						C669.271,132.793,668.979,132.442,668.539,132.411"/>
					<path fill="#FFF24D" d="M671.963,132.649c-1.65,0.001-2.864,2.696-2.014,3.659c0.865,0.979,2.811-0.617,2.891-2.373
						C672.873,133.194,672.529,132.688,671.963,132.649"/>
					<path fill="#FFF24D" d="M675.586,132.895c-1.729-0.001-2.912,2.706-1.986,3.674c0.947,0.989,2.938-0.612,2.957-2.381
						C676.565,133.443,676.184,132.936,675.586,132.895"/>
					<path fill="#FFF24D" d="M679.402,133.147c-1.815-0.003-2.961,2.714-1.955,3.689c1.025,0.998,3.061-0.608,3.021-2.387
						C680.451,133.7,680.033,133.189,679.402,133.147"/>
					<path fill="#FFF24D" d="M683.404,133.406c-1.896-0.006-3.002,2.723-1.921,3.704c1.106,1.005,3.179-0.606,3.074-2.395
						C684.518,133.962,684.062,133.449,683.404,133.406"/>
					<path fill="#FFF24D" d="M687.582,133.67c-1.872-0.007-2.977,2.523-1.992,3.607c1.057,1.163,3.241-0.252,3.246-2.104
						C688.839,134.335,688.323,133.717,687.582,133.67"/>
					<path fill="#FFF24D" d="M691.932,133.94c-1.941-0.009-3.01,2.53-1.953,3.62c1.133,1.169,3.354-0.251,3.301-2.11
						C693.255,134.608,692.701,133.987,691.932,133.94"/>
					<path fill="#FFF24D" d="M696.445,134.213c-2.014-0.01-3.038,2.539-1.913,3.633c1.206,1.171,3.457-0.253,3.347-2.116
						C697.828,134.886,697.24,134.262,696.445,134.213"/>
					<path fill="#FFF24D" d="M701.106,134.491c-2.073-0.012-3.056,2.545-1.862,3.644c1.277,1.177,3.555-0.251,3.385-2.122
						C702.553,135.166,701.927,134.54,701.106,134.491"/>
					<path fill="#FFF24D" d="M705.91,134.771c-2.033-0.012-3.025,2.334-1.938,3.528c1.15,1.262,3.41,0.245,3.555-1.6
						C707.608,135.676,706.898,134.829,705.91,134.771"/>
					<path fill="#FFF24D" d="M710.848,135.054c-2.083-0.013-3.032,2.34-1.883,3.538c1.215,1.266,3.502,0.247,3.596-1.604
						C712.614,135.961,711.861,135.112,710.848,135.054"/>
					<path fill="#FFF24D" d="M715.907,135.338c-2.124-0.012-3.026,2.347-1.82,3.548c1.277,1.271,3.582,0.249,3.626-1.609
						C717.739,136.248,716.945,135.396,715.907,135.338"/>
					<path fill="#FFF24D" d="M721.079,135.623c-2.165-0.011-3.021,2.354-1.756,3.557c1.339,1.277,3.663,0.251,3.657-1.613
						C722.979,136.535,722.142,135.681,721.079,135.623"/>
					<path fill="#FFF24D" d="M726.352,135.908c-2.197-0.011-3.002,2.359-1.686,3.565c1.396,1.279,3.731,0.251,3.674-1.618
						C728.308,136.822,727.436,135.966,726.352,135.908"/>
					<path fill="#FFF24D" d="M731.71,136.192c-2.099-0.009-2.921,2.18-1.754,3.431c1.294,1.386,3.708,0.579,3.798-1.271
						C733.811,137.224,732.893,136.255,731.71,136.192"/>
					<path fill="#FFF24D" d="M663.42,137.085c-1.612,0.001-2.725,2.969-1.836,3.83c0.861,0.834,2.609-0.979,2.598-2.694
						C664.178,137.558,663.885,137.122,663.42,137.085"/>
					<path fill="#FFF24D" d="M666.71,137.339c-1.716-0.003-2.798,2.979-1.821,3.846c0.946,0.841,2.744-0.979,2.675-2.703
						C667.533,137.815,667.207,137.377,666.71,137.339"/>
					<path fill="#FFF24D" d="M670.211,137.6c-1.68-0.005-2.808,2.77-1.902,3.767c0.885,0.972,2.688-0.455,2.842-2.246
						C671.22,138.272,670.834,137.646,670.211,137.6"/>
					<path fill="#FFF24D" d="M673.918,137.868c-1.766-0.007-2.865,2.78-1.884,3.783c1.001,1.023,2.966-0.621,2.922-2.443
						C674.938,138.438,674.529,137.912,673.918,137.868"/>
					<path fill="#FFF24D" d="M677.821,138.142c-1.853-0.009-2.921,2.79-1.862,3.798c1.084,1.032,3.1-0.618,2.996-2.451
						C678.912,138.715,678.467,138.187,677.821,138.142"/>
					<path fill="#FFF24D" d="M681.916,138.421c-1.934-0.011-2.97,2.799-1.836,3.813c1.162,1.039,3.221-0.616,3.061-2.459
						C683.072,138.999,682.592,138.467,681.916,138.421"/>
					<path fill="#FFF24D" d="M686.194,138.705c-1.911-0.012-2.962,2.594-1.926,3.713c1.062,1.147,3.126-0.097,3.245-1.958
						C687.578,139.498,687.021,138.76,686.194,138.705"/>
					<path fill="#FFF24D" d="M690.646,138.994c-1.983-0.014-3.004,2.601-1.896,3.726c1.134,1.153,3.24-0.095,3.312-1.965
						C692.104,139.79,691.506,139.049,690.646,138.994"/>
					<path fill="#FFF24D" d="M695.269,139.286c-2.055-0.015-3.04,2.609-1.86,3.739c1.201,1.155,3.346-0.098,3.372-1.971
						C696.791,140.085,696.157,139.342,695.269,139.286"/>
					<path fill="#FFF24D" d="M700.043,139.581c-2.117-0.015-3.066,2.617-1.824,3.751c1.271,1.159,3.447-0.097,3.428-1.977
						C701.635,140.383,700.96,139.637,700.043,139.581"/>
					<path fill="#FFF24D" d="M704.965,139.876c-2.079-0.015-3.051,2.4-1.915,3.631c1.196,1.297,3.486,0.254,3.604-1.642
						C706.719,140.811,705.977,139.938,704.965,139.876"/>
					<path fill="#FFF24D" d="M710.023,140.174c-2.132-0.015-3.066,2.407-1.873,3.642c1.259,1.3,3.58,0.253,3.651-1.647
						C711.844,141.111,711.062,140.235,710.023,140.174"/>
					<path fill="#FFF24D" d="M715.208,140.472c-2.173-0.014-3.069,2.415-1.819,3.652c1.316,1.306,3.661,0.256,3.688-1.652
						C717.092,141.411,716.271,140.533,715.208,140.472"/>
					<path fill="#FFF24D" d="M720.508,140.77c-2.217-0.013-3.067,2.42-1.768,3.661c1.377,1.311,3.746,0.257,3.729-1.658
						C722.457,141.71,721.598,140.83,720.508,140.77"/>
					<path fill="#FFF24D" d="M725.912,141.065c-2.254-0.012-3.063,2.427-1.71,3.669c1.431,1.313,3.813,0.256,3.751-1.663
						C727.918,142.006,727.021,141.125,725.912,141.065"/>
					<path fill="#FFF24D" d="M731.402,141.359c-2.15-0.009-2.987,2.244-1.791,3.53c1.319,1.421,3.791,0.591,3.885-1.306
						C733.555,142.421,732.615,141.423,731.402,141.359"/>
					<path fill="#FFF24D" d="M736.871,141.645c-2.123-0.006-2.9,2.252-1.693,3.538c1.336,1.42,3.754,0.584,3.809-1.316
						C739.017,142.703,738.068,141.706,736.871,141.645"/>
					<path fill="#FFF24D" d="M658.576,141.867c-1.527-0.004-2.549,3.03-1.697,3.914c0.818,0.852,2.453-0.997,2.43-2.747
						C659.299,142.354,659.018,141.907,658.576,141.867"/>
					<path fill="#FFF24D" d="M661.705,142.137c-1.635-0.007-2.635,3.042-1.695,3.932c0.907,0.859,2.604-0.996,2.52-2.757
						C662.495,142.628,662.18,142.178,661.705,142.137"/>
					<path fill="#FFF24D" d="M665.059,142.415c-1.74-0.011-2.717,3.053-1.688,3.949c0.992,0.866,2.74-0.996,2.6-2.767
						C665.914,142.91,665.565,142.457,665.059,142.415"/>
					<path fill="#FFF24D" d="M668.627,142.699c-1.707-0.012-2.742,2.838-1.784,3.867c0.934,1,2.708-0.458,2.794-2.294
						C669.678,143.396,669.263,142.75,668.627,142.699"/>
					<path fill="#FFF24D" d="M672.406,142.989c-1.795-0.014-2.811,2.848-1.773,3.883c1.008,1.009,2.838-0.455,2.881-2.302
						C673.533,143.691,673.077,143.041,672.406,142.989"/>
					<path fill="#FFF24D" d="M676.388,143.285c-1.882-0.015-2.872,2.859-1.762,3.899c1.086,1.016,2.972-0.452,2.968-2.31
						C677.592,143.991,677.097,143.337,676.388,143.285"/>
					<path fill="#FFF24D" d="M680.564,143.585c-1.869-0.016-2.883,2.648-1.861,3.797c1.041,1.171,3.048-0.096,3.16-1.994
						C681.92,144.401,681.374,143.643,680.564,143.585"/>
					<path fill="#FFF24D" d="M684.929,143.89c-1.944-0.018-2.937,2.658-1.847,3.812c1.11,1.177,3.172-0.095,3.242-2.001
						C686.36,144.709,685.773,143.948,684.929,143.89"/>
					<path fill="#FFF24D" d="M689.473,144.198c-2.02-0.018-2.984,2.666-1.83,3.825c1.184,1.182,3.291-0.094,3.32-2.008
						C690.977,145.021,690.351,144.256,689.473,144.198"/>
					<path fill="#FFF24D" d="M694.19,144.508c-2.095-0.019-3.034,2.675-1.811,3.837c1.247,1.183,3.399-0.096,3.386-2.014
						C695.761,145.334,695.098,144.567,694.19,144.508"/>
					<path fill="#FFF24D" d="M699.064,144.819c-2.062-0.019-3.035,2.453-1.914,3.715c1.177,1.323,3.447,0.262,3.575-1.671
						C700.799,145.781,700.068,144.883,699.064,144.819"/>
					<path fill="#FFF24D" d="M704.09,145.132c-2.121-0.018-3.066,2.46-1.887,3.727c1.237,1.328,3.551,0.262,3.641-1.677
						C705.895,146.096,705.123,145.195,704.09,145.132"/>
					<path fill="#FFF24D" d="M709.255,145.443c-2.175-0.017-3.093,2.468-1.854,3.737c1.298,1.331,3.646,0.262,3.696-1.682
						C711.125,146.41,710.316,145.507,709.255,145.443"/>
					<path fill="#FFF24D" d="M714.549,145.755c-2.217-0.017-3.103,2.476-1.812,3.747c1.353,1.335,3.729,0.262,3.74-1.688
						C716.482,146.722,715.636,145.818,714.549,145.755"/>
					<path fill="#FFF24D" d="M719.962,146.064c-2.261-0.015-3.112,2.482-1.771,3.756c1.406,1.339,3.812,0.262,3.783-1.695
						C721.959,147.032,721.075,146.127,719.962,146.064"/>
					<path fill="#FFF24D" d="M725.482,146.371c-2.303-0.013-3.117,2.49-1.729,3.764c1.461,1.341,3.888,0.26,3.818-1.7
						C727.533,147.339,726.615,146.432,725.482,146.371"/>
					<path fill="#FFF24D" d="M731.09,146.673c-2.195-0.01-3.049,2.302-1.824,3.622c1.348,1.451,3.863,0.603,3.961-1.335
						C733.287,147.765,732.329,146.739,731.09,146.673"/>
					<path fill="#FFF24D" d="M736.676,146.965c-2.168-0.005-2.969,2.312-1.733,3.63c1.354,1.45,3.821,0.594,3.886-1.346
						C738.864,148.053,737.9,147.028,736.676,146.965"/>
					<path fill="#FFF24D" d="M742.191,147.246c-2.142-0.001-2.889,2.319-1.648,3.637c1.361,1.445,3.775,0.583,3.801-1.357
						C744.36,148.328,743.395,147.306,742.191,147.246"/>
					<path fill="#FFF24D" d="M657.007,147.031c-1.541-0.013-2.439,3.097-1.544,4.008c0.832,0.845,2.317-0.818,2.339-2.616
						C657.812,147.625,657.499,147.079,657.007,147.031"/>
					<path fill="#FFF24D" d="M660.186,147.326c-1.65-0.017-2.533,3.107-1.549,4.026c0.914,0.852,2.465-0.817,2.438-2.625
						C661.064,147.925,660.715,147.375,660.186,147.326"/>
					<path fill="#FFF24D" d="M663.591,147.628c-1.63-0.018-2.581,2.888-1.649,3.942c0.898,1.021,2.574-0.461,2.636-2.333
						C664.604,148.343,664.199,147.681,663.591,147.628"/>
					<path fill="#FFF24D" d="M667.217,147.936c-1.727-0.02-2.666,2.899-1.656,3.959c0.979,1.028,2.721-0.459,2.738-2.341
						C668.309,148.655,667.863,147.99,667.217,147.936"/>
					<path fill="#FFF24D" d="M671.059,148.249c-1.815-0.021-2.738,2.911-1.654,3.976c1.055,1.036,2.854-0.457,2.834-2.35
						C672.227,148.973,671.741,148.304,671.059,148.249"/>
					<path fill="#FFF24D" d="M675.107,148.566c-1.91-0.023-2.815,2.921-1.654,3.992c1.133,1.043,2.994-0.455,2.93-2.357
						C676.354,149.294,675.827,148.623,675.107,148.566"/>
					<path fill="#FFF24D" d="M679.354,148.888c-1.895-0.023-2.838,2.706-1.768,3.886c1.089,1.201,3.084-0.092,3.14-2.034
						C680.755,149.729,680.178,148.95,679.354,148.888"/>
					<path fill="#FFF24D" d="M683.793,149.213c-1.975-0.023-2.902,2.715-1.764,3.9c1.156,1.207,3.211-0.09,3.229-2.041
						C685.27,150.057,684.652,149.275,683.793,149.213"/>
					<path fill="#FFF24D" d="M688.415,149.54c-2.05-0.023-2.96,2.725-1.757,3.915c1.227,1.21,3.333-0.091,3.313-2.048
						C689.964,150.387,689.309,149.602,688.415,149.54"/>
					<path fill="#FFF24D" d="M693.216,149.868c-2.126-0.024-3.019,2.734-1.747,3.927c1.29,1.212,3.443-0.094,3.391-2.055
						C694.829,150.718,694.139,149.93,693.216,149.868"/>
					<path fill="#FFF24D" d="M698.174,150.196c-2.093-0.022-3.031,2.507-1.865,3.802c1.219,1.354,3.502,0.27,3.598-1.705
						C699.955,151.184,699.196,150.263,698.174,150.196"/>
					<path fill="#FFF24D" d="M703.289,150.524c-2.153-0.022-3.073,2.514-1.852,3.813c1.273,1.358,3.604,0.27,3.666-1.711
						C705.139,151.514,704.341,150.591,703.289,150.524"/>
					<path fill="#FFF24D" d="M708.547,150.851c-2.209-0.021-3.105,2.522-1.834,3.824c1.334,1.36,3.705,0.269,3.732-1.718
						C710.461,151.842,709.627,150.917,708.547,150.851"/>
					<path fill="#FFF24D" d="M713.935,151.174c-2.253-0.019-3.126,2.531-1.803,3.834c1.386,1.364,3.79,0.268,3.782-1.724
						C715.91,152.167,715.041,151.24,713.935,151.174"/>
					<path fill="#FFF24D" d="M719.445,151.495c-2.302-0.017-3.146,2.539-1.774,3.842c1.438,1.368,3.876,0.268,3.835-1.73
						C721.483,152.487,720.578,151.56,719.445,151.495"/>
					<path fill="#FFF24D" d="M725.064,151.812c-2.341-0.015-3.158,2.546-1.741,3.85c1.485,1.37,3.948,0.265,3.874-1.738
						C727.155,152.803,726.219,151.875,725.064,151.812"/>
					<path fill="#FFF24D" d="M730.775,152.122c-2.235-0.011-3.102,2.354-1.854,3.705c1.365,1.48,3.924,0.613,4.025-1.365
						C733.01,153.239,732.035,152.189,730.775,152.122"/>
					<path fill="#FFF24D" d="M736.461,152.42c-2.206-0.004-3.025,2.365-1.775,3.713c1.371,1.478,3.885,0.603,3.955-1.377
						C738.684,153.533,737.707,152.485,736.461,152.42"/>
					<path fill="#FFF24D" d="M742.076,152.705c-2.177,0-2.951,2.374-1.697,3.72c1.371,1.472,3.832,0.589,3.873-1.389
						C744.275,153.812,743.301,152.766,742.076,152.705"/>
					<path fill="#FFF24D" d="M655.648,152.322c-1.556-0.023-2.326,3.155-1.385,4.094c0.873,0.868,2.299-0.824,2.242-2.663
						C656.484,152.935,656.146,152.374,655.648,152.322"/>
					<path fill="#FFF24D" d="M658.866,152.642c-1.668-0.025-2.427,3.167-1.396,4.112c0.956,0.875,2.449-0.824,2.353-2.673
						C659.777,153.259,659.402,152.694,658.866,152.642"/>
					<path fill="#FFF24D" d="M662.314,152.968c-1.645-0.025-2.486,2.944-1.512,4.025c0.893,0.984,2.445-0.329,2.562-2.161
						C663.432,153.814,662.988,153.03,662.314,152.968"/>
					<path fill="#FFF24D" d="M665.989,153.299c-1.743-0.028-2.581,2.954-1.522,4.042c0.962,0.99,2.586-0.327,2.674-2.168
						C667.189,154.151,666.705,153.362,665.989,153.299"/>
					<path fill="#FFF24D" d="M669.882,153.635c-1.835-0.028-2.663,2.966-1.531,4.06c1.103,1.062,2.866-0.458,2.778-2.391
						C671.088,154.38,670.576,153.694,669.882,153.635"/>
					<path fill="#FFF24D" d="M673.985,153.975c-1.831-0.027-2.706,2.748-1.657,3.952c0.999,1.147,2.818,0.029,2.993-1.84
						C675.428,154.954,674.854,154.045,673.985,153.975"/>
					<path fill="#FFF24D" d="M678.291,154.317c-1.914-0.028-2.784,2.758-1.668,3.968c1.135,1.228,3.111-0.087,3.111-2.069
						C679.734,155.182,679.127,154.383,678.291,154.317"/>
					<path fill="#FFF24D" d="M707.899,156.383c-2.236-0.024-3.11,2.571-1.804,3.901c1.365,1.386,3.75,0.275,3.754-1.749
						C709.854,157.397,708.996,156.451,707.899,156.383"/>
					<path fill="#FFF24D" d="M713.367,156.719c-2.282-0.021-3.139,2.581-1.785,3.911c1.414,1.39,3.836,0.274,3.812-1.756
						C715.381,157.733,714.49,156.787,713.367,156.719"/>
					<path fill="#FFF24D" d="M718.959,157.05c-2.33-0.019-3.169,2.588-1.77,3.92c1.465,1.393,3.925,0.272,3.869-1.764
						C721.031,158.064,720.108,157.117,718.959,157.05"/>
					<path fill="#FFF24D" d="M724.661,157.375c-2.37-0.015-3.19,2.597-1.749,3.928c1.51,1.394,3.998,0.268,3.918-1.771
						C726.785,158.388,725.832,157.441,724.661,157.375"/>
					<path fill="#FFF24D" d="M730.455,157.693c-2.266-0.011-3.141,2.401-1.875,3.779c1.383,1.505,3.973,0.621,4.078-1.391
						C732.723,158.833,731.734,157.762,730.455,157.693"/>
					<path fill="#FFF24D" d="M736.225,157.997c-2.234-0.004-3.07,2.413-1.808,3.788c1.382,1.501,3.93,0.609,4.011-1.405
						C738.479,159.131,737.49,158.062,736.225,157.997"/>
					<path fill="#FFF24D" d="M741.924,158.285c-2.207,0.002-3.006,2.422-1.742,3.794c1.377,1.495,3.877,0.594,3.936-1.417
						C744.15,159.413,743.168,158.347,741.924,158.285"/>
					<path fill="#FFF24D" d="M651.494,157.39c-1.438-0.029-2.082,3.195-1.188,4.153c0.778,0.834,2.013-0.677,2.026-2.489
						C652.341,158.132,651.996,157.448,651.494,157.39"/>
					<path fill="#FFF24D" d="M654.506,157.729c-1.559-0.033-2.199,3.207-1.213,4.171c0.858,0.838,2.162-0.68,2.146-2.498
						C655.434,158.476,655.049,157.788,654.506,157.729"/>
					<path fill="#FFF24D" d="M657.756,158.073c-1.549-0.032-2.28,2.979-1.334,4.084c0.811,0.945,2.17-0.192,2.35-1.963
						C658.886,159.057,658.449,158.145,657.756,158.073"/>
					<path fill="#FFF24D" d="M661.24,158.423c-1.654-0.035-2.388,2.992-1.36,4.101c0.931,1.007,2.442-0.325,2.489-2.192
						C662.395,159.293,661.92,158.49,661.24,158.423"/>
					<path fill="#FFF24D" d="M664.951,158.778c-1.754-0.036-2.485,3.003-1.382,4.118c1.003,1.013,2.588-0.324,2.606-2.2
						C666.189,159.652,665.674,158.846,664.951,158.778"/>
					<path fill="#FFF24D" d="M668.884,159.137c-1.847-0.037-2.575,3.015-1.397,4.134c1.07,1.019,2.726-0.322,2.723-2.208
						C670.205,160.015,669.648,159.205,668.884,159.137"/>
					<path fill="#FFF24D" d="M718.504,162.716c-2.352-0.02-3.18,2.633-1.758,3.988c1.485,1.414,3.961,0.275,3.896-1.792
						C720.607,163.75,719.668,162.784,718.504,162.716"/>
					<path fill="#FFF24D" d="M724.271,163.049c-2.396-0.016-3.213,2.642-1.75,3.997c1.523,1.414,4.034,0.27,3.947-1.8
						C726.423,164.081,725.457,163.116,724.271,163.049"/>
					<path fill="#FFF24D" d="M730.133,163.374c-2.288-0.011-3.171,2.443-1.892,3.845c1.394,1.527,4.011,0.627,4.118-1.415
						C732.426,164.534,731.428,163.444,730.133,163.374"/>
					<path fill="#FFF24D" d="M735.971,163.683c-2.262-0.004-3.111,2.454-1.838,3.853c1.389,1.522,3.966,0.614,4.055-1.429
						C738.244,164.835,737.248,163.749,735.971,163.683"/>
					<path fill="#FFF24D" d="M741.735,163.973c-2.369,0.002-3.107,2.671-1.627,4.017c1.524,1.386,3.952,0.218,3.819-1.838
						C743.854,164.968,742.91,164.031,741.735,163.973"/>
					<path fill="#FFF24D" d="M747.402,164.244c-2.326,0.011-3.03,2.682-1.564,4.022c1.51,1.381,3.885,0.205,3.739-1.851
						C749.492,165.231,748.559,164.298,747.402,164.244"/>
					<path fill="#FFF24D" d="M650.558,162.88c-1.438-0.04-1.938,3.237-1.006,4.218c0.771,0.807,1.882-0.526,1.92-2.302
						C651.492,163.755,651.108,162.949,650.558,162.88"/>
					<path fill="#FFF24D" d="M653.59,163.244c-1.562-0.043-2.062,3.249-1.035,4.236c0.895,0.858,2.135-0.678,2.042-2.528
						C654.55,164.011,654.137,163.308,653.59,163.244"/>
					<path fill="#FFF24D" d="M656.862,163.614c-1.554-0.042-2.16,3.019-1.17,4.145c0.848,0.964,2.164-0.185,2.271-1.984
						C658.033,164.639,657.549,163.689,656.862,163.614"/>
					<path fill="#FFF24D" d="M660.371,163.988c-1.658-0.043-2.273,3.03-1.203,4.162c0.916,0.97,2.31-0.184,2.404-1.99
						C661.633,165.019,661.105,164.065,660.371,163.988"/>
					<path fill="#FFF24D" d="M664.109,164.366c-1.761-0.044-2.381,3.042-1.233,4.179c1.041,1.033,2.581-0.319,2.534-2.225
						C665.385,165.261,664.837,164.438,664.109,164.366"/>
					<path fill="#FFF24D" d="M723.9,168.825c-2.41-0.017-3.224,2.676-1.746,4.05c1.538,1.433,4.059,0.273,3.968-1.825
						C726.07,169.871,725.094,168.894,723.9,168.825"/>
					<path fill="#FFF24D" d="M729.81,169.155c-2.303-0.012-3.188,2.476-1.899,3.896c1.398,1.545,4.034,0.632,4.145-1.435
						C732.121,170.33,731.114,169.226,729.81,169.155"/>
					<path fill="#FFF24D" d="M735.695,169.467c-2.414-0.004-3.196,2.697-1.701,4.064c1.543,1.411,4.037,0.234,3.927-1.851
						C737.857,170.481,736.9,169.53,735.695,169.467"/>
					<path fill="#FFF24D" d="M741.508,169.76c-2.384,0.004-3.143,2.708-1.662,4.07c1.525,1.402,3.979,0.217,3.859-1.865
						C743.637,170.766,742.693,169.818,741.508,169.76"/>
					<path fill="#FFF24D" d="M747.223,170.031c-2.344,0.012-3.075,2.718-1.612,4.075c1.507,1.396,3.909,0.202,3.782-1.879
						C749.32,171.029,748.387,170.085,747.223,170.031"/>
					<path fill="#FFF24D" d="M649.864,168.46c-1.438-0.05-1.793,3.281-0.816,4.284c0.759,0.781,1.759-0.378,1.812-2.103
						C650.893,169.478,650.465,168.54,649.864,168.46"/>
					<path fill="#FFF24D" d="M652.908,168.85c-1.562-0.052-1.922,3.292-0.854,4.302c0.875,0.827,2.002-0.528,1.943-2.339
						C653.965,169.75,653.506,168.924,652.908,168.85"/>
					<path fill="#FFF24D" d="M656.192,169.244c-1.552-0.05-2.033,3.058-0.997,4.208c0.838,0.931,2.037-0.047,2.176-1.773
						C657.472,170.424,656.943,169.331,656.192,169.244"/>
					<path fill="#FFF24D" d="M659.716,169.642c-1.657-0.051-2.149,3.069-1.038,4.226c0.95,0.987,2.297-0.18,2.324-2.014
						C661.018,170.694,660.454,169.723,659.716,169.642"/>
					<path fill="#FFF24D" d="M729.486,175.014c-2.453-0.012-3.261,2.721-1.746,4.11c1.557,1.431,4.098,0.247,3.998-1.863
						C731.68,176.047,730.712,175.081,729.486,175.014"/>
					<path fill="#FFF24D" d="M735.4,175.329c-2.426-0.003-3.217,2.733-1.721,4.117c1.541,1.425,4.052,0.231,3.947-1.878
						C737.57,176.354,736.613,175.391,735.4,175.329"/>
					<path fill="#FFF24D" d="M741.242,175.622c-2.395,0.006-3.172,2.744-1.692,4.123c1.521,1.417,3.99,0.213,3.886-1.893
						C743.377,176.638,742.434,175.679,741.242,175.622"/>
					<path fill="#FFF24D" d="M746.986,175.892c-2.354,0.016-3.113,2.756-1.658,4.128c1.496,1.409,3.922,0.197,3.818-1.908
						C749.086,176.899,748.158,175.945,746.986,175.892"/>
					<path fill="#FFF24D" d="M649.419,174.124c-1.44-0.06-1.642,3.292-0.62,4.31c0.79,0.784,1.729-0.371,1.705-2.094
						C650.488,175.18,650.012,174.207,649.419,174.124"/>
					<path fill="#FFF24D" d="M652.466,174.538c-1.446-0.058-1.774,3.056-0.769,4.215c0.767,0.882,1.775,0.085,1.93-1.521
						C653.755,175.894,653.212,174.636,652.466,174.538"/>
					<path fill="#FFF24D" d="M655.756,174.956c-1.558-0.059-1.906,3.067-0.818,4.231c0.869,0.932,2.021-0.039,2.092-1.762
						C657.077,176.156,656.506,175.048,655.756,174.956"/>
					<path fill="#FFF24D" d="M659.283,175.376c-1.664-0.06-2.031,3.078-0.867,4.247c1.004,1.01,2.277-0.132,2.233-2.004
						C660.621,176.447,660.021,175.461,659.283,175.376"/>
					<path fill="#FFF24D" d="M663.043,175.799c-1.679-0.057-2.144,2.85-1.038,4.134c0.923,1.072,2.286,0.295,2.474-1.409
						C664.627,177.172,663.955,175.899,663.043,175.799"/>
					<path fill="#FFF24D" d="M723.211,180.602c-2.433-0.019-3.223,2.72-1.719,4.118c1.547,1.437,4.065,0.264,3.967-1.845
						C725.4,181.67,724.414,180.672,723.211,180.602"/>
					<path fill="#FFF24D" d="M729.162,180.939c-2.326-0.011-3.211,2.519-1.904,3.963c1.438,1.589,4.041,0.679,4.157-1.454
						C731.486,182.138,730.475,181.012,729.162,180.939"/>
					<path fill="#FFF24D" d="M735.088,181.256c-2.438-0.001-3.236,2.744-1.729,4.131c1.57,1.449,4.049,0.275,3.951-1.875
						C737.256,182.289,736.301,181.319,735.088,181.256"/>
					<path fill="#FFF24D" d="M740.939,181.549c-2.409,0.008-3.202,2.755-1.719,4.137c1.546,1.439,3.987,0.255,3.898-1.891
						C743.071,182.592,742.113,181.605,740.939,181.549"/>
					<path fill="#FFF24D" d="M746.694,181.817c-2.37,0.018-3.154,2.767-1.696,4.142c1.518,1.432,3.92,0.238,3.836-1.907
						C748.787,182.851,747.848,181.869,746.694,181.817"/>
					<path fill="#FFF24D" d="M649.23,179.808c-1.322-0.067-1.488,2.989-0.521,4.134c0.689,0.815,1.538,0.181,1.683-1.257
						C650.531,181.314,649.966,179.917,649.23,179.808"/>
					<path fill="#FFF24D" d="M652.271,180.245c-1.438-0.07-1.629,2.998-0.576,4.149c0.797,0.875,1.764,0.099,1.847-1.482
						C653.611,181.593,653.018,180.347,652.271,180.245"/>
					<path fill="#FFF24D" d="M655.556,180.684c-1.546-0.069-1.761,3.009-0.634,4.165c0.9,0.924,2.004-0.023,2-1.718
						C656.918,181.878,656.307,180.781,655.556,180.684"/>
					<path fill="#FFF24D" d="M659.077,181.127c-1.569-0.067-1.894,2.784-0.812,4.051c0.923,1.078,2.146,0.338,2.259-1.365
						C660.61,182.486,659.936,181.23,659.077,181.127"/>
					<path fill="#FFF24D" d="M662.83,181.57c-1.668-0.067-2.021,2.794-0.873,4.065c0.956,1.06,2.28,0.305,2.402-1.37
						C664.457,182.934,663.742,181.674,662.83,181.57"/>
					<path fill="#FFF24D" d="M666.809,182.014c-1.76-0.065-2.137,2.805-0.933,4.079c1.084,1.147,2.538,0.23,2.552-1.609
						C668.436,183.219,667.709,182.111,666.809,182.014"/>
					<path fill="#FFF24D" d="M717.057,186.166c-2.244-0.026-3.074,2.45-1.805,3.875c1.373,1.538,3.929,0.651,4.022-1.395
						C719.333,187.359,718.339,186.247,717.057,186.166"/>
					<path fill="#FFF24D" d="M722.902,186.523c-2.287-0.02-3.146,2.459-1.854,3.882c1.394,1.534,3.999,0.641,4.104-1.406
						C725.219,187.711,724.207,186.6,722.902,186.523"/>
					<path fill="#FFF24D" d="M728.843,186.864c-2.319-0.014-3.198,2.469-1.892,3.888c1.432,1.558,4.023,0.667,4.141-1.42
						C731.163,188.043,730.154,186.936,728.843,186.864"/>
					<path fill="#FFF24D" d="M734.759,187.181c-2.294-0.002-3.173,2.483-1.89,3.896c1.408,1.551,3.975,0.649,4.1-1.439
						C737.047,188.35,736.055,187.248,734.759,187.181"/>
					<path fill="#FFF24D" d="M740.602,187.472c-2.402,0.007-3.207,2.703-1.73,4.06c1.533,1.41,3.974,0.25,3.896-1.853
						C742.724,188.498,741.773,187.528,740.602,187.472"/>
					<path fill="#FFF24D" d="M746.348,187.737c-2.362,0.018-3.168,2.716-1.726,4.065c1.499,1.4,3.905,0.23,3.841-1.87
						C748.429,188.752,747.499,187.788,746.348,187.737"/>
					<path fill="#FFF24D" d="M652.33,185.867c-1.423-0.081-1.479,2.934-0.391,4.075c0.822,0.865,1.743,0.111,1.76-1.441
						C653.711,187.205,653.072,185.975,652.33,185.867"/>
					<path fill="#FFF24D" d="M655.598,186.328c-1.453-0.078-1.627,2.712-0.566,3.962c0.835,0.988,1.889,0.412,2.014-1.101
						C657.152,187.833,656.451,186.443,655.598,186.328"/>
					<path fill="#FFF24D" d="M659.104,186.79c-1.556-0.078-1.762,2.722-0.641,3.975c0.951,1.063,2.131,0.346,2.177-1.324
						C660.675,188.137,659.957,186.898,659.104,186.79"/>
					<path fill="#FFF24D" d="M662.838,187.251c-1.652-0.077-1.893,2.731-0.71,3.988c1.005,1.067,2.265,0.346,2.325-1.33
						C664.501,188.602,663.746,187.36,662.838,187.251"/>
					<path fill="#FFF24D" d="M666.797,187.713c-1.743-0.075-2.016,2.742-0.777,4c1.112,1.13,2.521,0.238,2.471-1.564
						C668.453,188.906,667.694,187.813,666.797,187.713"/>
					<path fill="#FFF24D" d="M670.973,188.172c-1.754-0.07-2.15,2.511-0.98,3.869c1.084,1.257,2.646,0.573,2.746-1.198
						C672.809,189.527,671.984,188.279,670.973,188.172"/>
					<path fill="#FFF24D" d="M675.355,188.627c-1.84-0.068-2.275,2.52-1.058,3.88c1.126,1.259,2.772,0.571,2.886-1.206
						C677.271,189.983,676.416,188.733,675.355,188.627"/>
					<path fill="#FFF24D" d="M705.525,191.208c-2.138-0.042-2.875,2.374-1.637,3.778c1.365,1.544,3.734,0.708,3.785-1.334
						C707.707,192.392,706.742,191.295,705.525,191.208"/>
					<path fill="#FFF24D" d="M711.102,191.599c-2.183-0.036-2.955,2.384-1.695,3.786c1.387,1.543,3.816,0.7,3.885-1.346
						C713.328,192.778,712.348,191.684,711.102,191.599"/>
					<path fill="#FFF24D" d="M716.805,191.976c-2.229-0.03-3.037,2.394-1.761,3.792c1.407,1.542,3.901,0.692,3.982-1.358
						C719.078,193.148,718.08,192.057,716.805,191.976"/>
					<path fill="#FFF24D" d="M722.621,192.335c-2.273-0.023-3.112,2.404-1.82,3.799c1.387,1.5,3.975,0.629,4.068-1.37
						C724.929,193.502,723.92,192.413,722.621,192.335"/>
					<path fill="#FFF24D" d="M728.532,192.677c-2.309-0.016-3.173,2.414-1.872,3.805c1.424,1.521,3.998,0.654,4.111-1.386
						C730.842,193.835,729.838,192.75,728.532,192.677"/>
					<path fill="#FFF24D" d="M734.42,192.994c-2.279-0.005-3.157,2.428-1.883,3.812c1.395,1.514,3.945,0.635,4.076-1.405
						C736.693,194.14,735.709,193.061,734.42,192.994"/>
					<path fill="#FFF24D" d="M740.234,193.283c-2.391,0.006-3.2,2.644-1.74,3.973c1.514,1.376,3.943,0.242,3.882-1.811
						C742.342,194.288,741.4,193.339,740.234,193.283"/>
					<path fill="#FFF24D" d="M652.63,191.394c-1.336-0.087-1.351,2.638-0.319,3.868c0.775,0.923,1.654,0.5,1.773-0.854
						C654.205,193.042,653.471,191.521,652.63,191.394"/>
					<path fill="#FFF24D" d="M655.874,191.873c-1.438-0.087-1.49,2.646-0.396,3.879c0.861,0.972,1.878,0.417,1.938-1.06
						C657.472,193.362,656.721,191.992,655.874,191.873"/>
					<path fill="#FFF24D" d="M659.354,192.352c-1.537-0.087-1.629,2.655-0.473,3.891c0.912,0.975,2.006,0.417,2.088-1.064
						C661.045,193.846,660.259,192.472,659.354,192.352"/>
					<path fill="#FFF24D" d="M663.061,192.831c-1.562-0.083-1.785,2.429-0.676,3.762c0.967,1.161,2.248,0.657,2.361-0.929
						C664.844,194.328,664.023,192.951,663.061,192.831"/>
					<path fill="#FFF24D" d="M666.988,193.308c-1.648-0.08-1.912,2.438-0.756,3.773c1.01,1.164,2.367,0.657,2.509-0.934
						C668.858,194.807,668.007,193.427,666.988,193.308"/>
					<path fill="#FFF24D" d="M671.132,193.782c-1.733-0.079-2.043,2.446-0.84,3.783c1.108,1.231,2.631,0.573,2.67-1.155
						C672.992,195.121,672.137,193.892,671.132,193.782"/>
					<path fill="#FFF24D" d="M675.48,194.25c-1.819-0.076-2.171,2.455-0.924,3.793c1.148,1.233,2.756,0.571,2.814-1.162
						C677.417,195.589,676.533,194.36,675.48,194.25"/>
					<path fill="#FFF24D" d="M680.028,194.713c-1.899-0.073-2.294,2.464-1.006,3.803c1.187,1.234,2.868,0.567,2.95-1.169
						C682.037,196.052,681.127,194.822,680.028,194.713"/>
					<path fill="#FFF24D" d="M684.765,195.169c-1.978-0.07-2.414,2.473-1.089,3.812c1.297,1.308,3.146,0.469,3.091-1.402
						C686.73,196.349,685.832,195.268,684.765,195.169"/>
					<path fill="#FFF24D" d="M689.686,195.616c-2.055-0.066-2.533,2.481-1.174,3.82c1.33,1.305,3.254,0.46,3.219-1.412
						C691.707,196.793,690.789,195.713,689.686,195.616"/>
					<path fill="#FFF24D" d="M694.771,196.052c-2.003-0.058-2.61,2.294-1.401,3.674c1.241,1.416,3.325,0.793,3.48-1.042
						C696.965,197.383,695.992,196.153,694.771,196.052"/>
					<path fill="#FFF24D" d="M700.018,196.477c-2.062-0.052-2.715,2.303-1.48,3.681c1.265,1.416,3.418,0.786,3.6-1.052
						C702.264,197.804,701.273,196.575,700.018,196.477"/>
					<path fill="#FFF24D" d="M705.411,196.887c-2.117-0.047-2.813,2.313-1.563,3.689c1.37,1.505,3.703,0.698,3.729-1.29
						C707.588,198.053,706.617,196.977,705.411,196.887"/>
					<path fill="#FFF24D" d="M710.942,197.283c-2.163-0.041-2.901,2.323-1.638,3.696c1.387,1.503,3.781,0.688,3.828-1.302
						C713.162,198.443,712.179,197.369,710.942,197.283"/>
					<path fill="#FFF24D" d="M716.6,197.663c-2.211-0.033-2.986,2.334-1.711,3.703c1.402,1.502,3.863,0.679,3.932-1.314
						C718.861,198.816,717.865,197.745,716.6,197.663"/>
					<path fill="#FFF24D" d="M722.369,198.024c-2.254-0.026-3.071,2.343-1.784,3.708c1.413,1.498,3.932,0.667,4.021-1.328
						C724.662,199.17,723.658,198.102,722.369,198.024"/>
					<path fill="#FFF24D" d="M728.232,198.366c-2.287-0.019-3.143,2.354-1.85,3.714c1.409,1.481,3.957,0.64,4.07-1.343
						C730.524,199.502,729.527,198.438,728.232,198.366"/>
					<path fill="#FFF24D" d="M734.072,198.681c-2.264-0.006-3.135,2.368-1.871,3.721c1.376,1.473,3.904,0.62,4.039-1.363
						C736.325,199.805,735.354,198.748,734.072,198.681"/>
					<path fill="#FFF24D" d="M739.842,198.968c-2.232,0.004-3.127,2.381-1.896,3.727c1.34,1.462,3.844,0.596,4.002-1.383
						C742.045,200.079,741.101,199.027,739.842,198.968"/>
					<path fill="#FFF24D" d="M653.168,196.814c-1.316-0.097-1.211,2.568-0.143,3.78c0.801,0.907,1.643,0.501,1.699-0.819
						C654.787,198.439,654,196.945,653.168,196.814"/>
					<path fill="#FFF24D" d="M656.379,197.309c-1.418-0.097-1.352,2.576-0.224,3.79c0.845,0.91,1.763,0.502,1.851-0.822
						C658.096,198.938,657.275,197.441,656.379,197.309"/>
					<path fill="#FFF24D" d="M659.822,197.803c-1.449-0.091-1.526,2.355-0.434,3.663c0.89,1.059,1.998,0.699,2.123-0.688
						C661.634,199.436,660.779,197.935,659.822,197.803"/>
					<path fill="#FFF24D" d="M663.49,198.296c-1.541-0.09-1.664,2.363-0.521,3.672c0.993,1.138,2.233,0.655,2.286-0.892
						C665.301,199.771,664.442,198.419,663.49,198.296"/>
					<path fill="#FFF24D" d="M667.377,198.787c-1.626-0.087-1.795,2.371-0.607,3.682c1.033,1.14,2.354,0.653,2.436-0.896
						C669.271,200.262,668.385,198.909,667.377,198.787"/>
					<path fill="#FFF24D" d="M671.475,199.273c-1.711-0.085-1.928,2.379-0.695,3.691c1.07,1.142,2.473,0.653,2.582-0.903
						C673.453,200.749,672.538,199.394,671.475,199.273"/>
					<path fill="#FFF24D" d="M675.777,199.754c-1.793-0.083-2.061,2.387-0.789,3.699c1.168,1.206,2.727,0.567,2.732-1.12
						C677.727,201.071,676.818,199.866,675.777,199.754"/>
					<path fill="#FFF24D" d="M680.275,200.227c-1.872-0.079-2.188,2.396-0.881,3.707c1.201,1.207,2.841,0.564,2.875-1.127
						C682.294,201.542,681.362,200.337,680.275,200.227"/>
					<path fill="#FFF24D" d="M684.961,200.692c-1.84-0.071-2.29,2.212-1.115,3.563c1.203,1.385,3.09,0.796,3.151-0.984
						C687.041,202.005,686.091,200.8,684.961,200.692"/>
					<path fill="#FFF24D" d="M689.827,201.147c-1.909-0.067-2.413,2.221-1.213,3.571c1.229,1.383,3.19,0.788,3.284-0.994
						C691.963,202.457,690.995,201.253,689.827,201.147"/>
					<path fill="#FFF24D" d="M694.857,201.59c-1.977-0.062-2.527,2.229-1.309,3.579c1.251,1.381,3.291,0.78,3.411-1.004
						C697.048,202.896,696.062,201.693,694.857,201.59"/>
					<path fill="#FFF24D" d="M700.045,202.021c-2.035-0.057-2.637,2.238-1.398,3.585c1.271,1.379,3.383,0.771,3.531-1.015
						C702.284,203.321,701.287,202.12,700.045,202.021"/>
					<path fill="#FFF24D" d="M705.379,202.436c-2.09-0.05-2.742,2.248-1.488,3.592c1.369,1.466,3.658,0.685,3.654-1.248
						C707.545,203.577,706.572,202.525,705.379,202.436"/>
					<path fill="#FFF24D" d="M710.848,202.834c-2.137-0.044-2.836,2.258-1.569,3.598c1.382,1.464,3.733,0.675,3.761-1.26
						C713.053,203.97,712.07,202.921,710.848,202.834"/>
					<path fill="#FFF24D" d="M716.441,203.216c-2.186-0.036-2.934,2.268-1.658,3.604c1.393,1.461,3.813,0.665,3.869-1.273
						C718.684,204.344,717.693,203.298,716.441,203.216"/>
					<path fill="#FFF24D" d="M722.146,203.578c-2.227-0.029-3.021,2.278-1.742,3.609c1.396,1.457,3.881,0.651,3.963-1.287
						C724.418,204.697,723.421,203.655,722.146,203.578"/>
					<path fill="#FFF24D" d="M727.945,203.918c-2.261-0.02-3.102,2.289-1.818,3.615c1.391,1.439,3.904,0.624,4.015-1.303
						C730.211,205.027,729.225,203.991,727.945,203.918"/>
					<path fill="#FFF24D" d="M733.72,204.231c-2.231-0.008-3.101,2.303-1.854,3.621c1.353,1.431,3.853,0.602,3.989-1.324
						C735.943,205.327,734.984,204.296,733.72,204.231"/>
					<path fill="#FFF24D" d="M739.424,204.513c-2.209,0.004-3.102,2.317-1.891,3.627c1.312,1.419,3.79,0.579,3.957-1.343
						C741.594,205.597,740.668,204.572,739.424,204.513"/>
					<path fill="#FFF24D" d="M657.104,202.625c-1.329-0.1-1.257,2.279-0.177,3.559c0.833,0.988,1.77,0.755,1.889-0.469
						C658.942,204.413,658.031,202.767,657.104,202.625"/>
					<path fill="#FFF24D" d="M660.502,203.133c-1.425-0.1-1.398,2.285-0.271,3.567c0.929,1.057,1.98,0.719,2.05-0.656
						C662.344,204.736,661.447,203.268,660.502,203.133"/>
					<path fill="#FFF24D" d="M664.121,203.638c-1.514-0.097-1.539,2.292-0.365,3.575c0.947,1.037,2.1,0.692,2.198-0.66
						C666.05,205.243,665.125,203.772,664.121,203.638"/>
					<path fill="#FFF24D" d="M667.956,204.14c-1.599-0.096-1.674,2.299-0.46,3.583c1.052,1.113,2.326,0.647,2.352-0.86
						C669.869,205.587,668.949,204.264,667.956,204.14"/>
					<path fill="#FFF24D" d="M671.998,204.636c-1.586-0.087-1.803,2.121-0.691,3.442c1.02,1.21,2.438,0.928,2.619-0.521
						C674.09,206.241,673.118,204.768,671.998,204.636"/>
					<path fill="#FFF24D" d="M676.242,205.125c-1.664-0.084-1.938,2.128-0.795,3.449c1.102,1.276,2.687,0.863,2.778-0.724
						C678.304,206.572,677.339,205.248,676.242,205.125"/>
					<path fill="#FFF24D" d="M680.678,205.607c-1.736-0.081-2.062,2.136-0.896,3.456c1.127,1.275,2.793,0.858,2.923-0.731
						C682.806,207.051,681.822,205.727,680.678,205.607"/>
					<path fill="#FFF24D" d="M685.297,206.08c-1.809-0.077-2.188,2.143-1,3.463c1.215,1.349,3.052,0.783,3.068-0.945
						C687.377,207.365,686.41,206.189,685.297,206.08"/>
					<path fill="#FFF24D" d="M690.095,206.541c-1.878-0.072-2.316,2.151-1.104,3.469c1.235,1.345,3.15,0.774,3.202-0.955
						C692.226,207.823,691.246,206.648,690.095,206.541"/>
					<path fill="#FFF24D" d="M695.054,206.989c-1.94-0.067-2.438,2.16-1.208,3.476c1.254,1.343,3.246,0.765,3.33-0.965
						C697.234,208.266,696.243,207.093,695.054,206.989"/>
					<path fill="#FFF24D" d="M700.167,207.422c-2.001-0.06-2.552,2.169-1.31,3.482c1.271,1.34,3.334,0.756,3.451-0.977
						C702.394,208.694,701.393,207.523,700.167,207.422"/>
					<path fill="#FFF24D" d="M705.426,207.841c-2.057-0.055-2.664,2.178-1.41,3.487c1.365,1.424,3.604,0.671,3.575-1.203
						C707.574,208.956,706.602,207.931,705.426,207.841"/>
					<path fill="#FFF24D" d="M710.816,208.241c-2.104-0.047-2.766,2.188-1.506,3.493c1.371,1.42,3.68,0.659,3.686-1.216
						C713,209.349,712.021,208.328,710.816,208.241"/>
					<path fill="#FFF24D" d="M716.33,208.623c-2.15-0.04-2.865,2.197-1.602,3.498c1.379,1.418,3.755,0.648,3.794-1.229
						C718.547,209.723,717.562,208.705,716.33,208.623"/>
					<path fill="#FFF24D" d="M721.953,208.984c-2.19-0.031-2.961,2.208-1.695,3.502c1.38,1.413,3.816,0.635,3.893-1.243
						C724.194,210.075,723.209,209.061,721.953,208.984"/>
					<path fill="#FFF24D" d="M727.668,209.322c-2.225-0.021-3.046,2.219-1.783,3.507c1.368,1.395,3.84,0.605,3.947-1.26
						C729.9,210.402,728.93,209.394,727.668,209.322"/>
					<path fill="#FFF24D" d="M733.359,209.631c-2.199-0.009-3.059,2.233-1.83,3.514c1.383,1.446,3.995,0.453,3.935-1.497
						C735.43,210.559,734.525,209.692,733.359,209.631"/>
					<path fill="#FFF24D" d="M661.387,208.329c-1.314-0.1-1.278,2.032-0.235,3.321c0.905,1.12,1.979,0.965,2.089-0.301
						C663.35,210.057,662.381,208.477,661.387,208.329"/>
					<path fill="#FFF24D" d="M664.947,208.844c-1.398-0.099-1.42,2.038-0.344,3.327c0.938,1.121,2.087,0.964,2.235-0.304
						C666.994,210.572,666.004,208.99,664.947,208.844"/>
					<path fill="#FFF24D" d="M668.72,209.354c-1.478-0.096-1.554,2.044-0.444,3.333c1.009,1.176,2.307,0.912,2.393-0.488
						C670.746,210.926,669.764,209.489,668.72,209.354"/>
					<path fill="#FFF24D" d="M672.695,209.858c-1.558-0.093-1.69,2.051-0.557,3.339c1.036,1.178,2.414,0.91,2.541-0.493
						C674.799,211.429,673.796,209.993,672.695,209.858"/>
					<path fill="#FFF24D" d="M676.867,210.355c-1.631-0.089-1.823,2.058-0.664,3.345c1.116,1.239,2.652,0.846,2.695-0.69
						C678.933,211.77,677.945,210.479,676.867,210.355"/>
					<path fill="#FFF24D" d="M681.229,210.843c-1.702-0.085-1.954,2.064-0.772,3.351c1.138,1.238,2.755,0.841,2.835-0.697
						C683.355,212.253,682.354,210.964,681.229,210.843"/>
					<path fill="#FFF24D" d="M685.769,211.32c-1.771-0.081-2.085,2.071-0.884,3.356c1.156,1.237,2.853,0.834,2.973-0.706
						C687.951,212.727,686.939,211.438,685.769,211.32"/>
					<path fill="#FFF24D" d="M690.485,211.786c-1.845-0.076-2.221,2.079-0.999,3.361c1.238,1.305,3.102,0.758,3.108-0.915
						C692.604,213.037,691.616,211.894,690.485,211.786"/>
					<path fill="#FFF24D" d="M695.357,212.237c-1.904-0.071-2.344,2.086-1.109,3.366c1.256,1.302,3.193,0.749,3.24-0.925
						C697.521,213.482,696.527,212.341,695.357,212.237"/>
					<path fill="#FFF24D" d="M700.383,212.673c-1.963-0.065-2.462,2.095-1.219,3.371c1.266,1.299,3.277,0.739,3.363-0.936
						C702.588,213.911,701.587,212.773,700.383,212.673"/>
					<path fill="#FFF24D" d="M705.55,213.092c-2.017-0.058-2.578,2.104-1.329,3.375c1.355,1.379,3.537,0.655,3.485-1.156
						C707.674,214.178,706.707,213.182,705.55,213.092"/>
					<path fill="#FFF24D" d="M710.848,213.492c-2.062-0.05-2.685,2.114-1.434,3.38c1.359,1.375,3.61,0.643,3.596-1.169
						C713.001,214.57,712.031,213.578,710.848,213.492"/>
					<path fill="#FFF24D" d="M716.264,213.873c-2.106-0.042-2.791,2.123-1.539,3.385c1.359,1.371,3.685,0.63,3.709-1.184
						C718.449,214.942,717.476,213.954,716.264,213.873"/>
					<path fill="#FFF24D" d="M721.789,214.231c-2.15-0.033-2.896,2.133-1.646,3.39c1.356,1.365,3.742,0.616,3.811-1.198
						C723.994,215.291,723.023,214.308,721.789,214.231"/>
					<path fill="#FFF24D" d="M727.402,214.566c-2.185-0.023-2.984,2.145-1.742,3.394c1.397,1.406,3.969,0.46,3.871-1.425
						C729.479,215.479,728.562,214.632,727.402,214.566"/>
					<path fill="#FFF24D" d="M665.965,213.91c-1.367-0.103-1.3,1.963-0.197,3.216c0.957,1.088,2.068,0.943,2.162-0.281
						C668.026,215.593,666.999,214.058,665.965,213.91"/>
					<path fill="#FFF24D" d="M669.664,214.426c-1.444-0.101-1.436,1.968-0.307,3.221c1.024,1.141,2.277,0.892,2.311-0.459
						C671.697,215.957,670.686,214.562,669.664,214.426"/>
					<path fill="#FFF24D" d="M673.562,214.936c-1.521-0.097-1.573,1.975-0.423,3.226c1.053,1.141,2.385,0.89,2.457-0.464
						C675.666,216.464,674.639,215.071,673.562,214.936"/>
					<path fill="#FFF24D" d="M677.65,215.437c-1.595-0.094-1.709,1.98-0.535,3.23c1.127,1.201,2.611,0.827,2.603-0.655
						C679.711,216.812,678.707,215.561,677.65,215.437"/>
					<path fill="#FFF24D" d="M681.924,215.928c-1.665-0.09-1.844,1.986-0.65,3.234c1.146,1.199,2.709,0.822,2.742-0.662
						C684.041,217.3,683.025,216.05,681.924,215.928"/>
					<path fill="#FFF24D" d="M686.373,216.408c-1.732-0.085-1.977,1.993-0.771,3.238c1.161,1.197,2.804,0.814,2.879-0.671
						C688.543,217.774,687.52,216.527,686.373,216.408"/>
					<path fill="#FFF24D" d="M690.994,216.876c-1.801-0.08-2.113,2-0.895,3.242c1.242,1.261,3.045,0.739,3.016-0.874
						C693.094,218.09,692.102,216.983,690.994,216.876"/>
					<path fill="#FFF24D" d="M695.768,217.328c-1.859-0.074-2.239,2.007-1.01,3.246c1.25,1.258,3.131,0.729,3.144-0.884
						C697.908,218.536,696.912,217.433,695.768,217.328"/>
					<path fill="#FFF24D" d="M700.69,217.764c-1.919-0.067-2.365,2.016-1.128,3.25c1.256,1.254,3.21,0.718,3.266-0.896
						C702.867,218.964,701.868,217.864,700.69,217.764"/>
					<path fill="#FFF24D" d="M705.75,218.182c-1.971-0.061-2.486,2.023-1.245,3.253c1.341,1.331,3.462,0.637,3.385-1.108
						C707.842,219.234,706.883,218.272,705.75,218.182"/>
					<path fill="#FFF24D" d="M710.938,218.581c-2.016-0.052-2.596,2.033-1.357,3.257c1.342,1.326,3.532,0.625,3.5-1.121
						C713.057,219.625,712.098,218.667,710.938,218.581"/>
					<path fill="#FFF24D" d="M716.242,218.958c-2.062-0.043-2.709,2.043-1.477,3.262c1.34,1.322,3.604,0.611,3.613-1.136
						C718.389,219.993,717.43,219.04,716.242,218.958"/>
					<path fill="#FFF24D" d="M721.652,219.313c-2.104-0.035-2.816,2.052-1.592,3.265c1.332,1.315,3.66,0.595,3.72-1.15
						C723.816,220.337,722.861,219.389,721.652,219.313"/>
					<path fill="#FFF24D" d="M670.777,219.336c-1.37-0.103-1.348,1.707-0.297,2.964c0.986,1.182,2.262,1.118,2.352-0.118
						C672.918,220.972,671.844,219.482,670.777,219.336"/>
					<path fill="#FFF24D" d="M674.588,219.849c-1.443-0.099-1.48,1.711-0.418,2.967c1.001,1.181,2.352,1.114,2.489-0.123
						C676.795,221.481,675.711,219.993,674.588,219.849"/>
					<path fill="#FFF24D" d="M678.584,220.352c-1.514-0.096-1.616,1.716-0.541,2.97c1.087,1.267,2.565,1.1,2.639-0.298
						C680.742,221.833,679.684,220.484,678.584,220.352"/>
					<path fill="#FFF24D" d="M682.759,220.844c-1.581-0.091-1.749,1.722-0.665,2.973c1.098,1.264,2.648,1.093,2.771-0.306
						C684.969,222.32,683.906,220.974,682.759,220.844"/>
					<path fill="#FFF24D" d="M687.104,221.325c-1.645-0.086-1.879,1.728-0.787,2.976c1.162,1.333,2.879,1.044,2.912-0.492
						C689.253,222.65,688.222,221.443,687.104,221.325"/>
					<path fill="#FFF24D" d="M691.616,221.792c-1.71-0.081-2.013,1.733-0.919,2.979c1.166,1.33,2.957,1.034,3.042-0.502
						C693.803,223.11,692.771,221.907,691.616,221.792"/>
					<path fill="#FFF24D" d="M696.277,222.243c-1.769-0.076-2.139,1.74-1.045,2.982c1.166,1.325,3.029,1.022,3.166-0.513
						C698.501,223.554,697.471,222.354,696.277,222.243"/>
					<path fill="#FFF24D" d="M701.083,222.677c-1.821-0.068-2.259,1.749-1.171,2.985c1.207,1.372,3.271,0.926,3.297-0.711
						C703.227,223.84,702.234,222.777,701.083,222.677"/>
					<path fill="#FFF24D" d="M706.023,223.092c-1.871-0.061-2.381,1.756-1.299,2.989c1.199,1.367,3.34,0.913,3.415-0.725
						C708.193,224.246,707.204,223.188,706.023,223.092"/>
					<path fill="#FFF24D" d="M711.087,223.488c-1.915-0.053-2.488,1.766-1.417,2.992c1.188,1.361,3.396,0.899,3.523-0.739
						C713.279,224.631,712.296,223.578,711.087,223.488"/>
					<path fill="#FFF24D" d="M716.265,223.861c-2.009-0.046-2.62,1.963-1.405,3.139c1.312,1.271,3.511,0.589,3.509-1.089
						C718.366,224.861,717.424,223.941,716.265,223.861"/>
					<path fill="#FFF24D" d="M683.727,225.585c-1.533-0.094-1.637,1.647-0.543,2.854c1.104,1.215,2.6,1.057,2.672-0.283
						C685.917,227.013,684.844,225.715,683.727,225.585"/>
					<path fill="#FFF24D" d="M687.957,226.064c-1.599-0.089-1.771,1.652-0.674,2.856c1.103,1.212,2.672,1.049,2.797-0.291
						C690.189,227.484,689.117,226.189,687.957,226.064"/>
					<path fill="#FFF24D" d="M692.348,226.528c-1.657-0.083-1.9,1.659-0.809,2.858c1.164,1.275,2.891,0.998,2.933-0.472
						C694.504,227.802,693.473,226.643,692.348,226.528"/>
					<path fill="#FFF24D" d="M696.885,226.977c-1.717-0.078-2.031,1.665-0.939,2.86c1.158,1.271,2.959,0.986,3.055-0.483
						C699.072,228.242,698.045,227.086,696.885,226.977"/>
					<path fill="#FFF24D" d="M701.562,227.407c-1.771-0.07-2.157,1.672-1.075,2.862c1.193,1.313,3.188,0.892,3.182-0.674
						C703.664,228.528,702.68,227.506,701.562,227.407"/>
				</g>
			</g>
		</g>
	</g>
	<path display="none" fill="none" stroke="#2D323A" stroke-width="2" stroke-miterlimit="10" d="M777.381,168.593
		c-6.965,6.208-31.112,5.375-45.42-14.837c-14.307-20.211-8.156-46.906,4.543-51.171c12.698-4.265,34.4,17.086,40.877,29.068
		C783.858,143.635,784.345,162.386,777.381,168.593z"/>
	<g>
		<g enable-background="new    ">
			<g enable-background="new    ">
				<g>
					<path fill="#FFEF59" d="M761.604,122.794c-0.494,9.158,1.229,23.314,12.261,38.753c8.393-8.848,10.957-11.675,16.881-19.147
						c-2.133-3.135-3.438-6.586-3.773-9.98C778.461,128.871,774.578,127.251,761.604,122.794"/>
					<path fill="#8BBC11" d="M792.94,145.085c-5.349,6.715-7.562,9.495-16.868,19.318c9.887,11.597,19.689,16.693,29.971,15.579
						c-0.089-1.588-0.208-3.185-0.354-4.789c-0.146-1.604-0.322-3.215-0.528-4.833c-0.205-1.618-0.44-3.241-0.705-4.869
						c-0.265-1.628-0.562-3.261-0.884-4.897c-0.193-0.974-0.396-1.943-0.608-2.907c-0.213-0.963-0.434-1.922-0.665-2.875
						c-0.229-0.953-0.47-1.9-0.718-2.841c-0.249-0.941-0.507-1.877-0.771-2.807C799.121,149.098,796.473,148.6,792.94,145.085"/>
					<path fill="#FF811A" d="M775.268,101.437c-5.07,1.241-11.177,4.479-13.396,18.615c11.664,4.013,15.381,5.367,25.129,9.464
						c0.439-2.998,1.586-4.733,3.717-5.627c-1.114-2.118-2.277-4.18-3.489-6.183c-1.206-1.999-2.462-3.938-3.755-5.815
						c-1.291-1.873-2.625-3.684-3.995-5.429C778.11,104.72,776.705,103.044,775.268,101.437"/>
					<path fill="#850ABF" d="M805.846,115.927c-0.19,4.914-0.264,6.752-3.303,13.862c2.271,3.045,3.662,6.323,4.143,9.744
						c6.957,4.568,9.838,6.458,15.613,12.543C821.164,138.954,815.475,126.454,805.846,115.927"/>
					<path fill="#C62A9A" d="M777.041,101.195c1.471,1.6,2.904,3.269,4.301,5.002c1.398,1.737,2.759,3.541,4.075,5.406
						c1.32,1.869,2.596,3.801,3.826,5.792c1.229,1.995,2.417,4.048,3.551,6.159c2.562,0.138,4.886,1.294,7.54,3.748
						c2.354-5.701,3.234-7.834,3.306-13.624C794.254,104.956,785.555,100.873,777.041,101.195"/>
					<path fill="#149ADD" d="M806.774,142.558c-0.452,4.197-2.364,5.545-3.763,6.193c0.27,0.927,0.526,1.86,0.775,2.799
						c0.25,0.939,0.491,1.883,0.723,2.834c0.23,0.95,0.452,1.906,0.665,2.867c0.212,0.961,0.415,1.928,0.608,2.9
						c0.324,1.632,0.617,3.261,0.879,4.886c0.264,1.625,0.494,3.244,0.695,4.859c0.201,1.614,0.374,3.223,0.516,4.825
						c0.143,1.601,0.254,3.196,0.338,4.782c9.29-3.183,13.938-11.137,14.211-24.316C817.511,150.17,815.673,148.293,806.774,142.558
						"/>
				</g>
			</g>
		</g>
	</g>
	<path fill="#850ABF" d="M648.404,124.062c-1.603,2.241-3.115,4.55-4.533,6.928c-3,7.418-3.201,10.391-3.69,17.846
		c3.902-6.05,8.256-12.642,9.948-15.196c6.904-10.429,10.574-15.698,11.955-17.681C653.975,118.573,652.021,119.207,648.404,124.062
		z"/>
	<path fill="#C62A9A" d="M652.412,118.815c1.508-1.09,4.14-2.847,7.379-3.931c1.197-0.401,3.054-0.49,3.99-1.336
		c0.236-0.215,0.434-0.61,0.62-0.873c1.806-2.54,3.888-5.363,5.568-7.552c0.85-1.104,0.918-1.195,5.521-6.895
		C666.748,103.859,658.972,110.806,652.412,118.815z"/>
	<path fill="#149ADD" d="M632.658,158.181c-0.295,1.297-0.631,2.815-1.041,4.652c0.146-0.574,2.537-4.534,6.557-10.863
		c0.158-0.249,0.369-0.58,0.527-0.829c0.42-8.587,1.323-11.653,3.361-16.974C637.983,141.621,634.801,149.669,632.658,158.181z"/>
	<path d="M790.656,118.314c-3.742-0.594-5.943,1.81-7.074,4.923c-2.056,5.665-1.219,15.06,5.287,23.278
		c6.412,8.739,16.852,10.608,21.385,7.617c2.471-1.63,4.201-5.146,3.178-11.429c-0.523-3.224-4.715-4.44-7.059-9.386
		C800.77,121.49,794.564,118.936,790.656,118.314z"/>
	
		<linearGradient id="SVGID_3_" gradientUnits="userSpaceOnUse" x1="1316.0234" y1="401.8672" x2="1341.0033" y2="439.1096" gradientTransform="matrix(1 0 0 1 -512 -291)">
		<stop  offset="0" style="stop-color:#FFF2CF"/>
		<stop  offset="1" style="stop-color:#D6CBAE"/>
	</linearGradient>
	<path fill="url(#SVGID_3_)" d="M789.643,120.298c3.238-0.672,25.891,1.817,34.064-33.61c28.16,43.602-9.989,63.23-13.495,65.079
		c-1.596,0.842-10.577,3.958-19.206-6.943C782.377,133.923,784.908,121.281,789.643,120.298z"/>
	<path fill="#D1C6AA" d="M794.925,148.865c7.263,5.963,13.936,3.616,15.287,2.901c3.506-1.849,41.655-21.477,13.495-65.079
		C823.707,86.688,843.874,125.94,794.925,148.865z"/>
	<g>
		
			<linearGradient id="SVGID_4_" gradientUnits="userSpaceOnUse" x1="1168.248" y1="453.2812" x2="1207.3077" y2="459.6397" gradientTransform="matrix(1 0 0 1 -512 -291)">
			<stop  offset="0" style="stop-color:#FFFFFF;stop-opacity:0.4"/>
			<stop  offset="1" style="stop-color:#FFFFFF;stop-opacity:0.1"/>
		</linearGradient>
		<path fill="url(#SVGID_4_)" d="M651.413,237.08c2.668,1.767,5.44,3.387,8.319,4.804c4.707,2.349,9.775,4.288,15.078,5.765
			c2.965,0.837,6.02,1.529,9.125,2.102c-4.382-18.346-7.974-43.371-6.264-73.198c2.859-49.848,19.423-77.65,30.244-88.824
			c-5.908,1.373-11.588,3.264-17,5.625c-21.275,17.877-46.068,55.947-43.436,107.639
			C648.188,214.811,649.609,226.779,651.413,237.08z"/>
		
			<linearGradient id="SVGID_5_" gradientUnits="userSpaceOnUse" x1="1153.6621" y1="542.8848" x2="1192.72" y2="549.243" gradientTransform="matrix(1 0 0 1 -512 -291)">
			<stop  offset="0" style="stop-color:#FFFFFF;stop-opacity:0.4"/>
			<stop  offset="1" style="stop-color:#FFFFFF;stop-opacity:0.1"/>
		</linearGradient>
		<path fill="url(#SVGID_5_)" d="M672.661,256.09c-5.784-1.697-11.289-3.888-16.364-6.515c-0.91-0.478-1.801-0.974-2.686-1.479
			c0.244,1.079,0.489,2.143,0.739,3.177c7.337,5.459,18.095,10.627,33.865,13.925c-0.607-1.913-1.229-3.972-1.853-6.157
			C681.572,258.32,676.971,257.34,672.661,256.09z"/>
	</g>
</g>
</svg>
