<?xml version="1.0" encoding="utf-8"?>
<!-- Generator: Adobe Illustrator 15.0.0, SVG Export Plug-In . SVG Version: 6.00 Build 0)  -->
<!DOCTYPE svg PUBLIC "-//W3C//DTD SVG 1.1//EN" "http://www.w3.org/Graphics/SVG/1.1/DTD/svg11.dtd">
<svg version="1.1" id="Layer_1" xmlns="http://www.w3.org/2000/svg" xmlns:xlink="http://www.w3.org/1999/xlink" x="0px" y="0px"
	 width="1200px" height="500px" viewBox="0 0 1200 500" enable-background="new 0 0 1200 500" xml:space="preserve">
<g id="monster_body">
	<path fill="#149ADD" d="M639,269c-1,34,15,127,15,127l175-17c0,0,3.5-93,0.5-132S640,235,639,269z"/>
	<path fill="#149ADD" d="M639.742,289.917c0,0-2.713,33.179-1.824,41.074c1.463-7.376,3.886-10.396,3.886-10.396
		s-1.585,11.607,0,18.1c1.015-2.48,1.291-3.459,3.062-2.588c1.77,0.871,7.688-27.573,7.688-27.573L639.742,289.917z"/>
	<path fill="none" stroke="#0F79AD" stroke-width="4" stroke-linecap="round" stroke-miterlimit="10" d="M678.667,320.001
		c0,0,4,1.999,6.667-1.334s-12.667-8.667-14,0"/>
	<path fill="none" stroke="#0F79AD" stroke-width="4" stroke-linecap="round" stroke-miterlimit="10" d="M776,316.666
		c0,0-9.667-4.334-12.667,0c-2.531,3.656,6,8.667,7,4.667"/>
	<path fill="#0F79AD" d="M819.001,312.999c4.333-5.332,5.333-7.999,5.333-7.999S822,321.999,819,329.333
		c2.667-2.333,3.334-4,3.334-4s-2.539,27.575-13.033,55.581L829,379c0,0,2.315-61.525,1.565-105.479L823.667,278
		C823.667,278,824.335,300.665,819.001,312.999z"/>
	<g>
		<path fill="#149ADD" d="M798.93,366.854l-4.928-4.521C795.001,364.004,796.69,365.516,798.93,366.854z"/>
		<path fill="#149ADD" d="M945.114,330.17c3.886-18.336,2.375-38.136-9.021-35.541c-4.541,1.033-7.13,4.67-9.562,10.119l-0.03-0.081
			c0,0-0.081,0.25-0.209,0.625c-0.474,1.087-0.945,2.244-1.425,3.463c-0.201,0.349-0.389,0.579-0.533,0.579
			c-0.667,0-1.333-1.5-1.333-1.5s-0.167,3-0.5,4.833S920.667,315,916.667,311c0.5,7.667-1.5,14.167-2.5,17
			c0-1.167-1.834-3.833-1.834-3.833s1.167,7.667-0.333,12.5l0.005-0.002c-2.986,4.823-6.642,9.849-11.26,14.959
			c-22.862,25.302-82.688,26.655-101.815,15.229l74.962,68.754c0,0,49.443-23.939,63.084-70.664c0.385-1.312,0.751-2.604,1.11-3.885
			c2.354-3.505,6.044-9.783,7.247-13.393C942.167,349.667,941.229,348.506,945.114,330.17z"/>
	</g>
	<path fill="#149ADD" d="M798.93,366.854l-4.928-4.521C795.001,364.004,796.69,365.516,798.93,366.854z"/>
	<g>
		<path fill="#0F79AD" d="M944.097,298.168c1.403,3.832,2.027,15.412,0.569,20.665C943,324.834,942,320,942,320s0,15.75-2.5,19.25
			c-1.35,1.891-1.974-1.674-2.125-2.75c-0.275,2.611-2.959,16.704-9.541,21.167c-3.609,2.446-24.816,9.747-20.834,14.167
			c3.387,3.758,13.847,6.889,23.582,9.098c2.556-4.994,4.739-10.322,6.394-15.988c0.385-1.312,0.751-2.604,1.11-3.885
			c2.354-3.504,6.044-9.783,7.247-13.392c-3.166,2-4.104,0.839-0.219-17.497C947.767,317.652,947.901,304.459,944.097,298.168z"/>
	</g>
	<path fill="#0F79AD" d="M657.844,257.587c6.568,3.519,28.89,11.625,30.901,18.479c7.638-2.944,9.133,7.121,13.906,10.352
		c0.771-2.62,3.105-4.667,6.105-4.375s11.295,2.561,19,3.219c-0.501-3.804,3.979-5.836,6.167-4.681
		c2.188,1.155,2.166,5.964,1.666,9.709c6.666-3.86,7.194-16.657,13.5-16.146c3.25,0.265,5.333,2.049,5.333,2.049
		s-2.077-5.728,8.295-7.689s18.65-2.416,21.542-5.326c-3.837-0.584,2.146-5.888,8.146-8.229c1.812-0.708-16.737-9.252-33.979-8.737
		C718.651,247.399,657.844,257.587,657.844,257.587z"/>
</g>
<g id="table">
	
		<linearGradient id="SVGID_1_" gradientUnits="userSpaceOnUse" x1="1151" y1="705" x2="1151" y2="791" gradientTransform="matrix(1 0 0 1 -512 -291)">
		<stop  offset="0" style="stop-color:#3E690E"/>
		<stop  offset="1" style="stop-color:#294509"/>
	</linearGradient>
	<path fill="url(#SVGID_1_)" d="M281,500c0,0-19-42-27-86l770,8l-14,78H281z"/>
	
		<linearGradient id="SVGID_2_" gradientUnits="userSpaceOnUse" x1="1123.542" y1="566.3516" x2="1151.6041" y2="704.852" gradientTransform="matrix(1 0 0 1 -512 -291)">
		<stop  offset="0" style="stop-color:#8BBC11"/>
		<stop  offset="1" style="stop-color:#739C0E"/>
	</linearGradient>
	<polygon fill="url(#SVGID_2_)" points="623.03,413 230,392 385,350 994,373 1044,410 	"/>
	
		<linearGradient id="SVGID_3_" gradientUnits="userSpaceOnUse" x1="1149" y1="683" x2="1149" y2="719" gradientTransform="matrix(1 0 0 1 -512 -291)">
		<stop  offset="0" style="stop-color:#60820C"/>
		<stop  offset="1" style="stop-color:#58780B"/>
	</linearGradient>
	<polygon fill="url(#SVGID_3_)" points="239,422 1038,428 1044,410 230,392 	"/>
	
		<linearGradient id="SVGID_4_" gradientUnits="userSpaceOnUse" x1="1177" y1="637" x2="1177" y2="680" gradientTransform="matrix(1 0 0 1 -512 -291)">
		<stop  offset="0" style="stop-color:#555555"/>
		<stop  offset="1" style="stop-color:#2B2B2B"/>
	</linearGradient>
	<polygon fill="url(#SVGID_4_)" points="670,387 338,369 424,346 960,362 992,389 	"/>
	
		<linearGradient id="SVGID_5_" gradientUnits="userSpaceOnUse" x1="1177" y1="660" x2="1177" y2="690" gradientTransform="matrix(1 0 0 1 -512 -291)">
		<stop  offset="0" style="stop-color:#272726"/>
		<stop  offset="1" style="stop-color:#1A1A1A"/>
	</linearGradient>
	<polygon fill="url(#SVGID_5_)" points="346,388 338,369 992,389 990,399 	"/>
	<path fill="#FFFFFF" d="M598.5,354.667c3.5,2.833,5.578,5.323,5.955,6.519c1.474,4.67-33.771,8.504-84.528,8.504
		c-58.52,0-112.964-4.959-112.964-10.971c0-1.016,2.537-3.885,6.037-6.385c13.549-4.115,57.211-2.68,103.342-1.521
		C552.259,351.713,585.211,351.443,598.5,354.667z"/>
	<path d="M598.496,351.143c0,0-0.104,2.666,0,3c1.385,4.479-31.733,8.157-79.426,8.157c-54.987,0-106.146-4.758-106.146-10.524
		c0-0.286,0-3,0-3s52.229-5.856,102.986-4.586C558.955,345.27,598.496,351.143,598.496,351.143z"/>
	
		<linearGradient id="SVGID_6_" gradientUnits="userSpaceOnUse" x1="1030.418" y1="671.0908" x2="1002.9191" y2="606.0928" gradientTransform="matrix(1 0 0 1 -512 -291)">
		<stop  offset="0" style="stop-color:#000000"/>
		<stop  offset="1" style="stop-color:#333333"/>
	</linearGradient>
	<path fill="url(#SVGID_6_)" d="M598.496,351.143c1.385,4.479-31.733,8.157-79.426,8.157c-54.987,0-106.146-4.758-106.146-10.524
		c0-5.659,49.522-8.926,102.986-7.586C562.479,342.355,597.132,346.729,598.496,351.143z"/>
	<path fill="#E5D53E" d="M531.326,350.384c0.382,1.235-8.755,2.251-21.914,2.251c-15.172,0-29.287-1.312-29.287-2.904
		c0-1.562,13.664-2.463,28.415-2.092C521.389,347.96,530.95,349.166,531.326,350.384z"/>
	<path d="M508.354,350.125c0.039,0.126-0.896,0.23-2.243,0.23c-1.556,0-3-0.135-3-0.297c0-0.16,1.397-0.254,2.909-0.218
		C507.335,349.876,508.314,350,508.354,350.125z"/>
	
		<linearGradient id="SVGID_7_" gradientUnits="userSpaceOnUse" x1="1016.3643" y1="637.4785" x2="1019.1582" y2="637.4785" gradientTransform="matrix(1 0 0 1 -512 -291)">
		<stop  offset="0" style="stop-color:#DEDEDE"/>
		<stop  offset="0.2331" style="stop-color:#FFFFFF"/>
		<stop  offset="1" style="stop-color:#C4C4C4"/>
	</linearGradient>
	<path fill="url(#SVGID_7_)" d="M507.158,349.984c0,0.172-1.057,0.233-1.397,0.233s-1.396-0.062-1.396-0.233v-5.851
		c0-0.771,0.626-1.396,1.396-1.396l0,0c0.771,0,1.397,0.625,1.397,1.396V349.984z"/>
	<path fill="#FFFFFF" d="M950.377,365.261c3.572,2.925,5.692,5.489,6.077,6.718c1.505,4.795-34.464,8.547-86.259,8.283
		c-59.719-0.305-115.278-5.674-115.278-11.84c0-1.042,2.589-3.972,6.161-6.518c13.825-4.149,58.382-2.45,105.458-1.023
		C903.189,361.99,936.816,361.887,950.377,365.261z"/>
	<path d="M950.373,361.645c0,0-0.105,2.733,0,3.078c1.413,4.603-32.382,8.202-81.053,7.954
		c-56.113-0.284-108.318-5.431-108.318-11.347c0-0.293,0-3.076,0-3.076s53.296-5.736,105.095-4.168
		C910.021,355.416,950.373,361.645,950.373,361.645z"/>
	
		<linearGradient id="SVGID_8_" gradientUnits="userSpaceOnUse" x1="1378.6758" y1="683.8994" x2="1350.4711" y2="617.2337" gradientTransform="matrix(0.9949 0.0051 0 1 -502.9912 -300.0097)">
		<stop  offset="0" style="stop-color:#000000"/>
		<stop  offset="1" style="stop-color:#333333"/>
	</linearGradient>
	<path fill="url(#SVGID_8_)" d="M950.373,361.645c1.413,4.604-32.382,8.203-81.053,7.955
		c-56.113-0.285-108.318-5.431-108.318-11.346c0-5.807,50.535-8.898,105.095-7.245C913.618,352.447,948.98,357.111,950.373,361.645z
		"/>
	<path fill="#35AAD8" d="M881.827,360.52c0.391,1.271-8.937,2.265-22.362,2.194c-15.48-0.079-29.887-1.499-29.887-3.131
		c0-1.603,13.943-2.455,28.996-1.999C871.688,357.98,881.443,359.268,881.827,360.52z"/>
	<path d="M858.384,360.135c0.04,0.129-0.915,0.231-2.291,0.225c-1.585-0.008-3.06-0.152-3.06-0.319c0-0.164,1.426-0.251,2.969-0.206
		C857.345,359.873,858.345,360.005,858.384,360.135z"/>
	
		<linearGradient id="SVGID_9_" gradientUnits="userSpaceOnUse" x1="1364.2588" y1="649.4238" x2="1367.1279" y2="649.4238" gradientTransform="matrix(0.9949 0.0051 0 1 -502.9912 -300.0097)">
		<stop  offset="0" style="stop-color:#DEDEDE"/>
		<stop  offset="0.2331" style="stop-color:#FFFFFF"/>
		<stop  offset="1" style="stop-color:#C4C4C4"/>
	</linearGradient>
	<path fill="url(#SVGID_9_)" d="M857.165,359.984c0,0.175-1.077,0.233-1.427,0.231c-0.352-0.002-1.428-0.071-1.428-0.245v-6
		c0-0.794,0.64-1.433,1.428-1.429l0,0c0.787,0.004,1.427,0.647,1.427,1.438V359.984z"/>
	<path d="M727.912,374.332c-0.436,0-0.861-0.115-1.208-0.354c-0.82-0.562-0.884-1.578-0.153-2.273L738.6,360.23
		c0.626-0.598,1.773-0.698,2.567-0.229c0.8,0.472,0.951,1.349,0.329,1.958l-11.975,11.747
		C729.104,374.116,728.504,374.332,727.912,374.332L727.912,374.332z"/>
	<path d="M707.914,373.568c-0.467,0-0.908-0.135-1.232-0.406c-0.703-0.592-0.574-1.604,0.274-2.264l14.372-11.146
		c0.729-0.566,1.884-0.622,2.586-0.124c0.708,0.5,0.696,1.376-0.034,1.956l-14.369,11.432
		C709.051,373.381,708.467,373.568,707.914,373.568L707.914,373.568z"/>
	<path d="M688.794,372.837c-0.497,0-0.946-0.151-1.234-0.456c-0.585-0.615-0.28-1.619,0.669-2.246l16.496-10.834
		c0.819-0.539,1.973-0.554,2.578-0.031c0.611,0.525,0.447,1.398-0.377,1.953l-16.561,11.123
		C689.88,372.671,689.312,372.837,688.794,372.837L688.794,372.837z"/>
	<path d="M670.494,372.137c-0.522,0-0.973-0.168-1.216-0.5c-0.474-0.637-0.004-1.633,1.029-2.225l18.439-10.542
		c0.898-0.515,2.036-0.49,2.546,0.052c0.521,0.545,0.212,1.414-0.689,1.941l-18.57,10.834
		C671.531,371.99,670.981,372.137,670.494,372.137L670.494,372.137z"/>
	<path d="M652.965,371.466c-0.547,0-0.991-0.184-1.187-0.54c-0.358-0.652,0.261-1.64,1.369-2.201l20.218-10.265
		c0.965-0.489,2.079-0.435,2.498,0.125c0.424,0.562-0.017,1.426-0.988,1.931l-20.408,10.555
		C653.955,371.336,653.424,371.466,652.965,371.466L652.965,371.466z"/>
	<polygon fill="#5A5A5A" points="605.391,368.111 605.199,363.146 617.232,363.91 617.424,368.922 	"/>
	<polygon fill="#FFFFFF" points="605.199,363.146 633.332,354.341 642.117,354.913 617.232,363.91 	"/>
	<polygon fill="#989898" points="617.424,368.922 617.232,363.91 642.117,354.913 642.062,358.182 	"/>
	<polygon fill="#777777" points="623.207,366.4 623.696,366.188 623.463,361.657 622.971,361.836 	"/>
	<polygon fill="#777777" points="630.49,359.117 629.941,359.314 629.998,359.322 630.159,363.37 630.651,363.154 	"/>
	<polygon fill="#777777" points="636.77,356.848 636.166,357.064 636.287,357.078 636.562,360.578 637.047,360.367 	"/>
	<polygon fill="#5A5A5A" points="624.863,369.463 624.693,364.386 636.587,365.167 636.756,370.29 	"/>
	<polygon fill="#FFFFFF" points="624.693,364.386 647.631,355.336 658.914,355.795 636.587,365.167 	"/>
	<polygon fill="#989898" points="636.756,370.29 636.587,365.167 658.914,355.795 658.574,359.311 	"/>
	<polygon fill="#777777" points="642.562,367.367 643.048,367.123 642.734,362.587 642.248,362.791 	"/>
	<polygon fill="#777777" points="648.874,360.01 648.383,360.215 648.586,364.336 649.074,364.09 	"/>
	<polygon fill="#777777" points="653.64,361.793 654.145,361.539 654.212,357.771 654.208,357.771 653.716,357.977 	"/>
	<polygon fill="#777777" points="613.472,360.557 612.84,360.755 622.969,361.805 622.971,361.836 623.463,361.657 	"/>
	<polygon fill="#777777" points="629.941,359.314 630.49,359.117 621.561,358.023 620.92,358.227 	"/>
	<polygon fill="#777777" points="628.473,355.861 627.66,356.116 636.166,357.064 636.77,356.848 	"/>
	<polygon fill="#777777" points="631.807,361.58 631.12,361.852 642.248,362.791 642.734,362.587 	"/>
	<polygon fill="#777777" points="637.918,359.168 648.383,360.215 648.874,360.01 638.676,358.869 	"/>
	<polygon fill="#777777" points="643.69,356.891 643.25,357.064 653.716,357.977 654.208,357.771 	"/>
	
		<linearGradient id="SVGID_10_" gradientUnits="userSpaceOnUse" x1="1239.5156" y1="699.4609" x2="1239.3906" y2="695.8347" gradientTransform="matrix(1 0.0624 0 1 -512 -402.5367)">
		<stop  offset="0" style="stop-color:#BEBEBE"/>
		<stop  offset="1" style="stop-color:#D8D8D8"/>
	</linearGradient>
	<path fill="url(#SVGID_10_)" d="M732.656,371.1c-0.233-0.015-0.506,0.08-0.821,0.342c-1.415,1.176-1.021,3.767-1.021,3.767
		l-8.562-0.534c0,0-0.393-2.591,1.022-3.767c0.354-0.296,0.651-0.375,0.903-0.332C724.934,370.703,733.473,371.145,732.656,371.1z"
		/>
	<path fill="#777777" d="M730.812,375.206c0,0-0.395-2.591,1.021-3.767s1.979,1.047,1.979,1.047L730.812,375.206z"/>
	
		<linearGradient id="SVGID_11_" gradientUnits="userSpaceOnUse" x1="1212.626" y1="695.8369" x2="1212.5009" y2="692.2095" gradientTransform="matrix(0.9757 0.067 0 1 -469.1326 -409.3112)">
		<stop  offset="0" style="stop-color:#BEBEBE"/>
		<stop  offset="1" style="stop-color:#D8D8D8"/>
	</linearGradient>
	<path fill="url(#SVGID_11_)" d="M719.042,364.623c-0.228-0.016-0.494,0.077-0.802,0.337c-1.381,1.169-0.997,3.763-0.997,3.763
		l-8.354-0.574c0,0-0.383-2.594,0.997-3.762c0.348-0.293,0.64-0.373,0.884-0.328C711.507,364.191,719.838,364.672,719.042,364.623z"
		/>
	<path fill="#777777" d="M717.243,368.723c0,0-0.384-2.594,0.997-3.763s1.93,1.058,1.93,1.058L717.243,368.723z"/>
	
		<linearGradient id="SVGID_12_" gradientUnits="userSpaceOnUse" x1="1243.877" y1="695.0605" x2="1243.7523" y2="691.4457" gradientTransform="matrix(0.9653 0.067 -0.1554 1 -399.3499 -409.3112)">
		<stop  offset="0" style="stop-color:#BEBEBE"/>
		<stop  offset="1" style="stop-color:#D8D8D8"/>
	</linearGradient>
	<path fill="url(#SVGID_12_)" d="M698.903,365.959c-0.231-0.016-0.521,0.08-0.877,0.346c-1.577,1.187-1.528,3.734-1.528,3.734
		l-8.317-0.557c0,0-0.221-2.572,1.283-3.769c0.382-0.303,0.69-0.386,0.942-0.34C691.159,365.514,699.719,366.01,698.903,365.959z"/>
	<path fill="#777777" d="M696.498,370.039c0,0-0.049-2.55,1.528-3.734c1.606-1.205,1.817,1.071,1.817,1.071L696.498,370.039z"/>
	
		<linearGradient id="SVGID_13_" gradientUnits="userSpaceOnUse" x1="1298.4639" y1="683.3545" x2="1298.3502" y2="680.0571" gradientTransform="matrix(0.9531 0.067 -0.3378 1 -319.1717 -409.3112)">
		<stop  offset="0" style="stop-color:#BEBEBE"/>
		<stop  offset="1" style="stop-color:#D8D8D8"/>
	</linearGradient>
	<path fill="url(#SVGID_13_)" d="M693.289,358.091c-0.218-0.012-0.494,0.072-0.841,0.308c-1.567,1.072-1.713,3.527-1.713,3.527
		l-8.124-0.548c0,0,0.365-2.387,1.979-3.431c0.398-0.258,0.692-0.33,0.912-0.293C686.163,357.766,694.057,358.13,693.289,358.091z"
		/>
	<path fill="#777777" d="M690.735,361.926c0,0,0.146-2.455,1.713-3.527c1.541-1.051,1.715,0.953,1.715,0.953L690.735,361.926z"/>
	
		<linearGradient id="SVGID_14_" gradientUnits="userSpaceOnUse" x1="1358.0117" y1="680.6992" x2="1357.9023" y2="677.5258" gradientTransform="matrix(0.9376 0.067 -0.568 1 -218.5078 -409.3112)">
		<stop  offset="0" style="stop-color:#BEBEBE"/>
		<stop  offset="1" style="stop-color:#D8D8D8"/>
	</linearGradient>
	<path fill="url(#SVGID_14_)" d="M674.422,359.549c-0.215-0.012-0.938,0.016-1.34,0.251c-1.814,1.072-1.6,3.444-1.6,3.444
		l-7.997-0.549c0,0,0.271-2.354,2.122-3.398C666.521,358.834,675.181,359.588,674.422,359.549z"/>
	<path fill="#777777" d="M671.482,363.244c0,0-0.217-2.372,1.6-3.444c1.783-1.051,2.421,0.87,2.421,0.87L671.482,363.244z"/>
</g>
<g id="monster_arms_copy">
	<path fill="#149ADD" d="M911.75,291.25c-5.75-15.5-32-31.25-35.25-33.25s1.25-3,1.25-3s-15.123-6.575-27.926-10.08
		c-12.069-4.982-23.838-8.673-32.824-10.92c-28-7-33.75,11.75-25.25,30.25S820.75,289,826,292s22.5,13,22.5,13
		c-0.523,0.209-1.083,0.463-1.66,0.74c-7.911,3.294-16.454,3.646-18.09,6.76c2.044,0.372,2.014,1.434,0.94,2.264
		c-1.411,0.43-3.187,0.936-5.475,1.536c-7.718,2.034-18.26,1.521-31.385,3.284s-10.377,10.797-9.667,11.666
		c-4.916,1.667-13.833,1.75-15.25,3.5c1.5,0,1.584,0.667,0.867,1.15c-5.989,4.039-4.982,10.703-0.74,14.645
		c4.241,3.941,10.707,2.08,10.707,2.08s-0.625,4.25,6,6.25s13-1.875,13-1.875s3.751,6.834,15.584,4.5
		c4.014-0.792,7.251-2.338,10.096-4.012c0.48,0.179,0.083,1.447,0.153,2.012c0.854-1.119,5.599-5.139,7.56-6.783
		c1.061-0.572,2.112-1.055,3.191-1.384c6-1.833,11.832-1.175,18.166-3.337s12.502-7.137,15.225-12.346
		c1.479-0.414,34.337-9.854,39.354-31.39c0.854,0.603,1.782,1.685,2.923,2.987c0.75-2.25-1-12-2-13.75S907.75,288.25,911.75,291.25z
		"/>
	<path fill="#149ADD" d="M660.668,284.667c12.666-3,0.666-37.667,0.666-37.667s-7.687-8.678-22.38-5.779
		c-0.019,0-19.962-0.219-34.954,3.779c4.93,0,7.814,0.905,9.266,1.564c-1.014,0.223-2.022,0.449-3.032,0.675l0,0
		c-10.606,1.834-18.647,3.283-26.991,4.504c-8.134,1.192-18.104,3.144-25.757,6.2c8.9-2.17,12.182,0.562,12.229,0.604
		c-0.004,0.001-0.008,0.003-0.011,0.005c-5.626,0.175-9.692,1.679-9.692,1.679s2.062,0.203,3.919,0.697
		c-10.237,4.385-21.626,10.075-31.762,15.407l-0.001-0.001c-4.667,2.333-16.667,4.5-20.833,6.667c5,0,5.333,1.666,4.167,2.333
		c-0.012,0.007-0.004,0.014-0.01,0.021c-0.162,0.088-0.33,0.183-0.49,0.271c-3.769,2.091-8.25,5.875-19.375,7.75
		c-5.806,0.979-13.485,2.388-20.563,4.278v-0.002c0,0-13.456,2.586-16.686,3.949c1.399,0.323,2.083,0.854,2.32,1.35
		c-10.105,5.312-13.247,11.98-10.696,17.217c3.167,6.5,10.525,3.311,10.525,3.311s-5.232,7.853-0.22,13.017
		c5.016,5.164,13.568,1.383,14.693,1.008c0,4.125,9.125,11,21.125,2.75c6.092-4.188,16.904-13.465,26.702-13.92
		s-4.729,11.612,5.639,17.894c6.491,3.93,16.336-2.998,21.083-12.769c0.394,0.211,0.872,0.632,1.016,1.481
		c0.75-1.5,0.812-6.25,0.812-6.25s0.5,0.812,1,3.25c1.75-4.875-0.625-14.5-0.625-14.5l-0.012,0.066
		c-0.236-0.975-0.542-1.939-0.943-2.888c5.36-2.429,22.649-9.873,43.749-14.966c-0.567,0.687-1.518,1.609-3.043,2.474
		c8.408-0.879,15.318-4.942,24.855-6.765c0.029-0.006,0.056-0.014,0.087-0.021C642.717,288.988,648.002,287.667,660.668,284.667z"/>
	<path fill="#0F79AD" d="M475,337.5c0,0.361,0.074,0.744,0.209,1.135C475.151,338.255,475.083,337.875,475,337.5z M487.5,321.334
		c2.75-1.5,13.583-4.917,13.583-4.917c-8.083,1.417-19.833,5.708-19.833,5.708s2.25-0.125,3.125,0
		c-3.5,0.625-10.25,6.375-12.375,8.75c1.125-0.625,3.375-1.125,3.375-1.125s-0.708,3.834-4.708,6.25
		c-2.744,1.657-6.545,1.59-10.142,0.686c5.04,4.851,13.364,1.187,14.476,0.814c-1.375-6.25,6.625-12.125,6.625-12.125
		s-0.667-0.125-1.542-0.125c0.875-0.75,4.833-2.166,6.417-2.666S488.375,321.584,487.5,321.334z"/>
	<path d="M458.996,329.859c-1.77,1.896-3.688,8.912-2.366,13.525c5.709-4.746,11.015-4.177,12.495-8.242
		C470.604,331.077,463.363,325.178,458.996,329.859z"/>
	<path fill="#0F79AD" d="M524.083,323.834c0,0,0.917,0.958-0.333,1.541s-8.833,0.209-10.75,0.292s-4.75,2.083-4.75,2.083
		s0.75-0.416,3-0.082c-4.083,1.334-10.917,1.499-14.917,5.582c1.667-0.667,4.167-0.75,4.167-0.75s-1.583,0.417-3.333,1.584
		s-2.583,2.833-6.334,6.251c-3.352,3.056-10.279,2.515-11.718,2.363c3.791,2.018,9.895,2.442,17.01-2.448
		c1.991-1.369,4.491-3.281,7.29-5.251c0.424,0.31,0.647,1.051,0.335,2.376c2.775-4.062,7.895-7.332,9.902-8.516
		c3.043-1.408,6.155-2.389,9.175-2.529c2.778-0.129,3.599,0.75,3.587,2.217C527.25,325.527,524.083,323.834,524.083,323.834z"/>
	<path d="M476,336.084c-2.205,2.145-2.558,8.527-1.167,11.5c7.25-4.5,10-2.917,11.667-7.75
		C488.322,334.551,479.869,332.32,476,336.084z"/>
	<path fill="#0F79AD" d="M639.742,289.917c0.477-5.653,0.709-8.667,2.1-19.681c-1.391,6.606-6.292,10.609-8.57,10.271
		C627.796,279.691,622,281,622,281s3.375,0.375,3.875,1.25c-1.735,1.43-6.9,2.546-15.624,1.15s-14.656-0.069-14.656-0.069
		s3.382,1.317,4.257,2.442c-3.978,0.769-12.103-0.523-14.103-2.523c3.5,9.75-7.25,16-14.75,17.5l0.182,0.072
		c-5.045,0.922-9.373,1.758-10.932,3.094c1.083-0.167,2.417,0.334,4.25,0.418c-4,1.167-16,3.999-18,1.416
		c2.917,5.75,2.333,16.583,2.333,16.583s-0.917-0.333-1.083-3.166c-1.25,3.917-0.167,7.583-1.917,11.333S539,336.667,539,336.667
		s1.167,0.333,3.5-0.168c-3.745,3.956-13.595,5.276-16.507,5.589c0.596,0.76,1.393,1.479,2.474,2.135
		c6.491,3.93,16.336-2.998,21.083-12.768c0.394,0.211,0.872,0.632,1.016,1.482c0.75-1.5,0.812-6.25,0.812-6.25s0.5,0.812,1,3.25
		c1.75-4.875-0.625-14.5-0.625-14.5l-0.012,0.065c-0.236-0.976-0.542-1.938-0.943-2.888c5.36-2.43,22.649-9.873,43.749-14.967
		c-0.567,0.688-1.518,1.61-3.043,2.475c8.408-0.879,15.318-4.941,24.855-6.766c0.029-0.006,0.056-0.014,0.087-0.02
		C624.199,292.057,632.246,290.904,639.742,289.917L639.742,289.917z"/>
	<path d="M534.971,343.963c-0.971,3.946-8.626,4.505-14.715,2.479c4.403-3.523,4.083-5.781,6.887-7.022
		C529.946,338.176,536.09,339.411,534.971,343.963z"/>
	<path fill="#0F79AD" d="M488.625,309.5c0,0-6.542,1.75-12.667,2.375c1.188,0.188,1,0.5,1,0.5s-5.417,0.688-6.792,0.875
		c1.125,0.083,1.417,0.375,1.417,0.375s-6.042,0.292-9.396,3.562c-3.323,3.238-7.669,4.53-11.518,4.131
		c3.426,4.943,9.854,2.158,9.854,2.158c1.475-2.414,4.913-6.104,8.038-7.164c-0.562-0.188-3.062,0.271-3.062,0.271
		s4.083-1.959,11.625-3.625S488.625,309.5,488.625,309.5z"/>
	<path d="M449.681,316.393c-1.765,1.592-4.317,8.767-2.368,13.592c3.416-5.213,7.938-3.732,11.022-8.25
		C460.51,318.551,453.99,312.506,449.681,316.393z"/>
	
		<linearGradient id="SVGID_15_" gradientUnits="userSpaceOnUse" x1="961.2695" y1="608.2061" x2="965.7189" y2="618.485" gradientTransform="matrix(1 0 0 1 -512 -291)">
		<stop  offset="0" style="stop-color:#4A4A52"/>
		<stop  offset="0.544" style="stop-color:#26262A"/>
		<stop  offset="1" style="stop-color:#000000"/>
	</linearGradient>
	<path fill="url(#SVGID_15_)" d="M456.405,316.389c-1.45-1.074-3.362-1.629-5.143-0.967c-1.604,2.771-4.542,8.748-3.95,14.562
		C448.995,321.885,453.824,317.959,456.405,316.389z"/>
	
		<linearGradient id="SVGID_16_" gradientUnits="userSpaceOnUse" x1="970.9092" y1="621.3721" x2="975.3946" y2="631.7345" gradientTransform="matrix(1 0 0 1 -512 -291)">
		<stop  offset="0" style="stop-color:#4A4A52"/>
		<stop  offset="0.544" style="stop-color:#26262A"/>
		<stop  offset="1" style="stop-color:#000000"/>
	</linearGradient>
	<path fill="url(#SVGID_16_)" d="M466.353,329.291c-1.406-0.939-3.137-1.416-4.782-0.999c-5.454,7.466-4.939,15.095-4.939,15.095
		C458.291,339.788,461.177,333.607,466.353,329.291z"/>
	
		<linearGradient id="SVGID_17_" gradientUnits="userSpaceOnUse" x1="989.3545" y1="626.8877" x2="993.3091" y2="636.0237" gradientTransform="matrix(1 0 0 1 -512 -291)">
		<stop  offset="0" style="stop-color:#4A4A52"/>
		<stop  offset="0.544" style="stop-color:#26262A"/>
		<stop  offset="1" style="stop-color:#000000"/>
	</linearGradient>
	<path fill="url(#SVGID_17_)" d="M484.59,335.084c-1.81-1.012-4.433-1.191-6.598-0.292c-3.658,4.792-3.158,12.792-3.158,12.792
		C477.75,341.084,480,338,484.59,335.084z"/>
	
		<linearGradient id="SVGID_18_" gradientUnits="userSpaceOnUse" x1="1037.8984" y1="631.4814" x2="1039.632" y2="635.4865" gradientTransform="matrix(1 0 0 1 -512 -291)">
		<stop  offset="0" style="stop-color:#4A4A52"/>
		<stop  offset="0.544" style="stop-color:#26262A"/>
		<stop  offset="1" style="stop-color:#000000"/>
	</linearGradient>
	<path fill="url(#SVGID_18_)" d="M528.328,339.068c-1.501,2.033-4.675,6.264-8.073,7.373c8.429-1.785,12.243-4.244,13.919-5.838
		C532.822,339.193,530.264,338.729,528.328,339.068z"/>
	<path fill="#0F79AD" d="M802.833,346.251c3.833-2.834,10.333-3.084,10.333-3.084s-2.666-0.292-3.416-0.417s3-0.084,7.25-1.375
		s5.166-3.458,5.166-3.458s-5.916,3.083-12.041,3.833s-10.25,2.292-12.375,4.167c1.666-0.083,2.833,1.082,0.458,2.666
		s-3.625,4.418-3.625,4.418s1.542-0.626,1.417,0.624s-4.417,3.959-10.292,3.334c-3.142-0.334-5.083-1.014-6.218-1.573
		c0.76,1.224,2.266,2.585,5.26,3.489c6.625,2,13-1.875,13-1.875C797.875,354,799,349.085,802.833,346.251z"/>
	<path fill="#0F79AD" d="M908,293.5c-1-1.75-0.25-5.25,3.75-2.25c-5.75-15.5-32-31.25-35.25-33.25s1.25-3,1.25-3
		s-15.123-6.575-27.926-10.08c-12.069-4.982-23.838-8.673-32.824-10.92c-8.819-2.205-15.428-1.851-20.082,0.241
		c6.062,0.403,15.519,1.07,20.832,1.634c8.25,0.875,21.375,5,29.75,12.375s20.875,10.375,24.875,12.5
		c-1.875,0.125-10.125-2.25-10.125-2.25s7.375,9.5,22.625,13.375s20.375,14.25,20.375,14.25s-1-1.375-4.125-3.5
		c4.125,4.5,3.875,15.25,3.5,18.375c-0.375-3.125-2.625-4.5-2.625-4.5s0.375,6-1.75,12.125s-9.5,8.5-12.375,9.875
		c2.75-0.125,4.25-0.875,4.25-0.875s-3.25,2.5-14.875,4.5S859,331.75,857,333.75s-4.5,7-8.875,8.875c0.875-0.75,1.125-3.5,1.125-3.5
		s-6.625,5.5-10.125,7.125s-11.625,2.625-15.25,2.125s-8,2.125-8.25,4c1-1.375,3.25-1.125,3.25-1.125s-1.625,2.125-5.25,4.5
		s-13.75,1-13.75,1l-1.134,1.512c1.756,1.854,6.071,4.92,14.593,3.238c4.014-0.792,7.251-2.338,10.096-4.011
		c0.48,0.178,0.083,1.446,0.153,2.011c0.855-1.119,5.599-5.139,7.56-6.783c1.061-0.572,2.112-1.055,3.191-1.384
		c6-1.833,11.832-1.175,18.166-3.337s12.502-7.137,15.225-12.346c1.479-0.414,34.339-9.854,39.354-31.39
		c0.854,0.603,1.782,1.685,2.923,2.987C910.75,305,909,295.25,908,293.5z"/>
	<path fill="#0F79AD" d="M798.467,335.632c-4.334,0.263-6.239,0.458-6.239,0.458s1.842,0.395,0.922,0.92
		c-0.922,0.525-9.786,3.153-12.414,4.795c2.103,0.592-0.656,4.594-4.928,5.646c-3.134,0.771-8.311-0.859-10.847-1.784
		c0.536,1.806,1.607,3.508,3.082,4.878c3.909,3.635,9.694,2.339,10.579,2.113c0.216-1.877,0.809-7.355,5.789-10.656
		c5.452-3.613,12.924-3.709,10.728-5.061c2.717-0.368,8.288-1.961,11.383-2.881C804.404,334.66,801.138,335.471,798.467,335.632z
		 M806.521,334.062c1.315-0.373,2.19-0.664,2.19-0.664S807.841,333.669,806.521,334.062z"/>
	<path d="M767.846,340.907c-3.972,0.639-10.445,6.921-9.142,13.843c4.179-2.221,8.097-3.135,13.32-3.525
		C775.966,350.928,775.159,339.73,767.846,340.907z"/>
	<path d="M783.25,347.25c-3.104,0.951-8.125,8-6.75,13.5c7.5-3.25,11.375-2.375,13.5-3.875
		C794.903,353.414,791,344.875,783.25,347.25z"/>
	<path d="M802.375,350.25c-3.087,0.992-7,8.5-5.875,13.875c2.375-1.625,8.388-2.352,12.625-4.625
		C814.25,356.75,809.375,348,802.375,350.25z"/>
	<path fill="#0F79AD" d="M800.25,325.875c0,0-2.405-0.623-4.739-0.29c1.083,0.333,1.731,0.854,0.314,1.021
		c-1.417,0.168-8.976,1.248-11.476,2.123c-0.902,0.315-1.429,0.69-1.731,1.041c0.163,0.756,0.397,1.299,0.548,1.479
		c3.334-0.916,8.084-2.312,8.084-2.312s-2.167-0.459-3,0.125c1.083-1.25,6.604-1.562,8.938-2.062S800.25,325.875,800.25,325.875z"/>
	<path d="M783.281,325.05c-2.809,0.765-6.375,3.318-6.867,7.601c2.496-0.346,4.229-0.729,7.064-1.484
		C783.844,330.438,784,325.25,783.281,325.05z"/>
	
		<linearGradient id="SVGID_19_" gradientUnits="userSpaceOnUse" x1="1275.6094" y1="634.5352" x2="1278.999" y2="642.3657" gradientTransform="matrix(1 0 0 1 -512 -291)">
		<stop  offset="0" style="stop-color:#4A4A52"/>
		<stop  offset="0.544" style="stop-color:#26262A"/>
		<stop  offset="1" style="stop-color:#000000"/>
	</linearGradient>
	<path fill="url(#SVGID_19_)" d="M773.3,343.377c-0.989-1.643-2.688-2.797-5.169-2.502c-3.632,2.057-8.807,7.043-9.427,13.875
		C761.086,350.641,766.438,344.818,773.3,343.377z"/>
	
		<linearGradient id="SVGID_20_" gradientUnits="userSpaceOnUse" x1="1292.5332" y1="640.3477" x2="1296.1349" y2="648.6685" gradientTransform="matrix(1 0 0 1 -512 -291)">
		<stop  offset="0" style="stop-color:#4A4A52"/>
		<stop  offset="0.544" style="stop-color:#26262A"/>
		<stop  offset="1" style="stop-color:#000000"/>
	</linearGradient>
	<path fill="url(#SVGID_20_)" d="M788.676,347.441c-1.229-0.568-2.746-0.775-4.481-0.426c-7.887,6.267-7.692,13.732-7.692,13.732
		C777.726,357.688,782.199,350.134,788.676,347.441z"/>
	
		<linearGradient id="SVGID_21_" gradientUnits="userSpaceOnUse" x1="1311.8691" y1="643.2578" x2="1315.7507" y2="652.2255" gradientTransform="matrix(1 0 0 1 -512 -291)">
		<stop  offset="0" style="stop-color:#4A4A52"/>
		<stop  offset="0.544" style="stop-color:#26262A"/>
		<stop  offset="1" style="stop-color:#000000"/>
	</linearGradient>
	<path fill="url(#SVGID_21_)" d="M807.664,350.618c-1.292-0.664-2.858-0.938-4.576-0.56c-6.565,6.945-6.588,14.064-6.588,14.064
		C798.697,360.396,801.719,354.12,807.664,350.618z"/>
	
		<linearGradient id="SVGID_22_" gradientUnits="userSpaceOnUse" x1="1291.2852" y1="618.375" x2="1292.8717" y2="622.0403" gradientTransform="matrix(1 0 0 1 -512 -291)">
		<stop  offset="0" style="stop-color:#4A4A52"/>
		<stop  offset="0.544" style="stop-color:#26262A"/>
		<stop  offset="1" style="stop-color:#000000"/>
	</linearGradient>
	<path fill="url(#SVGID_22_)" d="M783.481,325.285c-2.828,0.961-5.729,2.753-7.02,7.357c0.253-0.035,0.495-0.072,0.734-0.107
		c1.142-1.73,3.203-4.155,6.576-5.229C783.745,326.43,783.654,325.658,783.481,325.285z"/>
</g>
</svg>
