<?xml version="1.0" encoding="utf-8"?>
<!-- Generator: Adobe Illustrator 15.0.0, SVG Export Plug-In . SVG Version: 6.00 Build 0)  -->
<!DOCTYPE svg PUBLIC "-//W3C//DTD SVG 1.1//EN" "http://www.w3.org/Graphics/SVG/1.1/DTD/svg11.dtd">
<svg version="1.1" id="Layer_1" xmlns="http://www.w3.org/2000/svg" xmlns:xlink="http://www.w3.org/1999/xlink" x="0px" y="0px"
	 width="1200px" height="500px" viewBox="0 0 1200 500" enable-background="new 0 0 1200 500" xml:space="preserve">
<g id="monster_arms_copy">
	<path fill="#149ADD" d="M911.75,251.25c-5.75-15.5-32-31.25-35.25-33.25s1.25-3,1.25-3s-15.123-6.575-27.926-10.08
		c-12.069-4.982-23.838-8.673-32.824-10.92c-28-7-33.75,11.75-25.25,30.25S820.75,249,826,252s22.5,13,22.5,13
		c-0.523,0.209-1.083,0.463-1.66,0.74c-7.911,3.294-16.454,3.646-18.09,6.76c2.044,0.372,2.014,1.434,0.94,2.264
		c-1.411,0.43-3.186,0.935-5.474,1.536c-7.718,2.034-18.26,1.521-31.385,3.284s-10.377,10.797-9.667,11.666
		c-4.916,1.667-13.833,1.75-15.25,3.5c1.5,0,1.584,0.667,0.867,1.15c-5.989,4.039-4.982,10.703-0.74,14.645
		c4.241,3.941,10.707,2.08,10.707,2.08s-0.625,4.25,6,6.25s13-1.875,13-1.875s3.751,6.834,15.584,4.5
		c4.014-0.792,7.251-2.338,10.096-4.012c0.48,0.179,0.083,1.447,0.153,2.012c0.854-1.119,5.599-5.139,7.56-6.783
		c1.06-0.572,2.112-1.055,3.191-1.384c6-1.833,11.832-1.175,18.166-3.337s12.502-7.137,15.225-12.346
		c1.478-0.414,34.337-9.854,39.354-31.389c0.854,0.602,1.782,1.684,2.923,2.987c0.75-2.25-1-12-2-13.75S907.75,248.25,911.75,251.25
		z"/>
	<path fill="#149ADD" d="M660.668,244.667c12.666-3,0.666-37.667,0.666-37.667s-7.687-8.678-22.38-5.779
		c-0.019,0-19.962-0.219-34.954,3.779c4.93,0,7.814,0.905,9.266,1.564c-1.014,0.223-2.023,0.449-3.033,0.675l0,0
		c-10.606,1.834-18.647,3.282-26.991,4.504c-8.134,1.192-18.104,3.143-25.757,6.2c8.901-2.17,12.182,0.563,12.229,0.604
		c-0.004,0.001-0.008,0.003-0.011,0.005c-5.626,0.175-9.692,1.678-9.692,1.678s2.062,0.204,3.919,0.698
		c-10.238,4.384-21.626,10.075-31.762,15.407l-0.001-0.001c-4.667,2.333-16.667,4.5-20.833,6.667c5,0,5.333,1.666,4.167,2.333
		c-0.012,0.007-0.004,0.014-0.01,0.021c-0.162,0.089-0.33,0.183-0.49,0.271c-3.769,2.091-8.25,5.875-19.375,7.75
		c-5.806,0.979-13.485,2.388-20.563,4.278v-0.002c0,0-13.457,2.586-16.686,3.949c1.399,0.324,2.083,0.854,2.32,1.35
		c-10.105,5.312-13.247,11.98-10.696,17.217c3.167,6.5,10.525,3.311,10.525,3.311s-5.232,7.852-0.219,13.016
		c5.015,5.164,13.568,1.383,14.693,1.008c0,4.125,9.125,11,21.125,2.75c6.092-4.188,16.904-13.465,26.702-13.92
		s-4.729,11.613,5.639,17.893c6.491,3.93,16.336-2.998,21.083-12.768c0.393,0.211,0.872,0.632,1.015,1.482
		c0.75-1.5,0.812-6.25,0.812-6.25s0.5,0.812,1,3.25c1.75-4.875-0.625-14.5-0.625-14.5l-0.012,0.066
		c-0.236-0.975-0.542-1.939-0.943-2.888c5.36-2.429,22.649-9.873,43.749-14.966c-0.567,0.687-1.518,1.61-3.043,2.474
		c8.408-0.879,15.318-4.942,24.855-6.765c0.03-0.006,0.056-0.014,0.087-0.02C642.717,248.989,648.002,247.667,660.668,244.667z"/>
	<path fill="#0F79AD" d="M475,297.5c0,0.361,0.074,0.744,0.209,1.135C475.151,298.255,475.083,297.875,475,297.5z M487.5,281.334
		c2.75-1.5,13.583-4.917,13.583-4.917c-8.083,1.417-19.833,5.708-19.833,5.708s2.25-0.125,3.125,0
		c-3.5,0.625-10.25,6.375-12.375,8.75c1.125-0.625,3.375-1.125,3.375-1.125s-0.708,3.834-4.708,6.25
		c-2.744,1.657-6.545,1.59-10.142,0.686c5.04,4.85,13.365,1.186,14.476,0.814c-1.375-6.25,6.625-12.125,6.625-12.125
		s-0.667-0.125-1.542-0.125c0.875-0.75,4.833-2.166,6.417-2.666S488.375,281.584,487.5,281.334z"/>
	<path d="M458.996,289.859c-1.769,1.896-3.687,8.912-2.366,13.526c5.709-4.747,11.015-4.177,12.495-8.243
		C470.604,291.077,463.363,285.178,458.996,289.859z"/>
	<path fill="#0F79AD" d="M524.083,283.834c0,0,0.917,0.958-0.333,1.541s-8.833,0.209-10.75,0.292s-4.75,2.083-4.75,2.083
		s0.75-0.416,3-0.082c-4.083,1.334-10.917,1.499-14.917,5.582c1.667-0.667,4.167-0.75,4.167-0.75s-1.583,0.417-3.333,1.584
		s-2.583,2.833-6.334,6.251c-3.352,3.056-10.279,2.515-11.718,2.363c3.791,2.018,9.895,2.442,17.01-2.448
		c1.991-1.369,4.491-3.281,7.29-5.251c0.424,0.31,0.647,1.051,0.335,2.376c2.775-4.062,7.895-7.332,9.902-8.516
		c3.043-1.408,6.156-2.389,9.175-2.529c2.778-0.129,3.599,0.75,3.587,2.217C527.25,285.527,524.083,283.834,524.083,283.834z"/>
	<path d="M476,296.084c-2.205,2.145-2.558,8.527-1.167,11.5c7.25-4.5,10-2.917,11.667-7.75
		C488.322,294.551,479.869,292.32,476,296.084z"/>
	<path fill="#0F79AD" d="M639.742,249.917c0.477-5.653,0.709-8.667,2.1-19.68c-1.391,6.607-6.292,10.608-8.57,10.27
		C627.796,239.691,622,241,622,241s3.375,0.375,3.875,1.25c-1.735,1.43-6.9,2.546-15.624,1.151s-14.656-0.07-14.656-0.07
		s3.382,1.318,4.257,2.443c-3.978,0.768-12.103-0.524-14.103-2.524c3.5,9.75-7.25,16-14.75,17.5l0.182,0.072
		c-5.045,0.922-9.373,1.758-10.932,3.094c1.083-0.167,2.417,0.334,4.25,0.418c-4,1.167-16,3.999-18,1.416
		c2.917,5.75,2.333,16.583,2.333,16.583s-0.917-0.333-1.083-3.166c-1.25,3.917-0.167,7.583-1.917,11.333S539,296.667,539,296.667
		s1.167,0.333,3.5-0.168c-3.745,3.956-13.595,5.276-16.507,5.589c0.596,0.76,1.393,1.479,2.474,2.135
		c6.491,3.93,16.336-2.998,21.083-12.768c0.393,0.211,0.872,0.632,1.015,1.482c0.75-1.5,0.812-6.25,0.812-6.25s0.5,0.812,1,3.25
		c1.75-4.875-0.625-14.5-0.625-14.5l-0.012,0.066c-0.236-0.975-0.542-1.939-0.943-2.888c5.36-2.429,22.649-9.873,43.749-14.966
		c-0.567,0.687-1.518,1.61-3.043,2.474c8.408-0.879,15.318-4.942,24.855-6.765c0.03-0.006,0.056-0.014,0.087-0.02
		C624.199,252.057,632.246,250.904,639.742,249.917L639.742,249.917z"/>
	<path d="M534.971,303.963c-0.971,3.946-8.626,4.505-14.715,2.479c4.403-3.524,4.083-5.782,6.887-7.023
		C529.946,298.176,536.09,299.411,534.971,303.963z"/>
	<path fill="#0F79AD" d="M488.625,269.5c0,0-6.542,1.75-12.667,2.375c1.188,0.188,1,0.5,1,0.5s-5.417,0.688-6.792,0.875
		c1.125,0.083,1.417,0.375,1.417,0.375s-6.042,0.292-9.396,3.562c-3.323,3.239-7.668,4.531-11.517,4.131
		c3.426,4.943,9.854,2.158,9.854,2.158c1.475-2.414,4.913-6.103,8.038-7.164c-0.562-0.188-3.062,0.271-3.062,0.271
		s4.083-1.959,11.625-3.625S488.625,269.5,488.625,269.5z"/>
	<path d="M449.681,276.393c-1.765,1.592-4.318,8.766-2.368,13.592c3.416-5.213,7.938-3.733,11.022-8.25
		C460.51,278.551,453.99,272.506,449.681,276.393z"/>
	
		<linearGradient id="SVGID_1_" gradientUnits="userSpaceOnUse" x1="705.2715" y1="-122.2065" x2="709.7201" y2="-132.4838" gradientTransform="matrix(1 0 0 -1 -256 155)">
		<stop  offset="0" style="stop-color:#4A4A52"/>
		<stop  offset="0.544" style="stop-color:#26262A"/>
		<stop  offset="1" style="stop-color:#000000"/>
	</linearGradient>
	<path fill="url(#SVGID_1_)" d="M456.405,276.389c-1.45-1.074-3.362-1.629-5.142-0.967c-1.604,2.771-4.542,8.748-3.951,14.562
		C448.995,281.885,453.824,277.959,456.405,276.389z"/>
	
		<linearGradient id="SVGID_2_" gradientUnits="userSpaceOnUse" x1="714.9092" y1="-135.3721" x2="719.3946" y2="-145.7345" gradientTransform="matrix(1 0 0 -1 -256 155)">
		<stop  offset="0" style="stop-color:#4A4A52"/>
		<stop  offset="0.544" style="stop-color:#26262A"/>
		<stop  offset="1" style="stop-color:#000000"/>
	</linearGradient>
	<path fill="url(#SVGID_2_)" d="M466.353,289.291c-1.407-0.939-3.137-1.416-4.783-0.999c-5.454,7.466-4.939,15.095-4.939,15.095
		C458.291,299.788,461.177,293.607,466.353,289.291z"/>
	
		<linearGradient id="SVGID_3_" gradientUnits="userSpaceOnUse" x1="733.3545" y1="-140.8887" x2="737.3091" y2="-150.0247" gradientTransform="matrix(1 0 0 -1 -256 155)">
		<stop  offset="0" style="stop-color:#4A4A52"/>
		<stop  offset="0.544" style="stop-color:#26262A"/>
		<stop  offset="1" style="stop-color:#000000"/>
	</linearGradient>
	<path fill="url(#SVGID_3_)" d="M484.59,295.084c-1.81-1.012-4.433-1.191-6.598-0.292c-3.658,4.792-3.158,12.792-3.158,12.792
		C477.75,301.084,480,298,484.59,295.084z"/>
	
		<linearGradient id="SVGID_4_" gradientUnits="userSpaceOnUse" x1="781.8965" y1="-145.4805" x2="783.6308" y2="-149.487" gradientTransform="matrix(1 0 0 -1 -256 155)">
		<stop  offset="0" style="stop-color:#4A4A52"/>
		<stop  offset="0.544" style="stop-color:#26262A"/>
		<stop  offset="1" style="stop-color:#000000"/>
	</linearGradient>
	<path fill="url(#SVGID_4_)" d="M528.328,299.068c-1.501,2.033-4.675,6.264-8.073,7.373c8.429-1.785,12.243-4.243,13.919-5.838
		C532.822,299.193,530.264,298.729,528.328,299.068z"/>
	<path fill="#0F79AD" d="M802.833,306.251c3.833-2.834,10.333-3.084,10.333-3.084s-2.666-0.292-3.416-0.417s3-0.084,7.25-1.375
		s5.166-3.458,5.166-3.458s-5.916,3.083-12.041,3.833s-10.25,2.292-12.375,4.167c1.666-0.083,2.833,1.082,0.458,2.666
		s-3.625,4.418-3.625,4.418s1.542-0.626,1.417,0.624s-4.417,3.959-10.292,3.334c-3.142-0.334-5.083-1.014-6.218-1.573
		c0.76,1.224,2.266,2.585,5.26,3.489c6.625,2,13-1.875,13-1.875C797.875,314,799,309.085,802.833,306.251z"/>
	<path fill="#0F79AD" d="M908,253.5c-1-1.75-0.25-5.25,3.75-2.25c-5.75-15.5-32-31.25-35.25-33.25s1.25-3,1.25-3
		s-15.123-6.575-27.926-10.08c-12.069-4.982-23.838-8.673-32.824-10.92c-8.819-2.205-15.428-1.851-20.082,0.241
		c6.062,0.403,15.519,1.07,20.832,1.634c8.25,0.875,21.375,5,29.75,12.375s20.875,10.375,24.875,12.5
		c-1.875,0.125-10.125-2.25-10.125-2.25s7.375,9.5,22.625,13.375s20.375,14.25,20.375,14.25s-1-1.375-4.125-3.5
		c4.125,4.5,3.875,15.25,3.5,18.375c-0.375-3.125-2.625-4.5-2.625-4.5s0.375,6-1.75,12.125s-9.5,8.5-12.375,9.875
		c2.75-0.125,4.25-0.875,4.25-0.875s-3.25,2.5-14.875,4.5S859,291.75,857,293.75s-4.5,7-8.875,8.875c0.875-0.75,1.125-3.5,1.125-3.5
		s-6.625,5.5-10.125,7.125s-11.625,2.625-15.25,2.125s-8,2.125-8.25,4c1-1.375,3.25-1.125,3.25-1.125s-1.625,2.125-5.25,4.5
		s-13.75,1-13.75,1l-1.134,1.512c1.756,1.854,6.071,4.92,14.593,3.238c4.014-0.792,7.251-2.338,10.096-4.011
		c0.48,0.178,0.083,1.446,0.153,2.011c0.855-1.119,5.599-5.139,7.56-6.783c1.06-0.572,2.112-1.055,3.191-1.384
		c6-1.833,11.832-1.175,18.166-3.337s12.502-7.137,15.225-12.346c1.478-0.414,34.338-9.854,39.354-31.389
		c0.854,0.602,1.782,1.684,2.923,2.987C910.75,265,909,255.25,908,253.5z"/>
	<path fill="#0F79AD" d="M798.467,295.632c-4.334,0.263-6.239,0.458-6.239,0.458s1.841,0.395,0.921,0.92
		c-0.921,0.525-9.786,3.153-12.414,4.795c2.103,0.592-0.656,4.594-4.927,5.646c-3.134,0.771-8.311-0.859-10.847-1.784
		c0.536,1.806,1.607,3.508,3.082,4.878c3.909,3.635,9.694,2.339,10.579,2.113c0.216-1.877,0.809-7.355,5.789-10.656
		c5.452-3.613,12.924-3.709,10.728-5.061c2.716-0.368,8.288-1.961,11.382-2.881C804.404,294.66,801.138,295.471,798.467,295.632z
		 M806.521,294.062c1.316-0.373,2.191-0.664,2.191-0.664S807.841,293.669,806.521,294.062z"/>
	<path d="M767.846,300.907c-3.972,0.639-10.446,6.921-9.142,13.843c4.179-2.221,8.097-3.135,13.32-3.525
		C775.966,310.928,775.159,299.73,767.846,300.907z"/>
	<path d="M783.25,307.25c-3.104,0.951-8.125,8-6.75,13.5c7.5-3.25,11.375-2.375,13.5-3.875
		C794.903,313.414,791,304.875,783.25,307.25z"/>
	<path d="M802.375,310.25c-3.087,0.992-7,8.5-5.875,13.875c2.375-1.625,8.388-2.352,12.625-4.625
		C814.25,316.75,809.375,308,802.375,310.25z"/>
	<path fill="#0F79AD" d="M800.25,285.875c0,0-2.405-0.623-4.739-0.29c1.083,0.333,1.731,0.854,0.314,1.021
		s-8.975,1.248-11.475,2.123c-0.903,0.315-1.429,0.69-1.732,1.041c0.163,0.756,0.398,1.299,0.548,1.479
		c3.334-0.916,8.084-2.312,8.084-2.312s-2.167-0.459-3,0.125c1.083-1.25,6.604-1.562,8.938-2.062S800.25,285.875,800.25,285.875z"/>
	<path d="M783.281,285.05c-2.808,0.765-6.375,3.318-6.867,7.601c2.496-0.346,4.23-0.729,7.064-1.485
		C783.844,290.438,784,285.25,783.281,285.05z"/>
	
		<linearGradient id="SVGID_5_" gradientUnits="userSpaceOnUse" x1="1019.6094" y1="-148.5352" x2="1022.9993" y2="-156.3666" gradientTransform="matrix(1 0 0 -1 -256 155)">
		<stop  offset="0" style="stop-color:#4A4A52"/>
		<stop  offset="0.544" style="stop-color:#26262A"/>
		<stop  offset="1" style="stop-color:#000000"/>
	</linearGradient>
	<path fill="url(#SVGID_5_)" d="M773.3,303.377c-0.989-1.643-2.688-2.797-5.169-2.502c-3.632,2.057-8.807,7.043-9.427,13.875
		C761.086,310.641,766.438,304.818,773.3,303.377z"/>
	
		<linearGradient id="SVGID_6_" gradientUnits="userSpaceOnUse" x1="1036.5312" y1="-154.3472" x2="1040.1329" y2="-162.668" gradientTransform="matrix(1 0 0 -1 -256 155)">
		<stop  offset="0" style="stop-color:#4A4A52"/>
		<stop  offset="0.544" style="stop-color:#26262A"/>
		<stop  offset="1" style="stop-color:#000000"/>
	</linearGradient>
	<path fill="url(#SVGID_6_)" d="M788.676,307.441c-1.229-0.568-2.746-0.775-4.482-0.426c-7.886,6.267-7.692,13.733-7.692,13.733
		C777.726,317.688,782.199,310.134,788.676,307.441z"/>
	
		<linearGradient id="SVGID_7_" gradientUnits="userSpaceOnUse" x1="1055.8691" y1="-157.2568" x2="1059.7507" y2="-166.2245" gradientTransform="matrix(1 0 0 -1 -256 155)">
		<stop  offset="0" style="stop-color:#4A4A52"/>
		<stop  offset="0.544" style="stop-color:#26262A"/>
		<stop  offset="1" style="stop-color:#000000"/>
	</linearGradient>
	<path fill="url(#SVGID_7_)" d="M807.664,310.618c-1.292-0.664-2.858-0.938-4.576-0.56c-6.566,6.946-6.588,14.065-6.588,14.065
		C798.697,320.396,801.719,314.12,807.664,310.618z"/>
	
		<linearGradient id="SVGID_8_" gradientUnits="userSpaceOnUse" x1="1035.2852" y1="-132.375" x2="1036.8724" y2="-136.042" gradientTransform="matrix(1 0 0 -1 -256 155)">
		<stop  offset="0" style="stop-color:#4A4A52"/>
		<stop  offset="0.544" style="stop-color:#26262A"/>
		<stop  offset="1" style="stop-color:#000000"/>
	</linearGradient>
	<path fill="url(#SVGID_8_)" d="M783.481,285.285c-2.828,0.961-5.729,2.753-7.019,7.357c0.253-0.035,0.495-0.072,0.734-0.107
		c1.142-1.73,3.203-4.155,6.576-5.229C783.745,286.43,783.654,285.658,783.481,285.285z"/>
</g>
</svg>
