<?xml version="1.0" encoding="utf-8"?>
<!-- Generator: Adobe Illustrator 15.0.0, SVG Export Plug-In . SVG Version: 6.00 Build 0)  -->
<!DOCTYPE svg PUBLIC "-//W3C//DTD SVG 1.1//EN" "http://www.w3.org/Graphics/SVG/1.1/DTD/svg11.dtd">
<svg version="1.1" xmlns="http://www.w3.org/2000/svg" xmlns:xlink="http://www.w3.org/1999/xlink" x="0px" y="0px" width="1200px"
	 height="500px" viewBox="0 0 1200 500" enable-background="new 0 0 1200 500" xml:space="preserve">
<g id="bg" display="none">
	<rect display="inline" fill="#314907" width="1200" height="500"/>
</g>
<g id="monster_body" display="none">
	<path display="inline" fill="#149ADD" d="M639,229c-1,34,15,127,15,127l175-17c0,0,3.5-93,0.5-132S640,195,639,229z"/>
	<path display="inline" fill="#149ADD" d="M639.742,249.917c0,0-2.713,33.178-1.824,41.074c1.463-7.376,3.886-10.396,3.886-10.396
		s-1.585,11.609,0,18.101c1.013-2.481,1.291-3.46,3.062-2.589c1.77,0.871,7.688-27.573,7.688-27.573L639.742,249.917z"/>
	<path display="inline" fill="none" stroke="#0F79AD" stroke-width="4" stroke-linecap="round" stroke-miterlimit="10" d="
		M678.667,280.001c0,0,4,1.999,6.667-1.334s-12.667-8.667-14,0"/>
	<path display="inline" fill="none" stroke="#0F79AD" stroke-width="4" stroke-linecap="round" stroke-miterlimit="10" d="
		M776,276.666c0,0-9.667-4.334-12.667,0c-2.531,3.656,6,8.667,7,4.667"/>
	<path display="inline" fill="#0F79AD" d="M819.001,272.999c4.333-5.332,5.333-7.999,5.333-7.999S822,281.999,819,289.333
		c2.667-2.333,3.334-4,3.334-4s-2.539,27.575-13.033,55.581L829,339c0,0,2.315-61.526,1.565-105.478L823.667,238
		C823.667,238,824.335,260.665,819.001,272.999z"/>
	<g display="inline">
		<path fill="#149ADD" d="M798.93,326.853l-4.928-4.52C795.001,324.004,796.69,325.515,798.93,326.853z"/>
		<path fill="#149ADD" d="M945.114,290.17c3.886-18.336,2.375-38.136-9.021-35.541c-4.541,1.033-7.13,4.67-9.563,10.119l-0.03-0.081
			c0,0-0.081,0.25-0.209,0.625c-0.474,1.087-0.945,2.244-1.425,3.463c-0.201,0.349-0.388,0.579-0.533,0.579
			c-0.667,0-1.333-1.5-1.333-1.5s-0.167,3-0.5,4.833S920.667,275,916.667,271c0.5,7.667-1.5,14.167-2.5,17
			c0-1.167-1.834-3.833-1.834-3.833s1.167,7.667-0.333,12.5l0.005-0.002c-2.986,4.823-6.642,9.848-11.26,14.959
			c-22.862,25.302-82.688,26.656-101.815,15.229l74.962,68.754c0,0,49.443-23.939,63.084-70.663c0.383-1.312,0.751-2.604,1.11-3.885
			c2.354-3.504,6.044-9.783,7.247-13.392C942.167,309.667,941.229,308.506,945.114,290.17z"/>
	</g>
	<path display="inline" fill="#149ADD" d="M798.93,326.853l-4.928-4.52C795.001,324.004,796.69,325.515,798.93,326.853z"/>
	<g display="inline">
		<path fill="#0F79AD" d="M944.097,258.168c1.403,3.832,2.027,15.412,0.569,20.665C943,284.834,942,280,942,280s0,15.75-2.5,19.25
			c-1.35,1.89-1.974-1.674-2.125-2.75c-0.275,2.611-2.959,16.704-9.541,21.167c-3.609,2.447-24.816,9.747-20.834,14.167
			c3.387,3.758,13.847,6.888,23.582,9.097c2.556-4.994,4.739-10.321,6.394-15.987c0.383-1.312,0.751-2.604,1.11-3.885
			c2.354-3.504,6.044-9.783,7.247-13.392c-3.166,2-4.104,0.839-0.219-17.497C947.767,277.653,947.901,264.459,944.097,258.168z"/>
	</g>
	<path display="inline" fill="#0F79AD" d="M656.345,219.343c6.568,3.519,30.387,9.868,32.4,16.723
		c7.638-2.944,9.133,7.121,13.906,10.352c0.773-2.62,3.107-4.667,6.107-4.375c3,0.292,11.295,2.56,19,3.218
		c-0.501-3.803,3.979-5.835,6.167-4.68s2.166,5.964,1.666,9.709c6.666-3.86,7.194-16.657,13.5-16.145
		c3.25,0.264,5.333,2.048,5.333,2.048s-2.077-5.726,8.295-7.689c10.372-1.963,18.65-2.416,21.542-5.327
		c-3.837-0.584,2.146-5.887,8.144-8.228c1.814-0.708-16.737-9.252-33.979-8.737C718.651,207.399,656.345,219.343,656.345,219.343z"
		/>
</g>
<g id="table">
	<linearGradient id="SVGID_1_" gradientUnits="userSpaceOnUse" x1="588.9995" y1="374" x2="588.9995" y2="500">
		<stop  offset="0" style="stop-color:#3E690E"/>
		<stop  offset="1" style="stop-color:#294509"/>
	</linearGradient>
	<path fill="url(#SVGID_1_)" d="M181,500c0,0-19-82-27-126l870,8l-14,118H181z"/>
	<linearGradient id="SVGID_2_" gradientUnits="userSpaceOnUse" x1="558.9839" y1="222.7275" x2="589.9841" y2="375.7282">
		<stop  offset="0" style="stop-color:#8BBC11"/>
		<stop  offset="1" style="stop-color:#739C0E"/>
	</linearGradient>
	<polygon fill="url(#SVGID_2_)" points="623.03,373 130,352 285,310 994,333 1044,370 	"/>
	<linearGradient id="SVGID_3_" gradientUnits="userSpaceOnUse" x1="586.9995" y1="352" x2="586.9995" y2="388">
		<stop  offset="0" style="stop-color:#60820C"/>
		<stop  offset="1" style="stop-color:#58780B"/>
	</linearGradient>
	<polygon fill="url(#SVGID_3_)" points="139,382 1038,388 1044,370 130,352 	"/>
	<linearGradient id="SVGID_4_" gradientUnits="userSpaceOnUse" x1="665" y1="306" x2="665" y2="349">
		<stop  offset="0" style="stop-color:#555555"/>
		<stop  offset="1" style="stop-color:#2B2B2B"/>
	</linearGradient>
	<polygon fill="url(#SVGID_4_)" points="670,347 338,329 424,306 960,322 992,349 	"/>
	<linearGradient id="SVGID_5_" gradientUnits="userSpaceOnUse" x1="665" y1="329" x2="665" y2="359">
		<stop  offset="0" style="stop-color:#272726"/>
		<stop  offset="1" style="stop-color:#1A1A1A"/>
	</linearGradient>
	<polygon fill="url(#SVGID_5_)" points="346,348 338,329 992,349 990,359 	"/>
	<path fill="#FFFFFF" d="M598.5,314.667c3.5,2.833,5.578,5.323,5.955,6.519c1.474,4.669-33.771,8.504-84.528,8.504
		c-58.52,0-112.964-4.959-112.964-10.971c0-1.016,2.537-3.885,6.037-6.385c13.549-4.115,57.211-2.679,103.342-1.521
		C552.259,311.713,585.211,311.444,598.5,314.667z"/>
	<path d="M598.496,311.142c0,0-0.104,2.666,0,3c1.385,4.479-31.733,8.158-79.426,8.158c-54.987,0-106.145-4.758-106.145-10.525
		c0-0.286,0-3,0-3s52.227-5.857,102.986-4.585C558.955,305.269,598.496,311.142,598.496,311.142z"/>
	<linearGradient id="SVGID_6_" gradientUnits="userSpaceOnUse" x1="518.4189" y1="340.0928" x2="490.9193" y2="275.0936">
		<stop  offset="0" style="stop-color:#000000"/>
		<stop  offset="1" style="stop-color:#333333"/>
	</linearGradient>
	<path fill="url(#SVGID_6_)" d="M598.496,311.142c1.385,4.479-31.733,8.158-79.426,8.158c-54.987,0-106.145-4.758-106.145-10.525
		c0-5.66,49.522-8.926,102.986-7.585C562.479,302.356,597.132,306.729,598.496,311.142z"/>
	<path fill="#E5D53E" d="M531.326,310.384c0.382,1.235-8.755,2.251-21.914,2.251c-15.172,0-29.287-1.312-29.287-2.904
		c0-1.562,13.664-2.463,28.415-2.093C521.389,307.96,530.95,309.166,531.326,310.384z"/>
	<path d="M508.354,310.125c0.039,0.126-0.897,0.23-2.245,0.23c-1.554,0-3-0.135-3-0.297c0-0.16,1.399-0.253,2.911-0.216
		C507.335,309.876,508.314,310,508.354,310.125z"/>
	<linearGradient id="SVGID_7_" gradientUnits="userSpaceOnUse" x1="504.3628" y1="306.4785" x2="507.1582" y2="306.4785">
		<stop  offset="0" style="stop-color:#DEDEDE"/>
		<stop  offset="0.2331" style="stop-color:#FFFFFF"/>
		<stop  offset="1" style="stop-color:#C4C4C4"/>
	</linearGradient>
	<path fill="url(#SVGID_7_)" d="M507.158,309.985c0,0.171-1.055,0.234-1.397,0.234s-1.398-0.063-1.398-0.234v-5.85
		c0-0.771,0.626-1.397,1.398-1.397l0,0c0.771,0,1.397,0.626,1.397,1.397V309.985z"/>
	<path fill="#FFFFFF" d="M950.377,325.261c3.572,2.924,5.692,5.489,6.077,6.717c1.505,4.796-34.464,8.547-86.259,8.284
		c-59.719-0.305-115.278-5.674-115.278-11.84c0-1.042,2.589-3.972,6.161-6.518c13.825-4.149,58.382-2.45,105.458-1.023
		C903.189,321.99,936.816,321.887,950.377,325.261z"/>
	<path d="M950.373,321.645c0,0-0.105,2.733,0,3.077c1.413,4.602-32.382,8.203-81.053,7.955
		c-56.113-0.285-108.318-5.431-108.318-11.347c0-0.293,0-3.076,0-3.076s53.296-5.737,105.095-4.168
		C910.022,315.416,950.373,321.645,950.373,321.645z"/>
	
		<linearGradient id="SVGID_8_" gradientUnits="userSpaceOnUse" x1="869.6953" y1="349.8809" x2="841.491" y2="283.216" gradientTransform="matrix(0.9949 0.0051 0 1 3.394 -3.3945)">
		<stop  offset="0" style="stop-color:#000000"/>
		<stop  offset="1" style="stop-color:#333333"/>
	</linearGradient>
	<path fill="url(#SVGID_8_)" d="M950.373,321.645c1.413,4.602-32.382,8.203-81.053,7.955
		c-56.113-0.285-108.318-5.431-108.318-11.346c0-5.806,50.535-8.898,105.095-7.245C913.618,312.447,948.98,317.111,950.373,321.645z
		"/>
	<path fill="#35AAD8" d="M881.827,320.52c0.391,1.269-8.935,2.263-22.362,2.194c-15.482-0.079-29.887-1.499-29.887-3.131
		c0-1.602,13.943-2.455,28.996-1.999C871.687,317.981,881.443,319.268,881.827,320.52z"/>
	<path d="M858.384,320.135c0.04,0.129-0.915,0.231-2.291,0.224c-1.585-0.008-3.06-0.153-3.06-0.32c0-0.164,1.426-0.251,2.969-0.206
		C857.345,319.873,858.345,320.005,858.384,320.135z"/>
	
		<linearGradient id="SVGID_9_" gradientUnits="userSpaceOnUse" x1="855.2803" y1="315.4062" x2="858.1475" y2="315.4062" gradientTransform="matrix(0.9949 0.0051 0 1 3.394 -3.3945)">
		<stop  offset="0" style="stop-color:#DEDEDE"/>
		<stop  offset="0.2331" style="stop-color:#FFFFFF"/>
		<stop  offset="1" style="stop-color:#C4C4C4"/>
	</linearGradient>
	<path fill="url(#SVGID_9_)" d="M857.165,319.984c0,0.175-1.077,0.235-1.427,0.233s-1.426-0.072-1.426-0.247v-6
		c0-0.792,0.638-1.431,1.426-1.427l0,0c0.787,0.004,1.427,0.649,1.427,1.44V319.984z"/>
	<path d="M727.912,334.332c-0.434,0-0.861-0.115-1.208-0.354c-0.82-0.56-0.884-1.578-0.153-2.273l12.049-11.474
		c0.626-0.597,1.773-0.699,2.567-0.23c0.8,0.472,0.951,1.348,0.329,1.958l-11.974,11.747
		C729.104,334.116,728.504,334.332,727.912,334.332L727.912,334.332z"/>
	<path d="M707.914,333.568c-0.467,0-0.908-0.134-1.232-0.406c-0.703-0.591-0.576-1.604,0.274-2.263l14.372-11.146
		c0.73-0.567,1.884-0.622,2.586-0.124c0.708,0.5,0.696,1.376-0.034,1.956l-14.369,11.43
		C709.051,333.381,708.467,333.568,707.914,333.568L707.914,333.568z"/>
	<path d="M688.794,332.837c-0.497,0-0.946-0.152-1.234-0.456c-0.585-0.616-0.282-1.62,0.668-2.246l16.497-10.834
		c0.819-0.539,1.971-0.554,2.578-0.031c0.611,0.525,0.447,1.398-0.377,1.952l-16.561,11.124
		C689.88,332.671,689.312,332.837,688.794,332.837L688.794,332.837z"/>
	<path d="M670.494,332.137c-0.522,0-0.973-0.168-1.216-0.5c-0.472-0.637-0.004-1.633,1.031-2.225l18.439-10.542
		c0.898-0.514,2.036-0.49,2.546,0.052c0.519,0.545,0.212,1.414-0.691,1.942l-18.57,10.833
		C671.531,331.99,670.981,332.137,670.494,332.137L670.494,332.137z"/>
	<path d="M652.965,331.466c-0.547,0-0.991-0.184-1.187-0.54c-0.358-0.653,0.261-1.64,1.369-2.202l20.218-10.264
		c0.965-0.49,2.079-0.435,2.498,0.125c0.424,0.562-0.015,1.426-0.988,1.93l-20.408,10.556
		C653.955,331.336,653.424,331.466,652.965,331.466L652.965,331.466z"/>
	<polygon fill="#5A5A5A" points="605.391,328.112 605.199,323.146 617.232,323.91 617.424,328.922 	"/>
	<polygon fill="#FFFFFF" points="605.199,323.146 633.332,314.341 642.117,314.913 617.232,323.91 	"/>
	<polygon fill="#989898" points="617.424,328.922 617.232,323.91 642.117,314.913 642.062,318.181 	"/>
	<polygon fill="#777777" points="623.207,326.4 623.696,326.188 623.463,321.657 622.971,321.836 	"/>
	<polygon fill="#777777" points="630.49,319.117 629.941,319.315 629.998,319.322 630.159,323.37 630.651,323.155 	"/>
	<polygon fill="#777777" points="636.77,316.847 636.166,317.064 636.287,317.078 636.562,320.578 637.047,320.367 	"/>
	<polygon fill="#5A5A5A" points="624.863,329.463 624.693,324.386 636.587,325.167 636.756,330.29 	"/>
	<polygon fill="#FFFFFF" points="624.693,324.386 647.631,315.336 658.914,315.795 636.587,325.167 	"/>
	<polygon fill="#989898" points="636.756,330.29 636.587,325.167 658.914,315.795 658.574,319.31 	"/>
	<polygon fill="#777777" points="642.563,327.367 643.048,327.123 642.734,322.587 642.248,322.791 	"/>
	<polygon fill="#777777" points="648.874,320.01 648.383,320.215 648.586,324.336 649.074,324.09 	"/>
	<polygon fill="#777777" points="653.64,321.793 654.145,321.539 654.212,317.771 654.208,317.771 653.716,317.977 	"/>
	<polygon fill="#777777" points="613.472,320.557 612.84,320.755 622.969,321.805 622.971,321.836 623.463,321.657 	"/>
	<polygon fill="#777777" points="629.941,319.315 630.49,319.117 621.561,318.024 620.92,318.226 	"/>
	<polygon fill="#777777" points="628.473,315.862 627.66,316.116 636.166,317.064 636.77,316.847 	"/>
	<polygon fill="#777777" points="631.807,321.58 631.12,321.851 642.248,322.791 642.734,322.587 	"/>
	<polygon fill="#777777" points="637.918,319.168 648.383,320.215 648.874,320.01 638.676,318.869 	"/>
	<polygon fill="#777777" points="643.69,316.891 643.25,317.064 653.716,317.977 654.208,317.771 	"/>
	
		<linearGradient id="SVGID_10_" gradientUnits="userSpaceOnUse" x1="727.5146" y1="331.707" x2="727.3896" y2="328.082" gradientTransform="matrix(1 0.0624 0 1 0 -42.835)">
		<stop  offset="0" style="stop-color:#BEBEBE"/>
		<stop  offset="1" style="stop-color:#D8D8D8"/>
	</linearGradient>
	<path fill="url(#SVGID_10_)" d="M732.656,331.099c-0.233-0.014-0.506,0.08-0.821,0.342c-1.415,1.175-1.022,3.766-1.022,3.766
		l-8.562-0.534c0,0-0.393-2.591,1.022-3.767c0.354-0.294,0.653-0.375,0.905-0.332C724.934,330.703,733.473,331.145,732.656,331.099z
		"/>
	<path fill="#777777" d="M730.812,335.206c0,0-0.393-2.591,1.022-3.766c1.415-1.176,1.978,1.047,1.978,1.047L730.812,335.206z"/>
	
		<linearGradient id="SVGID_11_" gradientUnits="userSpaceOnUse" x1="715.2949" y1="324.3896" x2="715.1699" y2="320.7646" gradientTransform="matrix(0.9757 0.067 0 1 16.1133 -44.5449)">
		<stop  offset="0" style="stop-color:#BEBEBE"/>
		<stop  offset="1" style="stop-color:#D8D8D8"/>
	</linearGradient>
	<path fill="url(#SVGID_11_)" d="M719.042,324.623c-0.228-0.015-0.494,0.077-0.802,0.337c-1.381,1.169-0.997,3.762-0.997,3.762
		l-8.354-0.574c0,0-0.383-2.593,0.997-3.761c0.346-0.293,0.638-0.373,0.884-0.328C711.507,324.191,719.838,324.672,719.042,324.623z
		"/>
	<path fill="#777777" d="M717.243,328.722c0,0-0.384-2.593,0.997-3.762s1.93,1.057,1.93,1.057L717.243,328.722z"/>
	
		<linearGradient id="SVGID_12_" gradientUnits="userSpaceOnUse" x1="693.8203" y1="327.1455" x2="693.6957" y2="323.5309" gradientTransform="matrix(0.9653 0.067 -0.1554 1 74.4451 -44.5449)">
		<stop  offset="0" style="stop-color:#BEBEBE"/>
		<stop  offset="1" style="stop-color:#D8D8D8"/>
	</linearGradient>
	<path fill="url(#SVGID_12_)" d="M698.903,325.959c-0.231-0.015-0.521,0.08-0.877,0.346c-1.577,1.185-1.528,3.734-1.528,3.734
		l-8.317-0.556c0,0-0.221-2.573,1.283-3.768c0.382-0.303,0.69-0.386,0.942-0.34C691.159,325.514,699.719,326.01,698.903,325.959z"/>
	<path fill="#777777" d="M696.498,330.039c0,0-0.049-2.55,1.528-3.734c1.608-1.206,1.819,1.071,1.819,1.071L696.498,330.039z"/>
	
		<linearGradient id="SVGID_13_" gradientUnits="userSpaceOnUse" x1="686.5205" y1="319.5879" x2="686.4068" y2="316.2896" gradientTransform="matrix(0.9531 0.067 -0.3378 1 141.1915 -44.5449)">
		<stop  offset="0" style="stop-color:#BEBEBE"/>
		<stop  offset="1" style="stop-color:#D8D8D8"/>
	</linearGradient>
	<path fill="url(#SVGID_13_)" d="M693.289,318.091c-0.218-0.012-0.494,0.072-0.841,0.308c-1.567,1.072-1.713,3.527-1.713,3.527
		l-8.124-0.548c0,0,0.367-2.387,1.979-3.431c0.398-0.258,0.692-0.33,0.912-0.293C686.163,317.765,694.057,318.13,693.289,318.091z"
		/>
	<path fill="#777777" d="M690.735,321.926c0,0,0.146-2.455,1.713-3.527c1.541-1.051,1.715,0.953,1.715,0.953L690.735,321.926z"/>
	
		<linearGradient id="SVGID_14_" gradientUnits="userSpaceOnUse" x1="668.0088" y1="322.1641" x2="667.8994" y2="318.9898" gradientTransform="matrix(0.9376 0.067 -0.568 1 224.7905 -44.5449)">
		<stop  offset="0" style="stop-color:#BEBEBE"/>
		<stop  offset="1" style="stop-color:#D8D8D8"/>
	</linearGradient>
	<path fill="url(#SVGID_14_)" d="M674.422,319.549c-0.215-0.012-0.939,0.016-1.34,0.251c-1.814,1.072-1.6,3.444-1.6,3.444
		l-7.997-0.548c0,0,0.271-2.355,2.122-3.399C666.521,318.834,675.181,319.588,674.422,319.549z"/>
	<path fill="#777777" d="M671.482,323.244c0,0-0.215-2.372,1.6-3.444c1.783-1.051,2.421,0.87,2.421,0.87L671.482,323.244z"/>
</g>
<g id="monster_arms_copy" display="none">
	<path display="inline" fill="#149ADD" d="M911.75,251.25c-5.75-15.5-32-31.25-35.25-33.25s1.25-3,1.25-3
		s-15.123-6.575-27.926-10.08c-12.069-4.982-23.838-8.673-32.824-10.92c-28-7-33.75,11.75-25.25,30.25S820.75,249,826,252
		s22.5,13,22.5,13c-0.523,0.209-1.083,0.463-1.66,0.74c-7.911,3.294-16.454,3.646-18.09,6.76c2.044,0.372,2.014,1.434,0.94,2.263
		c-1.411,0.43-3.185,0.935-5.473,1.537c-7.718,2.034-18.26,1.521-31.385,3.284s-10.377,10.797-9.667,11.666
		c-4.916,1.667-13.833,1.75-15.25,3.5c1.5,0,1.584,0.667,0.867,1.15c-5.989,4.039-4.982,10.703-0.74,14.645
		c4.241,3.942,10.707,2.08,10.707,2.08s-0.625,4.25,6,6.25s13-1.875,13-1.875s3.751,6.834,15.584,4.5
		c4.014-0.792,7.251-2.338,10.096-4.011c0.48,0.178,0.083,1.446,0.153,2.011c0.855-1.119,5.599-5.139,7.56-6.783
		c1.059-0.573,2.112-1.055,3.191-1.384c6-1.833,11.832-1.175,18.166-3.337s12.502-7.136,15.225-12.345
		c1.477-0.414,34.337-9.854,39.353-31.389c0.854,0.602,1.782,1.684,2.923,2.987c0.75-2.25-1-12-2-13.75S907.75,248.25,911.75,251.25
		z"/>
	<path display="inline" fill="#149ADD" d="M660.668,244.667c12.666-3,0.666-37.667,0.666-37.667s-7.687-8.678-22.38-5.779
		c-0.019,0-19.962-0.219-34.954,3.779c4.93,0,7.814,0.905,9.266,1.564c-1.014,0.223-2.024,0.449-3.034,0.675c0,0,0,0,0,0
		c-10.606,1.834-18.647,3.282-26.991,4.504c-8.134,1.192-18.104,3.143-25.757,6.2c8.902-2.17,12.182,0.563,12.23,0.604
		c-0.004,0.001-0.008,0.003-0.011,0.005c-5.626,0.175-9.692,1.678-9.692,1.678s2.062,0.204,3.919,0.698
		c-10.239,4.384-21.626,10.075-31.762,15.407l-0.001-0.001c-4.667,2.333-16.667,4.5-20.833,6.667c5,0,5.333,1.666,4.167,2.333
		c-0.012,0.007-0.004,0.014-0.01,0.021c-0.162,0.089-0.33,0.183-0.49,0.271c-3.769,2.091-8.25,5.875-19.375,7.75
		c-5.806,0.979-13.485,2.388-20.563,4.278l0-0.001c0,0-13.458,2.586-16.686,3.948c1.399,0.325,2.083,0.854,2.32,1.35
		c-10.105,5.313-13.247,11.981-10.696,17.217c3.167,6.5,10.525,3.311,10.525,3.311s-5.232,7.851-0.218,13.015
		s13.568,1.383,14.693,1.008c0,4.125,9.125,11,21.125,2.75c6.092-4.188,16.904-13.465,26.702-13.92s-4.729,11.613,5.639,17.892
		c6.491,3.931,16.336-2.998,21.083-12.767c0.392,0.211,0.872,0.632,1.014,1.482c0.75-1.5,0.812-6.25,0.812-6.25s0.5,0.812,1,3.25
		c1.75-4.875-0.625-14.5-0.625-14.5l-0.012,0.067c-0.236-0.975-0.542-1.939-0.943-2.888c5.36-2.429,22.649-9.873,43.749-14.965
		c-0.567,0.686-1.518,1.61-3.043,2.473c8.408-0.879,15.318-4.943,24.855-6.764c0.031-0.006,0.056-0.014,0.087-0.02
		C642.717,248.989,648.002,247.667,660.668,244.667z"/>
	<path display="inline" fill="#0F79AD" d="M475,297.5c0,0.361,0.074,0.744,0.209,1.135C475.151,298.255,475.083,297.875,475,297.5z
		 M487.5,281.334c2.75-1.5,13.583-4.917,13.583-4.917c-8.083,1.417-19.833,5.708-19.833,5.708s2.25-0.125,3.125,0
		c-3.5,0.625-10.25,6.375-12.375,8.75c1.125-0.625,3.375-1.125,3.375-1.125s-0.708,3.834-4.708,6.25
		c-2.744,1.657-6.545,1.59-10.142,0.685c5.04,4.85,13.366,1.186,14.476,0.815c-1.375-6.25,6.625-12.125,6.625-12.125
		s-0.667-0.125-1.542-0.125c0.875-0.75,4.833-2.166,6.417-2.666S488.375,281.584,487.5,281.334z"/>
	<path display="inline" d="M458.996,289.86c-1.768,1.896-3.686,8.912-2.366,13.526c5.709-4.748,11.015-4.177,12.495-8.243
		C470.604,291.077,463.363,285.178,458.996,289.86z"/>
	<path display="inline" fill="#0F79AD" d="M524.083,283.834c0,0,0.917,0.958-0.333,1.541s-8.833,0.209-10.75,0.292
		s-4.75,2.083-4.75,2.083s0.75-0.416,3-0.082c-4.083,1.334-10.917,1.499-14.917,5.582c1.667-0.667,4.167-0.75,4.167-0.75
		s-1.583,0.417-3.333,1.584s-2.583,2.833-6.334,6.251c-3.352,3.055-10.279,2.514-11.718,2.363c3.791,2.018,9.895,2.443,17.01-2.448
		c1.991-1.369,4.491-3.281,7.29-5.251c0.424,0.31,0.647,1.051,0.335,2.376c2.775-4.063,7.895-7.332,9.902-8.516
		c3.043-1.408,6.157-2.389,9.175-2.529c2.778-0.129,3.599,0.75,3.587,2.217C527.25,285.528,524.083,283.834,524.083,283.834z"/>
	<path display="inline" d="M476,296.084c-2.205,2.144-2.558,8.528-1.167,11.5c7.25-4.5,10-2.917,11.667-7.75
		C488.322,294.551,479.869,292.321,476,296.084z"/>
	<path display="inline" fill="#0F79AD" d="M639.742,249.917c0.477-5.653,0.709-8.667,2.1-19.68
		c-1.391,6.607-6.292,10.608-8.571,10.27C627.796,239.691,622,241,622,241s3.375,0.375,3.875,1.25
		c-1.735,1.43-6.9,2.546-15.624,1.151s-14.656-0.07-14.656-0.07s3.382,1.318,4.257,2.443c-3.978,0.768-12.103-0.524-14.103-2.524
		c3.5,9.75-7.25,16-14.75,17.5l0.182,0.072c-5.045,0.922-9.373,1.758-10.932,3.094c1.083-0.167,2.417,0.334,4.25,0.418
		c-4,1.167-16,3.999-18,1.416c2.917,5.75,2.333,16.583,2.333,16.583s-0.917-0.333-1.083-3.166c-1.25,3.917-0.167,7.583-1.917,11.333
		S539,296.667,539,296.667s1.167,0.333,3.5-0.168c-3.745,3.956-13.595,5.277-16.507,5.589c0.596,0.76,1.393,1.479,2.474,2.134
		c6.491,3.931,16.336-2.998,21.083-12.767c0.392,0.211,0.872,0.632,1.014,1.482c0.75-1.5,0.812-6.25,0.812-6.25s0.5,0.812,1,3.25
		c1.75-4.875-0.625-14.5-0.625-14.5l-0.012,0.067c-0.236-0.975-0.542-1.939-0.943-2.888c5.36-2.429,22.649-9.873,43.749-14.965
		c-0.567,0.686-1.518,1.61-3.043,2.473c8.408-0.879,15.318-4.943,24.855-6.764c0.031-0.006,0.056-0.014,0.087-0.02
		C624.199,252.057,632.246,250.905,639.742,249.917L639.742,249.917z"/>
	<path display="inline" d="M534.971,303.963c-0.971,3.946-8.626,4.505-14.715,2.479c4.403-3.525,4.083-5.783,6.887-7.024
		C529.946,298.176,536.09,299.411,534.971,303.963z"/>
	<path display="inline" fill="#0F79AD" d="M488.625,269.5c0,0-6.542,1.75-12.667,2.375c1.188,0.188,1,0.5,1,0.5
		s-5.417,0.688-6.792,0.875c1.125,0.083,1.417,0.375,1.417,0.375s-6.042,0.292-9.396,3.562c-3.323,3.24-7.667,4.532-11.516,4.131
		c3.426,4.943,9.853,2.159,9.853,2.159c1.475-2.415,4.913-6.103,8.038-7.165c-0.562-0.188-3.062,0.271-3.062,0.271
		s4.083-1.959,11.625-3.625S488.625,269.5,488.625,269.5z"/>
	<path display="inline" d="M449.681,276.393c-1.765,1.591-4.319,8.765-2.368,13.591c3.416-5.213,7.937-3.733,11.022-8.249
		C460.51,278.551,453.99,272.506,449.681,276.393z"/>
	<linearGradient id="SVGID_15_" gradientUnits="userSpaceOnUse" x1="449.271" y1="277.2061" x2="453.7196" y2="287.4833">
		<stop  offset="0" style="stop-color:#4A4A52"/>
		<stop  offset="0.544" style="stop-color:#26262A"/>
		<stop  offset="1" style="stop-color:#000000"/>
	</linearGradient>
	<path display="inline" fill="url(#SVGID_15_)" d="M456.405,276.388c-1.45-1.074-3.362-1.628-5.141-0.966
		c-1.605,2.772-4.542,8.748-3.952,14.562C448.995,281.885,453.824,277.959,456.405,276.388z"/>
	<linearGradient id="SVGID_16_" gradientUnits="userSpaceOnUse" x1="458.9087" y1="290.373" x2="463.3941" y2="300.7354">
		<stop  offset="0" style="stop-color:#4A4A52"/>
		<stop  offset="0.544" style="stop-color:#26262A"/>
		<stop  offset="1" style="stop-color:#000000"/>
	</linearGradient>
	<path display="inline" fill="url(#SVGID_16_)" d="M466.353,289.291c-1.408-0.939-3.137-1.416-4.784-0.999
		c-5.454,7.466-4.939,15.095-4.939,15.095C458.291,299.788,461.177,293.607,466.353,289.291z"/>
	<linearGradient id="SVGID_17_" gradientUnits="userSpaceOnUse" x1="477.3545" y1="295.8877" x2="481.3095" y2="305.0246">
		<stop  offset="0" style="stop-color:#4A4A52"/>
		<stop  offset="0.544" style="stop-color:#26262A"/>
		<stop  offset="1" style="stop-color:#000000"/>
	</linearGradient>
	<path display="inline" fill="url(#SVGID_17_)" d="M484.59,295.084c-1.81-1.012-4.433-1.191-6.598-0.292
		c-3.658,4.792-3.158,12.792-3.158,12.792C477.75,301.084,480,298,484.59,295.084z"/>
	<linearGradient id="SVGID_18_" gradientUnits="userSpaceOnUse" x1="525.8979" y1="300.4805" x2="527.6321" y2="304.4868">
		<stop  offset="0" style="stop-color:#4A4A52"/>
		<stop  offset="0.544" style="stop-color:#26262A"/>
		<stop  offset="1" style="stop-color:#000000"/>
	</linearGradient>
	<path display="inline" fill="url(#SVGID_18_)" d="M528.328,299.069c-1.501,2.032-4.675,6.263-8.073,7.372
		c8.429-1.785,12.243-4.243,13.919-5.837C532.822,299.194,530.264,298.729,528.328,299.069z"/>
	<path display="inline" fill="#0F79AD" d="M802.833,306.251c3.833-2.834,10.333-3.084,10.333-3.084s-2.666-0.292-3.416-0.417
		s3-0.084,7.25-1.375s5.166-3.458,5.166-3.458s-5.916,3.083-12.041,3.833s-10.25,2.292-12.375,4.167
		c1.666-0.083,2.833,1.082,0.458,2.666s-3.625,4.418-3.625,4.418s1.542-0.626,1.417,0.624s-4.417,3.959-10.292,3.334
		c-3.142-0.334-5.083-1.013-6.218-1.573c0.76,1.224,2.266,2.585,5.26,3.489c6.625,2,13-1.875,13-1.875
		C797.875,314,799,309.085,802.833,306.251z"/>
	<path display="inline" fill="#0F79AD" d="M908,253.5c-1-1.75-0.25-5.25,3.75-2.25c-5.75-15.5-32-31.25-35.25-33.25s1.25-3,1.25-3
		s-15.123-6.575-27.926-10.08c-12.069-4.982-23.838-8.673-32.824-10.92c-8.819-2.205-15.428-1.851-20.082,0.241
		c6.062,0.403,15.519,1.07,20.832,1.634c8.25,0.875,21.375,5,29.75,12.375s20.875,10.375,24.875,12.5
		c-1.875,0.125-10.125-2.25-10.125-2.25s7.375,9.5,22.625,13.375s20.375,14.25,20.375,14.25s-1-1.375-4.125-3.5
		c4.125,4.5,3.875,15.25,3.5,18.375c-0.375-3.125-2.625-4.5-2.625-4.5s0.375,6-1.75,12.125s-9.5,8.5-12.375,9.875
		c2.75-0.125,4.25-0.875,4.25-0.875s-3.25,2.5-14.875,4.5S859,291.75,857,293.75s-4.5,7-8.875,8.875c0.875-0.75,1.125-3.5,1.125-3.5
		s-6.625,5.5-10.125,7.125s-11.625,2.625-15.25,2.125s-8,2.125-8.25,4c1-1.375,3.25-1.125,3.25-1.125s-1.625,2.125-5.25,4.5
		s-13.75,1-13.75,1l-1.134,1.512c1.756,1.853,6.071,4.919,14.593,3.238c4.014-0.792,7.251-2.338,10.096-4.011
		c0.48,0.178,0.083,1.446,0.153,2.011c0.855-1.119,5.599-5.139,7.56-6.783c1.059-0.573,2.112-1.055,3.191-1.384
		c6-1.833,11.832-1.175,18.166-3.337s12.502-7.136,15.225-12.345c1.477-0.414,34.337-9.854,39.353-31.389
		c0.854,0.602,1.782,1.684,2.923,2.987C910.75,265,909,255.25,908,253.5z"/>
	<path display="inline" fill="#0F79AD" d="M798.467,295.632c-4.334,0.262-6.239,0.458-6.239,0.458s1.84,0.395,0.92,0.92
		s-9.786,3.153-12.414,4.795c2.103,0.591-0.656,4.594-4.926,5.646c-3.134,0.772-8.311-0.859-10.847-1.784
		c0.536,1.805,1.607,3.508,3.082,4.878c3.909,3.634,9.694,2.339,10.579,2.113c0.216-1.877,0.809-7.355,5.789-10.656
		c5.452-3.613,12.924-3.709,10.728-5.061c2.716-0.368,8.288-1.96,11.382-2.88C804.404,294.66,801.138,295.471,798.467,295.632z
		 M806.521,294.062c1.317-0.373,2.192-0.664,2.192-0.664S807.841,293.669,806.521,294.062z"/>
	<path display="inline" d="M767.846,300.907c-3.972,0.639-10.447,6.921-9.142,13.843c4.179-2.22,8.097-3.135,13.32-3.526
		C775.966,310.928,775.159,299.731,767.846,300.907z"/>
	<path display="inline" d="M783.25,307.25c-3.103,0.951-8.125,8-6.75,13.5c7.5-3.25,11.375-2.375,13.5-3.875
		C794.903,313.414,791,304.875,783.25,307.25z"/>
	<path display="inline" d="M802.375,310.25c-3.087,0.992-7,8.5-5.875,13.875c2.375-1.625,8.388-2.352,12.625-4.625
		C814.25,316.75,809.375,308,802.375,310.25z"/>
	<path display="inline" fill="#0F79AD" d="M800.25,285.875c0,0-2.405-0.623-4.739-0.29c1.083,0.333,1.731,0.855,0.314,1.021
		s-8.974,1.247-11.474,2.122c-0.904,0.316-1.429,0.691-1.733,1.042c0.163,0.755,0.399,1.298,0.548,1.479
		c3.334-0.916,8.084-2.312,8.084-2.312s-2.167-0.458-3,0.125c1.083-1.25,6.604-1.562,8.938-2.062S800.25,285.875,800.25,285.875z"/>
	<path display="inline" d="M783.281,285.05c-2.807,0.764-6.375,3.318-6.867,7.6c2.496-0.346,4.231-0.729,7.065-1.485
		C783.844,290.438,784,285.25,783.281,285.05z"/>
	<linearGradient id="SVGID_19_" gradientUnits="userSpaceOnUse" x1="763.6094" y1="303.5352" x2="766.9997" y2="311.3675">
		<stop  offset="0" style="stop-color:#4A4A52"/>
		<stop  offset="0.544" style="stop-color:#26262A"/>
		<stop  offset="1" style="stop-color:#000000"/>
	</linearGradient>
	<path display="inline" fill="url(#SVGID_19_)" d="M773.3,303.377c-0.989-1.642-2.688-2.797-5.169-2.502
		c-3.632,2.057-8.807,7.043-9.427,13.875C761.086,310.641,766.438,304.819,773.3,303.377z"/>
	<linearGradient id="SVGID_20_" gradientUnits="userSpaceOnUse" x1="780.5322" y1="309.3467" x2="784.134" y2="317.6675">
		<stop  offset="0" style="stop-color:#4A4A52"/>
		<stop  offset="0.544" style="stop-color:#26262A"/>
		<stop  offset="1" style="stop-color:#000000"/>
	</linearGradient>
	<path display="inline" fill="url(#SVGID_20_)" d="M788.676,307.441c-1.23-0.568-2.746-0.775-4.483-0.426
		c-7.885,6.267-7.692,13.734-7.692,13.734C777.726,317.687,782.199,310.134,788.676,307.441z"/>
	<linearGradient id="SVGID_21_" gradientUnits="userSpaceOnUse" x1="799.8682" y1="312.2568" x2="803.7502" y2="321.2253">
		<stop  offset="0" style="stop-color:#4A4A52"/>
		<stop  offset="0.544" style="stop-color:#26262A"/>
		<stop  offset="1" style="stop-color:#000000"/>
	</linearGradient>
	<path display="inline" fill="url(#SVGID_21_)" d="M807.664,310.618c-1.292-0.664-2.858-0.939-4.576-0.56
		c-6.567,6.947-6.588,14.066-6.588,14.066C798.697,320.397,801.719,314.12,807.664,310.618z"/>
	<linearGradient id="SVGID_22_" gradientUnits="userSpaceOnUse" x1="779.2852" y1="287.375" x2="780.8724" y2="291.0418">
		<stop  offset="0" style="stop-color:#4A4A52"/>
		<stop  offset="0.544" style="stop-color:#26262A"/>
		<stop  offset="1" style="stop-color:#000000"/>
	</linearGradient>
	<path display="inline" fill="url(#SVGID_22_)" d="M783.481,285.285c-2.828,0.961-5.729,2.753-7.018,7.357
		c0.253-0.035,0.495-0.071,0.734-0.107c1.142-1.73,3.203-4.155,6.576-5.229C783.745,286.43,783.654,285.658,783.481,285.285z"/>
</g>
<g id="monster_head_copy" display="none">
	<linearGradient id="SVGID_23_" gradientUnits="userSpaceOnUse" x1="617.0029" y1="33.104" x2="655.0853" y2="89.8814">
		<stop  offset="0" style="stop-color:#FFF2CF"/>
		<stop  offset="1" style="stop-color:#D6CBAE"/>
	</linearGradient>
	<path display="inline" fill="url(#SVGID_23_)" d="M662.155,62.07c-3.445-0.738-27.597,1.494-36.076-35.055
		c-30.287,44.429,7.821,64.098,11.197,66.012c3.376,1.914,13.382,1.712,22.146-6.577C668.187,78.163,667.192,63.15,662.155,62.07z"
		/>
	<path display="inline" fill="#D1C6AA" d="M643.627,70.967c8.882,5.95,16.424,4.159,22.357-0.328
		c0.003-4.498-1.469-8.062-3.829-8.568c-3.445-0.738-27.597,1.494-36.076-35.055C626.079,27.016,620.347,55.369,643.627,70.967z"/>
	<radialGradient id="SVGID_24_" cx="680" cy="67.1016" r="186.8745" gradientUnits="userSpaceOnUse">
		<stop  offset="0" style="stop-color:#262637"/>
		<stop  offset="1" style="stop-color:#000000"/>
	</radialGradient>
	<path display="inline" fill="url(#SVGID_24_)" d="M844.5,134.5c0,35.167-3,47-4.5,50.5c-4,6.5-65,53.5-138,46s-75-45.5-75-45.5
		s-6.833-19.708-6.833-49.667C620.167,72.873,669.039,23.5,732,23.5S844.5,71.54,844.5,134.5z"/>
	<path display="inline" fill="#898F99" d="M844.358,129.699c-0.579,5.233-1.454,10.44-2.538,15.583
		c-1.303,6.027-2.971,11.98-5.24,17.672c-2.271,5.67-5.18,11.136-9.171,15.58c-2.009,2.209-4.289,4.082-6.914,5.431
		c-2.73,1.457-5.465,2.893-8.219,4.285c-11.004,5.581-22.36,10.418-34.05,14.239c-11.667,3.875-23.646,6.79-35.789,8.61
		c-12.142,1.826-24.437,2.576-36.704,2.276c-6.123-0.158-12.291-0.544-18.321-1.226c-6.046-0.712-12.028-1.877-17.864-3.526
		c-5.841-1.627-11.531-3.775-16.945-6.478c-5.429-2.671-10.571-5.919-15.31-9.687c-4.221-3.335-8.069-7.133-11.562-11.246
		C626.48,184,627,185.5,627,185.5s0.058,1.063,0.49,2.862c2.295,2.512,4.746,4.885,7.338,7.095
		c4.838,4.11,10.172,7.63,15.793,10.584c5.641,2.918,11.575,5.244,17.654,7.027c6.086,1.766,12.317,2.962,18.582,3.718
		c6.286,0.753,12.517,1.017,18.788,1.134c12.527,0.18,25.07-0.711,37.434-2.698c12.363-1.989,24.548-5.054,36.362-9.155
		c11.803-4.139,23.221-9.299,34.209-15.172c2.749-1.464,5.472-2.971,8.18-4.491c2.866-1.55,5.407-3.732,7.508-6.155
		c2.12-2.43,3.865-5.123,5.345-7.921c1.485-2.799,2.724-5.702,3.795-8.651c2.135-5.905,3.625-11.99,4.744-18.118
		c0.513-2.819,0.929-5.651,1.271-8.49c0.003-0.576,0.004-1.161,0.005-1.75C844.495,133.433,844.449,131.559,844.358,129.699z"/>
	<path display="inline" fill="#2D323A" d="M844.358,128.699c-0.579,5.233-1.454,10.44-2.538,15.583
		c-1.303,6.027-2.971,11.98-5.24,17.672c-2.271,5.67-5.18,11.136-9.171,15.58c-2.009,2.209-4.289,4.082-6.914,5.431
		c-2.73,1.457-5.465,2.893-8.219,4.285c-11.004,5.581-22.36,10.418-34.05,14.239c-11.667,3.875-23.646,6.79-35.789,8.61
		c-12.142,1.826-24.437,2.576-36.704,2.276c-6.123-0.158-12.291-0.544-18.321-1.226c-6.046-0.712-12.028-1.877-17.864-3.526
		c-5.841-1.627-11.531-3.775-16.945-6.478c-5.429-2.671-10.571-5.919-15.31-9.687c-4.369-3.452-8.348-7.391-11.936-11.671
		c0.947,3.701,1.643,5.713,1.643,5.713s0.031,0.566,0.214,1.566c2.372,2.623,4.919,5.093,7.614,7.391
		c4.838,4.11,10.172,7.63,15.793,10.584c5.641,2.918,11.575,5.244,17.654,7.027c6.086,1.766,12.317,2.962,18.582,3.718
		c6.286,0.753,12.517,1.017,18.788,1.134c12.527,0.18,25.07-0.711,37.434-2.698c12.363-1.989,24.548-5.054,36.362-9.155
		c11.803-4.139,23.221-9.299,34.209-15.172c2.749-1.464,5.472-2.971,8.18-4.491c2.866-1.55,5.407-3.732,7.508-6.155
		c2.12-2.43,3.865-5.123,5.345-7.921c1.485-2.799,2.724-5.702,3.795-8.651c2.135-5.905,3.625-11.99,4.744-18.118
		c0.514-2.827,0.932-5.666,1.274-8.513c0.001-0.516,0.004-1.021,0.004-1.547C844.5,132.552,844.452,130.618,844.358,128.699z"/>
	<g>
		<path display="inline" fill="#2D323A" d="M798.351,126.02c-0.301,6.221-1.015,12.408-2.129,18.541
			c-1.119,6.128-2.609,12.212-4.744,18.118c-1.071,2.949-2.31,5.852-3.795,8.651c-1.479,2.798-3.225,5.491-5.345,7.921
			c-2.101,2.423-4.642,4.604-7.508,6.155c-2.708,1.52-5.431,3.026-8.18,4.491c-10.988,5.873-22.406,11.033-34.209,15.172
			c-11.814,4.102-23.999,7.166-36.362,9.155c-12.363,1.986-24.906,2.878-37.434,2.698c-6.271-0.117-12.502-0.38-18.788-1.134
			c-6.265-0.756-12.496-1.952-18.582-3.718c-6.079-1.783-12.014-4.109-17.654-7.027c-5.621-2.954-10.955-6.474-15.793-10.584
			c-4.829-4.117-9.206-8.767-12.891-13.912c-1.85-2.566-3.545-5.24-5.058-8.013c-1.518-2.787-2.823-5.625-3.829-8.719l1.899-0.626
			c1.104,2.739,2.624,5.45,4.189,8.037c1.595,2.591,3.359,5.077,5.263,7.445c3.825,4.723,8.139,9.034,12.89,12.789
			c4.739,3.768,9.882,7.016,15.31,9.687c5.414,2.703,11.104,4.851,16.945,6.478c5.836,1.649,11.818,2.814,17.864,3.526
			c6.03,0.682,12.198,1.068,18.321,1.226c12.268,0.299,24.562-0.45,36.704-2.276c12.144-1.82,24.122-4.735,35.789-8.61
			c11.689-3.82,23.046-8.658,34.05-14.239c2.754-1.392,5.488-2.828,8.219-4.285c2.625-1.349,4.905-3.222,6.914-5.431
			c3.991-4.444,6.9-9.91,9.171-15.58c2.27-5.691,3.938-11.645,5.24-17.672c1.271-6.033,2.283-12.152,2.829-18.302L798.351,126.02z"
			/>
	</g>
	<g display="inline">
		<g enable-background="new    ">
			<g enable-background="new    ">
				<g>
					<path fill="#FFF24D" d="M689.477,64.697c-2.002,0.007-3.346,2.711-2.268,3.674c1.163,1.039,3.573-0.784,3.393-2.565
						C690.536,65.157,690.104,64.732,689.477,64.697"/>
					<path fill="#FFF24D" d="M693.844,64.933c-1.969,0.004-3.272,2.512-2.299,3.578c1.051,1.151,3.427-0.262,3.529-2.1
						C695.121,65.569,694.627,64.976,693.844,64.933"/>
					<path fill="#FFF24D" d="M698.373,65.176c-2.035,0-3.274,2.518-2.22,3.59c1.136,1.155,3.525-0.261,3.552-2.105
						C699.717,65.83,699.169,65.219,698.373,65.176"/>
					<path fill="#FFF24D" d="M703.049,65.426c-2.096-0.002-3.262,2.524-2.132,3.602c1.218,1.162,3.618-0.257,3.566-2.109
						C704.46,66.084,703.87,65.47,703.049,65.426"/>
					<path fill="#FFF24D" d="M707.865,65.682c-2.15-0.004-3.242,2.53-2.037,3.614c1.299,1.168,3.703-0.254,3.572-2.114
						C709.342,66.344,708.71,65.727,707.865,65.682"/>
					<path fill="#FFF24D" d="M675.1,68.955c-1.82,0.012-3.282,2.794-2.389,3.78c0.916,1.01,3.135-0.647,3.299-2.463
						C676.078,69.51,675.722,68.992,675.1,68.955"/>
					<path fill="#FFF24D" d="M679.072,69.188c-1.904,0.008-3.314,2.802-2.336,3.795c1.006,1.02,3.261-0.642,3.352-2.469
						C680.127,69.747,679.729,69.227,679.072,69.188"/>
					<path fill="#FFF24D" d="M683.236,69.428c-1.987,0.005-3.34,2.811-2.276,3.81c1.093,1.028,3.376-0.638,3.393-2.476
						C684.359,69.992,683.922,69.468,683.236,69.428"/>
					<path fill="#FFF24D" d="M687.582,69.677c-2.064,0.002-3.355,2.818-2.211,3.825c1.18,1.035,3.484-0.635,3.426-2.483
						C688.773,70.245,688.296,69.718,687.582,69.677"/>
					<path fill="#FFF24D" d="M692.102,69.932c-2.031,0-3.297,2.612-2.259,3.725c1.12,1.201,3.526-0.268,3.576-2.183
						C693.441,70.598,692.912,69.979,692.102,69.932"/>
					<path fill="#FFF24D" d="M696.79,70.194c-2.102-0.002-3.309,2.619-2.19,3.737c1.203,1.204,3.631-0.269,3.607-2.188
						C698.197,70.878,697.614,70.241,696.79,70.194"/>
					<path fill="#FFF24D" d="M701.631,70.462c-2.164-0.005-3.307,2.625-2.112,3.75c1.284,1.21,3.728-0.266,3.632-2.193
						C703.106,71.15,702.481,70.51,701.631,70.462"/>
					<path fill="#FFF24D" d="M706.618,70.735c-2.12-0.006-3.249,2.407-2.159,3.631c1.211,1.361,3.758,0.106,3.785-1.865
						C708.258,71.531,707.573,70.788,706.618,70.735"/>
					<path fill="#FFF24D" d="M711.741,71.014c-2.171-0.008-3.237,2.413-2.076,3.642c1.233,1.307,3.649,0.252,3.802-1.659
						C713.551,71.942,712.793,71.071,711.741,71.014"/>
					<path fill="#FFF24D" d="M716.99,71.295c-2.211-0.008-3.209,2.419-1.983,3.652c1.306,1.313,3.732,0.257,3.819-1.663
						C718.873,72.228,718.066,71.354,716.99,71.295"/>
					<path fill="#FFF24D" d="M722.355,71.581c-2.253-0.01-3.183,2.424-1.89,3.662c1.38,1.32,3.817,0.262,3.836-1.666
						C724.312,72.517,723.457,71.64,722.355,71.581"/>
					<path fill="#FFF24D" d="M669.053,73.821c-1.922,0.009-3.283,3.107-2.231,3.999c1.067,0.905,3.282-1.226,3.12-3
						C669.887,74.228,669.555,73.854,669.053,73.821"/>
					<path fill="#FFF24D" d="M672.94,74.068c-1.866,0.006-3.249,2.89-2.292,3.917c0.98,1.051,3.188-0.662,3.281-2.544
						C673.97,74.648,673.581,74.109,672.94,74.068"/>
					<path fill="#FFF24D" d="M677.033,74.323c-1.956,0.002-3.293,2.898-2.249,3.933c1.071,1.06,3.321-0.657,3.345-2.552
						C678.139,74.908,677.709,74.366,677.033,74.323"/>
					<path fill="#FFF24D" d="M681.322,74.585c-2.039,0-3.326,2.908-2.198,3.948c1.157,1.068,3.442-0.654,3.396-2.559
						C682.499,75.174,682.029,74.629,681.322,74.585"/>
					<path fill="#FFF24D" d="M685.802,74.855c-2.015-0.002-3.286,2.694-2.262,3.845c1.101,1.238,3.495-0.276,3.56-2.25
						C687.129,75.545,686.607,74.904,685.802,74.855"/>
					<path fill="#FFF24D" d="M690.461,75.131c-2.087-0.004-3.309,2.702-2.207,3.859c1.184,1.244,3.613-0.273,3.609-2.256
						C691.862,75.839,691.285,75.18,690.461,75.131"/>
					<path fill="#FFF24D" d="M695.297,75.413c-2.16-0.007-3.331,2.709-2.15,3.873c1.266,1.248,3.723-0.274,3.65-2.262
						C696.765,76.125,696.147,75.462,695.297,75.413"/>
					<path fill="#FFF24D" d="M700.29,75.699c-2.226-0.009-3.34,2.716-2.085,3.885c1.348,1.254,3.826-0.272,3.686-2.268
						C701.826,76.415,701.168,75.75,700.29,75.699"/>
					<path fill="#FFF24D" d="M705.436,75.99c-2.184-0.01-3.295,2.491-2.149,3.762c1.214,1.346,3.659,0.259,3.849-1.711
						C707.238,76.951,706.492,76.05,705.436,75.99"/>
					<path fill="#FFF24D" d="M710.722,76.285c-2.235-0.01-3.293,2.498-2.078,3.773c1.288,1.352,3.757,0.262,3.886-1.715
						C712.602,77.249,711.807,76.345,710.722,76.285"/>
					<path fill="#FFF24D" d="M716.139,76.582c-2.278-0.011-3.275,2.504-1.996,3.784c1.357,1.358,3.843,0.266,3.91-1.719
						C718.091,77.55,717.25,76.643,716.139,76.582"/>
					<path fill="#FFF24D" d="M721.676,76.882c-2.322-0.012-3.258,2.51-1.914,3.793c1.429,1.364,3.931,0.269,3.937-1.723
						C723.701,77.853,722.812,76.943,721.676,76.882"/>
					<path fill="#FFF24D" d="M727.32,77.183c-2.36-0.012-3.232,2.516-1.826,3.802c1.496,1.368,4.005,0.271,3.947-1.727
						C729.41,78.156,728.479,77.245,727.32,77.183"/>
					<path fill="#FFF24D" d="M663.18,78.834c-1.855,0.006-3.16,3.192-2.143,4.113c1.031,0.933,3.164-1.255,3.003-3.081
						C663.986,79.255,663.664,78.87,663.18,78.834"/>
					<path fill="#FFF24D" d="M666.949,79.097c-1.816,0.001-3.153,2.968-2.217,4.028c0.953,1.079,3.094-0.679,3.182-2.612
						C667.951,79.697,667.572,79.141,666.949,79.097"/>
					<path fill="#FFF24D" d="M670.938,79.368c-1.906-0.001-3.206,2.979-2.187,4.045c1.042,1.089,3.231-0.674,3.255-2.621
						C672.016,79.972,671.596,79.413,670.938,79.368"/>
					<path fill="#FFF24D" d="M675.139,79.646c-1.998-0.003-3.259,2.988-2.152,4.062c1.132,1.099,3.37-0.669,3.326-2.628
						C676.293,80.254,675.833,79.691,675.139,79.646"/>
					<path fill="#FFF24D" d="M679.544,79.931c-2.087-0.006-3.304,2.998-2.114,4.077c1.221,1.106,3.499-0.667,3.387-2.637
						C680.77,80.543,680.271,79.978,679.544,79.931"/>
					<path fill="#FFF24D" d="M684.145,80.222c-2.062-0.008-3.277,2.777-2.193,3.971c1.162,1.28,3.567-0.278,3.573-2.316
						C685.527,80.953,684.96,80.273,684.145,80.222"/>
					<path fill="#FFF24D" d="M688.932,80.518c-2.139-0.01-3.312,2.786-2.15,3.985c1.245,1.287,3.69-0.276,3.633-2.323
						C690.389,81.254,689.779,80.57,688.932,80.518"/>
					<path fill="#FFF24D" d="M693.9,80.819c-2.214-0.011-3.344,2.794-2.105,3.999c1.327,1.29,3.806-0.278,3.685-2.33
						C695.424,81.559,694.775,80.873,693.9,80.819"/>
					<path fill="#FFF24D" d="M699.032,81.125c-2.282-0.013-3.362,2.802-2.05,4.012c1.405,1.295,3.913-0.276,3.727-2.336
						C700.625,81.868,699.936,81.179,699.032,81.125"/>
					<path fill="#FFF24D" d="M704.321,81.434c-2.238-0.013-3.331,2.569-2.132,3.884c1.267,1.389,3.754,0.27,3.912-1.761
						C706.19,82.429,705.408,81.497,704.321,81.434"/>
					<path fill="#FFF24D" d="M709.756,81.745c-2.293-0.014-3.34,2.576-2.072,3.895c1.338,1.394,3.854,0.271,3.959-1.766
						C711.701,82.744,710.872,81.809,709.756,81.745"/>
					<path fill="#FFF24D" d="M715.326,82.058c-2.338-0.013-3.331,2.584-2.004,3.906c1.406,1.399,3.943,0.274,3.992-1.771
						C717.343,83.059,716.469,82.121,715.326,82.058"/>
					<path fill="#FFF24D" d="M721.02,82.371c-2.383-0.013-3.322,2.591-1.933,3.916c1.474,1.405,4.032,0.277,4.026-1.776
						C723.109,83.375,722.189,82.435,721.02,82.371"/>
					<path fill="#FFF24D" d="M726.824,82.685c-2.422-0.012-3.306,2.597-1.855,3.925c1.537,1.408,4.107,0.277,4.044-1.781
						C728.978,83.69,728.017,82.749,726.824,82.685"/>
					<path fill="#FFF24D" d="M732.723,82.998c-2.311-0.011-3.215,2.4-1.931,3.776c1.425,1.526,4.082,0.637,4.182-1.398
						C735.035,84.133,734.025,83.066,732.723,82.998"/>
					<path fill="#FFF24D" d="M657.545,83.98c-1.775,0.001-3,3.269-2.021,4.216c0.948,0.918,2.873-1.078,2.859-2.966
						C658.378,84.5,658.057,84.021,657.545,83.98"/>
					<path fill="#FFF24D" d="M661.166,84.26c-1.889-0.003-3.08,3.28-2.005,4.234c1.042,0.926,3.021-1.077,2.942-2.976
						C662.072,84.784,661.713,84.302,661.166,84.26"/>
					<path fill="#FFF24D" d="M665.021,84.547c-1.849-0.005-3.091,3.049-2.095,4.147c0.973,1.07,2.958-0.501,3.126-2.472
						C666.131,85.287,665.707,84.599,665.021,84.547"/>
					<path fill="#FFF24D" d="M669.101,84.842c-1.942-0.007-3.153,3.061-2.073,4.165c1.102,1.126,3.266-0.684,3.217-2.69
						C670.223,85.469,669.774,84.891,669.101,84.842"/>
					<path fill="#FFF24D" d="M673.398,85.144c-2.037-0.01-3.215,3.071-2.05,4.182c1.192,1.136,3.411-0.68,3.298-2.699
						C674.599,85.775,674.109,85.193,673.398,85.144"/>
					<path fill="#FFF24D" d="M677.906,85.451c-2.128-0.012-3.27,3.082-2.021,4.198c1.278,1.143,3.545-0.679,3.368-2.707
						C679.18,86.087,678.65,85.502,677.906,85.451"/>
					<path fill="#FFF24D" d="M682.616,85.764c-2.104-0.013-3.261,2.855-2.118,4.087c1.17,1.263,3.441-0.107,3.572-2.156
						C684.139,86.637,683.527,85.825,682.616,85.764"/>
					<path fill="#FFF24D" d="M687.518,86.082c-2.184-0.015-3.305,2.864-2.086,4.102c1.248,1.27,3.566-0.105,3.647-2.163
						C689.121,86.958,688.464,86.143,687.518,86.082"/>
					<path fill="#FFF24D" d="M692.605,86.403c-2.262-0.016-3.347,2.873-2.051,4.116c1.323,1.271,3.684-0.107,3.713-2.17
						C694.282,87.284,693.584,86.465,692.605,86.403"/>
					<path fill="#FFF24D" d="M697.862,86.728c-2.331-0.017-3.376,2.881-2.009,4.129c1.398,1.276,3.795-0.106,3.771-2.176
						C699.613,87.611,698.871,86.79,697.862,86.728"/>
					<path fill="#FFF24D" d="M703.28,87.054c-2.289-0.017-3.359,2.642-2.108,3.998c1.317,1.428,3.838,0.28,3.967-1.808
						C705.211,88.083,704.394,87.121,703.28,87.054"/>
					<path fill="#FFF24D" d="M708.849,87.381c-2.345-0.016-3.376,2.65-2.062,4.009c1.386,1.432,3.941,0.279,4.021-1.813
						C710.854,88.413,709.992,87.448,708.849,87.381"/>
					<path fill="#FFF24D" d="M714.557,87.709c-2.393-0.015-3.379,2.658-2.004,4.02c1.449,1.438,4.031,0.282,4.062-1.819
						C716.631,88.743,715.727,87.776,714.557,87.709"/>
					<path fill="#FFF24D" d="M720.391,88.037c-2.439-0.015-3.379,2.665-1.945,4.03c1.515,1.443,4.123,0.283,4.104-1.825
						C722.537,89.072,721.59,88.103,720.391,88.037"/>
					<path fill="#FFF24D" d="M726.34,88.362c-2.48-0.013-3.372,2.672-1.882,4.039c1.575,1.445,4.2,0.282,4.13-1.831
						C728.549,89.398,727.562,88.429,726.34,88.362"/>
					<path fill="#FFF24D" d="M732.385,88.686c-2.367-0.01-3.289,2.47-1.973,3.886c1.455,1.564,4.174,0.651,4.277-1.438
						C734.753,89.854,733.719,88.756,732.385,88.686"/>
					<path fill="#FFF24D" d="M738.404,89c-2.337-0.006-3.193,2.479-1.863,3.895c1.471,1.563,4.133,0.643,4.19-1.449
						C740.767,90.165,739.723,89.068,738.404,89"/>
					<path fill="#FFF24D" d="M652.212,89.245c-1.681-0.005-2.806,3.336-1.869,4.309c0.902,0.938,2.702-1.097,2.675-3.024
						C653.007,89.781,652.698,89.289,652.212,89.245"/>
					<path fill="#FFF24D" d="M655.657,89.542c-1.8-0.008-2.901,3.349-1.867,4.328c0.999,0.946,2.864-1.096,2.772-3.035
						C656.526,90.083,656.18,89.587,655.657,89.542"/>
					<path fill="#FFF24D" d="M659.348,89.848c-1.918-0.012-2.99,3.361-1.859,4.348c1.092,0.954,3.018-1.096,2.862-3.046
						C660.29,90.393,659.906,89.894,659.348,89.848"/>
					<path fill="#FFF24D" d="M663.276,90.161c-1.879-0.014-3.019,3.124-1.964,4.257c1.025,1.101,2.98-0.505,3.076-2.526
						C664.434,90.928,663.977,90.216,663.276,90.161"/>
					<path fill="#FFF24D" d="M667.437,90.48c-1.976-0.016-3.091,3.135-1.952,4.275c1.109,1.11,3.125-0.5,3.172-2.535
						C668.678,91.252,668.176,90.537,667.437,90.48"/>
					<path fill="#FFF24D" d="M671.82,90.806c-2.072-0.017-3.162,3.147-1.939,4.292c1.195,1.119,3.271-0.497,3.268-2.543
						C673.146,91.583,672.601,90.863,671.82,90.806"/>
					<path fill="#FFF24D" d="M676.418,91.137c-2.057-0.018-3.172,2.916-2.049,4.18c1.146,1.29,3.355-0.105,3.479-2.195
						C677.91,92.035,677.31,91.2,676.418,91.137"/>
					<path fill="#FFF24D" d="M681.223,91.472c-2.143-0.02-3.233,2.926-2.033,4.196c1.223,1.295,3.492-0.104,3.569-2.203
						C682.799,92.374,682.153,91.536,681.223,91.472"/>
					<path fill="#FFF24D" d="M686.225,91.811c-2.223-0.02-3.287,2.935-2.014,4.21c1.301,1.301,3.623-0.104,3.654-2.21
						C687.881,92.717,687.191,91.875,686.225,91.811"/>
					<path fill="#FFF24D" d="M691.419,92.152c-2.305-0.021-3.341,2.945-1.991,4.225c1.373,1.303,3.742-0.106,3.728-2.217
						C693.147,93.062,692.418,92.217,691.419,92.152"/>
					<path fill="#FFF24D" d="M696.785,92.495c-2.271-0.021-3.342,2.7-2.107,4.09c1.295,1.457,3.797,0.288,3.938-1.839
						C698.693,93.554,697.89,92.565,696.785,92.495"/>
					<path fill="#FFF24D" d="M702.316,92.839c-2.334-0.02-3.377,2.708-2.077,4.103c1.362,1.462,3.91,0.289,4.009-1.846
						C704.303,93.9,703.454,92.909,702.316,92.839"/>
					<path fill="#FFF24D" d="M708.003,93.182c-2.394-0.019-3.404,2.717-2.043,4.114c1.429,1.465,4.015,0.288,4.071-1.852
						C710.062,94.246,709.171,93.252,708.003,93.182"/>
					<path fill="#FFF24D" d="M713.831,93.525c-2.441-0.018-3.416,2.725-1.997,4.125c1.488,1.47,4.106,0.289,4.119-1.859
						C715.959,94.59,715.027,93.594,713.831,93.525"/>
					<path fill="#FFF24D" d="M719.79,93.865c-2.489-0.017-3.427,2.733-1.952,4.135c1.551,1.474,4.2,0.289,4.168-1.866
						C721.988,94.931,721.016,93.935,719.79,93.865"/>
					<path fill="#FFF24D" d="M725.867,94.203c-2.533-0.015-3.432,2.741-1.902,4.144c1.607,1.477,4.279,0.287,4.203-1.872
						C728.125,95.269,727.114,94.271,725.867,94.203"/>
					<path fill="#FFF24D" d="M732.041,94.536c-2.418-0.011-3.356,2.534-2.01,3.987c1.482,1.598,4.254,0.664,4.361-1.47
						C734.459,95.737,733.404,94.608,732.041,94.536"/>
					<path fill="#FFF24D" d="M738.189,94.857c-2.387-0.006-3.268,2.544-1.91,3.996c1.491,1.596,4.209,0.654,4.277-1.481
						C740.599,96.055,739.537,94.927,738.189,94.857"/>
					<path fill="#FFF24D" d="M744.262,95.166c-2.355-0.001-3.178,2.553-1.814,4.003c1.498,1.591,4.156,0.642,4.185-1.494
						C746.649,96.358,745.586,95.232,744.262,95.166"/>
					<path fill="#FFF24D" d="M650.484,94.93c-1.696-0.015-2.688,3.409-1.699,4.413c0.915,0.93,2.551-0.9,2.574-2.88
						C651.37,95.584,651.026,94.982,650.484,94.93"/>
					<path fill="#FFF24D" d="M653.983,95.255c-1.819-0.019-2.791,3.421-1.705,4.432c1.007,0.938,2.714-0.899,2.685-2.89
						C654.951,95.914,654.566,95.308,653.983,95.255"/>
					<path fill="#FFF24D" d="M657.732,95.587c-1.795-0.02-2.842,3.18-1.818,4.34c0.991,1.124,2.836-0.508,2.902-2.568
						C658.849,96.374,658.402,95.646,657.732,95.587"/>
					<path fill="#FFF24D" d="M661.725,95.925c-1.901-0.021-2.936,3.192-1.824,4.358c1.078,1.132,2.994-0.505,3.016-2.577
						C662.927,96.718,662.437,95.985,661.725,95.925"/>
					<path fill="#FFF24D" d="M665.953,96.27c-2-0.023-3.017,3.205-1.823,4.377c1.161,1.141,3.145-0.503,3.12-2.586
						C667.239,97.067,666.705,96.331,665.953,96.27"/>
					<path fill="#FFF24D" d="M670.41,96.62c-2.102-0.025-3.099,3.215-1.82,4.394c1.246,1.149,3.296-0.5,3.225-2.595
						C671.781,97.421,671.203,96.682,670.41,96.62"/>
					<path fill="#FFF24D" d="M675.086,96.974c-2.087-0.025-3.125,2.979-1.947,4.278c1.199,1.322,3.396-0.101,3.457-2.239
						C676.628,97.899,675.992,97.042,675.086,96.974"/>
					<path fill="#FFF24D" d="M679.973,97.332c-2.174-0.026-3.195,2.989-1.942,4.294c1.274,1.328,3.535-0.1,3.557-2.247
						C681.598,98.261,680.919,97.4,679.973,97.332"/>
					<path fill="#FFF24D" d="M685.061,97.691c-2.256-0.026-3.258,3-1.934,4.309c1.35,1.333,3.669-0.1,3.649-2.255
						C686.766,98.624,686.045,97.76,685.061,97.691"/>
					<path fill="#FFF24D" d="M690.346,98.053c-2.34-0.026-3.322,3.009-1.924,4.323c1.421,1.334,3.792-0.104,3.731-2.263
						C692.122,98.988,691.361,98.122,690.346,98.053"/>
					<path fill="#FFF24D" d="M695.805,98.414c-2.305-0.024-3.338,2.76-2.055,4.186c1.34,1.49,3.855,0.297,3.959-1.876
						C697.766,99.502,696.93,98.488,695.805,98.414"/>
					<path fill="#FFF24D" d="M701.435,98.775c-2.37-0.024-3.383,2.768-2.038,4.198c1.404,1.495,3.971,0.297,4.037-1.884
						C703.471,99.865,702.593,98.849,701.435,98.775"/>
					<path fill="#FFF24D" d="M707.223,99.135c-2.432-0.023-3.421,2.777-2.018,4.209c1.468,1.498,4.078,0.296,4.108-1.891
						C709.33,100.226,708.412,99.208,707.223,99.135"/>
					<path fill="#FFF24D" d="M713.154,99.491c-2.48-0.021-3.441,2.786-1.984,4.221c1.525,1.501,4.172,0.295,4.164-1.898
						C715.33,100.583,714.373,99.563,713.154,99.491"/>
					<path fill="#FFF24D" d="M719.221,99.844c-2.531-0.019-3.463,2.794-1.953,4.23c1.584,1.506,4.268,0.294,4.223-1.905
						C721.465,100.937,720.469,99.916,719.221,99.844"/>
					<path fill="#FFF24D" d="M725.407,100.192c-2.575-0.016-3.477,2.803-1.917,4.239c1.638,1.507,4.348,0.292,4.265-1.913
						C727.709,101.284,726.678,100.263,725.407,100.192"/>
					<path fill="#FFF24D" d="M731.693,100.534c-2.46-0.012-3.412,2.591-2.04,4.079c1.504,1.629,4.32,0.675,4.432-1.503
						C734.154,101.764,733.081,100.608,731.693,100.534"/>
					<path fill="#FFF24D" d="M737.953,100.863c-2.429-0.005-3.33,2.603-1.954,4.087c1.509,1.627,4.274,0.664,4.354-1.516
						C740.4,102.087,739.324,100.934,737.953,100.863"/>
					<path fill="#FFF24D" d="M744.135,101.176c-2.396,0-3.249,2.613-1.869,4.095c1.51,1.62,4.219,0.649,4.264-1.529
						C746.557,102.395,745.482,101.243,744.135,101.176"/>
					<path fill="#FFF24D" d="M648.988,100.754c-1.71-0.025-2.561,3.473-1.521,4.507c0.961,0.956,2.529-0.907,2.469-2.932
						C649.909,101.429,649.537,100.811,648.988,100.754"/>
					<path fill="#FFF24D" d="M652.531,101.106c-1.836-0.028-2.672,3.486-1.535,4.527c1.053,0.963,2.696-0.907,2.587-2.942
						C653.534,101.786,653.121,101.164,652.531,101.106"/>
					<path fill="#FFF24D" d="M656.328,101.465c-1.809-0.028-2.738,3.241-1.662,4.432c0.979,1.083,2.691-0.362,2.819-2.379
						C657.557,102.397,657.069,101.534,656.328,101.465"/>
					<path fill="#FFF24D" d="M660.373,101.83c-1.919-0.03-2.841,3.252-1.677,4.45c1.06,1.09,2.848-0.36,2.944-2.387
						C661.693,102.768,661.16,101.9,660.373,101.83"/>
					<path fill="#FFF24D" d="M664.658,102.2c-2.02-0.031-2.932,3.266-1.686,4.469c1.211,1.169,3.154-0.504,3.059-2.632
						C665.986,103.02,665.422,102.265,664.658,102.2"/>
					<path fill="#FFF24D" d="M669.176,102.574c-2.016-0.03-2.979,3.025-1.824,4.351c1.1,1.263,3.102,0.033,3.295-2.025
						C670.764,103.652,670.132,102.652,669.176,102.574"/>
					<path fill="#FFF24D" d="M673.916,102.951c-2.108-0.031-3.065,3.036-1.836,4.368c1.249,1.352,3.425-0.095,3.424-2.277
						C675.504,103.902,674.836,103.023,673.916,102.951"/>
					<path fill="#FFF24D" d="M706.511,105.225c-2.462-0.026-3.425,2.831-1.984,4.295c1.503,1.526,4.129,0.303,4.133-1.925
						C708.661,106.341,707.718,105.3,706.511,105.225"/>
					<path fill="#FFF24D" d="M712.53,105.595c-2.513-0.023-3.456,2.841-1.966,4.306c1.557,1.53,4.224,0.302,4.197-1.933
						C714.746,106.711,713.767,105.669,712.53,105.595"/>
					<path fill="#FFF24D" d="M718.686,105.959c-2.564-0.021-3.488,2.85-1.947,4.315c1.611,1.533,4.32,0.299,4.262-1.941
						C720.968,107.076,719.951,106.033,718.686,105.959"/>
					<path fill="#FFF24D" d="M724.963,106.317c-2.609-0.017-3.512,2.859-1.925,4.324c1.661,1.534,4.401,0.295,4.312-1.95
						C727.301,107.433,726.252,106.39,724.963,106.317"/>
					<path fill="#FFF24D" d="M731.342,106.667c-2.494-0.012-3.457,2.644-2.064,4.16c1.521,1.657,4.374,0.684,4.489-1.532
						C733.838,107.922,732.75,106.743,731.342,106.667"/>
					<path fill="#FFF24D" d="M737.693,107.002c-2.462-0.004-3.383,2.656-1.99,4.169c1.521,1.653,4.326,0.67,4.415-1.546
						C740.174,108.25,739.086,107.074,737.693,107.002"/>
					<path fill="#FFF24D" d="M743.967,107.319c-2.43,0.002-3.309,2.666-1.918,4.177c1.516,1.646,4.268,0.654,4.33-1.561
						C746.418,108.561,745.336,107.387,743.967,107.319"/>
					<path fill="#FFF24D" d="M644.416,106.333c-1.584-0.032-2.293,3.518-1.309,4.572c0.857,0.919,2.213-0.745,2.23-2.74
						C645.348,107.151,644.968,106.397,644.416,106.333"/>
					<path fill="#FFF24D" d="M647.731,106.706c-1.717-0.036-2.421,3.531-1.335,4.592c0.944,0.922,2.38-0.748,2.363-2.75
						C648.752,107.529,648.328,106.771,647.731,106.706"/>
					<path fill="#FFF24D" d="M651.309,107.085c-1.705-0.036-2.51,3.281-1.469,4.496c0.891,1.04,2.39-0.212,2.586-2.161
						C652.553,108.168,652.072,107.165,651.309,107.085"/>
					<path fill="#FFF24D" d="M655.145,107.471c-1.82-0.038-2.626,3.293-1.497,4.514c1.024,1.108,2.688-0.358,2.74-2.413
						C656.416,108.429,655.894,107.545,655.145,107.471"/>
					<path fill="#FFF24D" d="M659.23,107.862c-1.931-0.039-2.736,3.306-1.521,4.533c1.104,1.115,2.849-0.357,2.872-2.422
						C660.594,108.824,660.026,107.937,659.23,107.862"/>
					<path fill="#FFF24D" d="M663.56,108.257c-2.033-0.04-2.835,3.319-1.54,4.551c1.18,1.122,3-0.355,2.996-2.431
						C665.014,109.224,664.401,108.332,663.56,108.257"/>
					<path fill="#FFF24D" d="M718.186,112.197c-2.59-0.021-3.502,2.899-1.936,4.391c1.635,1.557,4.36,0.303,4.289-1.972
						C720.5,113.334,719.466,112.272,718.186,112.197"/>
					<path fill="#FFF24D" d="M724.535,112.564c-2.637-0.018-3.535,2.908-1.927,4.399c1.679,1.557,4.442,0.297,4.347-1.982
						C726.902,113.699,725.839,112.638,724.535,112.564"/>
					<path fill="#FFF24D" d="M730.987,112.921c-2.52-0.012-3.491,2.689-2.083,4.232c1.534,1.681,4.415,0.691,4.533-1.558
						C733.512,114.198,732.412,112.998,730.987,112.921"/>
					<path fill="#FFF24D" d="M737.413,113.261c-2.489-0.004-3.427,2.702-2.022,4.241c1.527,1.676,4.365,0.676,4.464-1.573
						C739.916,114.53,738.82,113.333,737.413,113.261"/>
					<path fill="#FFF24D" d="M743.76,113.581c-2.608,0.003-3.421,2.941-1.791,4.422c1.68,1.526,4.354,0.24,4.207-2.023
						C746.092,114.676,745.053,113.645,743.76,113.581"/>
					<path fill="#FFF24D" d="M749.998,113.879c-2.561,0.012-3.336,2.952-1.723,4.428c1.662,1.521,4.277,0.226,4.117-2.038
						C752.299,114.966,751.271,113.939,749.998,113.879"/>
					<path fill="#FFF24D" d="M643.385,112.377c-1.584-0.043-2.137,3.564-1.107,4.644c0.849,0.889,2.072-0.58,2.113-2.534
						C644.414,113.34,643.991,112.453,643.385,112.377"/>
					<path fill="#FFF24D" d="M646.723,112.778c-1.719-0.047-2.271,3.577-1.14,4.664c0.983,0.944,2.349-0.746,2.248-2.783
						C647.779,113.622,647.324,112.849,646.723,112.778"/>
					<path fill="#FFF24D" d="M650.325,113.186c-1.708-0.045-2.378,3.323-1.288,4.563c0.934,1.062,2.383-0.204,2.502-2.184
						C651.614,114.313,651.081,113.269,650.325,113.186"/>
					<path fill="#FFF24D" d="M654.188,113.598c-1.824-0.047-2.502,3.335-1.324,4.582c1.009,1.067,2.543-0.202,2.647-2.191
						C655.577,114.732,654.996,113.682,654.188,113.598"/>
					<path fill="#FFF24D" d="M658.303,114.014c-1.936-0.048-2.62,3.348-1.357,4.601c1.146,1.137,2.842-0.351,2.79-2.449
						C659.707,114.998,659.104,114.093,658.303,114.014"/>
					<path fill="#FFF24D" d="M724.125,118.922c-2.652-0.019-3.546,2.946-1.922,4.458c1.693,1.577,4.469,0.3,4.368-2.009
						C726.515,120.074,725.439,118.998,724.125,118.922"/>
					<path fill="#FFF24D" d="M730.631,119.286c-2.535-0.013-3.512,2.725-2.094,4.289c1.542,1.701,4.441,0.696,4.562-1.58
						C733.175,120.579,732.067,119.364,730.631,119.286"/>
					<path fill="#FFF24D" d="M737.11,119.629c-2.658-0.004-3.519,2.969-1.873,4.474c1.698,1.553,4.445,0.258,4.323-2.037
						C739.49,120.746,738.438,119.698,737.11,119.629"/>
					<path fill="#FFF24D" d="M743.509,119.951c-2.624,0.005-3.46,2.981-1.829,4.48c1.68,1.543,4.38,0.239,4.249-2.053
						C745.854,121.059,744.813,120.015,743.509,119.951"/>
					<path fill="#FFF24D" d="M749.801,120.25c-2.58,0.014-3.388,2.992-1.777,4.486c1.658,1.537,4.305,0.223,4.166-2.068
						C752.109,121.349,751.082,120.309,749.801,120.25"/>
					<path fill="#FFF24D" d="M642.621,118.521c-1.582-0.055-1.974,3.611-0.898,4.716c0.836,0.859,1.936-0.417,1.992-2.315
						C643.754,119.641,643.283,118.608,642.621,118.521"/>
					<path fill="#FFF24D" d="M645.972,118.949c-1.718-0.058-2.115,3.625-0.938,4.736c0.963,0.91,2.203-0.582,2.14-2.575
						C647.135,119.94,646.631,119.031,645.972,118.949"/>
					<path fill="#FFF24D" d="M649.588,119.383c-1.707-0.055-2.238,3.366-1.098,4.633c0.922,1.024,2.242-0.052,2.395-1.952
						C650.996,120.682,650.414,119.479,649.588,119.383"/>
					<path fill="#FFF24D" d="M653.467,119.821c-1.824-0.057-2.369,3.378-1.144,4.651c1.047,1.087,2.529-0.198,2.559-2.217
						C654.9,120.979,654.279,119.91,653.467,119.821"/>
					<path fill="#FFF24D" d="M730.274,125.735c-2.7-0.013-3.587,2.995-1.922,4.525c1.714,1.575,4.511,0.272,4.401-2.05
						C732.689,126.873,731.624,125.809,730.274,125.735"/>
					<path fill="#FFF24D" d="M736.786,126.082c-2.669-0.003-3.54,3.009-1.893,4.533c1.696,1.568,4.458,0.255,4.346-2.067
						C739.174,127.21,738.12,126.15,736.786,126.082"/>
					<path fill="#FFF24D" d="M743.217,126.404c-2.635,0.006-3.492,3.021-1.863,4.539c1.674,1.559,4.393,0.234,4.278-2.084
						C745.566,127.523,744.528,126.468,743.217,126.404"/>
					<path fill="#FFF24D" d="M749.541,126.702c-2.59,0.017-3.429,3.034-1.826,4.544c1.646,1.552,4.317,0.217,4.203-2.1
						C751.852,127.811,750.83,126.76,749.541,126.702"/>
					<path fill="#FFF24D" d="M642.131,124.756c-1.585-0.066-1.808,3.624-0.682,4.744c0.869,0.863,1.902-0.409,1.877-2.306
						C643.309,125.918,642.783,124.847,642.131,124.756"/>
					<path fill="#FFF24D" d="M645.485,125.211c-1.593-0.064-1.956,3.364-0.847,4.64c0.845,0.971,1.957,0.094,2.125-1.675
						C646.904,126.704,646.307,125.319,645.485,125.211"/>
					<path fill="#FFF24D" d="M649.106,125.671c-1.714-0.065-2.098,3.377-0.901,4.658c0.958,1.026,2.227-0.043,2.302-1.939
						C650.562,126.992,649.934,125.772,649.106,125.671"/>
					<path fill="#FFF24D" d="M652.99,126.134c-1.831-0.066-2.236,3.389-0.955,4.676c1.105,1.112,2.508-0.146,2.459-2.207
						C654.463,127.312,653.803,126.228,652.99,126.134"/>
					<path fill="#FFF24D" d="M657.129,126.6c-1.848-0.063-2.359,3.137-1.143,4.55c1.016,1.18,2.518,0.325,2.723-1.551
						C658.873,128.111,658.133,126.709,657.129,126.6"/>
					<path fill="#FFF24D" d="M723.367,131.887c-2.679-0.021-3.549,2.995-1.893,4.534c1.703,1.582,4.478,0.29,4.367-2.032
						C725.777,133.063,724.691,131.964,723.367,131.887"/>
					<path fill="#FFF24D" d="M729.918,132.259c-2.561-0.012-3.535,2.772-2.097,4.362c1.583,1.75,4.448,0.748,4.577-1.6
						C732.477,133.578,731.363,132.338,729.918,132.259"/>
					<path fill="#FFF24D" d="M736.441,132.607c-2.686-0.001-3.562,3.021-1.904,4.548c1.73,1.595,4.456,0.303,4.352-2.064
						C738.828,133.744,737.777,132.676,736.441,132.607"/>
					<path fill="#FFF24D" d="M742.884,132.93c-2.652,0.009-3.525,3.033-1.891,4.554c1.702,1.584,4.39,0.281,4.292-2.082
						C745.23,134.078,744.176,132.992,742.884,132.93"/>
					<path fill="#FFF24D" d="M749.219,133.225c-2.608,0.02-3.473,3.046-1.868,4.559c1.671,1.576,4.315,0.262,4.224-2.099
						C751.522,134.362,750.488,133.282,749.219,133.225"/>
					<path fill="#FFF24D" d="M641.924,131.013c-1.455-0.074-1.639,3.29-0.572,4.551c0.759,0.897,1.693,0.199,1.853-1.384
						C643.355,132.671,642.733,131.132,641.924,131.013"/>
					<path fill="#FFF24D" d="M645.272,131.494c-1.581-0.077-1.792,3.3-0.636,4.568c0.877,0.963,1.941,0.109,2.033-1.632
						C646.746,132.979,646.093,131.606,645.272,131.494"/>
					<path fill="#FFF24D" d="M648.887,131.978c-1.701-0.077-1.938,3.312-0.697,4.585c0.99,1.018,2.205-0.025,2.201-1.892
						C650.387,133.292,649.713,132.084,648.887,131.978"/>
					<path fill="#FFF24D" d="M652.764,132.465c-1.728-0.074-2.082,3.064-0.893,4.459c1.014,1.187,2.359,0.373,2.484-1.502
						C654.451,133.961,653.708,132.579,652.764,132.465"/>
					<path fill="#FFF24D" d="M656.896,132.953c-1.836-0.074-2.223,3.076-0.962,4.475c1.053,1.167,2.511,0.335,2.645-1.508
						C658.686,134.454,657.899,133.067,656.896,132.953"/>
					<path fill="#FFF24D" d="M661.274,133.441c-1.937-0.072-2.353,3.088-1.026,4.49c1.193,1.263,2.795,0.253,2.809-1.772
						C663.066,134.768,662.267,133.548,661.274,133.441"/>
					<path fill="#FFF24D" d="M716.592,138.012c-2.471-0.029-3.387,2.697-1.986,4.267c1.511,1.692,4.324,0.717,4.428-1.536
						C719.098,139.326,718.003,138.101,716.592,138.012"/>
					<path fill="#FFF24D" d="M723.026,138.405c-2.517-0.022-3.46,2.708-2.039,4.274c1.532,1.689,4.403,0.705,4.517-1.548
						C725.576,139.713,724.464,138.49,723.026,138.405"/>
					<path fill="#FFF24D" d="M729.566,138.78c-2.555-0.015-3.521,2.718-2.082,4.281c1.576,1.714,4.432,0.735,4.559-1.564
						C732.121,140.079,731.01,138.86,729.566,138.78"/>
					<path fill="#FFF24D" d="M736.079,139.129c-2.524-0.003-3.493,2.734-2.08,4.289c1.55,1.707,4.376,0.715,4.514-1.584
						C738.598,140.417,737.506,139.203,736.079,139.129"/>
					<path fill="#FFF24D" d="M742.512,139.45c-2.646,0.008-3.531,2.976-1.907,4.469c1.688,1.552,4.374,0.274,4.29-2.04
						C744.848,140.579,743.801,139.512,742.512,139.45"/>
					<path fill="#FFF24D" d="M748.837,139.742c-2.603,0.02-3.487,2.99-1.899,4.475c1.65,1.542,4.299,0.253,4.229-2.058
						C751.128,140.859,750.104,139.798,748.837,139.742"/>
					<path fill="#FFF24D" d="M645.336,137.684c-1.566-0.089-1.627,3.229-0.43,4.485c0.907,0.953,1.921,0.123,1.938-1.586
						C646.856,139.156,646.152,137.802,645.336,137.684"/>
					<path fill="#FFF24D" d="M648.934,138.19c-1.602-0.085-1.791,2.986-0.627,4.361c0.92,1.087,2.08,0.453,2.217-1.212
						C650.645,139.848,649.873,138.317,648.934,138.19"/>
					<path fill="#FFF24D" d="M652.792,138.699c-1.712-0.085-1.938,2.996-0.704,4.376c1.047,1.171,2.346,0.381,2.396-1.458
						C654.522,140.182,653.732,138.818,652.792,138.699"/>
					<path fill="#FFF24D" d="M656.904,139.208c-1.82-0.084-2.084,3.006-0.782,4.39c1.105,1.175,2.493,0.381,2.56-1.463
						C658.734,140.694,657.903,139.327,656.904,139.208"/>
					<path fill="#FFF24D" d="M661.263,139.715c-1.92-0.083-2.22,3.018-0.856,4.403c1.225,1.244,2.773,0.262,2.718-1.722
						C663.086,141.029,662.25,139.826,661.263,139.715"/>
					<path fill="#FFF24D" d="M665.858,140.221c-1.931-0.077-2.369,2.764-1.081,4.259c1.193,1.383,2.916,0.631,3.023-1.319
						C667.88,141.712,666.973,140.339,665.858,140.221"/>
					<path fill="#FFF24D" d="M670.684,140.722c-2.023-0.075-2.504,2.773-1.162,4.271c1.24,1.386,3.053,0.629,3.178-1.327
						C672.793,142.215,671.852,140.839,670.684,140.722"/>
					<path fill="#FFF24D" d="M703.896,143.562c-2.351-0.047-3.165,2.613-1.799,4.159c1.503,1.7,4.111,0.78,4.167-1.469
						C706.299,144.866,705.236,143.659,703.896,143.562"/>
					<path fill="#FFF24D" d="M710.035,143.993c-2.402-0.04-3.253,2.625-1.867,4.168c1.525,1.698,4.203,0.771,4.275-1.482
						C712.487,145.291,711.407,144.086,710.035,143.993"/>
					<path fill="#FFF24D" d="M716.313,144.408c-2.454-0.033-3.343,2.635-1.938,4.175c1.549,1.698,4.294,0.762,4.384-1.495
						C718.816,145.699,717.719,144.497,716.313,144.408"/>
					<path fill="#FFF24D" d="M722.717,144.804c-2.502-0.026-3.426,2.646-2.004,4.183c1.527,1.652,4.373,0.693,4.479-1.509
						C725.258,146.089,724.147,144.89,722.717,144.804"/>
					<path fill="#FFF24D" d="M729.225,145.18c-2.539-0.018-3.493,2.657-2.061,4.189c1.566,1.675,4.4,0.72,4.525-1.525
						C731.768,146.455,730.662,145.26,729.225,145.18"/>
					<path fill="#FFF24D" d="M735.706,145.529c-2.509-0.005-3.476,2.673-2.073,4.197c1.535,1.667,4.345,0.699,4.488-1.546
						C738.209,146.791,737.126,145.602,735.706,145.529"/>
					<path fill="#FFF24D" d="M742.107,145.847c-2.63,0.007-3.523,2.911-1.916,4.374c1.666,1.515,4.342,0.266,4.273-1.994
						C744.427,146.954,743.392,145.909,742.107,145.847"/>
					<path fill="#FFF24D" d="M645.666,143.768c-1.471-0.096-1.486,2.904-0.352,4.258c0.854,1.016,1.82,0.551,1.952-0.94
						C647.4,145.583,646.592,143.908,645.666,143.768"/>
					<path fill="#FFF24D" d="M649.237,144.294c-1.583-0.096-1.641,2.914-0.435,4.271c0.95,1.07,2.066,0.459,2.133-1.167
						C650.996,145.935,650.17,144.426,649.237,144.294"/>
					<path fill="#FFF24D" d="M653.067,144.822c-1.693-0.096-1.793,2.923-0.52,4.284c1.003,1.073,2.207,0.459,2.299-1.171
						C654.93,146.467,654.064,144.954,653.067,144.822"/>
					<path fill="#FFF24D" d="M657.148,145.35c-1.721-0.091-1.967,2.674-0.744,4.142c1.064,1.278,2.475,0.724,2.601-1.022
						C659.111,146.997,658.209,145.481,657.148,145.35"/>
					<path fill="#FFF24D" d="M661.473,145.875c-1.814-0.088-2.105,2.684-0.832,4.154c1.111,1.281,2.607,0.724,2.762-1.028
						C663.531,147.524,662.594,146.006,661.473,145.875"/>
					<path fill="#FFF24D" d="M666.034,146.396c-1.911-0.086-2.249,2.693-0.925,4.165c1.221,1.355,2.896,0.631,2.939-1.271
						C668.082,147.87,667.14,146.518,666.034,146.396"/>
					<path fill="#FFF24D" d="M670.822,146.912c-2.004-0.083-2.389,2.703-1.016,4.176c1.265,1.357,3.031,0.628,3.098-1.279
						C672.953,148.386,671.98,147.033,670.822,146.912"/>
					<path fill="#FFF24D" d="M675.828,147.422c-2.092-0.08-2.525,2.713-1.107,4.187c1.307,1.358,3.16,0.625,3.25-1.287
						C678.039,148.896,677.037,147.541,675.828,147.422"/>
					<path fill="#FFF24D" d="M681.042,147.923c-2.177-0.077-2.657,2.722-1.198,4.196c1.427,1.44,3.461,0.516,3.402-1.544
						C683.207,149.223,682.218,148.033,681.042,147.923"/>
					<path fill="#FFF24D" d="M686.459,148.416c-2.261-0.072-2.791,2.732-1.291,4.206c1.463,1.437,3.582,0.507,3.543-1.555
						C688.686,149.712,687.675,148.522,686.459,148.416"/>
					<path fill="#FFF24D" d="M692.059,148.896c-2.203-0.063-2.874,2.525-1.543,4.044c1.367,1.559,3.66,0.874,3.834-1.147
						C694.473,150.361,693.402,149.007,692.059,148.896"/>
					<path fill="#FFF24D" d="M697.833,149.363c-2.269-0.058-2.988,2.536-1.632,4.053c1.393,1.558,3.763,0.865,3.963-1.158
						C700.307,150.824,699.217,149.471,697.833,149.363"/>
					<path fill="#FFF24D" d="M703.771,149.815c-2.331-0.052-3.098,2.546-1.721,4.061c1.508,1.657,4.076,0.769,4.102-1.419
						C706.168,151.098,705.1,149.913,703.771,149.815"/>
					<path fill="#FFF24D" d="M709.86,150.251c-2.382-0.045-3.193,2.558-1.801,4.069c1.525,1.655,4.163,0.758,4.214-1.433
						C712.304,151.527,711.222,150.345,709.86,150.251"/>
					<path fill="#FFF24D" d="M716.088,150.668c-2.434-0.036-3.29,2.569-1.884,4.076c1.544,1.654,4.253,0.748,4.327-1.447
						C718.578,151.938,717.481,150.759,716.088,150.668"/>
					<path fill="#FFF24D" d="M722.439,151.067c-2.48-0.029-3.381,2.58-1.964,4.083c1.556,1.649,4.328,0.734,4.427-1.462
						C724.965,152.328,723.859,151.152,722.439,151.067"/>
					<path fill="#FFF24D" d="M728.895,151.443c-2.518-0.021-3.458,2.591-2.033,4.088c1.551,1.631,4.355,0.705,4.479-1.479
						C731.418,152.694,730.32,151.523,728.895,151.443"/>
					<path fill="#FFF24D" d="M735.324,151.79c-2.49-0.007-3.451,2.607-2.061,4.096c1.515,1.622,4.299,0.682,4.447-1.5
						C737.804,153.027,736.733,151.863,735.324,151.79"/>
					<path fill="#FFF24D" d="M741.676,152.105c-2.461,0.004-3.443,2.621-2.088,4.103c1.474,1.609,4.23,0.656,4.404-1.522
						C744.1,153.329,743.061,152.171,741.676,152.105"/>
					<path fill="#FFF24D" d="M646.258,149.734c-1.449-0.106-1.332,2.828-0.156,4.161c0.881,0.999,1.809,0.552,1.873-0.902
						C648.041,151.523,647.174,149.879,646.258,149.734"/>
					<path fill="#FFF24D" d="M649.793,150.279c-1.561-0.106-1.488,2.836-0.246,4.172c0.931,1.001,1.94,0.553,2.038-0.905
						C651.684,152.073,650.779,150.424,649.793,150.279"/>
					<path fill="#FFF24D" d="M653.583,150.823c-1.595-0.1-1.68,2.593-0.474,4.032c0.977,1.166,2.199,0.77,2.336-0.758
						C655.578,152.621,654.638,150.969,653.583,150.823"/>
					<path fill="#FFF24D" d="M657.621,151.366c-1.695-0.099-1.831,2.601-0.572,4.042c1.094,1.253,2.458,0.721,2.517-0.982
						C659.615,152.989,658.67,151.502,657.621,151.366"/>
					<path fill="#FFF24D" d="M661.9,151.906c-1.79-0.097-1.976,2.61-0.668,4.053c1.137,1.255,2.588,0.719,2.678-0.988
						C663.986,153.53,663.01,152.041,661.9,151.906"/>
					<path fill="#FFF24D" d="M666.412,152.441c-1.884-0.094-2.123,2.619-0.768,4.063c1.18,1.257,2.721,0.719,2.842-0.994
						C668.59,154.066,667.582,152.575,666.412,152.441"/>
					<path fill="#FFF24D" d="M671.148,152.971c-1.975-0.091-2.267,2.628-0.869,4.072c1.286,1.328,3.002,0.625,3.01-1.233
						C673.295,154.42,672.295,153.094,671.148,152.971"/>
					<path fill="#FFF24D" d="M676.101,153.492c-2.062-0.087-2.408,2.637-0.97,4.081c1.324,1.329,3.127,0.621,3.164-1.241
						C678.322,154.94,677.297,153.613,676.101,153.492"/>
					<path fill="#FFF24D" d="M681.258,154.003c-2.024-0.079-2.521,2.435-1.228,3.923c1.325,1.525,3.401,0.876,3.47-1.083
						C683.549,155.449,682.502,154.123,681.258,154.003"/>
					<path fill="#FFF24D" d="M686.615,154.504c-2.102-0.074-2.656,2.445-1.335,3.931c1.353,1.522,3.515,0.868,3.615-1.094
						C688.967,155.946,687.901,154.621,686.615,154.504"/>
					<path fill="#FFF24D" d="M692.152,154.992c-2.173-0.068-2.781,2.454-1.438,3.939c1.377,1.52,3.623,0.859,3.755-1.105
						C694.564,156.43,693.48,155.105,692.152,154.992"/>
					<path fill="#FFF24D" d="M697.863,155.466c-2.239-0.062-2.902,2.464-1.539,3.947c1.398,1.518,3.723,0.85,3.888-1.118
						C700.329,156.897,699.231,155.575,697.863,155.466"/>
					<path fill="#FFF24D" d="M703.735,155.923c-2.3-0.055-3.019,2.475-1.638,3.954c1.507,1.614,4.027,0.754,4.023-1.373
						C706.12,157.18,705.049,156.021,703.735,155.923"/>
					<path fill="#FFF24D" d="M709.756,156.362c-2.352-0.049-3.121,2.485-1.729,3.961c1.521,1.612,4.112,0.743,4.14-1.387
						C712.184,157.612,711.103,156.457,709.756,156.362"/>
					<path fill="#FFF24D" d="M715.914,156.782c-2.403-0.04-3.227,2.497-1.825,3.968c1.533,1.609,4.2,0.731,4.259-1.401
						C718.383,158.023,717.292,156.872,715.914,156.782"/>
					<path fill="#FFF24D" d="M722.194,157.18c-2.449-0.032-3.325,2.508-1.917,3.974c1.539,1.604,4.271,0.717,4.361-1.417
						C724.695,158.413,723.598,157.266,722.194,157.18"/>
					<path fill="#FFF24D" d="M728.578,157.556c-2.486-0.021-3.411,2.52-2.002,3.979c1.531,1.585,4.299,0.687,4.42-1.435
						C731.072,158.776,729.987,157.635,728.578,157.556"/>
					<path fill="#FFF24D" d="M734.936,157.9c-2.459-0.009-3.413,2.536-2.041,3.986c1.488,1.575,4.24,0.663,4.393-1.457
						C737.383,159.106,736.328,157.972,734.936,157.9"/>
					<path fill="#FFF24D" d="M741.215,158.21c-2.432,0.004-3.414,2.55-2.081,3.993c1.444,1.562,4.172,0.637,4.356-1.479
						C743.604,159.403,742.584,158.275,741.215,158.21"/>
					<path fill="#FFF24D" d="M650.592,156.131c-1.465-0.11-1.383,2.509-0.194,3.918c0.917,1.087,1.946,0.832,2.077-0.517
						C652.615,158.1,651.611,156.288,650.592,156.131"/>
					<path fill="#FFF24D" d="M654.332,156.69c-1.568-0.11-1.539,2.515-0.298,3.927c1.022,1.163,2.183,0.792,2.257-0.722
						C656.36,158.456,655.372,156.839,654.332,156.69"/>
					<path fill="#FFF24D" d="M658.316,157.247c-1.667-0.107-1.694,2.523-0.402,3.936c1.043,1.142,2.311,0.762,2.42-0.727
						C660.439,159.014,659.422,157.395,658.316,157.247"/>
					<path fill="#FFF24D" d="M662.538,157.799c-1.76-0.105-1.843,2.531-0.507,3.944c1.158,1.226,2.562,0.712,2.589-0.947
						C664.644,159.393,663.631,157.936,662.538,157.799"/>
					<path fill="#FFF24D" d="M666.988,158.345c-1.747-0.096-1.985,2.335-0.762,3.789c1.121,1.333,2.685,1.021,2.884-0.574
						C669.291,160.113,668.221,158.49,666.988,158.345"/>
					<path fill="#FFF24D" d="M671.66,158.884c-1.832-0.092-2.131,2.343-0.875,3.797c1.212,1.404,2.957,0.95,3.061-0.797
						C673.93,160.477,672.867,159.019,671.66,158.884"/>
					<path fill="#FFF24D" d="M676.543,159.415c-1.913-0.088-2.271,2.352-0.988,3.805c1.24,1.403,3.074,0.944,3.217-0.805
						C678.886,161.004,677.803,159.546,676.543,159.415"/>
					<path fill="#FFF24D" d="M681.628,159.935c-1.991-0.084-2.411,2.359-1.101,3.812c1.338,1.485,3.359,0.862,3.377-1.041
						C683.918,161.35,682.854,160.055,681.628,159.935"/>
					<path fill="#FFF24D" d="M686.91,160.442c-2.068-0.08-2.553,2.368-1.218,3.819c1.361,1.481,3.47,0.852,3.524-1.051
						C689.256,161.854,688.178,160.56,686.91,160.442"/>
					<path fill="#FFF24D" d="M692.369,160.936c-2.139-0.074-2.684,2.377-1.33,3.826c1.381,1.478,3.574,0.842,3.666-1.062
						C694.77,162.341,693.679,161.05,692.369,160.936"/>
					<path fill="#FFF24D" d="M697.998,161.413c-2.202-0.066-2.81,2.388-1.441,3.833c1.398,1.476,3.671,0.833,3.801-1.075
						C700.449,162.812,699.348,161.524,697.998,161.413"/>
					<path fill="#FFF24D" d="M703.787,161.874c-2.264-0.06-2.933,2.397-1.552,3.839c1.502,1.568,3.966,0.739,3.936-1.324
						C706.152,163.101,705.082,161.973,703.787,161.874"/>
					<path fill="#FFF24D" d="M709.722,162.314c-2.314-0.052-3.042,2.408-1.655,3.845c1.51,1.564,4.049,0.726,4.055-1.338
						C712.125,163.534,711.049,162.409,709.722,162.314"/>
					<path fill="#FFF24D" d="M715.791,162.734c-2.366-0.044-3.154,2.419-1.762,3.851c1.518,1.561,4.133,0.714,4.176-1.353
						C718.232,163.945,717.149,162.825,715.791,162.734"/>
					<path fill="#FFF24D" d="M721.981,163.132c-2.411-0.034-3.26,2.431-1.866,3.856c1.52,1.556,4.202,0.699,4.283-1.369
						C724.449,164.333,723.365,163.217,721.981,163.132"/>
					<path fill="#FFF24D" d="M728.273,163.504c-2.449-0.024-3.354,2.443-1.963,3.861c1.506,1.536,4.227,0.667,4.346-1.387
						C730.731,164.693,729.662,163.583,728.273,163.504"/>
					<path fill="#FFF24D" d="M734.539,163.845c-2.422-0.01-3.365,2.458-2.016,3.868c1.523,1.592,4.398,0.498,4.332-1.648
						C736.818,164.866,735.822,163.911,734.539,163.845"/>
					<path fill="#FFF24D" d="M655.307,162.411c-1.449-0.11-1.41,2.237-0.262,3.656c0.998,1.232,2.181,1.062,2.3-0.331
						C657.467,164.313,656.4,162.573,655.307,162.411"/>
					<path fill="#FFF24D" d="M659.227,162.978c-1.541-0.108-1.564,2.243-0.378,3.662c1.031,1.234,2.296,1.062,2.462-0.334
						C661.479,164.88,660.389,163.139,659.227,162.978"/>
					<path fill="#FFF24D" d="M663.379,163.54c-1.627-0.106-1.711,2.25-0.492,3.669c1.111,1.295,2.54,1.004,2.635-0.537
						C665.609,165.27,664.527,163.688,663.379,163.54"/>
					<path fill="#FFF24D" d="M667.756,164.095c-1.713-0.102-1.861,2.257-0.611,3.676c1.141,1.296,2.658,1.002,2.798-0.543
						C670.07,165.823,668.967,164.242,667.756,164.095"/>
					<path fill="#FFF24D" d="M672.349,164.642c-1.796-0.098-2.008,2.265-0.731,3.683c1.229,1.364,2.92,0.931,2.967-0.759
						C674.622,166.198,673.535,164.777,672.349,164.642"/>
					<path fill="#FFF24D" d="M677.149,165.179c-1.876-0.094-2.153,2.272-0.853,3.688c1.252,1.363,3.032,0.926,3.121-0.768
						C679.49,166.731,678.388,165.312,677.149,165.179"/>
					<path fill="#FFF24D" d="M682.147,165.704c-1.952-0.089-2.296,2.28-0.974,3.694c1.273,1.361,3.139,0.918,3.271-0.777
						C684.551,167.252,683.436,165.834,682.147,165.704"/>
					<path fill="#FFF24D" d="M687.34,166.216c-2.029-0.084-2.442,2.288-1.1,3.7c1.365,1.437,3.414,0.834,3.424-1.007
						C689.672,167.593,688.585,166.335,687.34,166.216"/>
					<path fill="#FFF24D" d="M692.704,166.713c-2.097-0.078-2.579,2.297-1.222,3.706c1.382,1.433,3.516,0.824,3.567-1.019
						C695.087,168.083,693.991,166.828,692.704,166.713"/>
					<path fill="#FFF24D" d="M698.236,167.193c-2.161-0.071-2.711,2.306-1.342,3.711c1.393,1.43,3.607,0.813,3.702-1.031
						C700.664,168.556,699.562,167.304,698.236,167.193"/>
					<path fill="#FFF24D" d="M703.924,167.654c-2.221-0.063-2.838,2.316-1.463,3.716c1.492,1.518,3.895,0.721,3.837-1.272
						C706.262,168.85,705.197,167.753,703.924,167.654"/>
					<path fill="#FFF24D" d="M709.756,168.095c-2.271-0.055-2.955,2.327-1.578,3.722c1.496,1.514,3.975,0.708,3.959-1.287
						C712.127,169.282,711.059,168.189,709.756,168.095"/>
					<path fill="#FFF24D" d="M715.719,168.514c-2.321-0.046-3.073,2.337-1.695,3.727c1.498,1.509,4.055,0.694,4.084-1.303
						C718.125,169.691,717.053,168.604,715.719,168.514"/>
					<path fill="#FFF24D" d="M721.801,168.908c-2.367-0.037-3.186,2.349-1.811,3.731c1.494,1.503,4.121,0.678,4.193-1.319
						C724.229,170.075,723.16,168.993,721.801,168.908"/>
					<path fill="#FFF24D" d="M727.981,169.277c-2.403-0.026-3.286,2.361-1.919,3.736c1.541,1.548,4.369,0.507,4.262-1.568
						C730.266,170.282,729.258,169.35,727.981,169.277"/>
					<path fill="#FFF24D" d="M660.346,168.555c-1.505-0.114-1.431,2.161-0.217,3.541c1.053,1.198,2.276,1.039,2.381-0.309
						C662.615,170.408,661.484,168.717,660.346,168.555"/>
					<path fill="#FFF24D" d="M664.418,169.123c-1.59-0.11-1.58,2.167-0.338,3.546c1.131,1.256,2.51,0.982,2.545-0.505
						C666.656,170.808,665.543,169.273,664.418,169.123"/>
					<path fill="#FFF24D" d="M668.709,169.684c-1.674-0.107-1.732,2.173-0.463,3.551c1.156,1.256,2.623,0.979,2.705-0.511
						C671.025,171.366,669.895,169.833,668.709,169.684"/>
					<path fill="#FFF24D" d="M673.211,170.236c-1.754-0.103-1.882,2.18-0.59,3.556c1.24,1.322,2.875,0.911,2.865-0.721
						C675.479,171.75,674.373,170.373,673.211,170.236"/>
					<path fill="#FFF24D" d="M677.915,170.777c-1.833-0.099-2.03,2.186-0.718,3.56c1.262,1.32,2.982,0.904,3.02-0.729
						C680.246,172.287,679.128,170.911,677.915,170.777"/>
					<path fill="#FFF24D" d="M682.812,171.305c-1.906-0.094-2.176,2.194-0.847,3.565c1.278,1.317,3.084,0.896,3.168-0.739
						C685.201,172.809,684.074,171.436,682.812,171.305"/>
					<path fill="#FFF24D" d="M687.899,171.82c-1.981-0.088-2.326,2.201-0.981,3.569c1.366,1.388,3.35,0.813,3.316-0.961
						C690.211,173.157,689.119,171.938,687.899,171.82"/>
					<path fill="#FFF24D" d="M693.154,172.317c-2.048-0.082-2.467,2.209-1.11,3.573c1.376,1.385,3.445,0.803,3.458-0.973
						C695.512,173.647,694.415,172.433,693.154,172.317"/>
					<path fill="#FFF24D" d="M698.574,172.797c-2.111-0.074-2.604,2.219-1.242,3.578c1.384,1.38,3.534,0.791,3.596-0.986
						C700.971,174.119,699.871,172.908,698.574,172.797"/>
					<path fill="#FFF24D" d="M704.145,173.258c-2.17-0.067-2.737,2.227-1.371,3.582c1.477,1.465,3.811,0.701,3.727-1.22
						C706.447,174.417,705.391,173.357,704.145,173.258"/>
					<path fill="#FFF24D" d="M709.855,173.697c-2.219-0.058-2.858,2.238-1.496,3.586c1.477,1.46,3.888,0.687,3.852-1.234
						C712.188,174.846,711.132,173.791,709.855,173.697"/>
					<path fill="#FFF24D" d="M715.695,174.112c-2.268-0.048-2.982,2.249-1.624,3.59c1.474,1.456,3.966,0.673,3.979-1.25
						C718.059,175.251,717.002,174.202,715.695,174.112"/>
					<path fill="#FFF24D" d="M721.65,174.503c-2.312-0.039-3.101,2.259-1.75,3.594c1.467,1.448,4.029,0.655,4.093-1.266
						C724.033,175.631,722.982,174.587,721.65,174.503"/>
					<path fill="#FFF24D" d="M665.645,174.528c-1.509-0.113-1.482,1.878-0.326,3.263c1.087,1.301,2.488,1.23,2.587-0.129
						C668.001,176.33,666.818,174.689,665.645,174.528"/>
					<path fill="#FFF24D" d="M669.839,175.092c-1.589-0.109-1.632,1.884-0.46,3.266c1.102,1.3,2.588,1.227,2.74-0.135
						C672.269,176.89,671.075,175.251,669.839,175.092"/>
					<path fill="#FFF24D" d="M674.238,175.646c-1.667-0.105-1.779,1.889-0.596,3.27c1.196,1.395,2.824,1.21,2.904-0.328
						C676.613,177.277,675.449,175.792,674.238,175.646"/>
					<path fill="#FFF24D" d="M678.834,176.188c-1.74-0.1-1.925,1.896-0.732,3.273c1.206,1.392,2.916,1.204,3.051-0.336
						C681.268,177.813,680.098,176.332,678.834,176.188"/>
					<path fill="#FFF24D" d="M683.617,176.717c-1.811-0.095-2.068,1.902-0.869,3.276c1.281,1.468,3.169,1.149,3.207-0.542
						C685.983,178.177,684.848,176.848,683.617,176.717"/>
					<path fill="#FFF24D" d="M688.585,177.231c-1.882-0.089-2.215,1.908-1.012,3.279c1.284,1.464,3.255,1.138,3.349-0.553
						C690.992,178.683,689.856,177.358,688.585,177.231"/>
					<path fill="#FFF24D" d="M693.717,177.729c-1.945-0.083-2.354,1.916-1.15,3.283c1.283,1.459,3.336,1.126,3.484-0.565
						C696.164,179.171,695.029,177.851,693.717,177.729"/>
					<path fill="#FFF24D" d="M699.007,178.206c-2.005-0.075-2.487,1.925-1.29,3.287c1.329,1.51,3.602,1.02,3.631-0.783
						C701.366,179.486,700.273,178.316,699.007,178.206"/>
					<path fill="#FFF24D" d="M704.445,178.664c-2.061-0.067-2.619,1.934-1.428,3.291c1.32,1.505,3.675,1.005,3.76-0.797
						C706.834,179.934,705.745,178.769,704.445,178.664"/>
					<path fill="#FFF24D" d="M710.02,179.099c-2.107-0.059-2.739,1.944-1.561,3.294c1.309,1.499,3.736,0.989,3.879-0.813
						C712.434,180.358,711.351,179.198,710.02,179.099"/>
					<path fill="#FFF24D" d="M715.72,179.51c-2.211-0.051-2.886,2.161-1.549,3.455c1.445,1.4,3.864,0.649,3.862-1.199
						C718.033,180.61,716.995,179.598,715.72,179.51"/>
					<path fill="#FFF24D" d="M679.899,181.408c-1.69-0.104-1.802,1.813-0.598,3.142c1.212,1.338,2.86,1.164,2.94-0.311
						C682.311,182.979,681.129,181.55,679.899,181.408"/>
					<path fill="#FFF24D" d="M684.557,181.935c-1.76-0.098-1.947,1.819-0.742,3.145c1.214,1.334,2.941,1.154,3.08-0.321
						C687.014,183.498,685.834,182.073,684.557,181.935"/>
					<path fill="#FFF24D" d="M689.391,182.446c-1.827-0.092-2.095,1.826-0.891,3.146c1.281,1.404,3.182,1.098,3.229-0.52
						C691.764,183.848,690.628,182.572,689.391,182.446"/>
					<path fill="#FFF24D" d="M694.385,182.939c-1.89-0.085-2.236,1.833-1.036,3.148c1.276,1.399,3.257,1.086,3.363-0.532
						C696.793,184.332,695.662,183.061,694.385,182.939"/>
					<path fill="#FFF24D" d="M699.533,183.413c-1.948-0.078-2.375,1.841-1.184,3.151c1.315,1.446,3.509,0.982,3.503-0.742
						C701.848,184.648,700.764,183.522,699.533,183.413"/>
				</g>
			</g>
		</g>
	</g>
	<path fill="none" stroke="#2D323A" stroke-width="2" stroke-miterlimit="10" d="M783,118.667c-7.667,6.833-34.25,5.917-50-16.333
		S724.021,50.696,738,46s37.87,18.81,45,32C790.131,91.191,790.667,111.833,783,118.667z"/>
	<g display="inline">
		<g enable-background="new    ">
			<g enable-background="new    ">
				<g>
					<path fill="#FFEF59" d="M765.633,68.248c-0.546,10.082,1.353,25.666,13.496,42.663c9.239-9.74,12.062-12.853,18.583-21.078
						c-2.348-3.451-3.784-7.25-4.154-10.987C784.19,74.938,779.916,73.154,765.633,68.248"/>
					<path fill="#8BBC11" d="M800.13,92.788c-5.887,7.393-8.323,10.453-18.57,21.267c10.885,12.766,21.678,18.376,32.995,17.15
						c-0.099-1.749-0.229-3.506-0.392-5.272c-0.161-1.766-0.355-3.54-0.582-5.32c-0.226-1.781-0.484-3.568-0.776-5.36
						c-0.291-1.792-0.615-3.59-0.973-5.391c-0.213-1.072-0.437-2.139-0.67-3.2c-0.234-1.061-0.478-2.116-0.731-3.165
						s-0.518-2.091-0.791-3.127s-0.558-2.066-0.851-3.089C806.934,97.205,804.018,96.657,800.13,92.788"/>
					<path fill="#FF811A" d="M780.674,44.736c-5.583,1.367-12.304,4.931-14.747,20.493c12.841,4.417,16.933,5.908,27.664,10.419
						c0.483-3.3,1.745-5.211,4.092-6.195c-1.229-2.332-2.511-4.602-3.843-6.806c-1.329-2.201-2.709-4.336-4.133-6.402
						c-1.422-2.062-2.89-4.056-4.398-5.977C783.804,48.351,782.257,46.506,780.674,44.736"/>
					<path fill="#850ABF" d="M814.337,60.688c-0.212,5.409-0.291,7.434-3.636,15.26c2.497,3.352,4.031,6.961,4.561,10.727
						c7.658,5.029,10.827,7.11,17.188,13.809C831.2,86.038,824.938,72.277,814.337,60.688"/>
					<path fill="#C62A9A" d="M782.627,44.47c1.618,1.762,3.197,3.599,4.734,5.507c1.54,1.913,3.037,3.897,4.486,5.952
						c1.453,2.058,2.857,4.184,4.212,6.376c1.355,2.196,2.66,4.457,3.909,6.78c2.819,0.152,5.379,1.424,8.301,4.125
						c2.591-6.276,3.561-8.625,3.639-14.998C801.576,48.61,791.999,44.115,782.627,44.47"/>
					<path fill="#149ADD" d="M815.359,90.005c-0.498,4.621-2.603,6.104-4.141,6.818c0.295,1.021,0.58,2.048,0.854,3.081
						c0.275,1.034,0.54,2.073,0.795,3.12c0.254,1.046,0.498,2.099,0.732,3.157c0.233,1.059,0.457,2.123,0.669,3.193
						c0.357,1.797,0.68,3.59,0.969,5.379c0.289,1.789,0.544,3.572,0.766,5.35c0.223,1.777,0.411,3.548,0.567,5.312
						c0.156,1.763,0.279,3.518,0.371,5.265c10.228-3.504,15.345-12.261,15.646-26.769C827.179,98.386,825.155,96.319,815.359,90.005
						"/>
				</g>
			</g>
		</g>
	</g>
	<path display="inline" fill="#850ABF" d="M641.014,69.643c-1.762,2.467-3.43,5.009-4.989,7.627
		c-3.303,8.167-3.525,11.439-4.063,19.646c4.296-6.66,9.089-13.917,10.951-16.729c7.602-11.48,11.642-17.281,13.162-19.465
		C647.146,63.601,644.995,64.299,641.014,69.643z"/>
	<path display="inline" fill="#C62A9A" d="M645.426,63.867c1.66-1.2,4.558-3.133,8.124-4.327c1.317-0.441,3.361-0.539,4.392-1.47
		c0.263-0.237,0.479-0.672,0.684-0.961c1.988-2.795,4.28-5.904,6.132-8.314c0.934-1.216,1.011-1.316,6.077-7.59
		C661.209,47.403,652.647,55.05,645.426,63.867z"/>
	<path display="inline" fill="#149ADD" d="M623.68,107.204c-0.324,1.428-0.695,3.1-1.146,5.122
		c0.161-0.632,2.792-4.991,7.218-11.959c0.174-0.274,0.406-0.639,0.581-0.912c0.462-9.454,1.456-12.829,3.7-18.687
		C629.542,88.974,626.038,97.834,623.68,107.204z"/>
	<path display="inline" d="M797.615,63.316c-4.119-0.654-6.543,1.992-7.787,5.42c-2.264,6.237-1.342,16.579,5.819,25.626
		c7.059,9.621,18.552,11.679,23.542,8.386c2.72-1.795,4.625-5.665,3.498-12.582c-0.578-3.549-5.189-4.888-7.77-10.333
		C808.748,66.812,801.918,64,797.615,63.316z"/>
	<linearGradient id="SVGID_25_" gradientUnits="userSpaceOnUse" x1="812.332" y1="55.1201" x2="839.832" y2="96.1201">
		<stop  offset="0" style="stop-color:#FFF2CF"/>
		<stop  offset="1" style="stop-color:#D6CBAE"/>
	</linearGradient>
	<path display="inline" fill="url(#SVGID_25_)" d="M796.5,65.5c3.564-0.74,28.5,2,37.5-37c31,48-10.997,69.608-14.856,71.643
		C817.387,101.07,807.5,104.5,798,92.5S791.288,66.583,796.5,65.5z"/>
	<path display="inline" fill="#D1C6AA" d="M802.314,96.949c7.994,6.564,15.339,3.98,16.829,3.194C823.003,98.108,865,76.5,834,28.5
		C834,28.5,856.201,71.711,802.314,96.949z"/>
	<g display="inline">
		<linearGradient id="SVGID_26_" gradientUnits="userSpaceOnUse" x1="649.6504" y1="111.7163" x2="692.6504" y2="118.7163">
			<stop  offset="0" style="stop-color:#FFFFFF;stop-opacity:0.4"/>
			<stop  offset="1" style="stop-color:#FFFFFF;stop-opacity:0.1"/>
		</linearGradient>
		<path fill="url(#SVGID_26_)" d="M644.326,194.062c2.938,1.945,5.989,3.729,9.159,5.289c5.181,2.586,10.763,4.72,16.6,6.346
			c3.263,0.922,6.626,1.684,10.045,2.314c-4.822-20.196-8.776-47.746-6.894-80.582c3.147-54.876,21.382-85.483,33.294-97.784
			c-6.503,1.511-12.757,3.594-18.714,6.192c-23.422,19.68-50.716,61.591-47.817,118.497
			C640.774,169.547,642.341,182.722,644.326,194.062z"/>
		<linearGradient id="SVGID_27_" gradientUnits="userSpaceOnUse" x1="633.5928" y1="210.3599" x2="676.5928" y2="217.3599">
			<stop  offset="0" style="stop-color:#FFFFFF;stop-opacity:0.4"/>
			<stop  offset="1" style="stop-color:#FFFFFF;stop-opacity:0.1"/>
		</linearGradient>
		<path fill="url(#SVGID_27_)" d="M667.718,214.989c-6.368-1.868-12.428-4.28-18.016-7.172c-1.001-0.526-1.982-1.073-2.955-1.628
			c0.269,1.188,0.54,2.359,0.815,3.497c8.075,6.01,19.918,11.7,37.281,15.33c-0.671-2.106-1.355-4.373-2.04-6.778
			C677.527,217.445,672.462,216.366,667.718,214.989z"/>
	</g>
</g>
<g id="crowd" display="none">
	<circle display="inline" cx="195.167" cy="507.166" r="67.5"/>
	<circle display="inline" cx="103" cy="506" r="41"/>
	<circle display="inline" cx="151.545" cy="481.049" r="58.047"/>
	<circle display="inline" cx="299.667" cy="498.001" r="41"/>
	<path display="inline" d="M433.835,459.334c0,15.279-9.627,27.666-21.502,27.666s-21.502-12.387-21.502-27.666
		c0-8.124-1.832-17.605,2.502-22.667c3.817-4.457,15-3.997,25.667-2.665S433.835,444.055,433.835,459.334z"/>
	<path display="inline" d="M281,468.319c-3.374,4.798-9,13.348-9,13.348s2.25,17.397,8.957,13.999
		C275.056,519.897,256.239,541,234.33,541c-26.663,0-48.278-26.191-48.278-58.5s10.729-56.832,39.888-64.833
		C250.934,410.809,274.717,439.605,281,468.319z"/>
	<path display="inline" d="M426,467.5c0,32.309-26.191,58.5-58.5,58.5s-70.834-23-61.833-58.833s24.025-61.833,56.333-61.833
		S426,435.191,426,467.5z"/>
	<circle display="inline" cx="550.5" cy="508.5" r="84.5"/>
	<circle display="inline" cx="609.531" cy="503.406" r="61.531"/>
	<path display="inline" d="M760.062,472.406c0,33.982-27.549,61.531-61.531,61.531S630,508.316,630,474.334
		c0-9.088,10.667-26.667,22-27.334c9.687-21.267,21.637-36.125,46.531-36.125C732.514,410.875,760.062,438.424,760.062,472.406z"/>
	<path display="inline" d="M880.062,515.406c0,43.924-35.607,79.531-79.531,79.531S721,559.33,721,515.406
		s23.743-81.739,67.667-81.739S880.062,471.482,880.062,515.406z"/>
	<circle display="inline" cx="908.531" cy="490.406" r="57.031"/>
	<circle display="inline" cx="926.531" cy="448.406" r="23.031"/>
	<path display="inline" d="M1020,369c19.63,6.873,24.422,38.921,30.711,49.562c12.903,21.831,21.185,46.439,21.185,65.178
		c0,43.095-34.937,78.031-78.031,78.031S928,518.095,928,475c0-25.32-10.701-66.067,2-89C935.572,375.939,987.282,357.544,1020,369z
		"/>
	<path display="inline" d="M1142.062,483.156c0,34.673,5.277,62.781-29.396,62.781s-96.167-28.108-96.167-62.781
		s28.108-62.781,62.781-62.781S1142.062,448.483,1142.062,483.156z"/>
	<path display="inline" d="M215.666,436.999c0,0-14.667,0-24-16c-11.333,25.334,12,34,12,34L215.666,436.999z"/>
	<path display="inline" d="M244.999,437.666c0,0,18.666-1.335,34-18c8,16.665-9.333,35.333-9.333,35.333L244.999,437.666z"/>
	<path display="inline" d="M686.667,413.667c0,0,13.332-32.667,15.999-32.667S724,407.668,712,430.334
		S686.667,413.667,686.667,413.667z"/>
	<path display="inline" d="M717.333,422.334c0,0,12.668-23.334,15.334-22.667s3.332,38-3.334,44S717.333,422.334,717.333,422.334z"
		/>
	<path display="inline" d="M731.999,437.667c0,0,16.668-14.667,19.334-12.667s-19.334,44-19.334,44V437.667z"/>
	<path display="inline" d="M562.333,443.668c0,0,14.333-17.332,15-39.333s10-16.667,11.333,0.333s-19.333,42.333-19.333,42.333
		L562.333,443.668z"/>
	<ellipse display="inline" cx="579.833" cy="395.334" rx="15.167" ry="14"/>
	<path display="inline" d="M513,437.002c0,0-14.187-17.332-14.847-39.333s-9.898-16.667-11.218,0.333
		c-1.319,17,19.136,42.333,19.136,42.333L513,437.002z"/>
	<ellipse display="inline" cx="495.679" cy="388.668" rx="15.012" ry="14"/>
	<path display="inline" d="M475.598,452.989c0.148-1.575,1.008-4.265,4.533-7.419c-4.928,0.245-17.002,5.803-20.977,7.691
		c-0.38,0.033-0.762,0.064-1.142,0.102c0.376-1.212,1.409-4.328,2.812-6.902c-8.911,2.673-16.336,8.91-16.336,8.91
		s1.782-10.692,4.752-14.85c-7.35,4.043-14.925,12.857-19.987,19.558c-42.841,16.166-73.315,57.542-73.315,106.042
		c0,62.58,50.732,113.312,113.312,113.312s113.312-50.731,113.312-113.312C582.562,505.672,535.225,456.283,475.598,452.989z"/>
	<path display="inline" d="M1029.466,492.114l-18.455-35.487l-0.225,0.118c2.093-1.158,51.015-29.405,32.325-118.43
		c-2.271-10.808,4.653-21.412,15.463-23.682c10.811-2.266,21.414,4.652,23.684,15.464c12.901,61.452-1.249,101.684-15.393,124.614
		C1051.02,480.4,1031.625,490.99,1029.466,492.114L1029.466,492.114z"/>
	<path display="inline" d="M1043.438,339.496c-2.183-6.943-13.624-14.979-16.702-20.271c-3.076-5.293,3.828-10.975,3.828-10.975
		s-2.272-6.595-2.721-12.113c-0.449-5.52,12.449-12.799,17.62-6.951c4.048-8.083,15.446-8.838,19.035-2.487
		c8.761-7.23,15.461-1.156,16.692,4.23c1.233,5.386,3.736,17.302,4.117,27.81c0.38,10.506-2.842,14.381-2.842,14.381
		L1043.438,339.496z"/>
	<path display="inline" d="M67.75,508.179c0,0,33.243,7.28,39.186-7.966c5.942-15.248,12.353-4.104-1.069-51.842
		c-13.422-47.735-86.458-67.66-75.406-52.938c11.052,14.722,22.4,30.371,23.492,33.888c1.093,3.516,7.192,4.938,8.519,6.359
		c1.327,1.421-3.4,4.818-1.982,8.264c1.418,3.447,8.03,4.075,8.588,6.685c0.558,2.607-2.54,5.656-1.518,8.846
		c1.023,3.19,6.285,5.475,7.843,9.572c1.559,4.1-1.806,8.271-1.806,8.271s-8.217-3.153-10.386-7.299
		c-2.168-4.146-3.412-2.986-3.828-4.296c-0.417-1.31-0.683-4.278-1.843-5.521c-1.16-1.243-3.062-2.42-3.587-3.27
		c-0.526-0.851-16.659-37.118-16.059-43.758c0.6-6.639-7.081,9.469-7.248,14.272c-0.167,4.805,5.981,38.227,20.513,56.678
		C65.688,502.575,67.75,508.179,67.75,508.179z"/>
	<path display="inline" d="M424,438.001c0,0,3.666-20.333-9.667-29c2.334,16-3.333,28-3.333,28L424,438.001z"/>
	<path display="inline" d="M409.812,434.667c0,0,2.505-13.892-6.604-19.813c1.595,10.932-2.277,19.13-2.277,19.13L409.812,434.667z"
		/>
	<path display="inline" d="M904.452,454.434c0,0-7.605-28.66-35.228-39.953c-27.622-11.294-69.942-13.156-88.462-21.344
		s-7.214,8.744,1.631,13.411c8.845,4.666,57.184,15.695,69.434,38.552c12.25,22.857,20.113,49.957,20.35,51.438
		c0.235,1.481,39.552-25.037,39.552-25.037L904.452,454.434z"/>
	
		<ellipse transform="matrix(0.6907 -0.7232 0.7232 0.6907 -50.3341 686.8049)" display="inline" cx="777.657" cy="402.239" rx="3.5" ry="5.501"/>
	
		<ellipse transform="matrix(0.4082 -0.9129 0.9129 0.4082 93.7395 963.8056)" display="inline" cx="790.223" cy="409.604" rx="3.5" ry="5.5"/>
	
		<ellipse transform="matrix(0.4083 -0.9128 0.9128 0.4083 97.3129 978.7352)" display="inline" cx="803.629" cy="414.303" rx="3.5" ry="5.5"/>
	
		<ellipse transform="matrix(0.4718 -0.8817 0.8817 0.4718 61.3873 944.2765)" display="inline" cx="818.848" cy="420.9" rx="3.877" ry="6.093"/>
	<path display="inline" d="M837.07,425.335c3.237,1.735,4.969,4.81,3.864,6.869c-1.104,2.062-4.626,2.326-7.862,0.594
		c-3.238-1.733-4.97-4.811-3.866-6.871C830.312,423.867,833.832,423.602,837.07,425.335z"/>
	<path display="inline" d="M853.396,437.749c2.807,2.37,3.859,5.737,2.352,7.522c-1.509,1.786-5.009,1.313-7.814-1.055
		c-2.807-2.369-3.86-5.738-2.353-7.524C847.091,434.907,850.59,435.38,853.396,437.749z"/>
	<path display="inline" d="M1092,424.334c0,0,16-5.334,26-1.334c-6.666,4-8.666,7.334-8.666,7.334s20,0.666,25.333,8.666
		c-7.333,0.667-22.667,5.334-22.667,5.334s23.334,0.667,30.667,12c-12-0.667-20,0.666-20,0.666s20.667,7.334,24.667,18.667
		c-8.667-4.667-22-8-22-8s20,14.667,21.333,26c-8.667-3.333-20-8.667-20-8.667L1092,424.334z"/>
	<path display="inline" d="M129.68,442.807c0,0,9.52-29.859,29.02-39.391c-3.634,17-8.082,53.225-8.082,53.225L129.68,442.807z"/>
</g>
</svg>
