<?xml version="1.0" encoding="utf-8"?>
<!-- Generator: Adobe Illustrator 15.0.0, SVG Export Plug-In . SVG Version: 6.00 Build 0)  -->
<!DOCTYPE svg PUBLIC "-//W3C//DTD SVG 1.1//EN" "http://www.w3.org/Graphics/SVG/1.1/DTD/svg11.dtd">
<svg version="1.1" id="Layer_1" xmlns="http://www.w3.org/2000/svg" xmlns:xlink="http://www.w3.org/1999/xlink" x="0px" y="0px"
	 width="1200px" height="500px" viewBox="0 0 1200 500" enable-background="new 0 0 1200 500" xml:space="preserve">
<g id="dj">
	<g>
		
			<linearGradient id="SVGID_1_" gradientUnits="userSpaceOnUse" x1="767.0039" y1="-285.6685" x2="767.0039" y2="-345.042" gradientTransform="matrix(1 0 0 -1 -256 155)">
			<stop  offset="0" style="stop-color:#149ADD"/>
			<stop  offset="1" style="stop-color:#1185BF"/>
		</linearGradient>
		<path fill="url(#SVGID_1_)" d="M534.491,485.589c-0.431-1.071-30.321,0.862-30.922,0.694c-0.604-0.165-0.544-2.739-0.23-3.188
			c0.313-0.448,20.031-1.401,20.041-1.856c0.012-0.452-0.148-13.187-0.909-13.054c-0.761,0.136-18.971,1.58-19.422,1.268
			c-0.447-0.314-0.562-1.831,0.05-2.12c0.615-0.289,28.06-1.368,28.832-1.957c0.771-0.587,0.574-24.685-0.336-24.707
			c-0.905-0.021-44.776,3.58-45.09,4.026c-0.367,0.526,2.397,53.395,3.137,54.17c0.072,0.077,0.51,1.039,1.282,1.134
			c0,0,42.333,0.175,43.92-0.177C536.431,499.469,534.839,486.456,534.491,485.589z"/>
		
			<linearGradient id="SVGID_2_" gradientUnits="userSpaceOnUse" x1="501.8472" y1="-281.2441" x2="501.8472" y2="-345.0054" gradientTransform="matrix(1 0 0 -1 -256 155)">
			<stop  offset="0" style="stop-color:#149ADD"/>
			<stop  offset="1" style="stop-color:#1185BF"/>
		</linearGradient>
		<path fill="url(#SVGID_2_)" d="M232.884,442.031c1.096,0.206,0.459,11.738,1.156,11.238c0.696-0.498,6.027-6.008,6.784-6.129
			c0.755-0.119,10.033,6.936,10.602,6.846c0.566-0.089,2.33-15.579,2.898-15.671c0.349-0.056,24.329-2.071,24.329-2.071
			c0.286-0.003,0.453,0.019,0.479,0.078c0.31,0.726-3.525,60.142-3.881,61.559c-0.356,1.414-30.377-8.8-31.573-8.996
			c-1.195-0.196-23.619,11.444-25.224,11.113c-0.694-0.141-5.625-48.591-5.91-56.276
			C212.544,443.722,231.788,441.823,232.884,442.031z"/>
		
			<linearGradient id="SVGID_3_" gradientUnits="userSpaceOnUse" x1="349.1392" y1="-283.5396" x2="349.1392" y2="-344.5869" gradientTransform="matrix(1 0 0 -1 -256 155)">
			<stop  offset="0" style="stop-color:#149ADD"/>
			<stop  offset="1" style="stop-color:#1185BF"/>
		</linearGradient>
		<path fill="url(#SVGID_3_)" d="M109.234,442.85c-11.075-5.998-44.099-4.271-46.706-3.369c-1.416,0.487,1.059,59.244,2.117,59.882
			c1.059,0.637,55.034,0.021,58.561-3.199S120.309,448.847,109.234,442.85z M92.161,482.008c-0.357,0.394-15,1.988-15.522,1.764
			c-0.522-0.228-1.861-7.896-1.059-8.113c0.803-0.218,10.848-0.84,13.759,0.353C92.25,477.204,92.519,481.613,92.161,482.008z"/>
		
			<linearGradient id="SVGID_4_" gradientUnits="userSpaceOnUse" x1="412.0757" y1="-281.752" x2="412.0757" y2="-344.9985" gradientTransform="matrix(1 0 0 -1 -256 155)">
			<stop  offset="0" style="stop-color:#149ADD"/>
			<stop  offset="1" style="stop-color:#1185BF"/>
		</linearGradient>
		<path fill="url(#SVGID_4_)" d="M126.38,473.01c0.165-0.819,20.902,2.117,21.696,2.117s-2.381,7.938,2.911,7.673
			c5.291-0.264,0.793-40.393,1.322-41.273c0.529-0.882,31.221-5.027,32.015-4.763c0.793,0.265,8.466,63.234-13.758,63.234
			s-26.193,0-33.602,0C129.555,499.998,124.263,483.594,126.38,473.01z"/>
		
			<linearGradient id="SVGID_5_" gradientUnits="userSpaceOnUse" x1="567.9585" y1="-282.9204" x2="567.9585" y2="-344.9985" gradientTransform="matrix(1 0 0 -1 -256 155)">
			<stop  offset="0" style="stop-color:#149ADD"/>
			<stop  offset="1" style="stop-color:#1185BF"/>
		</linearGradient>
		<path fill="url(#SVGID_5_)" d="M335.928,438.086c-1.587-1.059-48.685,3.263-50.27,3.969c-1.811,0.807-6.351,57.943-3.175,57.943
			c3.176,0,56.091,0,59.266,0C344.923,499.998,337.515,439.145,335.928,438.086z M298.093,485.975
			c-1.059-0.794,0.265-5.82,0.265-5.82s15.346-1.059,16.668-1.059s1.853,6.352,1.853,6.352S299.151,486.769,298.093,485.975z"/>
		
			<linearGradient id="SVGID_6_" gradientUnits="userSpaceOnUse" x1="632.2695" y1="-286.6504" x2="632.2695" y2="-344.9985" gradientTransform="matrix(1 0 0 -1 -256 155)">
			<stop  offset="0" style="stop-color:#149ADD"/>
			<stop  offset="1" style="stop-color:#1185BF"/>
		</linearGradient>
		<path fill="url(#SVGID_6_)" d="M394.772,442.409c-1.517-1.011-44.204-0.926-45.718-0.252c-1.729,0.769-3.537,57.841-0.505,57.841
			s53.547,0,56.578,0S396.288,443.42,394.772,442.409z M362.189,486.61c-1.01-0.758,1.516-5.558,1.516-5.558
			s13.64-1.768,14.903-1.768c1.262,0,2.777,6.82,2.777,6.82S363.2,487.368,362.189,486.61z"/>
		
			<linearGradient id="SVGID_7_" gradientUnits="userSpaceOnUse" x1="691.0977" y1="-281.7637" x2="691.0977" y2="-344.9985" gradientTransform="matrix(1 0 0 -1 -256 155)">
			<stop  offset="0" style="stop-color:#149ADD"/>
			<stop  offset="1" style="stop-color:#1185BF"/>
		</linearGradient>
		<path fill="url(#SVGID_7_)" d="M405.512,436.764c-1.171-0.168,4.498,63.234,5.292,63.234c0.793,0,18.256,0,19.314,0
			s-0.265-10.584-0.265-10.584s7.938,10.584,8.731,10.584s24.87,0,26.193,0c1.321,0-18.786-26.988-18.786-26.988
			s7.443-21.22,6.649-21.748c-0.793-0.528-18.556-8.678-19.613-7.884c-1.06,0.794-6.085,17.99-6.085,17.99
			s-0.529-19.579-1.589-19.579C424.297,441.789,407.364,437.027,405.512,436.764z"/>
		
			<linearGradient id="SVGID_8_" gradientUnits="userSpaceOnUse" x1="726.1934" y1="-301.3193" x2="726.1934" y2="-344.9985" gradientTransform="matrix(1 0 0 -1 -256 155)">
			<stop  offset="0" style="stop-color:#149ADD"/>
			<stop  offset="1" style="stop-color:#1185BF"/>
		</linearGradient>
		<path fill="url(#SVGID_8_)" d="M457.899,456.342c-1.035,0.347,1.059,43.656,1.852,43.656c0.794,0,23.019,0,23.019,0
			s-1.587-41.274-2.91-41.54C478.537,458.194,458.693,456.077,457.899,456.342z"/>
		
			<linearGradient id="SVGID_9_" gradientUnits="userSpaceOnUse" x1="725.0527" y1="-288.3774" x2="725.0527" y2="-298.7578" gradientTransform="matrix(1 0 0 -1 -256 155)">
			<stop  offset="0" style="stop-color:#149ADD"/>
			<stop  offset="1" style="stop-color:#1185BF"/>
		</linearGradient>
		<path fill="url(#SVGID_9_)" d="M458.428,452.109c0.962,0.576,22.489,2.381,22.489,1.32c0-1.058,0-10.053-1.587-10.053
			c-1.588,0-20.902,0-21.696,0.794C456.841,444.965,457.105,451.315,458.428,452.109z"/>
	</g>
</g>
</svg>
