<?xml version="1.0" encoding="utf-8"?>
<!-- Generator: Adobe Illustrator 15.0.0, SVG Export Plug-In . SVG Version: 6.00 Build 0)  -->
<!DOCTYPE svg PUBLIC "-//W3C//DTD SVG 1.1//EN" "http://www.w3.org/Graphics/SVG/1.1/DTD/svg11.dtd">
<svg version="1.1" id="Layer_3" xmlns="http://www.w3.org/2000/svg" xmlns:xlink="http://www.w3.org/1999/xlink" x="0px" y="0px"
	 width="41.844px" height="33.312px" viewBox="0 0 41.844 33.312" enable-background="new 0 0 41.844 33.312" xml:space="preserve">
<polygon fill="#C9241A" points="0.749,2.027 20.77,0 20.77,29.081 7.306,29.188 "/>
<polygon fill="#E62A1F" points="0.749,2.027 20.77,4.029 20.77,33.111 7.306,30.507 "/>
<polygon fill="#C9241A" points="40.792,2.027 20.77,4.029 20.77,33.111 34.234,30.507 "/>
<polygon fill="#FFFFFF" points="20.77,11.137 20.77,7.132 6.004,5.381 9.858,27.404 13.312,28.105 12.212,18.366 20.77,19.696 
	20.77,15.942 11.799,14.707 11.26,9.936 "/>
<polygon fill="#F3F3F4" points="20.77,7.132 37.238,5.381 36.437,9.435 31.231,9.985 29.029,28.105 25.525,28.806 26.876,10.537 
	20.77,11.137 "/>
</svg>
