<?xml version="1.0" encoding="utf-8"?>
<!-- Generator: Adobe Illustrator 15.0.0, SVG Export Plug-In . SVG Version: 6.00 Build 0)  -->
<!DOCTYPE svg PUBLIC "-//W3C//DTD SVG 1.1//EN" "http://www.w3.org/Graphics/SVG/1.1/DTD/svg11.dtd">
<svg version="1.1" id="Layer_1" xmlns="http://www.w3.org/2000/svg" xmlns:xlink="http://www.w3.org/1999/xlink" x="0px" y="0px"
	 width="1200px" height="500px" viewBox="0 0 1200 500" enable-background="new 0 0 1200 500" xml:space="preserve">
<g id="limboski">
	<g>
		
			<linearGradient id="SVGID_1_" gradientUnits="userSpaceOnUse" x1="1223.0967" y1="-290.5708" x2="1223.0967" y2="-345" gradientTransform="matrix(1 0 0 -1 -256 155)">
			<stop  offset="0" style="stop-color:#C62A9A"/>
			<stop  offset="1" style="stop-color:#B02589"/>
		</linearGradient>
		<path fill="url(#SVGID_1_)" d="M988.993,499.709c1.33-0.997,0.802-19.477,0.231-21.32c-0.565-1.843-4.671-2.396-4.671-2.396
			s3.018-5.114,3.06-6.944c0.046-1.829-1.727-23.231-5.075-23.462c-3.353-0.229-37.421,1.948-38.058,3.152
			c-0.584,1.101,1.299,48.491,1.88,49.314C946.942,498.879,987.663,500.707,988.993,499.709z M958.508,471.438
			c-0.396-0.512-0.811-5.785-0.811-5.785c0.247-0.736,8.961-1.645,9.681-1.247c0.717,0.398,2.362,1.986,1.925,3.007
			C968.87,468.432,958.904,471.947,958.508,471.438z M960.532,486.277c-0.457-0.012-1.271-5.903-0.918-6.576
			c0.319-0.604,8.082,0.034,8.534,0.199c0.454,0.162,1.462,2.776,1.443,3.539C969.576,484.201,960.989,486.289,960.532,486.277z"/>
		
			<linearGradient id="SVGID_2_" gradientUnits="userSpaceOnUse" x1="1169.9961" y1="-290.5166" x2="1169.9961" y2="-344.2925" gradientTransform="matrix(1 0 0 -1 -256 155)">
			<stop  offset="0" style="stop-color:#C62A9A"/>
			<stop  offset="1" style="stop-color:#B02589"/>
		</linearGradient>
		<path fill="url(#SVGID_2_)" d="M903.64,497.348c0.896-0.299-0.955-9.91-0.312-9.568c0.642,0.34,5.746,4.354,6.396,4.371
			c0.647,0.015,7.633-6.97,8.12-6.958c0.485,0.01,4.142,14.087,4.629,14.1c0.301,0.006,20.664-1.04,20.664-1.04
			c0.241-0.03,0.378-0.067,0.395-0.12c0.177-0.646-10.338-51.4-10.798-52.551c-0.461-1.146-24.672,13.234-25.653,13.535
			c-0.979,0.303-21.194-10.564-22.504-10.104c-0.567,0.198,1.155,42.753,1.794,49.24
			C886.368,498.251,902.742,497.647,903.64,497.348z"/>
		
			<linearGradient id="SVGID_3_" gradientUnits="userSpaceOnUse" x1="1275.5732" y1="-293.6567" x2="1275.5732" y2="-344.9995" gradientTransform="matrix(1 0 0 -1 -256 155)">
			<stop  offset="0" style="stop-color:#C62A9A"/>
			<stop  offset="1" style="stop-color:#B02589"/>
		</linearGradient>
		<path fill="url(#SVGID_3_)" d="M1035.855,449.325c-1.334-0.891-38.896-0.815-40.229-0.222c-1.521,0.676-3.112,50.896-0.445,50.896
			c2.668,0,47.119,0,49.786,0S1037.189,450.215,1035.855,449.325z M1007.185,488.22c-0.889-0.666,1.333-4.889,1.333-4.889
			s12.004-1.557,13.114-1.557s2.445,6.002,2.445,6.002S1008.074,488.887,1007.185,488.22z"/>
		
			<linearGradient id="SVGID_4_" gradientUnits="userSpaceOnUse" x1="1375.2998" y1="-289.3564" x2="1375.2998" y2="-345.0005" gradientTransform="matrix(1 0 0 -1 -256 155)">
			<stop  offset="0" style="stop-color:#C62A9A"/>
			<stop  offset="1" style="stop-color:#B02589"/>
		</linearGradient>
		<path fill="url(#SVGID_4_)" d="M1093.268,444.356c-1.029-0.147,3.958,55.644,4.656,55.644s16.064,0,16.995,0
			c0.932,0-0.232-9.312-0.232-9.312s6.984,9.312,7.684,9.312c0.698,0,21.885,0,23.049,0s-16.529-23.747-16.529-23.747
			s6.55-18.673,5.851-19.139c-0.697-0.466-16.327-7.637-17.259-6.938c-0.932,0.699-5.354,15.832-5.354,15.832
			s-0.465-17.229-1.396-17.229C1109.8,448.779,1094.896,444.59,1093.268,444.356z"/>
		
			<linearGradient id="SVGID_5_" gradientUnits="userSpaceOnUse" x1="1406.1836" y1="-306.5654" x2="1406.1836" y2="-345.0005" gradientTransform="matrix(1 0 0 -1 -256 155)">
			<stop  offset="0" style="stop-color:#C62A9A"/>
			<stop  offset="1" style="stop-color:#B02589"/>
		</linearGradient>
		<path fill="url(#SVGID_5_)" d="M1139.365,461.585c-0.91,0.304,0.932,38.415,1.63,38.415s20.255,0,20.255,0
			s-1.396-36.319-2.562-36.553C1157.524,463.215,1140.062,461.353,1139.365,461.585z"/>
		
			<linearGradient id="SVGID_6_" gradientUnits="userSpaceOnUse" x1="1404.7129" y1="-295.1763" x2="1404.7129" y2="-304.312" gradientTransform="matrix(1 0 0 -1 -256 155)">
			<stop  offset="0" style="stop-color:#C62A9A"/>
			<stop  offset="1" style="stop-color:#B02589"/>
		</linearGradient>
		<path fill="url(#SVGID_6_)" d="M1139.365,457.86c0.847,0.508,19.789,2.095,19.789,1.164c0-0.933,0-8.849-1.396-8.849
			s-18.393,0-19.091,0.699C1137.968,451.574,1138.201,457.161,1139.365,457.86z"/>
		
			<linearGradient id="SVGID_7_" gradientUnits="userSpaceOnUse" x1="1126.6475" y1="-306.5654" x2="1126.6475" y2="-345.0005" gradientTransform="matrix(1 0 0 -1 -256 155)">
			<stop  offset="0" style="stop-color:#C62A9A"/>
			<stop  offset="1" style="stop-color:#B02589"/>
		</linearGradient>
		<path fill="url(#SVGID_7_)" d="M859.83,461.585c-0.911,0.304,0.931,38.415,1.629,38.415c0.699,0,20.256,0,20.256,0
			s-1.396-36.319-2.562-36.553C877.989,463.215,860.528,461.353,859.83,461.585z"/>
		
			<linearGradient id="SVGID_8_" gradientUnits="userSpaceOnUse" x1="1125.6436" y1="-295.1763" x2="1125.6436" y2="-304.312" gradientTransform="matrix(1 0 0 -1 -256 155)">
			<stop  offset="0" style="stop-color:#C62A9A"/>
			<stop  offset="1" style="stop-color:#B02589"/>
		</linearGradient>
		<path fill="url(#SVGID_8_)" d="M860.295,457.86c0.847,0.508,19.79,2.095,19.79,1.164c0-0.933,0-8.849-1.397-8.849
			c-1.396,0-18.393,0-19.091,0.699S859.131,457.161,860.295,457.86z"/>
		
			<linearGradient id="SVGID_9_" gradientUnits="userSpaceOnUse" x1="1090.5566" y1="-295.6431" x2="1090.5566" y2="-345.0005" gradientTransform="matrix(1 0 0 -1 -256 155)">
			<stop  offset="0" style="stop-color:#C62A9A"/>
			<stop  offset="1" style="stop-color:#B02589"/>
		</linearGradient>
		<path fill="url(#SVGID_9_)" d="M856.725,500c0.698,0,0-24.446-0.697-24.446c-0.698,0-22.352,1.63-22.352,1.63l-1.63-26.541
			c0,0-19.091,2.097-19.789,2.795c-0.698,0.697,1.164,46.562,1.862,46.562S856.725,500,856.725,500z"/>
		
			<linearGradient id="SVGID_10_" gradientUnits="userSpaceOnUse" x1="1324.7324" y1="-291.9556" x2="1324.7324" y2="-344.0747" gradientTransform="matrix(1 0 0 -1 -256 155)">
			<stop  offset="0" style="stop-color:#C62A9A"/>
			<stop  offset="1" style="stop-color:#B02589"/>
		</linearGradient>
		<path fill="url(#SVGID_10_)" d="M1088.199,446.956c-0.917,0.306-37.779,2.323-38.557,2.907c-0.774,0.58-3.877,31.967-3.295,31.967
			s31.001,2.714,31.001,2.714s0,2.905-0.969,2.905c-0.97,0-28.869-3.101-29.45-2.519c-0.582,0.581,0.901,14.144,1.482,14.144
			s40.368,0,41.337,0c0.968,0,1.937-19.568,1.161-19.568c-0.776,0-32.354-1.163-32.551-1.938c-0.193-0.773-0.389-1.741,0.582-1.741
			c0.969,0,29.257,0.191,30.226,0C1090.136,475.631,1088.781,446.761,1088.199,446.956z"/>
	</g>
</g>
</svg>
