<?xml version="1.0" encoding="utf-8"?>
<!-- Generator: Adobe Illustrator 14.0.0, SVG Export Plug-In . SVG Version: 6.00 Build 43363)  -->
<!DOCTYPE svg PUBLIC "-//W3C//DTD SVG 1.1//EN" "http://www.w3.org/Graphics/SVG/1.1/DTD/svg11.dtd" [
	<!ENTITY ns_extend "http://ns.adobe.com/Extensibility/1.0/">
	<!ENTITY ns_ai "http://ns.adobe.com/AdobeIllustrator/10.0/">
	<!ENTITY ns_graphs "http://ns.adobe.com/Graphs/1.0/">
	<!ENTITY ns_vars "http://ns.adobe.com/Variables/1.0/">
	<!ENTITY ns_imrep "http://ns.adobe.com/ImageReplacement/1.0/">
	<!ENTITY ns_sfw "http://ns.adobe.com/SaveForWeb/1.0/">
	<!ENTITY ns_custom "http://ns.adobe.com/GenericCustomNamespace/1.0/">
	<!ENTITY ns_adobe_xpath "http://ns.adobe.com/XPath/1.0/">
]>
<svg version="1.1" xmlns:x="&ns_extend;" xmlns:i="&ns_ai;" xmlns:graph="&ns_graphs;"
	 xmlns="http://www.w3.org/2000/svg" xmlns:xlink="http://www.w3.org/1999/xlink" x="0px" y="0px" width="1200px" height="500px"
	 viewBox="0 0 1200 500" enable-background="new 0 0 1200 500" xml:space="preserve">
<metadata>
	<sfw  xmlns="&ns_sfw;">
		<slices></slices>
		<sliceSourceBounds  x="0" y="-7942" width="1200" height="16383" bottomLeftOrigin="true"></sliceSourceBounds>
	</sfw>
</metadata>
<filter  id="AI_GaussianBlur_7">
	<feGaussianBlur  stdDeviation="7"></feGaussianBlur>
</filter>
<filter  id="AI_GaussianBlur_4">
	<feGaussianBlur  stdDeviation="4"></feGaussianBlur>
</filter>
<g id="Layer_2" display="none">
	<rect display="inline" fill="#3E495A" width="1200" height="500"/>
</g>
<g id="horns" display="none">
	<path display="inline" fill="#D8C49C" d="M777.756,101.434c0,0,66.285-30.571,92.673-96.124
		c30.449,79.912,0.748,166.211,0.748,166.211L777.756,101.434z"/>
	<g display="inline">
		<g>
			<path fill="#E5D6BA" d="M870.19,5.884c-26.544,65.154-92.435,95.549-92.435,95.549l30.988,23.249
				C856.334,76.581,867.558,25.906,870.19,5.884z"/>
		</g>
	</g>
	<path display="inline" fill="#D8C49C" d="M383,119c0,0-77-5-111.359-39.336c2.646,59.455,45.473,106.36,45.473,106.36L383,119z"/>
	<g display="inline">
		<g>
			<path fill="#E5D6BA" d="M353.547,126.958c6.76,1.09,13.002,2.065,18.823,2.855L383,119c0,0-67.948-4.415-104.667-33.415
				C298.233,109.608,319.583,121.48,353.547,126.958z"/>
		</g>
	</g>
	<path display="inline" d="M453.454,329.103c-4.09,14.097,69.611,110.452,138.277,118.966
		c68.667,8.516,165.149-144.858,137.705-169.286C701.989,254.351,464.822,289.938,453.454,329.103z"/>
	<path display="inline" fill="#FFFFFF" d="M561.125,431.566c0,0-0.801-16.28,1.769-16.407c1.313-0.064,19.15,0.431,38.063-2.913
		c18.112-3.201,37.332-10.247,38.59-10.309c2.57-0.128,8.429,14.186,8.429,14.186L672,463l-108.935,7.982L561.125,431.566z"/>
	<path display="inline" fill="#FFFFFF" d="M617.321,272.045c0,0,5.216,44.313,18.831,68.837
		c6.989-42.927,11.136-70.919,11.136-70.919L617.321,272.045z"/>
	<path display="inline" fill="#FFFFFF" d="M528.894,286.709c0,0,3.432,38.605,17.158,60.053
		c1.716-33.458,15.442-70.348,15.442-70.348L528.894,286.709z"/>
	<g id="Layer_5" display="inline">
		<defs>
			<path id="SVGID_1_" d="M777.756,101.434c0,0,66.285-30.571,92.673-96.124c30.449,79.912,0.748,166.211,0.748,166.211
				L777.756,101.434z M383,119c0,0-77-5-111.359-39.336c2.646,59.455,45.473,106.36,45.473,106.36L383,119z"/>
		</defs>
		<clipPath id="SVGID_2_">
			<use xlink:href="#SVGID_1_"  overflow="visible"/>
		</clipPath>
		<g opacity="0.2" clip-path="url(#SVGID_2_)" filter="url(#AI_GaussianBlur_4)">
			<path d="M844,99c-18.66-25.106-76.574-40.297-147.027-46.722C559.764,39.767,362.464,84.74,333,134c-64,107-27,366-27,366
				s539,0,662,0C982.812,366.685,899,173,844,99z"/>
		</g>
	</g>
</g>
<g id="body" display="none">
	<defs>
		<path id="SVGID_3_" d="M844,99c-18.66-25.106-76.574-40.297-147.027-46.722C559.764,39.767,362.464,84.74,333,134
			c-64,107-27,366-27,366s539,0,662,0C982.812,366.685,899,173,844,99z M593.254,418.617c-47.605-5.902-98.7-72.704-95.864-82.477
			c7.881-27.151,172.304-51.823,191.331-34.886C707.747,318.19,640.859,424.521,593.254,418.617z"/>
	</defs>
	<clipPath id="SVGID_4_" display="inline">
		<use xlink:href="#SVGID_3_"  overflow="visible"/>
	</clipPath>
	<radialGradient id="SVGID_5_" cx="515" cy="133" r="386.8038" gradientUnits="userSpaceOnUse">
		<stop  offset="0" style="stop-color:#FF1010"/>
		<stop  offset="1" style="stop-color:#D10D0D"/>
	</radialGradient>
	<path display="inline" clip-path="url(#SVGID_4_)" fill="url(#SVGID_5_)" d="M844,99c-18.66-25.106-76.574-40.297-147.027-46.722
		C559.764,39.767,362.464,84.74,333,134c-64,107-27,366-27,366s539,0,662,0C982.812,366.685,899,173,844,99z M593.254,418.617
		c-47.605-5.902-98.7-72.704-95.864-82.477c7.881-27.151,172.304-51.823,191.331-34.886
		C707.747,318.19,640.859,424.521,593.254,418.617z"/>
	<g display="inline" clip-path="url(#SVGID_4_)">
		<g>
			<path fill="#BC1515" d="M968,500c14.812-133.315-69-327-124-401c-1.312-1.765-2.819-3.479-4.51-5.146
				c2.421,3.56,4.616,7.273,6.51,11.146c21.317,43.604,77.372,208.325,5.321,395H968z"/>
		</g>
	</g>
	<g display="inline" opacity="0.2" clip-path="url(#SVGID_4_)" filter="url(#AI_GaussianBlur_4)">
		<path d="M515.578,132.677l-7.155-39.354c-2.75,0.5-67.602,13.199-90.693,96.324l38.541,10.706
			c16.143-58.114,57.771-67.354,59.535-67.719L515.578,132.677z"/>
		<path d="M610.148,1.411l-3.962,39.804c0.732,0.073,73.596,7.992,105.943,68.856l35.322-18.772
			C705.166,11.735,614.008,1.795,610.148,1.411z"/>
	</g>
	<circle display="inline" clip-path="url(#SVGID_4_)" fill="#BC1515" cx="642.474" cy="189.185" r="74.869"/>
	<circle display="inline" clip-path="url(#SVGID_4_)" fill="#BC1515" cx="516.367" cy="216.534" r="26.894"/>
	<circle display="inline" clip-path="url(#SVGID_4_)" fill="#FFFFFF" cx="638.006" cy="183.829" r="65"/>
	<circle display="inline" clip-path="url(#SVGID_4_)" cx="630.685" cy="199.727" r="18.073"/>
	<circle display="inline" clip-path="url(#SVGID_4_)" fill="#FFFFFF" cx="625.686" cy="193.726" r="5.766"/>
	<circle display="inline" clip-path="url(#SVGID_4_)" cx="514.428" cy="214.595" r="21.01"/>
	<circle display="inline" clip-path="url(#SVGID_4_)" fill="#FFFFFF" cx="510" cy="206" r="5.766"/>
	<g display="inline" clip-path="url(#SVGID_4_)">
		<g>
			<path fill="#F4F0EA" d="M678.72,133.177c9.177,11.436,14.562,26.022,14.275,41.829c-0.649,35.893-30.273,64.462-66.166,63.812
				c-14.992-0.271-28.696-5.611-39.537-14.338c11.662,14.533,29.45,23.975,49.537,24.338c35.893,0.65,65.517-27.919,66.166-63.812
				C703.374,164.105,693.833,145.344,678.72,133.177z"/>
		</g>
	</g>
	<path display="inline" clip-path="url(#SVGID_4_)" d="M555.497,269.033c-1.295,4.678,3.448,13.974,6.753,10.612
		C565.556,276.285,555.497,269.033,555.497,269.033z"/>
	<path display="inline" clip-path="url(#SVGID_4_)" d="M567.465,258.466c-5.038,2.916,2.837,20.496,8.154,18.453
		C580.936,274.876,572.503,255.55,567.465,258.466z"/>
	<path display="inline" clip-path="url(#SVGID_4_)" fill="#BC1515" d="M546.333,279c-2.671-0.395-7.623-20.697,7.711-30.03
		S583,259,583,259s-16.875-16.448-29.145-3.612S549.004,279.395,546.333,279z"/>
</g>
<g id="eyes">
	<path fill="none" stroke="#000000" stroke-width="40" d="M512,113c0,0-55,10-75,82"/>
	<path fill="none" stroke="#000000" stroke-width="40" d="M608.168,21.312c0,0,83.876,8.349,121.623,79.372"/>
</g>
<g id="arms" display="none">
	<path display="inline" opacity="0.5" fill="#E8E8E8" d="M1078.404,128.588c-6.157,1.995-39.065,20.937-50.118,27.344
		c-10.451-29.589-18.388-51.027-20.619-54.932c-8-14-190,34-194,50s49.334,266.666,57,286s241.667-17.334,234-50
		c-1.549-6.598-6.103-21.629-12.45-41.528c19.054-7.104,68.539-27.834,69.933-52.009
		C1163.876,263.506,1085.828,126.183,1078.404,128.588z M1080.922,310.651c-13.47-40.994-30.31-90.724-44.511-131.534
		c8.638-3.276,32.247-11.808,39.222-9.936c8.591,2.306,53.199,104.423,54.701,118.484
		C1131.436,297.97,1098.569,306.713,1080.922,310.651z"/>
	<linearGradient id="SVGID_6_" gradientUnits="userSpaceOnUse" x1="870.5879" y1="174.7222" x2="1039.2539" y2="362.7217">
		<stop  offset="0" style="stop-color:#FBBD46"/>
		<stop  offset="1" style="stop-color:#EBA41C"/>
	</linearGradient>
	<path display="inline" opacity="0.95" fill="url(#SVGID_6_)" d="M834.334,156.333c0,6.146,44,230,61.333,243.333
		S1064.334,391,1066.334,361s-66-239.333-70.667-244S834.334,147,834.334,156.333z"/>
	<path display="inline" opacity="0.2" fill="#4D4D4D" d="M879.667,432.333c6,6.667,226-17.999,216-52.666s-8.666-33.001-9-37.667
		s77.001-31.666,69.667-53s-22.668-58.667-22.668-58.667s9.186,37.145,16.2,57.549s-67.858,44.742-68.862,49.097
		s3.662,17.688,7.329,42.688S890.738,429.71,885,423.334c-5.738-6.377-19.512-68.501-19.512-68.501S873.667,425.666,879.667,432.333
		z"/>
	<path display="inline" opacity="0.5" fill="#E8E8E8" d="M64.091,386.613c8.946,21.248,59.946,24.097,79.303,24.405
		c0.639,19.875,1.337,34.812,2.048,41.225c3.519,31.751,225.151-9.834,225.875-29.621c0.724-19.788-31.211-261.678-39.893-274.761
		c-8.683-13.083-187.263,1.781-189.985,16.889c-0.759,4.214-1.057,25.976-1.016,55.851c-11.956-2.23-47.513-8.751-53.672-8.582
		C79.324,212.225,53.006,360.284,64.091,386.613z M90.792,371.284c-3.128-13.094,4.392-118.919,11.367-123.723
		c5.662-3.899,29.562-3.761,38.354-3.569c0.249,41.138,0.968,91.118,1.931,132.188C125.356,378.264,93.084,380.881,90.792,371.284z"
		/>
	
		<linearGradient id="SVGID_7_" gradientUnits="userSpaceOnUse" x1="102.8511" y1="221.4434" x2="263.4287" y2="400.4274" gradientTransform="matrix(-0.9425 0.3343 0.3343 0.9425 310.7965 -55.8214)">
		<stop  offset="0" style="stop-color:#FBBD46"/>
		<stop  offset="1" style="stop-color:#EBA41C"/>
	</linearGradient>
	<path display="inline" opacity="0.95" fill="url(#SVGID_7_)" d="M314.578,159.225c1.957,5.515,33.732,220.377,22.424,237.857
		s-154.098,45.911-165.441,19.63c-11.344-26.28-16.964-235.753-14.261-241.426C160.001,169.614,311.607,150.851,314.578,159.225z"/>
	<path display="inline" opacity="0.2" fill="#4D4D4D" d="M361.755,421.299c-3.261,7.892-208.51,55.789-210.572,21.5
		s-2.729-32.37-3.915-36.662c-1.186-4.293-79.17-3.902-79.38-25.379c-0.211-21.478,1.665-59.855,1.665-59.855
		s3.582,36.254,3.783,56.794c0.2,20.541,75.128,18.546,77.415,22.133c2.287,3.588,2.344,17.036,7.012,40.635
		c4.667,23.599,193.224-17.995,196.342-25.542c3.119-7.549-4.297-67.675-4.297-67.675S365.017,413.407,361.755,421.299z"/>
</g>
<g id="shadow" display="none">
	<g display="inline" opacity="0.2" filter="url(#AI_GaussianBlur_7)">
		<path d="M846.662,350.21c6.835,30.262,15.193,89.657-6.233,145.891c-13.13-32.618-36.137-56.571-55.941-72.41
			c-23.169,10.567-55.995,18.124-93.747,22.874C645.248,492.926,583.315,499.684,580.148,500l-3.962-39.805
			c0.33-0.032,15.279-1.658,34.566-8.985c-109.957-1.159-236.453-29.847-287.899-64.685c-25.419,4.801-60.824,14.846-81.213,35.221
			c2.153-48.391,30.924-88.467,41.558-101.707C247.818,198.704,276,1.41,276,1.41s539,0,662,0
			C950.073,110.073,896.625,258.834,846.662,350.21z"/>
	</g>
</g>
</svg>
