<?xml version="1.0" encoding="utf-8"?>
<!-- Generator: Adobe Illustrator 15.0.0, SVG Export Plug-In . SVG Version: 6.00 Build 0)  -->
<!DOCTYPE svg PUBLIC "-//W3C//DTD SVG 1.1//EN" "http://www.w3.org/Graphics/SVG/1.1/DTD/svg11.dtd">
<svg version="1.1" id="Layer_1" xmlns="http://www.w3.org/2000/svg" xmlns:xlink="http://www.w3.org/1999/xlink" x="0px" y="0px"
	 width="1200px" height="500px" viewBox="0 0 1200 500" enable-background="new 0 0 1200 500" xml:space="preserve">
<g id="body_copy">
	<g>
		<g>
			<defs>
				<path id="SVGID_1_" d="M796,105c-18.66-25.106-46.547-45.575-117-52c-13.411-1.223-26.89-1.945-40.322-2.218
					c-43.443-7.824-86.008-15.525-115.906-14.049C539.395,41.156,549.5,51,549.5,51s-45.833-10.333-72.833-7
					c16,8.667,26.333,14,26.333,14s-15.6,1.825-16,3.5c4.429,0.681,6.985,2.243,9.825,4.516C434.622,80.275,383.654,102.829,368,129
					c-64,107-62,371-62,371s506,0,629,0C926,337,851,179,796,105z M554,433.5c-4.333-86.5-39.667-123.167-39.667-123.167
					S525,309,583.5,303s108.055-13.729,108.055-13.729S696.888,427.741,554,433.5z"/>
			</defs>
			<clipPath id="SVGID_2_">
				<use xlink:href="#SVGID_1_"  overflow="visible"/>
			</clipPath>
			
				<radialGradient id="SVGID_3_" cx="1027" cy="412.3076" r="391.7105" gradientTransform="matrix(1 0 0 1 -512 -291)" gradientUnits="userSpaceOnUse">
				<stop  offset="0" style="stop-color:#FF1010"/>
				<stop  offset="1" style="stop-color:#D10D0D"/>
			</radialGradient>
			<path clip-path="url(#SVGID_2_)" fill="url(#SVGID_3_)" d="M844,99c-18.66-25.106-76.574-40.297-147.027-46.722
				c-19.397-1.769-40-2.388-61.155-2.009C592.828,42.595,539.245,34.556,510,36c21,1.667,39.5,15,39.5,15s-45.833-10.333-72.833-7
				c16,8.667,20.333,14,20.333,14s-10.5,1.5-10,3.5c0.157,0.629,3.479,2.247,7.958,4.168C415.596,81.337,349.134,107.025,333,134
				c-64,107-27,366-27,366s539,0,662,0C982.812,366.686,899,173,844,99z"/>
		</g>
	</g>
	<g>
		<g>
			<defs>
				<path id="SVGID_4_" d="M796,105c-18.66-25.106-46.547-45.575-117-52c-13.411-1.223-26.89-1.945-40.322-2.218
					c-43.443-7.824-86.008-15.525-115.906-14.049C539.395,41.156,549.5,51,549.5,51s-45.833-10.333-72.833-7
					c16,8.667,26.333,14,26.333,14s-15.6,1.825-16,3.5c4.429,0.681,6.985,2.243,9.825,4.516C434.622,80.275,383.654,102.829,368,129
					c-64,107-62,371-62,371s506,0,629,0C926,337,851,179,796,105z M554,433.5c-4.333-86.5-39.667-123.167-39.667-123.167
					S525,309,583.5,303s108.055-13.729,108.055-13.729S696.888,427.741,554,433.5z"/>
			</defs>
			<clipPath id="SVGID_5_">
				<use xlink:href="#SVGID_4_"  overflow="visible"/>
			</clipPath>
			<g clip-path="url(#SVGID_5_)">
				<g>
					<path fill="#BC1515" d="M968,500c14.812-133.314-69-327-124-401c-1.312-1.765-2.819-3.479-4.51-5.146
						c2.421,3.56,4.616,7.273,6.51,11.146c21.317,43.604,77.372,208.325,5.321,395H968z"/>
				</g>
			</g>
		</g>
	</g>
	<g>
		<g>
			<defs>
				<path id="SVGID_6_" d="M796,105c-18.66-25.106-46.547-45.575-117-52c-13.411-1.223-26.89-1.945-40.322-2.218
					c-43.443-7.824-86.008-15.525-115.906-14.049C539.395,41.156,549.5,51,549.5,51s-45.833-10.333-72.833-7
					c16,8.667,26.333,14,26.333,14s-15.6,1.825-16,3.5c4.429,0.681,6.985,2.243,9.825,4.516C434.622,80.275,383.654,102.829,368,129
					c-64,107-62,371-62,371s506,0,629,0C926,337,851,179,796,105z M554,433.5c-4.333-86.5-39.667-123.167-39.667-123.167
					S525,309,583.5,303s108.055-13.729,108.055-13.729S696.888,427.741,554,433.5z"/>
			</defs>
			<clipPath id="SVGID_7_">
				<use xlink:href="#SVGID_6_"  overflow="visible"/>
			</clipPath>
			<circle clip-path="url(#SVGID_7_)" fill="#BC1515" cx="642.474" cy="189.185" r="74.869"/>
		</g>
	</g>
	<g>
		<g>
			<defs>
				<path id="SVGID_8_" d="M796,105c-18.66-25.106-46.547-45.575-117-52c-13.411-1.223-26.89-1.945-40.322-2.218
					c-43.443-7.824-86.008-15.525-115.906-14.049C539.395,41.156,549.5,51,549.5,51s-45.833-10.333-72.833-7
					c16,8.667,26.333,14,26.333,14s-15.6,1.825-16,3.5c4.429,0.681,6.985,2.243,9.825,4.516C434.622,80.275,383.654,102.829,368,129
					c-64,107-62,371-62,371s506,0,629,0C926,337,851,179,796,105z M554,433.5c-4.333-86.5-39.667-123.167-39.667-123.167
					S525,309,583.5,303s108.055-13.729,108.055-13.729S696.888,427.741,554,433.5z"/>
			</defs>
			<clipPath id="SVGID_9_">
				<use xlink:href="#SVGID_8_"  overflow="visible"/>
			</clipPath>
			<circle clip-path="url(#SVGID_9_)" fill="#BC1515" cx="516.367" cy="216.534" r="26.894"/>
		</g>
	</g>
	<g>
		<g>
			<defs>
				<path id="SVGID_10_" d="M796,105c-18.66-25.106-46.547-45.575-117-52c-13.411-1.223-26.89-1.945-40.322-2.218
					c-43.443-7.824-86.008-15.525-115.906-14.049C539.395,41.156,549.5,51,549.5,51s-45.833-10.333-72.833-7
					c16,8.667,26.333,14,26.333,14s-15.6,1.825-16,3.5c4.429,0.681,6.985,2.243,9.825,4.516C434.622,80.275,383.654,102.829,368,129
					c-64,107-62,371-62,371s506,0,629,0C926,337,851,179,796,105z M554,433.5c-4.333-86.5-39.667-123.167-39.667-123.167
					S525,309,583.5,303s108.055-13.729,108.055-13.729S696.888,427.741,554,433.5z"/>
			</defs>
			<clipPath id="SVGID_11_">
				<use xlink:href="#SVGID_10_"  overflow="visible"/>
			</clipPath>
			<circle clip-path="url(#SVGID_11_)" fill="#FFFFFF" cx="638.006" cy="183.829" r="65"/>
		</g>
	</g>
	<g>
		<g>
			<defs>
				<path id="SVGID_12_" d="M796,105c-18.66-25.106-46.547-45.575-117-52c-13.411-1.223-26.89-1.945-40.322-2.218
					c-43.443-7.824-86.008-15.525-115.906-14.049C539.395,41.156,549.5,51,549.5,51s-45.833-10.333-72.833-7
					c16,8.667,26.333,14,26.333,14s-15.6,1.825-16,3.5c4.429,0.681,6.985,2.243,9.825,4.516C434.622,80.275,383.654,102.829,368,129
					c-64,107-62,371-62,371s506,0,629,0C926,337,851,179,796,105z M554,433.5c-4.333-86.5-39.667-123.167-39.667-123.167
					S525,309,583.5,303s108.055-13.729,108.055-13.729S696.888,427.741,554,433.5z"/>
			</defs>
			<clipPath id="SVGID_13_">
				<use xlink:href="#SVGID_12_"  overflow="visible"/>
			</clipPath>
			<circle clip-path="url(#SVGID_13_)" cx="630.685" cy="199.727" r="18.073"/>
		</g>
	</g>
	<g>
		<g>
			<defs>
				<path id="SVGID_14_" d="M796,105c-18.66-25.106-46.547-45.575-117-52c-13.411-1.223-26.89-1.945-40.322-2.218
					c-43.443-7.824-86.008-15.525-115.906-14.049C539.395,41.156,549.5,51,549.5,51s-45.833-10.333-72.833-7
					c16,8.667,26.333,14,26.333,14s-15.6,1.825-16,3.5c4.429,0.681,6.985,2.243,9.825,4.516C434.622,80.275,383.654,102.829,368,129
					c-64,107-62,371-62,371s506,0,629,0C926,337,851,179,796,105z M554,433.5c-4.333-86.5-39.667-123.167-39.667-123.167
					S525,309,583.5,303s108.055-13.729,108.055-13.729S696.888,427.741,554,433.5z"/>
			</defs>
			<clipPath id="SVGID_15_">
				<use xlink:href="#SVGID_14_"  overflow="visible"/>
			</clipPath>
			<circle clip-path="url(#SVGID_15_)" fill="#FFFFFF" cx="625.686" cy="193.726" r="5.766"/>
		</g>
	</g>
	<g>
		<g>
			<defs>
				<path id="SVGID_16_" d="M796,105c-18.66-25.106-46.547-45.575-117-52c-13.411-1.223-26.89-1.945-40.322-2.218
					c-43.443-7.824-86.008-15.525-115.906-14.049C539.395,41.156,549.5,51,549.5,51s-45.833-10.333-72.833-7
					c16,8.667,26.333,14,26.333,14s-15.6,1.825-16,3.5c4.429,0.681,6.985,2.243,9.825,4.516C434.622,80.275,383.654,102.829,368,129
					c-64,107-62,371-62,371s506,0,629,0C926,337,851,179,796,105z M554,433.5c-4.333-86.5-39.667-123.167-39.667-123.167
					S525,309,583.5,303s108.055-13.729,108.055-13.729S696.888,427.741,554,433.5z"/>
			</defs>
			<clipPath id="SVGID_17_">
				<use xlink:href="#SVGID_16_"  overflow="visible"/>
			</clipPath>
			<circle clip-path="url(#SVGID_17_)" cx="514.428" cy="214.595" r="21.01"/>
		</g>
	</g>
	<g>
		<g>
			<defs>
				<path id="SVGID_18_" d="M796,105c-18.66-25.106-46.547-45.575-117-52c-13.411-1.223-26.89-1.945-40.322-2.218
					c-43.443-7.824-86.008-15.525-115.906-14.049C539.395,41.156,549.5,51,549.5,51s-45.833-10.333-72.833-7
					c16,8.667,26.333,14,26.333,14s-15.6,1.825-16,3.5c4.429,0.681,6.985,2.243,9.825,4.516C434.622,80.275,383.654,102.829,368,129
					c-64,107-62,371-62,371s506,0,629,0C926,337,851,179,796,105z M554,433.5c-4.333-86.5-39.667-123.167-39.667-123.167
					S525,309,583.5,303s108.055-13.729,108.055-13.729S696.888,427.741,554,433.5z"/>
			</defs>
			<clipPath id="SVGID_19_">
				<use xlink:href="#SVGID_18_"  overflow="visible"/>
			</clipPath>
			<circle clip-path="url(#SVGID_19_)" fill="#FFFFFF" cx="510" cy="206" r="5.766"/>
		</g>
	</g>
	<g>
		<g>
			<defs>
				<path id="SVGID_20_" d="M796,105c-18.66-25.106-46.547-45.575-117-52c-13.411-1.223-26.89-1.945-40.322-2.218
					c-43.443-7.824-86.008-15.525-115.906-14.049C539.395,41.156,549.5,51,549.5,51s-45.833-10.333-72.833-7
					c16,8.667,26.333,14,26.333,14s-15.6,1.825-16,3.5c4.429,0.681,6.985,2.243,9.825,4.516C434.622,80.275,383.654,102.829,368,129
					c-64,107-62,371-62,371s506,0,629,0C926,337,851,179,796,105z M554,433.5c-4.333-86.5-39.667-123.167-39.667-123.167
					S525,309,583.5,303s108.055-13.729,108.055-13.729S696.888,427.741,554,433.5z"/>
			</defs>
			<clipPath id="SVGID_21_">
				<use xlink:href="#SVGID_20_"  overflow="visible"/>
			</clipPath>
			<g clip-path="url(#SVGID_21_)">
				<g>
					<path fill="#F4F0EA" d="M678.72,133.177c9.177,11.436,14.562,26.022,14.275,41.829c-0.649,35.893-30.273,64.462-66.166,63.812
						c-14.992-0.271-28.696-5.611-39.537-14.338c11.662,14.533,29.45,23.975,49.537,24.338c35.893,0.65,65.517-27.919,66.166-63.812
						C703.374,164.105,693.833,145.344,678.72,133.177z"/>
				</g>
			</g>
		</g>
	</g>
	<g>
		<g>
			<defs>
				<path id="SVGID_22_" d="M796,105c-18.66-25.106-46.547-45.575-117-52c-13.411-1.223-26.89-1.945-40.322-2.218
					c-43.443-7.824-86.008-15.525-115.906-14.049C539.395,41.156,549.5,51,549.5,51s-45.833-10.333-72.833-7
					c16,8.667,26.333,14,26.333,14s-15.6,1.825-16,3.5c4.429,0.681,6.985,2.243,9.825,4.516C434.622,80.275,383.654,102.829,368,129
					c-64,107-62,371-62,371s506,0,629,0C926,337,851,179,796,105z M554,433.5c-4.333-86.5-39.667-123.167-39.667-123.167
					S525,309,583.5,303s108.055-13.729,108.055-13.729S696.888,427.741,554,433.5z"/>
			</defs>
			<clipPath id="SVGID_23_">
				<use xlink:href="#SVGID_22_"  overflow="visible"/>
			</clipPath>
			<path clip-path="url(#SVGID_23_)" d="M552.318,267.673c-2.851,1.599,0.96,14.54,5.613,12.144
				C562.588,277.421,555.165,266.076,552.318,267.673z"/>
		</g>
	</g>
	<g>
		<g>
			<defs>
				<path id="SVGID_24_" d="M796,105c-18.66-25.106-46.547-45.575-117-52c-13.411-1.223-26.89-1.945-40.322-2.218
					c-43.443-7.824-86.008-15.525-115.906-14.049C539.395,41.156,549.5,51,549.5,51s-45.833-10.333-72.833-7
					c16,8.667,26.333,14,26.333,14s-15.6,1.825-16,3.5c4.429,0.681,6.985,2.243,9.825,4.516C434.622,80.275,383.654,102.829,368,129
					c-64,107-62,371-62,371s506,0,629,0C926,337,851,179,796,105z M554,433.5c-4.333-86.5-39.667-123.167-39.667-123.167
					S525,309,583.5,303s108.055-13.729,108.055-13.729S696.888,427.741,554,433.5z"/>
			</defs>
			<clipPath id="SVGID_25_">
				<use xlink:href="#SVGID_24_"  overflow="visible"/>
			</clipPath>
			<path clip-path="url(#SVGID_25_)" d="M568.814,260.557c-6.604,1.502-1.216,20.736,5.521,20.16S575.416,259.057,568.814,260.557z"
				/>
		</g>
	</g>
</g>
</svg>
