<?xml version="1.0" encoding="utf-8"?>
<!-- Generator: Adobe Illustrator 15.0.0, SVG Export Plug-In . SVG Version: 6.00 Build 0)  -->
<!DOCTYPE svg PUBLIC "-//W3C//DTD SVG 1.1//EN" "http://www.w3.org/Graphics/SVG/1.1/DTD/svg11.dtd">
<svg version="1.1" xmlns="http://www.w3.org/2000/svg" xmlns:xlink="http://www.w3.org/1999/xlink" x="0px" y="0px" width="1200px"
	 height="500px" viewBox="0 0 1200 500" enable-background="new 0 0 1200 500" xml:space="preserve">
<filter  id="AI_GaussianBlur_7">
	<feGaussianBlur  stdDeviation="7"></feGaussianBlur>
</filter>
<filter  id="AI_GaussianBlur_4">
	<feGaussianBlur  stdDeviation="4"></feGaussianBlur>
</filter>
<g id="horns">
	<path fill="#D8C49C" d="M777.756,101.434c0,0,66.285-30.571,92.673-96.124c30.449,79.912,0.748,166.211,0.748,166.211
		L777.756,101.434z"/>
	<g>
		<g>
			<path fill="#E5D6BA" d="M870.19,5.884c-26.544,65.154-92.435,95.549-92.435,95.549l30.988,23.249
				C856.334,76.581,867.558,25.906,870.19,5.884z"/>
		</g>
	</g>
	<path fill="#D8C49C" d="M383,119c0,0-77-5-111.359-39.336c2.646,59.455,45.473,106.36,45.473,106.36L383,119z"/>
	<g>
		<g>
			<path fill="#E5D6BA" d="M353.547,126.958c6.76,1.09,13.002,2.065,18.823,2.855L383,119c0,0-67.948-4.415-104.667-33.415
				C298.233,109.608,319.583,121.48,353.547,126.958z"/>
		</g>
	</g>
	<path d="M453.454,329.103c-4.09,14.097,69.611,110.452,138.277,118.966c68.667,8.516,165.149-144.858,137.705-169.286
		C701.989,254.351,464.822,289.938,453.454,329.103z"/>
	<path fill="#FFFFFF" d="M561.125,431.566c0,0-0.801-16.28,1.769-16.407c1.313-0.064,19.15,0.431,38.063-2.913
		c18.112-3.201,37.332-10.247,38.59-10.309c2.57-0.128,8.429,14.186,8.429,14.186L672,463l-108.935,7.982L561.125,431.566z"/>
	<path fill="#FFFFFF" d="M617.321,272.045c0,0,5.216,44.313,18.831,68.837c6.989-42.927,11.136-70.919,11.136-70.919
		L617.321,272.045z"/>
	<path fill="#FFFFFF" d="M528.894,286.709c0,0,3.432,38.605,17.158,60.053c1.716-33.458,15.442-70.348,15.442-70.348
		L528.894,286.709z"/>
	<g id="Layer_5">
		<defs>
			<path id="SVGID_1_" d="M777.756,101.434c0,0,66.285-30.571,92.673-96.124c30.449,79.912,0.748,166.211,0.748,166.211
				L777.756,101.434z M383,119c0,0-77-5-111.359-39.336c2.646,59.455,45.473,106.36,45.473,106.36L383,119z"/>
		</defs>
		<clipPath id="SVGID_2_">
			<use xlink:href="#SVGID_1_"  overflow="visible"/>
		</clipPath>
		<g opacity="0.2" clip-path="url(#SVGID_2_)" filter="url(#AI_GaussianBlur_4)">
			<path d="M844,99c-18.66-25.106-76.574-40.297-147.027-46.722C559.764,39.767,362.464,84.74,333,134c-64,107-27,366-27,366
				s539,0,662,0C982.812,366.685,899,173,844,99z"/>
		</g>
	</g>
</g>
</svg>
