<?xml version="1.0" encoding="utf-8"?>
<!-- Generator: Adobe Illustrator 15.0.0, SVG Export Plug-In . SVG Version: 6.00 Build 0)  -->
<!DOCTYPE svg PUBLIC "-//W3C//DTD SVG 1.1//EN" "http://www.w3.org/Graphics/SVG/1.1/DTD/svg11.dtd">
<svg version="1.1" id="Layer_1" xmlns="http://www.w3.org/2000/svg" xmlns:xlink="http://www.w3.org/1999/xlink" x="0px" y="0px"
	 width="1200px" height="500px" viewBox="0 0 1200 500" enable-background="new 0 0 1200 500" xml:space="preserve">
<g id="horns">
	<path fill="#D8C49C" d="M742.621,100.437c0,0,68.21-25.996,98.99-89.604c24.948,81.796-10.547,165.877-10.547,165.877
		L742.621,100.437z"/>
	<g>
		<g>
			<path fill="#E5D6BA" d="M742.621,100.437l29.338,25.301c50.747-44.757,65.389-94.553,69.375-114.349
				C810.426,74.589,742.621,100.437,742.621,100.437z"/>
		</g>
	</g>
	<path fill="#D8C49C" d="M410.621,119.603c0,0-77.156-0.989-113.255-33.491c5.734,59.237,50.942,103.851,50.942,103.851
		L410.621,119.603z"/>
	<g>
		<g>
			<path fill="#E5D6BA" d="M381.621,129.082c6.808,0.737,13.092,1.386,18.947,1.872l10.053-11.351c0,0-68.084-0.875-106.263-27.924
				C325.481,114.633,347.419,125.378,381.621,129.082z"/>
		</g>
	</g>
	<path d="M453.454,329.104c-2.688,9.267-26.967,94.357,14.046,126.396c21.378,16.701,114.472,11.083,138,14
		c68.667,8.516,151.38-166.289,123.936-190.717C701.989,254.352,464.822,289.938,453.454,329.104z"/>
	<path fill="#FFFFFF" d="M561.894,415.159c0,0,20.15,0.431,39.063-2.913C619.069,409.045,668.5,397.5,690,357s-18,106-18,106
		l-108.935,7.982L561.894,415.159z"/>
	<path fill="#FFFFFF" d="M593.354,269.105c0,0,9.576,43.58,25.553,66.636c2.706-43.408,4.061-71.673,4.061-71.673L593.354,269.105z"
		/>
	<path fill="#FFFFFF" d="M535.604,285.566c0,0,7.237,38.076,23.02,58.061c-1.605-33.464,8.402-71.531,8.402-71.531L535.604,285.566z
		"/>
</g>
</svg>
