<?xml version="1.0" encoding="utf-8"?>
<!-- Generator: Adobe Illustrator 15.0.0, SVG Export Plug-In . SVG Version: 6.00 Build 0)  -->
<!DOCTYPE svg PUBLIC "-//W3C//DTD SVG 1.1//EN" "http://www.w3.org/Graphics/SVG/1.1/DTD/svg11.dtd">
<svg version="1.1" id="Layer_1" xmlns="http://www.w3.org/2000/svg" xmlns:xlink="http://www.w3.org/1999/xlink" x="0px" y="0px"
	 width="1200px" height="500px" viewBox="0 0 1200 500" enable-background="new 0 0 1200 500" xml:space="preserve">
<g id="arms">
	<path fill="#BC1515" d="M980.26,229.224c-4.152-26.916,27.538-58.908,60.727-47.535c33.19,11.374,18.667,46.556,18.667,46.556
		s85.402,77.703,64.18,102.892c-21.222,25.19-79.116,66.361-147.915,40.11C907.12,344.993,937.602,240.244,980.26,229.224z"/>
	
		<radialGradient id="SVGID_1_" cx="1277.8486" cy="-8.1816" r="43.987" gradientTransform="matrix(0.957 0.0351 0.0351 -0.957 -215.1266 130.5392)" gradientUnits="userSpaceOnUse">
		<stop  offset="0" style="stop-color:#FF1010"/>
		<stop  offset="1" style="stop-color:#D10D0D"/>
	</radialGradient>
	<path fill="url(#SVGID_1_)" d="M1028.307,200.655c17.717,2.878,30.544-5.95,22.042-14.384c-2.593-1.767-5.682-3.32-9.362-4.582
		c-32.395-11.102-63.357,19.114-60.957,45.598C990.263,219.93,1010.351,197.738,1028.307,200.655z"/>
	<path opacity="0.5" fill="#E8E8E8" enable-background="new    " d="M1046.292,196.728c-5.851,1.242-37.92,15.484-48.695,20.309
		c-6.759-28.202-11.991-48.669-13.666-52.473c-6.005-13.637-177.902,12.964-183.121,27.285
		c-5.214,14.322,19.68,249.846,24.866,268.353c5.185,18.509,223.788,7.327,219.884-23.435c-0.789-6.212-3.528-20.466-7.445-39.366
		c18.196-4.696,65.674-18.986,69.281-41.072C1111.866,328.96,1053.349,195.233,1046.292,196.728z M1031.085,364.309
		c-8.435-38.976-19.128-86.303-28.252-125.178c8.256-2.18,30.775-7.749,37.006-5.357c7.674,2.946,38.847,101.097,38.873,114.166
		C1078.731,357.514,1047.684,362.387,1031.085,364.309z"/>
	
		<linearGradient id="right-mug-fill_1_" gradientUnits="userSpaceOnUse" x1="1111.1973" y1="-83.3159" x2="1267.0673" y2="-257.0526" gradientTransform="matrix(0.9946 0.1041 0.1041 -0.9946 -245.6265 20.5482)">
		<stop  offset="0" style="stop-color:#FBBD46"/>
		<stop  offset="1" style="stop-color:#EBA41C"/>
	</linearGradient>
	<path id="right-mug-fill" opacity="0.85" fill="url(#right-mug-fill_1_)" enable-background="new    " d="M819.293,198.741
		c-0.59,5.649,18.308,215.631,32.955,229.554c14.646,13.923,155.858,8.267,160.584-19.115
		c4.726-27.379-37.631-226.327-41.469-231.064C967.521,173.377,820.192,190.162,819.293,198.741z"/>
	
		<linearGradient id="SVGID_2_" gradientUnits="userSpaceOnUse" x1="1193.5596" y1="-272.1841" x2="1192.6271" y2="-229.292" gradientTransform="matrix(0.9993 0.0367 0.0367 -0.9993 -251.2051 123.6558)">
		<stop  offset="0" style="stop-color:#D19725"/>
		<stop  offset="1" style="stop-color:#D19725;stop-opacity:0.21"/>
	</linearGradient>
	<path fill="url(#SVGID_2_)" d="M941.045,404.597c-47.566,4.091-81.993,15.15-89.82,22.422c0.344,0.527,0.685,0.954,1.022,1.276
		c14.44,13.728,151.893,8.421,160.294-17.97C1007.061,404.325,983.497,400.946,941.045,404.597z"/>
	
		<radialGradient id="SVGID_3_" cx="1295.1562" cy="-53.4619" r="88.0327" gradientTransform="matrix(0.9439 0.0988 0.0988 -0.9439 -195.3894 34.5565)" gradientUnits="userSpaceOnUse">
		<stop  offset="0" style="stop-color:#FF1010"/>
		<stop  offset="1" style="stop-color:#D10D0D"/>
	</radialGradient>
	<path fill="url(#SVGID_3_)" d="M1028.277,291.242c-11.192-5.508-18.359-19.887-17.534-39.622
		c0.829-19.737,39.343-44.022,70.941-41.511c36.86,2.931,31.62,61.851,18.901,67.954
		C1087.867,284.164,1039.471,296.751,1028.277,291.242z"/>
	<path fill="#BC1515" d="M1028.277,291.242c11.193,5.509,59.59-7.078,72.31-13.181c10.584-5.078,15.983-46.728-3.745-62.256
		c9.179,10.677,2.669,37.231-5.506,41.154c-8.481,4.067-41.077,13.663-51.779,21.215c-10.48,7.396-22.843-35.308-21.019-42.648
		c-4.696,5.293-7.572,10.854-7.794,16.094C1009.918,271.355,1017.085,285.734,1028.277,291.242z"/>
	
		<radialGradient id="SVGID_4_" cx="1330.918" cy="-122.1431" r="84.0575" gradientTransform="matrix(0.9439 0.0988 0.0988 -0.9439 -195.3894 34.5565)" gradientUnits="userSpaceOnUse">
		<stop  offset="0" style="stop-color:#FF1010"/>
		<stop  offset="1" style="stop-color:#D10D0D"/>
	</radialGradient>
	<path fill="url(#SVGID_4_)" d="M1120.177,277.326c-14.752-17.491-78.895-0.828-88.216,26.071
		c-4.354,12.563,7.984,36.148,15.438,41.883c7.45,5.736,48.752,7.762,62.075-1.244
		C1134.474,327.14,1141.667,302.806,1120.177,277.326z"/>
	<path fill="#BC1515" d="M1113.719,321.25c-16.184,12.556-53.231,17.347-60.263,13.516c-6.334-3.452-17.537-27.502-17.704-38.379
		c-1.658,2.241-2.95,4.585-3.791,7.013c-4.354,12.562,7.984,36.146,15.438,41.882c7.45,5.737,48.752,7.761,62.075-1.244
		c25-16.896,32.192-41.229,10.702-66.71C1120.177,277.326,1129.9,308.697,1113.719,321.25z"/>
	<g>
		<defs>
			<path id="SVGID_5_" d="M819.293,198.741c-0.59,5.649,18.308,215.631,32.955,229.554c14.646,13.923,155.858,8.267,160.584-19.115
				c4.726-27.379-37.631-226.327-41.469-231.064C967.521,173.377,820.192,190.162,819.293,198.741z"/>
		</defs>
		<clipPath id="SVGID_6_">
			<use xlink:href="#SVGID_5_"  overflow="visible"/>
		</clipPath>
		
			<circle opacity="0.4" clip-path="url(#SVGID_6_)" fill="#FFFFFF" enable-background="new    " cx="880.964" cy="414.522" r="4.662"/>
	</g>
	<g>
		<defs>
			<path id="SVGID_7_" d="M819.293,198.741c-0.59,5.649,18.308,215.631,32.955,229.554c14.646,13.923,155.858,8.267,160.584-19.115
				c4.726-27.379-37.631-226.327-41.469-231.064C967.521,173.377,820.192,190.162,819.293,198.741z"/>
		</defs>
		<clipPath id="SVGID_8_">
			<use xlink:href="#SVGID_7_"  overflow="visible"/>
		</clipPath>
		
			<circle opacity="0.3" clip-path="url(#SVGID_8_)" fill="#FFFFFF" enable-background="new    " cx="963.195" cy="385.814" r="4.662"/>
	</g>
	<g>
		<defs>
			<path id="SVGID_9_" d="M819.293,198.741c-0.59,5.649,18.308,215.631,32.955,229.554c14.646,13.923,155.858,8.267,160.584-19.115
				c4.726-27.379-37.631-226.327-41.469-231.064C967.521,173.377,820.192,190.162,819.293,198.741z"/>
		</defs>
		<clipPath id="SVGID_10_">
			<use xlink:href="#SVGID_9_"  overflow="visible"/>
		</clipPath>
		
			<circle opacity="0.2" clip-path="url(#SVGID_10_)" fill="#FFFFFF" enable-background="new    " cx="892.778" cy="346.841" r="4.662"/>
	</g>
	<g>
		<defs>
			<path id="SVGID_11_" d="M819.293,198.741c-0.59,5.649,18.308,215.631,32.955,229.554c14.646,13.923,155.858,8.267,160.584-19.115
				c4.726-27.379-37.631-226.327-41.469-231.064C967.521,173.377,820.192,190.162,819.293,198.741z"/>
		</defs>
		<clipPath id="SVGID_12_">
			<use xlink:href="#SVGID_11_"  overflow="visible"/>
		</clipPath>
		
			<circle opacity="0.5" clip-path="url(#SVGID_12_)" fill="#FFFFFF" enable-background="new    " cx="964.776" cy="266.438" r="4.662"/>
	</g>
	<g>
		<defs>
			<path id="SVGID_13_" d="M819.293,198.741c-0.59,5.649,18.308,215.631,32.955,229.554c14.646,13.923,155.858,8.267,160.584-19.115
				c4.726-27.379-37.631-226.327-41.469-231.064C967.521,173.377,820.192,190.162,819.293,198.741z"/>
		</defs>
		<clipPath id="SVGID_14_">
			<use xlink:href="#SVGID_13_"  overflow="visible"/>
		</clipPath>
		
			<circle opacity="0.4" clip-path="url(#SVGID_14_)" fill="#FFFFFF" enable-background="new    " cx="851.401" cy="253.881" r="4.662"/>
	</g>
	<g>
		<defs>
			<path id="SVGID_15_" d="M819.293,198.741c-0.59,5.649,18.308,215.631,32.955,229.554c14.646,13.923,155.858,8.267,160.584-19.115
				c4.726-27.379-37.631-226.327-41.469-231.064C967.521,173.377,820.192,190.162,819.293,198.741z"/>
		</defs>
		<clipPath id="SVGID_16_">
			<use xlink:href="#SVGID_15_"  overflow="visible"/>
		</clipPath>
		
			<circle opacity="0.3" clip-path="url(#SVGID_16_)" fill="#FFFFFF" enable-background="new    " cx="927.759" cy="207.229" r="4.663"/>
	</g>
	<g>
		<defs>
			<path id="SVGID_17_" d="M819.293,198.741c-0.59,5.649,18.308,215.631,32.955,229.554c14.646,13.923,155.858,8.267,160.584-19.115
				c4.726-27.379-37.631-226.327-41.469-231.064C967.521,173.377,820.192,190.162,819.293,198.741z"/>
		</defs>
		<clipPath id="SVGID_18_">
			<use xlink:href="#SVGID_17_"  overflow="visible"/>
		</clipPath>
		
			<circle opacity="0.2" clip-path="url(#SVGID_18_)" fill="#FFFFFF" enable-background="new    " cx="951.312" cy="353.654" r="2.914"/>
	</g>
	<g>
		<defs>
			<path id="SVGID_19_" d="M819.293,198.741c-0.59,5.649,18.308,215.631,32.955,229.554c14.646,13.923,155.858,8.267,160.584-19.115
				c4.726-27.379-37.631-226.327-41.469-231.064C967.521,173.377,820.192,190.162,819.293,198.741z"/>
		</defs>
		<clipPath id="SVGID_20_">
			<use xlink:href="#SVGID_19_"  overflow="visible"/>
		</clipPath>
		
			<circle opacity="0.5" clip-path="url(#SVGID_20_)" fill="#FFFFFF" enable-background="new    " cx="915.946" cy="376.617" r="2.914"/>
	</g>
	<g>
		<defs>
			<path id="SVGID_21_" d="M819.293,198.741c-0.59,5.649,18.308,215.631,32.955,229.554c14.646,13.923,155.858,8.267,160.584-19.115
				c4.726-27.379-37.631-226.327-41.469-231.064C967.521,173.377,820.192,190.162,819.293,198.741z"/>
		</defs>
		<clipPath id="SVGID_22_">
			<use xlink:href="#SVGID_21_"  overflow="visible"/>
		</clipPath>
		
			<circle opacity="0.4" clip-path="url(#SVGID_22_)" fill="#FFFFFF" enable-background="new    " cx="937.941" cy="311.175" r="2.914"/>
	</g>
	<g>
		<defs>
			<path id="SVGID_23_" d="M819.293,198.741c-0.59,5.649,18.308,215.631,32.955,229.554c14.646,13.923,155.858,8.267,160.584-19.115
				c4.726-27.379-37.631-226.327-41.469-231.064C967.521,173.377,820.192,190.162,819.293,198.741z"/>
		</defs>
		<clipPath id="SVGID_24_">
			<use xlink:href="#SVGID_23_"  overflow="visible"/>
		</clipPath>
		
			<circle opacity="0.3" clip-path="url(#SVGID_24_)" fill="#FFFFFF" enable-background="new    " cx="872.534" cy="288.248" r="2.914"/>
	</g>
	<g>
		<defs>
			<path id="SVGID_25_" d="M819.293,198.741c-0.59,5.649,18.308,215.631,32.955,229.554c14.646,13.923,155.858,8.267,160.584-19.115
				c4.726-27.379-37.631-226.327-41.469-231.064C967.521,173.377,820.192,190.162,819.293,198.741z"/>
		</defs>
		<clipPath id="SVGID_26_">
			<use xlink:href="#SVGID_25_"  overflow="visible"/>
		</clipPath>
		
			<circle opacity="0.2" clip-path="url(#SVGID_26_)" fill="#FFFFFF" enable-background="new    " cx="936.427" cy="225.276" r="2.914"/>
	</g>
	<g>
		<defs>
			<path id="SVGID_27_" d="M819.293,198.741c-0.59,5.649,18.308,215.631,32.955,229.554c14.646,13.923,155.858,8.267,160.584-19.115
				c4.726-27.379-37.631-226.327-41.469-231.064C967.521,173.377,820.192,190.162,819.293,198.741z"/>
		</defs>
		<clipPath id="SVGID_28_">
			<use xlink:href="#SVGID_27_"  overflow="visible"/>
		</clipPath>
		
			<circle opacity="0.5" clip-path="url(#SVGID_28_)" fill="#FFFFFF" enable-background="new    " cx="972.462" cy="336.702" r="2.914"/>
	</g>
	<g>
		<defs>
			<path id="SVGID_29_" d="M819.293,198.741c-0.59,5.649,18.308,215.631,32.955,229.554c14.646,13.923,155.858,8.267,160.584-19.115
				c4.726-27.379-37.631-226.327-41.469-231.064C967.521,173.377,820.192,190.162,819.293,198.741z"/>
		</defs>
		<clipPath id="SVGID_30_">
			<use xlink:href="#SVGID_29_"  overflow="visible"/>
		</clipPath>
		
			<circle opacity="0.4" clip-path="url(#SVGID_30_)" fill="#FFFFFF" enable-background="new    " cx="927.836" cy="332.265" r="2.914"/>
	</g>
	<g>
		<defs>
			<path id="SVGID_31_" d="M819.293,198.741c-0.59,5.649,18.308,215.631,32.955,229.554c14.646,13.923,155.858,8.267,160.584-19.115
				c4.726-27.379-37.631-226.327-41.469-231.064C967.521,173.377,820.192,190.162,819.293,198.741z"/>
		</defs>
		<clipPath id="SVGID_32_">
			<use xlink:href="#SVGID_31_"  overflow="visible"/>
		</clipPath>
		
			<circle opacity="0.3" clip-path="url(#SVGID_32_)" fill="#FFFFFF" enable-background="new    " cx="945.037" cy="270.379" r="2.914"/>
	</g>
	<g>
		<defs>
			<path id="SVGID_33_" d="M819.293,198.741c-0.59,5.649,18.308,215.631,32.955,229.554c14.646,13.923,155.858,8.267,160.584-19.115
				c4.726-27.379-37.631-226.327-41.469-231.064C967.521,173.377,820.192,190.162,819.293,198.741z"/>
		</defs>
		<clipPath id="SVGID_34_">
			<use xlink:href="#SVGID_33_"  overflow="visible"/>
		</clipPath>
		
			<circle opacity="0.2" clip-path="url(#SVGID_34_)" fill="#FFFFFF" enable-background="new    " cx="866.027" cy="236.689" r="2.914"/>
	</g>
	<g>
		<defs>
			<path id="SVGID_35_" d="M819.293,198.741c-0.59,5.649,18.308,215.631,32.955,229.554c14.646,13.923,155.858,8.267,160.584-19.115
				c4.726-27.379-37.631-226.327-41.469-231.064C967.521,173.377,820.192,190.162,819.293,198.741z"/>
		</defs>
		<clipPath id="SVGID_36_">
			<use xlink:href="#SVGID_35_"  overflow="visible"/>
		</clipPath>
		
			<circle opacity="0.5" clip-path="url(#SVGID_36_)" fill="#FFFFFF" enable-background="new    " cx="844.939" cy="328.29" r="2.914"/>
	</g>
	<g>
		<defs>
			<path id="SVGID_37_" d="M819.293,198.741c-0.59,5.649,18.308,215.631,32.955,229.554c14.646,13.923,155.858,8.267,160.584-19.115
				c4.726-27.379-37.631-226.327-41.469-231.064C967.521,173.377,820.192,190.162,819.293,198.741z"/>
		</defs>
		<clipPath id="SVGID_38_">
			<use xlink:href="#SVGID_37_"  overflow="visible"/>
		</clipPath>
		
			<circle opacity="0.4" clip-path="url(#SVGID_38_)" fill="#FFFFFF" enable-background="new    " cx="995.775" cy="387.943" r="2.914"/>
	</g>
	<g>
		<defs>
			<path id="SVGID_39_" d="M819.293,198.741c-0.59,5.649,18.308,215.631,32.955,229.554c14.646,13.923,155.858,8.267,160.584-19.115
				c4.726-27.379-37.631-226.327-41.469-231.064C967.521,173.377,820.192,190.162,819.293,198.741z"/>
		</defs>
		<clipPath id="SVGID_40_">
			<use xlink:href="#SVGID_39_"  overflow="visible"/>
		</clipPath>
		
			<circle opacity="0.3" clip-path="url(#SVGID_40_)" fill="#FFFFFF" enable-background="new    " cx="980.942" cy="309.021" r="2.914"/>
	</g>
	<g>
		<defs>
			<path id="SVGID_41_" d="M819.293,198.741c-0.59,5.649,18.308,215.631,32.955,229.554c14.646,13.923,155.858,8.267,160.584-19.115
				c4.726-27.379-37.631-226.327-41.469-231.064C967.521,173.377,820.192,190.162,819.293,198.741z"/>
		</defs>
		<clipPath id="SVGID_42_">
			<use xlink:href="#SVGID_41_"  overflow="visible"/>
		</clipPath>
		
			<circle opacity="0.2" clip-path="url(#SVGID_42_)" fill="#FFFFFF" enable-background="new    " cx="875.5" cy="385.396" r="2.914"/>
	</g>
	<path fill="#BC1515" d="M200.258,260.222c-2.997-26.568-41.253-48.716-69.766-29.397c-28.514,19.319-5.697,48.91-5.697,48.91
		s-60.901,95.597-34.313,113.994c26.59,18.398,92.036,42.499,150.451-0.081C299.352,351.063,243.507,259.678,200.258,260.222z"/>
	
		<radialGradient id="SVGID_43_" cx="1820.2598" cy="185.6455" r="43.9874" gradientTransform="matrix(-0.8975 0.2797 -0.2797 -0.8975 1848.3029 -118.7484)" gradientUnits="userSpaceOnUse">
		<stop  offset="0" style="stop-color:#FF1010"/>
		<stop  offset="1" style="stop-color:#D10D0D"/>
	</radialGradient>
	<path fill="url(#SVGID_43_)" d="M147.389,245.524c-16.044,7.289-30.468,2.229-24.585-7.951c2-2.341,4.527-4.609,7.689-6.75
		c27.831-18.858,64.943,1.796,69.486,27.504C188.39,253.991,163.647,238.139,147.389,245.524z"/>
	<path opacity="0.5" fill="#E8E8E8" enable-background="new    " d="M112.541,413.362c9.103,19.992,57.76,21.309,76.207,21.073
		c1.154,18.912,2.229,33.12,3.081,39.21c4.223,30.145,214.19-15.54,214.338-34.408c0.146-18.869-36.902-248.396-45.531-260.622
		c-8.629-12.223-178.323,6.832-180.5,21.295c-0.607,4.036-0.294,24.772,0.564,53.228c-11.449-1.797-45.498-7.033-51.36-6.703
		C122.27,246.836,101.26,388.585,112.541,413.362z M137.554,398.028c-3.337-12.387,0.923-113.393,7.436-118.159
		c5.286-3.869,28.054-4.394,36.436-4.452c1.364,39.177,3.42,86.765,5.462,125.857C170.668,403.729,140,407.106,137.554,398.028z"/>
	
		<linearGradient id="left-mug-fill_1_" gradientUnits="userSpaceOnUse" x1="1597.7314" y1="120.0396" x2="1750.7491" y2="-50.518" gradientTransform="matrix(-0.9325 0.3614 -0.3614 -0.9325 1853.4677 -248.0403)">
		<stop  offset="0" style="stop-color:#FBBD46"/>
		<stop  offset="1" style="stop-color:#EBA41C"/>
	</linearGradient>
	<path id="left-mug-fill" opacity="0.85" fill="url(#left-mug-fill_1_)" enable-background="new    " d="M344.902,189.902
		c2.012,5.201,38.169,208.988,27.878,225.95c-10.291,16.959-145.523,47.955-157.048,23.233
		c-11.525-24.723-22.619-224.095-20.202-229.572C197.948,204.037,341.841,182.008,344.902,189.902z"/>
	
		<linearGradient id="SVGID_44_" gradientUnits="userSpaceOnUse" x1="1691.1094" y1="-98.2051" x2="1690.194" y2="-56.0988" gradientTransform="matrix(-0.9547 0.2975 -0.2975 -0.9547 1885.8735 -150.0128)">
		<stop  offset="0" style="stop-color:#D19725"/>
		<stop  offset="1" style="stop-color:#D19725;stop-opacity:0.21"/>
	</linearGradient>
	<path fill="url(#SVGID_44_)" d="M282.557,416.261c46.116-8.37,81.575-6.756,90.863-1.881c-0.19,0.586-0.402,1.078-0.64,1.473
		c-10.146,16.72-141.727,47.08-156.481,24.243C219.949,432.999,241.4,423.731,282.557,416.261z"/>
	
		<radialGradient id="SVGID_45_" cx="1827.9795" cy="178.6709" r="88.0336" gradientTransform="matrix(-0.8687 0.3367 -0.3367 -0.8687 1804.9185 -204.597)" gradientUnits="userSpaceOnUse">
		<stop  offset="0" style="stop-color:#FF1010"/>
		<stop  offset="1" style="stop-color:#D10D0D"/>
	</radialGradient>
	<path fill="url(#SVGID_45_)" d="M170.737,331.335c9.186-8.101,12.273-23.566,6.409-42.05c-5.865-18.482-48.603-31.574-77.89-21.062
		c-34.165,12.267-14.033,66.733-0.414,69.242C112.462,339.97,161.551,339.437,170.737,331.335z"/>
	<path fill="#BC1515" d="M170.737,331.335c-9.186,8.102-58.275,8.635-71.895,6.13c-11.332-2.085-27.171-40.152-12.479-59.942
		c-5.946,12.479,7.057,35.961,15.811,37.571c9.082,1.671,42.433,2.368,54.515,6.769c11.833,4.307,12.55-39.331,8.933-45.816
		c5.812,3.806,9.967,8.334,11.525,13.238C183.01,307.767,179.922,323.234,170.737,331.335z"/>
	
		<radialGradient id="SVGID_46_" cx="1863.7432" cy="109.9878" r="84.0556" gradientTransform="matrix(-0.8687 0.3367 -0.3367 -0.8687 1804.9185 -204.597)" gradientUnits="userSpaceOnUse">
		<stop  offset="0" style="stop-color:#FF1010"/>
		<stop  offset="1" style="stop-color:#D10D0D"/>
	</radialGradient>
	<path fill="url(#SVGID_46_)" d="M80.094,341.811c9.472-20.367,74.527-21.095,90.282,1.988c7.358,10.781,1.741,36.297-3.842,43.652
		c-5.582,7.352-44.187,19.9-59.127,14.801C79.374,392.681,66.296,371.48,80.094,341.811z"/>
	<path fill="#BC1515" d="M97.521,381.761c18.563,7.727,54.894,2.728,60.567-2.714c5.112-4.901,9.532-30.567,6.891-40.915
		c2.146,1.698,3.976,3.585,5.397,5.667c7.358,10.781,1.741,36.297-3.842,43.652c-5.582,7.352-44.187,19.9-59.127,14.801
		c-28.033-9.571-41.112-30.771-27.313-60.441C80.094,341.811,78.959,374.032,97.521,381.761z"/>
	<g>
		<defs>
			<path id="SVGID_47_" d="M344.902,189.902c2.012,5.201,38.169,208.988,27.878,225.95
				c-10.291,16.959-145.523,47.955-157.048,23.233c-11.525-24.723-22.619-224.095-20.202-229.572
				C197.948,204.037,341.841,182.008,344.902,189.902z"/>
		</defs>
		<clipPath id="SVGID_48_">
			<use xlink:href="#SVGID_47_"  overflow="visible"/>
		</clipPath>
		
			<circle opacity="0.5" clip-path="url(#SVGID_48_)" fill="#FFFFFF" enable-background="new    " cx="342.03" cy="410.197" r="4.577"/>
	</g>
	<g>
		<defs>
			<path id="SVGID_49_" d="M344.902,189.902c2.012,5.201,38.169,208.988,27.878,225.95
				c-10.291,16.959-145.523,47.955-157.048,23.233c-11.525-24.723-22.619-224.095-20.202-229.572
				C197.948,204.037,341.841,182.008,344.902,189.902z"/>
		</defs>
		<clipPath id="SVGID_50_">
			<use xlink:href="#SVGID_49_"  overflow="visible"/>
		</clipPath>
		
			<circle opacity="0.2" clip-path="url(#SVGID_50_)" fill="#FFFFFF" enable-background="new    " cx="256.738" cy="404.171" r="4.577"/>
	</g>
	<g>
		<defs>
			<path id="SVGID_51_" d="M344.902,189.902c2.012,5.201,38.169,208.988,27.878,225.95
				c-10.291,16.959-145.523,47.955-157.048,23.233c-11.525-24.723-22.619-224.095-20.202-229.572
				C197.948,204.037,341.841,182.008,344.902,189.902z"/>
		</defs>
		<clipPath id="SVGID_52_">
			<use xlink:href="#SVGID_51_"  overflow="visible"/>
		</clipPath>
		
			<circle opacity="0.5" clip-path="url(#SVGID_52_)" fill="#FFFFFF" enable-background="new    " cx="313.413" cy="349.122" r="4.578"/>
	</g>
	<g>
		<defs>
			<path id="SVGID_53_" d="M344.902,189.902c2.012,5.201,38.169,208.988,27.878,225.95
				c-10.291,16.959-145.523,47.955-157.048,23.233c-11.525-24.723-22.619-224.095-20.202-229.572
				C197.948,204.037,341.841,182.008,344.902,189.902z"/>
		</defs>
		<clipPath id="SVGID_54_">
			<use xlink:href="#SVGID_53_"  overflow="visible"/>
		</clipPath>
		
			<circle opacity="0.2" clip-path="url(#SVGID_54_)" fill="#FFFFFF" enable-background="new    " cx="224.509" cy="291.489" r="4.577"/>
	</g>
	<g>
		<defs>
			<path id="SVGID_55_" d="M344.902,189.902c2.012,5.201,38.169,208.988,27.878,225.95
				c-10.291,16.959-145.523,47.955-157.048,23.233c-11.525-24.723-22.619-224.095-20.202-229.572
				C197.948,204.037,341.841,182.008,344.902,189.902z"/>
		</defs>
		<clipPath id="SVGID_56_">
			<use xlink:href="#SVGID_55_"  overflow="visible"/>
		</clipPath>
		
			<circle opacity="0.5" clip-path="url(#SVGID_56_)" fill="#FFFFFF" enable-background="new    " cx="328.678" cy="250.406" r="4.578"/>
	</g>
	<g>
		<defs>
			<path id="SVGID_57_" d="M344.902,189.902c2.012,5.201,38.169,208.988,27.878,225.95
				c-10.291,16.959-145.523,47.955-157.048,23.233c-11.525-24.723-22.619-224.095-20.202-229.572
				C197.948,204.037,341.841,182.008,344.902,189.902z"/>
		</defs>
		<clipPath id="SVGID_58_">
			<use xlink:href="#SVGID_57_"  overflow="visible"/>
		</clipPath>
		
			<circle opacity="0.3" clip-path="url(#SVGID_58_)" fill="#FFFFFF" enable-background="new    " cx="244.333" cy="225.868" r="4.577"/>
	</g>
	<g>
		<defs>
			<path id="SVGID_59_" d="M344.902,189.902c2.012,5.201,38.169,208.988,27.878,225.95
				c-10.291,16.959-145.523,47.955-157.048,23.233c-11.525-24.723-22.619-224.095-20.202-229.572
				C197.948,204.037,341.841,182.008,344.902,189.902z"/>
		</defs>
		<clipPath id="SVGID_60_">
			<use xlink:href="#SVGID_59_"  overflow="visible"/>
		</clipPath>
		
			<circle opacity="0.3" clip-path="url(#SVGID_60_)" fill="#FFFFFF" enable-background="new    " cx="259.715" cy="370.645" r="2.861"/>
	</g>
	<g>
		<defs>
			<path id="SVGID_61_" d="M344.902,189.902c2.012,5.201,38.169,208.988,27.878,225.95
				c-10.291,16.959-145.523,47.955-157.048,23.233c-11.525-24.723-22.619-224.095-20.202-229.572
				C197.948,204.037,341.841,182.008,344.902,189.902z"/>
		</defs>
		<clipPath id="SVGID_62_">
			<use xlink:href="#SVGID_61_"  overflow="visible"/>
		</clipPath>
		
			<circle opacity="0.5" clip-path="url(#SVGID_62_)" fill="#FFFFFF" enable-background="new    " cx="299.131" cy="383.292" r="2.861"/>
	</g>
	<g>
		<defs>
			<path id="SVGID_63_" d="M344.902,189.902c2.012,5.201,38.169,208.988,27.878,225.95
				c-10.291,16.959-145.523,47.955-157.048,23.233c-11.525-24.723-22.619-224.095-20.202-229.572
				C197.948,204.037,341.841,182.008,344.902,189.902z"/>
		</defs>
		<clipPath id="SVGID_64_">
			<use xlink:href="#SVGID_63_"  overflow="visible"/>
		</clipPath>
		
			<circle opacity="0.5" clip-path="url(#SVGID_64_)" fill="#FFFFFF" enable-background="new    " cx="261.447" cy="326.959" r="2.861"/>
	</g>
	<g>
		<defs>
			<path id="SVGID_65_" d="M344.902,189.902c2.012,5.201,38.169,208.988,27.878,225.95
				c-10.291,16.959-145.523,47.955-157.048,23.233c-11.525-24.723-22.619-224.095-20.202-229.572
				C197.948,204.037,341.841,182.008,344.902,189.902z"/>
		</defs>
		<clipPath id="SVGID_66_">
			<use xlink:href="#SVGID_65_"  overflow="visible"/>
		</clipPath>
		
			<circle opacity="0.3" clip-path="url(#SVGID_66_)" fill="#FFFFFF" enable-background="new    " cx="317.507" cy="288.402" r="2.861"/>
	</g>
	<g>
		<defs>
			<path id="SVGID_67_" d="M344.902,189.902c2.012,5.201,38.169,208.988,27.878,225.95
				c-10.291,16.959-145.523,47.955-157.048,23.233c-11.525-24.723-22.619-224.095-20.202-229.572
				C197.948,204.037,341.841,182.008,344.902,189.902z"/>
		</defs>
		<clipPath id="SVGID_68_">
			<use xlink:href="#SVGID_67_"  overflow="visible"/>
		</clipPath>
		
			<circle opacity="0.5" clip-path="url(#SVGID_68_)" fill="#FFFFFF" enable-background="new    " cx="240.766" cy="245.196" r="2.861"/>
	</g>
	<g>
		<defs>
			<path id="SVGID_69_" d="M344.902,189.902c2.012,5.201,38.169,208.988,27.878,225.95
				c-10.291,16.959-145.523,47.955-157.048,23.233c-11.525-24.723-22.619-224.095-20.202-229.572
				C197.948,204.037,341.841,182.008,344.902,189.902z"/>
		</defs>
		<clipPath id="SVGID_70_">
			<use xlink:href="#SVGID_69_"  overflow="visible"/>
		</clipPath>
		
			<circle opacity="0.4" clip-path="url(#SVGID_70_)" fill="#FFFFFF" enable-background="new    " cx="235.316" cy="360.031" r="2.861"/>
	</g>
	<g>
		<defs>
			<path id="SVGID_71_" d="M344.902,189.902c2.012,5.201,38.169,208.988,27.878,225.95
				c-10.291,16.959-145.523,47.955-157.048,23.233c-11.525-24.723-22.619-224.095-20.202-229.572
				C197.948,204.037,341.841,182.008,344.902,189.902z"/>
		</defs>
		<clipPath id="SVGID_72_">
			<use xlink:href="#SVGID_71_"  overflow="visible"/>
		</clipPath>
		
			<circle opacity="0.5" clip-path="url(#SVGID_72_)" fill="#FFFFFF" enable-background="new    " cx="276.449" cy="344.339" r="2.859"/>
	</g>
	<g>
		<defs>
			<path id="SVGID_73_" d="M344.902,189.902c2.012,5.201,38.169,208.988,27.878,225.95
				c-10.291,16.959-145.523,47.955-157.048,23.233c-11.525-24.723-22.619-224.095-20.202-229.572
				C197.948,204.037,341.841,182.008,344.902,189.902z"/>
		</defs>
		<clipPath id="SVGID_74_">
			<use xlink:href="#SVGID_73_"  overflow="visible"/>
		</clipPath>
		
			<circle opacity="0.2" clip-path="url(#SVGID_74_)" fill="#FFFFFF" enable-background="new    " cx="244.222" cy="290.141" r="2.861"/>
	</g>
	<g>
		<defs>
			<path id="SVGID_75_" d="M344.902,189.902c2.012,5.201,38.169,208.988,27.878,225.95
				c-10.291,16.959-145.523,47.955-157.048,23.233c-11.525-24.723-22.619-224.095-20.202-229.572
				C197.948,204.037,341.841,182.008,344.902,189.902z"/>
		</defs>
		<clipPath id="SVGID_76_">
			<use xlink:href="#SVGID_75_"  overflow="visible"/>
		</clipPath>
		
			<circle opacity="0.5" clip-path="url(#SVGID_76_)" fill="#FFFFFF" enable-background="new    " cx="310.396" cy="237.885" r="2.86"/>
	</g>
	<g>
		<defs>
			<path id="SVGID_77_" d="M344.902,189.902c2.012,5.201,38.169,208.988,27.878,225.95
				c-10.291,16.959-145.523,47.955-157.048,23.233c-11.525-24.723-22.619-224.095-20.202-229.572
				C197.948,204.037,341.841,182.008,344.902,189.902z"/>
		</defs>
		<clipPath id="SVGID_78_">
			<use xlink:href="#SVGID_77_"  overflow="visible"/>
		</clipPath>
		
			<circle opacity="0.4" clip-path="url(#SVGID_78_)" fill="#FFFFFF" enable-background="new    " cx="353.957" cy="319.232" r="2.861"/>
	</g>
	<g>
		<defs>
			<path id="SVGID_79_" d="M344.902,189.902c2.012,5.201,38.169,208.988,27.878,225.95
				c-10.291,16.959-145.523,47.955-157.048,23.233c-11.525-24.723-22.619-224.095-20.202-229.572
				C197.948,204.037,341.841,182.008,344.902,189.902z"/>
		</defs>
		<clipPath id="SVGID_80_">
			<use xlink:href="#SVGID_79_"  overflow="visible"/>
		</clipPath>
		
			<circle opacity="0.5" clip-path="url(#SVGID_80_)" fill="#FFFFFF" enable-background="new    " cx="226.422" cy="414.574" r="2.861"/>
	</g>
	<g>
		<defs>
			<path id="SVGID_81_" d="M344.902,189.902c2.012,5.201,38.169,208.988,27.878,225.95
				c-10.291,16.959-145.523,47.955-157.048,23.233c-11.525-24.723-22.619-224.095-20.202-229.572
				C197.948,204.037,341.841,182.008,344.902,189.902z"/>
		</defs>
		<clipPath id="SVGID_82_">
			<use xlink:href="#SVGID_81_"  overflow="visible"/>
		</clipPath>
		
			<circle opacity="0.3" clip-path="url(#SVGID_82_)" fill="#FFFFFF" enable-background="new    " cx="220.156" cy="335.99" r="2.859"/>
	</g>
	<g>
		<defs>
			<path id="SVGID_83_" d="M344.902,189.902c2.012,5.201,38.169,208.988,27.878,225.95
				c-10.291,16.959-145.523,47.955-157.048,23.233c-11.525-24.723-22.619-224.095-20.202-229.572
				C197.948,204.037,341.841,182.008,344.902,189.902z"/>
		</defs>
		<clipPath id="SVGID_84_">
			<use xlink:href="#SVGID_83_"  overflow="visible"/>
		</clipPath>
		
			<circle opacity="0.2" clip-path="url(#SVGID_84_)" fill="#FFFFFF" enable-background="new    " cx="339.706" cy="381.199" r="2.859"/>
	</g>
	
		<linearGradient id="SVGID_85_" gradientUnits="userSpaceOnUse" x1="1110.502" y1="-163.9204" x2="1174.4191" y2="-157.8902" gradientTransform="matrix(0.9997 0.0268 0.0268 -0.9997 -251.4124 137.9475)">
		<stop  offset="0" style="stop-color:#FFFFFF"/>
		<stop  offset="1" style="stop-color:#FFFFFF;stop-opacity:0"/>
	</linearGradient>
	<path opacity="0.38" fill="url(#SVGID_85_)" enable-background="new    " d="M933.36,456.96
		c-6.962-35.84-32.624-176.36-47.026-255.417c-4.081,1.965-14.801,2.167-20.89-2.223c0,0-1.712,14.221-19.485,12.08
		c1.168,8.674-7.779,15.158-7.779,15.158l28.91,231.688C867.09,458.246,890.299,462.648,933.36,456.96z"/>
	<path fill="#FFFFFF" d="M980.857,138.574c-6.987-18.298-31.234-15.453-31.234-15.453s-24.842-12.73-42.003-2.785
		c-20.873-16.006-52.525,7.404-62.806,16.357c-10.281,8.953-46.027-4.177-59.531,18.343c-13.505,22.521,1.249,35.814,1.249,35.814
		s-11.774,15.741-2.257,27.599c6.873,8.562,18.137,7.938,25.983,3.797c1.341,14.658,5.447,58.688,8.284,79.453
		c1.494,10.934-2.222,22.597-1.837,33.136c0.5,13.679,5.188,25.363,9.094,30.075c6.915,8.341,20.099-2.516,12.358-33.021
		c-6.806-26.819-15.419-96.716-17.643-115.302c13.599,0.953,22.021-6.543,19.531-14.461c8.415,2.777,20.263-4.525,20.283-13.563
		c2.9,5.686,27.414,7.246,31.98,1.504c10.803,2.263,16.988-5.286,16.988-5.286s18.964,17.181,38.787,19.462
		c19.821,2.282,25.29-19.601,25.29-19.601s13.042,7.774,29.385-9.345C1019.102,158.177,996.699,133.869,980.857,138.574z"/>
	<path fill="#F7ECDA" d="M988.187,138.28c4.039,4.956,13.086,18.073,3.348,26.174c-12.191,10.144-21.108,7.328-21.108,7.328
		s-3.006,12.02-26.43,11.471c-23.425-0.548-35.268-16.844-35.268-16.844s-2.219,18.118-18.943,16.18
		c-9.188,4.56-28.493-3.302-31.016-10.859c-3.906,13.231-13.025,24.404-24.185,23.373c1.313,6.58-14.736,11.67-22.713,8.693
		c-7.419,5.044-25.557,5.901-28.716-6.999c-2.549,5.667-4.715,14.386,1.119,21.653c6.873,8.562,18.137,7.938,25.983,3.797
		c0.035,0.371,0.071,0.772,0.108,1.18c5.671-3.854,9.22-7.415,9.22-7.415s9.422,75.946,12.182,102.474
		c2.697,25.938,9.308,49.939-3.172,48.634c7.055,3.15,16.348-8.49,9.562-35.229c-6.806-26.819-15.419-96.716-17.643-115.302
		c13.599,0.953,22.021-6.543,19.531-14.461c8.415,2.777,20.263-4.525,20.283-13.563c2.9,5.686,27.414,7.246,31.98,1.504
		c10.803,2.263,16.988-5.286,16.988-5.286s18.964,17.181,38.787,19.462c19.821,2.282,25.29-19.601,25.29-19.601
		s13.042,7.774,29.385-9.345C1016.68,160.714,1002.488,140.921,988.187,138.28z"/>
	
		<linearGradient id="SVGID_86_" gradientUnits="userSpaceOnUse" x1="484.5156" y1="-206.6094" x2="584.1377" y2="-206.6094" gradientTransform="matrix(0.9993 0.0367 0.0367 -0.9993 -251.2051 123.6558)">
		<stop  offset="0" style="stop-color:#FFFFFF"/>
		<stop  offset="1" style="stop-color:#FFFFFF;stop-opacity:0"/>
	</linearGradient>
	<path opacity="0.38" fill="url(#SVGID_86_)" enable-background="new    " d="M283.487,225.315c0,0-34.859,26.091-53.884,8.3
		c5.167,66.678,18.348,236.22,18.987,239.241c0.795,3.762,74.957-8.446,72.4-15.072c-1.934-5.011-18.77-156.875-26.855-230.542
		C288.998,227.695,283.487,225.315,283.487,225.315z"/>
	<path fill="#FFFFFF" d="M200.632,226.08c-3.027,7.856-27.834,16.073-38.299,1.891c-10.464-14.183-0.321-33.094-0.321-33.094
		s-11.486-3.505-9.629-13.188c1.856-9.681,11.832-10.526,11.832-10.526s-5.449-23.917,27.507-33.459
		c32.953-9.542,61.794,12.048,89.968-2.347c28.173-14.398,56.912-5.059,51.464,7.805c22.328-6.646,37.16,4.473,33.373,13.354
		c9.211,4.38,18.427,17.062,7.581,32.419c-10.848,15.358-58.493,3.53-58.493,3.53s-17.569,19.825-33.273,14.26
		c-7.135,5.508-61.513,25.179-66.034-3.58C220.341,216.876,212.663,225.985,200.632,226.08z"/>
	<g>
		<path fill="#F7ECDA" d="M366.526,156.515c1.09-2.556,0.631-5.296-1.099-7.745c0.459,3.974-1.778,8.08-6.153,10.34
			c1.793-0.731,4.67-1.784,7.65-2.395C366.792,156.649,366.659,156.579,366.526,156.515z"/>
		<path fill="#F7ECDA" d="M162.013,194.875c0,0-10.143,18.912,0.321,33.095c10.463,14.182,35.271,5.965,38.299-1.891
			c11.148-0.088,18.551-7.919,16.369-19.995c7.726,24.4,58.464,5.947,65.339,0.64c15.704,5.565,33.273-14.26,33.273-14.26
			s47.645,11.829,58.493-3.53c6.465-9.155,5.8-17.357,2.259-23.42c1.755,7.486-11.678,15.409-27.426,13.682
			c-17.038-1.868-33.951-7.154-33.951-7.154s-15.718,32.969-32.857,24.067c-11.196,9.517-62.226-1.118-65.726-7.468
			c-5,9.147-19.131,29.779-36.71,25.712c-17.58-4.066-15.342-22.645-15.342-22.645s-12.051-7.618-8.274-16.867
			c-1.668,1.551-3.1,3.743-3.695,6.847C150.527,191.37,162.013,194.875,162.013,194.875z"/>
		<path fill="#F7ECDA" d="M359.275,159.11c-1.147,0.467-1.853,0.803-1.853,0.803C358.08,159.683,358.693,159.411,359.275,159.11z"/>
		<path fill="#F7ECDA" d="M325.495,148.478c3.763-2.612,7.501-4.671,11.11-6.211c-1.131,0.254-2.278,0.544-3.452,0.894
			c1.956-4.615-0.506-8.769-5.749-11.543C328.429,134.323,331.175,143.2,325.495,148.478z"/>
	</g>
</g>
</svg>
