<?xml version="1.0" encoding="utf-8"?>
<!-- Generator: Adobe Illustrator 15.0.0, SVG Export Plug-In . SVG Version: 6.00 Build 0)  -->
<!DOCTYPE svg PUBLIC "-//W3C//DTD SVG 1.1//EN" "http://www.w3.org/Graphics/SVG/1.1/DTD/svg11.dtd">
<svg version="1.1" id="Layer_1" xmlns="http://www.w3.org/2000/svg" xmlns:xlink="http://www.w3.org/1999/xlink" x="0px" y="0px"
	 width="1200px" height="500px" viewBox="0 0 1200 500" enable-background="new 0 0 1200 500" xml:space="preserve">
<g id="marne">
	<g>
		
			<linearGradient id="SVGID_1_" gradientUnits="userSpaceOnUse" x1="1098.6074" y1="-294.7651" x2="1098.6074" y2="-345.0708" gradientTransform="matrix(1 0 0 -1 -256 155)">
			<stop  offset="0" style="stop-color:#FF811A"/>
			<stop  offset="1" style="stop-color:#DB6F16"/>
		</linearGradient>
		<path fill="url(#SVGID_1_)" d="M862.702,487.826c-0.364-0.907-25.691,0.729-26.2,0.588c-0.512-0.14-0.461-2.32-0.195-2.7
			c0.266-0.381,16.972-1.188,16.979-1.574c0.011-0.382-0.126-11.172-0.771-11.059c-0.646,0.113-16.074,1.338-16.456,1.073
			c-0.379-0.268-0.478-1.553,0.042-1.797c0.521-0.245,23.774-1.159,24.43-1.659c0.653-0.496,0.486-20.913-0.284-20.934
			c-0.769-0.017-37.938,3.033-38.205,3.411c-0.31,0.447-0.704,45.24-0.077,45.896c0.062,0.065,0.432,0.882,1.086,0.962
			c0,0,38.604,0.146,39.949-0.15C864.345,499.586,862.996,488.561,862.702,487.826z"/>
		
			<linearGradient id="SVGID_2_" gradientUnits="userSpaceOnUse" x1="1401.5469" y1="-295.7832" x2="1401.5469" y2="-345.0361" gradientTransform="matrix(1 0 0 -1 -256 155)">
			<stop  offset="0" style="stop-color:#FF811A"/>
			<stop  offset="1" style="stop-color:#DB6F16"/>
		</linearGradient>
		<path fill="url(#SVGID_2_)" d="M1163.965,484.76c-0.507-0.012-25.271,2.202-25.773,2.191c-0.509-0.016-0.969-1.928-0.592-1.917
			c0.381,0.011,30.105-3.104,30.126-3.86c0.019-0.764-1.277-30.072-1.654-30.205c-0.38-0.138-41.859-0.485-42.642,0.385
			c-0.381,0.422,1.169,39.028,2.208,47.391c0,0,39.648,1.888,41.07,1.099C1168.131,499.052,1164.337,484.769,1163.965,484.76z
			 M1136.502,472.339c0.26-0.377,12.155,0.406,12.661,0.419c0.507,0.011,0.817,3.061,0.807,3.439
			c-0.008,0.38-12.328,2.473-12.846,2.107C1136.747,478.045,1136.24,472.71,1136.502,472.339z"/>
		
			<linearGradient id="SVGID_3_" gradientUnits="userSpaceOnUse" x1="1002.4004" y1="-293.1035" x2="1002.4004" y2="-344.7329" gradientTransform="matrix(1 0 0 -1 -256 155)">
			<stop  offset="0" style="stop-color:#FF811A"/>
			<stop  offset="1" style="stop-color:#DB6F16"/>
		</linearGradient>
		<path fill="url(#SVGID_3_)" d="M741.732,488.04c0.209-0.296,8.932,10.479,9.945,10.946c1.015,0.467,19.598-0.476,19.598-0.476
			c-1.952-3.996-7.487-13.082-7.487-13.082s5.852-0.542,6.681-1.202c0.83-0.659-8.676-35.635-9.751-36.068
			c-1.076-0.434-38.599,1.817-39.155,2.35c-0.299,0.288,1.39,46.912,2.399,47.694c1.01,0.784,20.131,1.89,21.554,1.416
			C746.938,499.145,741.53,488.328,741.732,488.04z M739.495,479.298c-0.402-0.282-1.088-5.865-0.805-6.265
			c0.278-0.398,11.259,0.397,11.8,0.411c0.542,0.014,2.077,4.12,1.932,4.523C752.276,478.372,739.938,479.609,739.495,479.298z"/>
		
			<linearGradient id="SVGID_4_" gradientUnits="userSpaceOnUse" x1="1167.3779" y1="-295.2534" x2="1167.3779" y2="-345.0356" gradientTransform="matrix(1 0 0 -1 -256 155)">
			<stop  offset="0" style="stop-color:#FF811A"/>
			<stop  offset="1" style="stop-color:#DB6F16"/>
		</linearGradient>
		<path fill="url(#SVGID_4_)" d="M929.971,450.254c-0.877,0.293-36.085,2.22-36.826,2.777c-0.74,0.554-3.702,30.533-3.146,30.533
			s29.609,2.592,29.609,2.592s0,2.773-0.926,2.773s-27.573-2.961-28.129-2.403c-0.556,0.555,0.862,13.509,1.416,13.509
			c0.557,0,38.558,0,39.481,0c0.926,0,1.851-18.691,1.108-18.691c-0.738,0-30.901-1.109-31.089-1.852
			c-0.185-0.74-0.37-1.663,0.557-1.663c0.924,0,27.943,0.184,28.869,0C931.82,477.642,930.525,450.067,929.971,450.254z"/>
		
			<linearGradient id="SVGID_5_" gradientUnits="userSpaceOnUse" x1="1356.0684" y1="-294.8501" x2="1356.0684" y2="-345.0356" gradientTransform="matrix(1 0 0 -1 -256 155)">
			<stop  offset="0" style="stop-color:#FF811A"/>
			<stop  offset="1" style="stop-color:#DB6F16"/>
		</linearGradient>
		<path fill="url(#SVGID_5_)" d="M1118.811,449.851c-0.884,0.296-36.377,2.237-37.125,2.801c-0.746,0.559-3.731,30.779-3.172,30.779
			c0.561,0,29.851,2.612,29.851,2.612s0,2.798-0.935,2.798c-0.934,0-27.797-2.983-28.355-2.424
			c-0.561,0.559,0.868,13.618,1.428,13.618c0.561,0,38.869,0,39.802,0c0.934,0,1.865-18.843,1.118-18.843
			c-0.746,0-31.152-1.12-31.342-1.867c-0.188-0.745-0.374-1.677,0.561-1.677c0.933,0,28.172,0.186,29.104,0
			C1120.675,477.461,1119.37,449.664,1118.811,449.851z"/>
		
			<linearGradient id="SVGID_6_" gradientUnits="userSpaceOnUse" x1="952.1094" y1="-293.7729" x2="952.1094" y2="-345.3335" gradientTransform="matrix(1 0 0 -1 -256 155)">
			<stop  offset="0" style="stop-color:#FF811A"/>
			<stop  offset="1" style="stop-color:#DB6F16"/>
		</linearGradient>
		<path fill="url(#SVGID_6_)" d="M685.91,496.375c0.646,0.016,13.51-1.31,14.157-1.296c0.437,0.012,2.7,4.507,3.299,4.956
			c0.599,0.448,19.118-0.442,19.118-0.442c-0.562-5.468-12.059-49.438-12.639-50.67c-0.619-1.312-34.697,6.338-34.896,7.958
			c-0.179,1.437-4.472,34.939-5.213,42.712l15.396,0.74C685.476,498.925,685.507,496.365,685.91,496.375z M686.809,478.694
			c0.501-0.641,7.963-0.791,8.301-0.782c0.649,0.016,5.231,5.479,4.422,5.462c-0.812-0.018-13.333,0.664-13.816,0.489
			C685.229,483.691,686.306,479.332,686.809,478.694z"/>
		
			<linearGradient id="SVGID_7_" gradientUnits="userSpaceOnUse" x1="1258.7773" y1="-293.7729" x2="1258.7773" y2="-345.3335" gradientTransform="matrix(1 0 0 -1 -256 155)">
			<stop  offset="0" style="stop-color:#FF811A"/>
			<stop  offset="1" style="stop-color:#DB6F16"/>
		</linearGradient>
		<path fill="url(#SVGID_7_)" d="M992.577,496.375c0.646,0.016,13.51-1.31,14.157-1.296c0.437,0.012,2.699,4.507,3.299,4.956
			c0.599,0.448,19.118-0.442,19.118-0.442c-0.562-5.468-12.059-49.438-12.639-50.67c-0.619-1.312-34.697,6.338-34.896,7.958
			c-0.178,1.437-4.471,34.939-5.213,42.712l15.396,0.74C992.143,498.925,992.174,496.365,992.577,496.375z M993.475,478.694
			c0.502-0.641,7.963-0.791,8.302-0.782c0.649,0.016,5.231,5.479,4.422,5.462c-0.812-0.018-13.333,0.664-13.816,0.489
			C991.896,483.691,992.973,479.332,993.475,478.694z"/>
		
			<linearGradient id="SVGID_8_" gradientUnits="userSpaceOnUse" x1="897.8115" y1="-295.0474" x2="897.8115" y2="-345.2207" gradientTransform="matrix(1 0 0 -1 -256 155)">
			<stop  offset="0" style="stop-color:#FF811A"/>
			<stop  offset="1" style="stop-color:#DB6F16"/>
		</linearGradient>
		<path fill="url(#SVGID_8_)" d="M630.899,500.092c0.861-0.287,1.504-11.418,2.11-11.075c0.607,0.346,5.407,4.336,6.031,4.367
			c0.621,0.031,7.513-6.496,7.98-6.474c0.467,0.021,0.639,12.984,1.106,12.998c0.288,0.005,19.827,0.184,19.827,0.184
			c0.23-0.026,0.363-0.063,0.379-0.115c0.17-0.619-3.846-48.754-4.257-49.868c-0.414-1.113-25.118,13.31-26.069,13.572
			c-0.95,0.266-19.011-11.938-20.281-11.528c-0.551,0.175-2.954,41.707-2.341,47.939
			C615.388,500.092,630.038,500.38,630.899,500.092z"/>
		
			<linearGradient id="SVGID_9_" gradientUnits="userSpaceOnUse" x1="1050.7168" y1="-293.8667" x2="1050.7168" y2="-345.0366" gradientTransform="matrix(1 0 0 -1 -256 155)">
			<stop  offset="0" style="stop-color:#FF811A"/>
			<stop  offset="1" style="stop-color:#DB6F16"/>
		</linearGradient>
		<path fill="url(#SVGID_9_)" d="M774.503,500.035c-0.757,0-3.969-47.461-3.588-48.202c0.376-0.742,15.102-2.04,15.858-2.04
			c0.756,0,11.139,26.513,11.139,26.513s-2.077-27.439-1.51-27.439c0.565,0,21.71,0.129,22.088,0.87
			c0.38,0.738-1.133,50.3-1.697,50.3c-0.567,0-19.446,0-20.202,0c-0.755,0-7.93-12.978-7.93-12.978s1.133,12.978,0.38,12.978
			C788.285,500.035,774.503,500.035,774.503,500.035z"/>
		
			<linearGradient id="SVGID_10_" gradientUnits="userSpaceOnUse" x1="1308.585" y1="-293.8667" x2="1308.585" y2="-345.0366" gradientTransform="matrix(1 0 0 -1 -256 155)">
			<stop  offset="0" style="stop-color:#FF811A"/>
			<stop  offset="1" style="stop-color:#DB6F16"/>
		</linearGradient>
		<path fill="url(#SVGID_10_)" d="M1031.07,500.035c-0.758,0-3.97-47.461-3.59-48.202c0.377-0.742,15.104-2.04,15.859-2.04
			c0.755,0,11.139,26.513,11.139,26.513s-2.076-27.439-1.511-27.439c0.567,0,24.354,0.002,24.73,0.743
			c0.38,0.738-3.774,50.427-4.339,50.427c-0.569,0-19.446,0-20.201,0s-7.934-12.978-7.934-12.978s1.136,12.978,0.381,12.978
			C1044.854,500.035,1031.07,500.035,1031.07,500.035z"/>
		
			<linearGradient id="SVGID_11_" gradientUnits="userSpaceOnUse" x1="1212.7285" y1="-296.0425" x2="1212.7285" y2="-345.0366" gradientTransform="matrix(1 0 0 -1 -256 155)">
			<stop  offset="0" style="stop-color:#FF811A"/>
			<stop  offset="1" style="stop-color:#DB6F16"/>
		</linearGradient>
		<path fill="url(#SVGID_11_)" d="M935.938,451.042c0,0,42.304,1.078,43.165,1.511c0.863,0.433-2.374,19.424-3.236,19.642
			c-0.862,0.215-26.547,12.301-25.899,12.301c0.648,0,24.605-3.021,25.468-2.806c0.863,0.216-0.861,18.347-0.861,18.347h-40.36
			l1.728-22.663c0,0,33.452-8.632,33.452-9.28c0-0.646-30.646,1.728-31.294,1.296C937.448,468.956,935.938,451.042,935.938,451.042z
			"/>
	</g>
</g>
</svg>
