<?xml version="1.0" encoding="utf-8"?>
<!-- Generator: Adobe Illustrator 15.0.0, SVG Export Plug-In . SVG Version: 6.00 Build 0)  -->
<!DOCTYPE svg PUBLIC "-//W3C//DTD SVG 1.1//EN" "http://www.w3.org/Graphics/SVG/1.1/DTD/svg11.dtd">
<svg version="1.1" id="Layer_1" xmlns="http://www.w3.org/2000/svg" xmlns:xlink="http://www.w3.org/1999/xlink" x="0px" y="0px"
	 width="38px" height="40px" viewBox="0 0 38 40" enable-background="new 0 0 38 40" xml:space="preserve">
<path fill="#8DC63F" d="M22.992,22.365c-4.474,0-8.099-3.627-8.099-8.101c0-0.333,0.058-0.691,0.142-1.058
	c-3.684,0.763-6.45,4.023-6.45,7.929c0,4.472,8.1,12.332,8.1,12.332s6.921-6.724,7.959-11.272
	C24.11,22.307,23.557,22.365,22.992,22.365z"/>
<path fill="#B4D88B" d="M18.255,12.69c0-3.515,6.363-9.69,6.363-9.69s6.367,6.176,6.367,9.69c0,3.517-2.851,6.366-6.367,6.366
	C21.104,19.057,18.255,16.207,18.255,12.69z"/>
</svg>
