<?xml version="1.0" encoding="utf-8"?>
<!-- Generator: Adobe Illustrator 15.0.0, SVG Export Plug-In . SVG Version: 6.00 Build 0)  -->
<!DOCTYPE svg PUBLIC "-//W3C//DTD SVG 1.1//EN" "http://www.w3.org/Graphics/SVG/1.1/DTD/svg11.dtd">
<svg version="1.1" id="Layer_1" xmlns="http://www.w3.org/2000/svg" xmlns:xlink="http://www.w3.org/1999/xlink" x="0px" y="0px"
	 width="103px" height="66px" viewBox="0 0 103 66" enable-background="new 0 0 103 66" xml:space="preserve">
<polygon fill="#FFFFFF" points="23.206,26.847 22.875,28.163 24.192,28.163 24.521,43.475 22.217,43.639 22.381,45.286 
	36.209,45.121 36.209,41.828 34.894,41.828 34.894,43.146 26.332,43.146 26.167,38.042 32.094,37.548 32.094,35.572 26.332,35.737 
	26.332,28.658 34.565,27.999 34.729,30.14 36.538,29.81 35.88,26.023 "/>
<polygon fill="#FFFFFF" points="81.477,2.607 102.483,34.219 84.744,63.082 82.311,63.845 98.107,34.428 79.633,5.055 "/>
<polygon fill="#FFFFFF" points="39.042,25.951 39.042,27.754 40.695,27.754 46.107,35.722 41.598,43.689 39.493,43.689 
	39.493,45.343 45.206,45.343 45.355,44.141 44.003,43.84 47.46,36.925 51.369,43.99 50.016,43.99 50.016,45.493 55.428,45.493 
	55.428,43.84 53.624,43.99 48.663,35.572 54.375,27.754 56.029,27.604 56.029,26.101 49.715,26.402 49.715,27.754 51.218,27.754 
	47.46,34.369 43.101,27.905 44.754,27.905 44.604,26.101 "/>
<polygon fill="#FFFFFF" points="58.232,30.01 58.232,25.951 74.374,25.5 74.674,29.408 73.472,29.408 72.871,27.454 67.78,27.754 
	68.081,43.84 70.637,43.689 70.637,45.343 63.271,45.343 63.271,43.539 66.127,43.539 65.525,27.905 59.735,27.905 59.735,29.559 
	"/>
<polygon fill="#FFFFFF" points="2.533,45.108 2.383,44.206 5.089,43.755 5.69,28.722 3.435,28.722 3.285,27.369 7.945,27.069 
	15.424,41.801 15.001,26.753 18.581,26.167 18.581,28.271 16.777,28.572 17.528,43.154 19.483,43.154 19.633,45.258 14.522,45.108 
	7.645,30.677 7.193,43.755 9.448,43.755 9.448,45.559 "/>
</svg>
