<?xml version="1.0" encoding="utf-8"?>
<!-- Generator: Adobe Illustrator 14.0.0, SVG Export Plug-In . SVG Version: 6.00 Build 43363)  -->
<!DOCTYPE svg PUBLIC "-//W3C//DTD SVG 1.1//EN" "http://www.w3.org/Graphics/SVG/1.1/DTD/svg11.dtd" [
	<!ENTITY ns_extend "http://ns.adobe.com/Extensibility/1.0/">
	<!ENTITY ns_ai "http://ns.adobe.com/AdobeIllustrator/10.0/">
	<!ENTITY ns_graphs "http://ns.adobe.com/Graphs/1.0/">
	<!ENTITY ns_vars "http://ns.adobe.com/Variables/1.0/">
	<!ENTITY ns_imrep "http://ns.adobe.com/ImageReplacement/1.0/">
	<!ENTITY ns_sfw "http://ns.adobe.com/SaveForWeb/1.0/">
	<!ENTITY ns_custom "http://ns.adobe.com/GenericCustomNamespace/1.0/">
	<!ENTITY ns_adobe_xpath "http://ns.adobe.com/XPath/1.0/">
]>
<svg version="1.1" id="Layer_1" xmlns:x="&ns_extend;" xmlns:i="&ns_ai;" xmlns:graph="&ns_graphs;"
	 xmlns="http://www.w3.org/2000/svg" xmlns:xlink="http://www.w3.org/1999/xlink" x="0px" y="0px" width="1200px" height="600px"
	 viewBox="0 0 1200 600" enable-background="new 0 0 1200 600" xml:space="preserve">
<metadata>
	<sfw  xmlns="&ns_sfw;">
		<slices></slices>
		<sliceSourceBounds  x="-387.323" y="-151.188" width="1734.766" height="1201.026" bottomLeftOrigin="true"></sliceSourceBounds>
	</sfw>
</metadata>
<polygon fill="#E8D62A" stroke="#000000" stroke-width="24" points="927,-54 1335,-37 1318,413 966,437 749,143 "/>
<path fill="#6A993C" stroke="#000000" stroke-width="24" d="M786,129c0,0,260-22,377,83s86,487,86,487l-726-5l3-579L786,129z"/>
<path fill="#E8D62A" stroke="#000000" stroke-width="24" d="M571,123c0,0,275,118,222,330S611,739,611,739l-652-38L330,64L571,123z"
	/>
<path fill="#6A993C" stroke="#000000" stroke-width="24" d="M391,112c0,0,85,185-46,321S-17,658-17,658l-144-464L310-6L391,112z"/>
<path fill="#E8D62A" stroke="#000000" stroke-width="24" d="M260,27c0,0-57,304-455,270s-13-445-13-445l528,80L260,27z"/>
<ellipse cx="632" cy="-6.141" rx="390" ry="204.141"/>
<path fill="none" d="M844-401c-18.66-25.106-76.574-40.297-147.027-46.722C559.764-460.233,362.464-415.26,333-366
	C269-259,306,0,306,0s539,0,662,0C982.812-133.315,899-327,844-401z M593.254-81.383c-47.605-5.902-98.7-72.704-95.864-82.477
	c7.881-27.151,172.304-51.823,191.331-34.886C707.747-181.81,640.859-75.479,593.254-81.383z"/>
</svg>
