<?xml version="1.0" encoding="utf-8"?>
<!-- Generator: Adobe Illustrator 15.0.0, SVG Export Plug-In . SVG Version: 6.00 Build 0)  -->
<!DOCTYPE svg PUBLIC "-//W3C//DTD SVG 1.1//EN" "http://www.w3.org/Graphics/SVG/1.1/DTD/svg11.dtd">
<svg version="1.1" xmlns="http://www.w3.org/2000/svg" xmlns:xlink="http://www.w3.org/1999/xlink" x="0px" y="0px" width="1200px"
	 height="600px" viewBox="0 0 1200 600" enable-background="new 0 0 1200 600" xml:space="preserve">
<g id="Layer_1">
	<polygon fill="#E50C21" points="641.154,-165.143 1335,-37 1322.998,413.792 1057.522,456.953 875.924,142.822 	"/>
	<path fill="#C40823" d="M613.99-80.967c0,0,506.858,185.988,596.217,295.036c85.704,104.588,63.34,493.31,63.34,493.31
		l-603.628,76.478l2.856-673.673L613.99-80.967z"/>
	<path fill="#E50C21" d="M561.714-83.43c0,0,397.228,333.347,352.249,568.363c-45.898,239.823-161.639,339.238-161.639,339.238
		L63.53,874.972L478.546,47.029L561.714-83.43z"/>
	<path fill="#C40823" d="M541.689-49.716c0,0,83.009,373.339-47.717,542.366C355.891,671.188,32,836,32,836L-86.103,211.27
		L459.03-96.775L541.689-49.716z"/>
	<path fill="#E50C21" d="M490.14-79.064c0,0-146.198,455.496-620.176,430.976c-572.002-29.593-16.984-606.539-16.984-606.539
		l615.229,141.316L490.14-79.064z"/>
	<path fill="none" d="M957.261-451.678c-15.745-29.648-65.329-53.452-127.155-69.582c-125.408-32.717-318.293-7.327-348.466,48.116
		c-66.84,122.82-27.979,441.809-27.979,441.809S958.102-13.4,1059.129-9.808C1070.986-151.357,1003.028-365.497,957.261-451.678z
		 M735.938-114.67c-44.532-9.311-93.285-90.266-90.553-101.495c7.576-31.13,160.323-46.408,177.368-25.828
		C839.67-221.565,779.637-105.532,735.938-114.67z"/>
</g>
<g id="Layer_2" display="none">
	<rect display="inline" fill="#47AD2A" width="1200" height="600"/>
	
		<line display="inline" fill="none" stroke="#000000" stroke-width="10" stroke-miterlimit="10" x1="-553.092" y1="651.312" x2="235.908" y2="-137.688"/>
	
		<line display="inline" fill="none" stroke="#000000" stroke-width="10" stroke-miterlimit="10" x1="-437.901" y1="651.312" x2="351.099" y2="-137.688"/>
	
		<line display="inline" fill="none" stroke="#000000" stroke-width="10" stroke-miterlimit="10" x1="-322.71" y1="651.312" x2="466.29" y2="-137.688"/>
	
		<line display="inline" fill="none" stroke="#000000" stroke-width="10" stroke-miterlimit="10" x1="-207.52" y1="651.312" x2="581.48" y2="-137.688"/>
	
		<line display="inline" fill="none" stroke="#000000" stroke-width="10" stroke-miterlimit="10" x1="-92.329" y1="651.312" x2="696.672" y2="-137.688"/>
	
		<line display="inline" fill="none" stroke="#000000" stroke-width="10" stroke-miterlimit="10" x1="22.862" y1="651.312" x2="811.863" y2="-137.688"/>
	
		<line display="inline" fill="none" stroke="#000000" stroke-width="10" stroke-miterlimit="10" x1="138.053" y1="651.312" x2="927.055" y2="-137.688"/>
	
		<line display="inline" fill="none" stroke="#000000" stroke-width="10" stroke-miterlimit="10" x1="253.244" y1="651.312" x2="1042.246" y2="-137.688"/>
	
		<line display="inline" fill="none" stroke="#000000" stroke-width="10" stroke-miterlimit="10" x1="368.435" y1="651.312" x2="1157.438" y2="-137.688"/>
	
		<line display="inline" fill="none" stroke="#000000" stroke-width="10" stroke-miterlimit="10" x1="483.626" y1="651.312" x2="1272.629" y2="-137.688"/>
	
		<line display="inline" fill="none" stroke="#000000" stroke-width="10" stroke-miterlimit="10" x1="598.817" y1="651.312" x2="1387.82" y2="-137.688"/>
	
		<line display="inline" fill="none" stroke="#000000" stroke-width="10" stroke-miterlimit="10" x1="714.008" y1="651.312" x2="1503.012" y2="-137.688"/>
	
		<line display="inline" fill="none" stroke="#000000" stroke-width="10" stroke-miterlimit="10" x1="829.199" y1="651.312" x2="1618.203" y2="-137.688"/>
	
		<line display="inline" fill="none" stroke="#000000" stroke-width="10" stroke-miterlimit="10" x1="944.391" y1="651.312" x2="1733.395" y2="-137.688"/>
	
		<line display="inline" fill="none" stroke="#000000" stroke-width="10" stroke-miterlimit="10" x1="1059.582" y1="651.312" x2="1848.586" y2="-137.688"/>
	
		<line display="inline" fill="none" stroke="#000000" stroke-width="10" stroke-miterlimit="10" x1="1174.773" y1="651.312" x2="1963.777" y2="-137.688"/>
</g>
</svg>
