<?xml version="1.0" encoding="utf-8"?>
<!-- Generator: Adobe Illustrator 14.0.0, SVG Export Plug-In . SVG Version: 6.00 Build 43363)  -->
<!DOCTYPE svg PUBLIC "-//W3C//DTD SVG 1.1//EN" "http://www.w3.org/Graphics/SVG/1.1/DTD/svg11.dtd">
<svg version="1.1" xmlns="http://www.w3.org/2000/svg" xmlns:xlink="http://www.w3.org/1999/xlink" x="0px" y="0px" width="1200px"
	 height="600px" viewBox="0 0 1200 600" enable-background="new 0 0 1200 600" xml:space="preserve">
<g id="Layer_3">
	<radialGradient id="SVGID_1_" cx="602" cy="104" r="618.6598" gradientUnits="userSpaceOnUse">
		<stop  offset="0" style="stop-color:#1F2435"/>
		<stop  offset="1" style="stop-color:#10131C"/>
	</radialGradient>
	<rect fill="url(#SVGID_1_)" width="1200" height="600"/>
</g>
<g id="Layer_2">
	<linearGradient id="SVGID_2_" gradientUnits="userSpaceOnUse" x1="761.5254" y1="387.9639" x2="798.1914" y2="524.6309">
		<stop  offset="0" style="stop-color:#000000"/>
		<stop  offset="1" style="stop-color:#000000;stop-opacity:0"/>
	</linearGradient>
	<polygon fill="url(#SVGID_2_)" points="853.438,471.4 689.69,526.358 639.558,554.627 639.088,541.11 640.463,540.041 
		639.726,535.658 662.723,498.967 648.295,416.446 654.997,414.695 677.573,482.758 680.776,482.256 667.916,411.315 
		849.549,363.802 869.423,439.772 873.62,438.519 857.136,361.818 863.172,360.237 883.669,435.89 934.059,445.604 937.296,452.358 
		938.196,452.303 945.614,452.847 950.932,473.176 	"/>
	<linearGradient id="SVGID_3_" gradientUnits="userSpaceOnUse" x1="1001.3555" y1="273.5244" x2="1077.0531" y2="544.0349">
		<stop  offset="0" style="stop-color:#000000"/>
		<stop  offset="1" style="stop-color:#000000;stop-opacity:0"/>
	</linearGradient>
	<path fill="url(#SVGID_3_)" d="M1209.691,439.207l-64.025-214.374l-291.583,78.633l25.129,112.39l69.226-15.99l-7.025-22.206
		l29.61-6.886L997,587l191-40l-26.573-97.665L1209.691,439.207z M886.289,384.492l-4.084-18.985l16.459-0.421l1.48,17.008
		L886.289,384.492z M912.695,378.709l-4.377-16.226l17.717-3.439l2.489,20.752L912.695,378.709z M1169.937,376.285l12.321,34.166
		l-31.488-0.286l-7.544-27.726L1169.937,376.285z"/>
	<linearGradient id="SVGID_4_" gradientUnits="userSpaceOnUse" x1="798.874" y1="169.8882" x2="875.541" y2="440.5547">
		<stop  offset="0" style="stop-color:#000000"/>
		<stop  offset="1" style="stop-color:#000000;stop-opacity:0"/>
	</linearGradient>
	<path fill="url(#SVGID_4_)" d="M934.64,260.149l-14.497,4.05l27.005,99.083l-12.079,28.837l-45.393,8.482l13.072,42.978
		l-2.655,18.229l-11.417,3.35l6.947,29.202l3.465-0.251l-5.738,26.537l-4.279-0.107l10.99,51.059l-14.752-51.154l-4.28-0.107
		l-12.224-18.78l3.041-0.403l-8.989-28.418l-15.08,4.424l-22.172-64.581l-46.999,8.782l-2.651-9.436l-6.636,1.274l2.092-3.878
		l3.604-0.739l-27.798-98.925l-29.818-0.839l-39.881-109.735l36.001-9.355l21.103-5.483l30.004-7.797l13.55-3.521l42.586-11.066
		l57.104-14.838l28.067-7.293l13.066-3.396L934.64,260.149z M746.705,307.836l-0.424-1.513l-0.083,0.013L746.705,307.836z"/>
	<linearGradient id="SVGID_5_" gradientUnits="userSpaceOnUse" x1="608.7666" y1="-1.6235" x2="608.7666" y2="352.3569">
		<stop  offset="0" style="stop-color:#000000"/>
		<stop  offset="1" style="stop-color:#000000;stop-opacity:0"/>
	</linearGradient>
	<path fill="url(#SVGID_5_)" d="M1116.33,0L599.664,140.998L80.331,0h-98.667l8.667,130.331l609.333,139.333L1224.33,96.33
		c0,0,13.334-110,11.334-108.667S1116.33,0,1116.33,0z"/>
	<linearGradient id="SVGID_6_" gradientUnits="userSpaceOnUse" x1="247.2456" y1="494.1992" x2="295.9126" y2="321.5332">
		<stop  offset="0" style="stop-color:#000000;stop-opacity:0"/>
		<stop  offset="1" style="stop-color:#000000"/>
	</linearGradient>
	<path fill="url(#SVGID_6_)" d="M51.088,224.084L13.646,334.583l13.479,7.709l-13.888,68.285l19.348-65.461l50.549,11.683
		L65.268,410.86c0,0,8.257,1.831,21.641,4.838l-9.646,27.52l105.071,21.319l11.208-12.126l2.651-11.607
		c11.815,2.792,23.402,5.567,34.283,8.224l-21.428,93.491l3.384,0.894l9.361-33.505l74.166,16.81l21.1-54.08
		c32.415,10.094,51.017,17.479,51.017,17.479l28.281-26.166l6.962-43.698l43.721,12.127l3.073-11.642l7.735,2.042l-12.576,43.726
		l81.16,25.575l33.236-133.749L51.088,224.084z M33.042,327.711l-8.986-5.14l7.131-16.567l5.308,6.015L33.042,327.711z
		 M291.639,511.739l-7.565-2.688l3.045-9.573l7.564,2.688L291.639,511.739z M435.761,413.721l-12.247-3.233l3.415-12.935
		l9.668,2.552L435.761,413.721z M500.594,465.888l-12.247-3.233l6.675-14.842l8.569,4.107L500.594,465.888z M520.349,472.024
		l-10.314-2.722l2.809-15.863l10.503,4.617L520.349,472.024z M525.244,445.644l-9.668-2.553l4.514-14.489l9.025,2.382
		L525.244,445.644z"/>
</g>
<g id="Layer_4">
	<linearGradient id="SVGID_7_" gradientUnits="userSpaceOnUse" x1="777.1445" y1="225.1426" x2="823.1445" y2="403.1426">
		<stop  offset="0" style="stop-color:#000000"/>
		<stop  offset="1" style="stop-color:#000000;stop-opacity:0"/>
	</linearGradient>
	<path fill="url(#SVGID_7_)" d="M988.064,224.668c-3.09-5.979-7.156-11.42-11.931-15.897c-0.072-0.068-0.146-0.133-0.216-0.202
		c-0.414-0.383-0.829-0.765-1.252-1.132c-0.28-0.245-0.563-0.477-0.849-0.713c-0.246-0.209-0.489-0.422-0.742-0.624
		c-0.563-0.453-1.135-0.891-1.716-1.316c-0.139-0.103-0.28-0.198-0.421-0.298c-0.458-0.329-0.919-0.653-1.39-0.963
		c-0.176-0.119-0.355-0.231-0.534-0.348c-0.436-0.281-0.874-0.557-1.315-0.821c-0.199-0.119-0.399-0.237-0.599-0.352
		c-0.432-0.252-0.867-0.495-1.307-0.728c-0.206-0.11-0.415-0.222-0.621-0.332c-0.457-0.236-0.916-0.458-1.381-0.677
		c-0.189-0.089-0.378-0.185-0.571-0.27c-0.646-0.294-1.303-0.575-1.966-0.837c-1.024-0.401-2.022-0.776-3.021-1.147
		c-40.852-15.245-61.532-6.334-77.601-1.992c-24.296,6.561-60.749,16.406-60.749,16.406s0.128,0.035,0.317,0.09
		c-8.449,2.156-17.433,4.529-27.022,7.116l-2.83,0.765L599,272.059v86.806c5.966-1.477,11.92-3.076,17.793-4.849
		c60.863-18.368,184.836-69.334,184.836-69.334s47.968,25.042,138.659,13.521c25.811-3.281,40.989-13.861,48.309-27.031
		c-0.341,1.553-0.787,3.065-1.347,4.523C997.954,260.373,996.409,240.605,988.064,224.668z"/>
</g>
<g id="Layer_5">
	<linearGradient id="SVGID_8_" gradientUnits="userSpaceOnUse" x1="354.1289" y1="206.4482" x2="310.1289" y2="379.4482">
		<stop  offset="0" style="stop-color:#000000"/>
		<stop  offset="1" style="stop-color:#000000;stop-opacity:0"/>
	</linearGradient>
	<path fill="url(#SVGID_8_)" d="M599,270.873l-153.119-41.524c-79.622-21.593-210.702-57.14-267.88-72.646
		c-17.55-4.759-28.14-7.631-28.14-7.631s-0.104,0.123-0.297,0.347c-0.007,0.01-0.012,0.016-0.02,0.023
		c-0.154,0.182-0.367,0.432-0.632,0.749c-0.074,0.089-0.158,0.188-0.242,0.289c-0.062,0.074-0.124,0.148-0.189,0.227
		c-0.113,0.135-0.229,0.275-0.354,0.423c-0.022,0.026-0.038,0.045-0.059,0.072c-0.023,0.027-0.045,0.055-0.068,0.082
		c-6.445,7.761-28.887,35.68-53.866,76.948c-0.005,0.007-0.009,0.015-0.014,0.023c-25.235,41.698-53.042,97.001-69.514,158.9
		c-35.822,134.61,24.483,213.979,100.268,223.69c75.785,9.712,112.965-77.102,112.965-77.102s-28.287-23.934-106.071-46.382
		c58.393,0.927,120.464,36.056,120.464,36.056s12.908-24.958,10.302-65.643c-2.606-40.684,64.448,1.215,161.033-17.991
		c13.915-2.765,26.235-7.905,37.064-14.769c0.138-0.087,0.276-0.174,0.412-0.263c0.925-0.592,1.841-1.194,2.747-1.812
		c0.025-0.02,0.051-0.037,0.078-0.055c2.87-1.965,5.628-4.055,8.275-6.257c0.031-0.027,0.065-0.056,0.097-0.083
		c0.845-0.705,1.677-1.42,2.498-2.146c0.094-0.085,0.188-0.169,0.281-0.251c3.368-2.996,6.547-6.176,9.54-9.518
		c0.081-0.091,0.163-0.18,0.244-0.271c0.721-0.809,1.43-1.625,2.13-2.451c0.051-0.061,0.099-0.118,0.149-0.178
		c2.19-2.602,4.276-5.286,6.254-8.047c0.013-0.018,0.026-0.034,0.036-0.051c0.62-0.863,1.226-1.737,1.826-2.615
		c0.103-0.152,0.205-0.303,0.308-0.453c2.455-3.637,4.737-7.385,6.847-11.227c0.104-0.188,0.209-0.377,0.311-0.565
		c0.472-0.869,0.936-1.739,1.39-2.616c0.113-0.217,0.223-0.437,0.336-0.654c1.438-2.807,2.788-5.652,4.051-8.531
		c0.075-0.17,0.152-0.34,0.226-0.511c0.369-0.847,0.727-1.696,1.079-2.551c0.139-0.333,0.274-0.667,0.411-1
		c0.336-0.828,0.669-1.658,0.991-2.491c0.121-0.311,0.239-0.621,0.356-0.933c1.023-2.692,1.974-5.397,2.853-8.12
		c0.135-0.425,0.274-0.848,0.41-1.271c0.236-0.758,0.469-1.517,0.694-2.275c0.144-0.479,0.283-0.957,0.423-1.438
		c0.214-0.738,0.427-1.479,0.632-2.221c0.135-0.49,0.261-0.981,0.392-1.472c0.174-0.665,0.36-1.328,0.529-1.991
		c8.526,2.832,17.291,5.381,26.09,7.445c15.032,3.526,34.708,7.131,55.475,10.521V270.873z"/>
</g>
</svg>
