<?xml version="1.0" encoding="utf-8"?>
<!-- Generator: Adobe Illustrator 15.0.0, SVG Export Plug-In . SVG Version: 6.00 Build 0)  -->
<!DOCTYPE svg PUBLIC "-//W3C//DTD SVG 1.1//EN" "http://www.w3.org/Graphics/SVG/1.1/DTD/svg11.dtd">
<svg version="1.1" xmlns="http://www.w3.org/2000/svg" xmlns:xlink="http://www.w3.org/1999/xlink" x="0px" y="0px" width="1200px"
	 height="600px" viewBox="0 0 1200 600" enable-background="new 0 0 1200 600" xml:space="preserve">
<g id="base">
	<rect x="-10" y="-10" fill="#E50C21" width="1219" height="617"/>
</g>
<g id="wiggles">	
	<g>
		<path fill="none" stroke="#C40823" stroke-width="10" stroke-miterlimit="10" d="M623.438-54.506
			c23.354,23.911,1.323,26.42,20.514,66.811c7.849,16.521,32.945,30.458,41.037,55.589c6.073,18.861-5.384,45-0.024,69.24
			c4.417,19.975,26.161,38.613,29.642,62.521c2.999,20.603-12.299,44.774-10.276,68.473c1.79,20.979,21.108,42.12,21.941,65.646
			c0.75,21.21-16.92,43.732-17.088,67.101c-0.183,25.358,17.099,50.189,15.942,73.486c-1.264,25.49-21.011,48.442-23.243,71.502
			c-2.481,25.635,12.361,51.983,8.953,74.665c-3.881,25.831-25.976,46.558-30.665,68.633c-5.567,26.208,5.895,54.159-0.167,75.196
			c-7.873,27.318-32.9,44.572-40.248,63.428c-17.377,44.597,4.597,43.405-15.193,74.078"/>
	</g>
	<g>
		<path fill="none" stroke="#C40823" stroke-width="10" stroke-miterlimit="10" d="M622.501-55.341
			c26.454,20.428,4.986,25.979,29.611,63.306c10.072,15.268,36.864,25.577,48.375,49.336c8.639,17.833,0.932,45.311,9.612,68.57
			c7.152,19.165,31.278,34.596,38.053,57.787c5.837,19.984-5.947,46.05-0.646,69.237c4.693,20.525,26.765,38.771,30.863,61.952
			c3.695,20.9-10.668,45.662-7.582,68.826c3.349,25.138,23.917,47.321,26.015,70.552c2.295,25.419-14.065,50.896-13.066,74.042
			c1.11,25.73,19.476,49.758,19.258,72.693c-0.248,26.12-19.243,49.719-20.815,72.231c-1.865,26.728,13.375,52.812,10.3,74.487
			c-3.993,28.148-26.375,48.719-31.027,68.413c-11.001,46.581,10.593,42.343-4.735,75.472"/>
	</g>
	<g>
		<path fill="none" stroke="#C40823" stroke-width="10" stroke-miterlimit="10" d="M621.455-56.038
			c29.041,16.547,8.555,25.032,38.134,58.568c12.1,13.718,40.066,20.197,54.771,42.124c11.037,16.457,7.229,44.74,19.062,66.564
			c9.751,17.983,35.791,29.906,45.726,51.928c8.562,18.978,0.52,46.43,8.996,68.653c7.503,19.673,31.9,34.669,39.186,57.054
			c6.567,20.182-4.21,46.701,2.069,69.21c6.815,24.43,30.271,43.538,35.582,66.254c5.811,24.851-6.846,52.356-2.635,75.138
			c4.68,25.325,26.211,46.562,29.187,69.304c3.39,25.9-12.137,51.913-10.559,74.426c1.871,26.727,20.593,50.435,20.564,72.327
			c-0.037,28.43-19.339,51.913-21.204,72.063c-4.412,47.658,16.382,40.456,5.813,75.396"/>
	</g>
	<g>
		<path fill="none" stroke="#C40823" stroke-width="10" stroke-miterlimit="10" d="M620.324-56.582
			c31.061,12.344,11.955,23.598,45.913,52.691c13.891,11.9,42.486,14.424,60.1,34.091c13.22,14.761,13.386,43.299,28.14,63.264
			c12.16,16.451,39.604,24.634,52.508,45.059c11.119,17.601,6.977,45.906,18.463,66.733c10.169,18.437,36.415,29.892,46.744,51.045
			c9.312,19.071,2.332,46.833,11.683,68.249c10.148,23.243,36.036,38.9,44.457,60.655c9.213,23.801,0.508,52.801,7.849,74.774
			c8.159,24.427,32.436,42.461,38.548,64.566c6.961,25.177-4.793,53.097-0.099,75.171c5.573,26.206,27.412,47.078,30.431,68.761
			c3.92,28.158-11.927,54.101-10.97,74.314c2.264,47.809,21.853,37.782,16.251,73.852"/>
	</g>
	<g>
		<path fill="none" stroke="#C40823" stroke-width="10" stroke-miterlimit="10" d="M619.128-56.963
			c32.476,7.902,15.122,21.705,52.799,45.789c15.412,9.852,44.082,8.371,64.261,25.396c15.145,12.777,19.28,41.015,36.671,58.732
			c14.329,14.599,42.646,18.882,58.267,37.313c13.461,15.882,13.297,44.487,27.57,63.513c12.636,16.843,40.222,24.534,53.394,44.043
			c11.876,17.59,8.826,46.053,21.066,65.959c13.283,21.602,41.097,33.502,52.463,53.871c12.436,22.287,7.852,52.217,18.179,72.955
			c11.48,23.055,38.031,37.535,47.16,58.576c10.396,23.963,2.644,53.247,10.365,74.453c9.166,25.176,33.697,42.806,39.705,63.858
			c7.801,27.339-4.279,55.234-0.52,75.118c8.896,47.029,26.899,34.374,26.371,70.873"/>
	</g>
	<g>
		<path fill="none" stroke="#C40823" stroke-width="10" stroke-miterlimit="10" d="M617.89-57.174
			c33.26,3.305,17.996,19.389,58.658,37.995c16.633,7.611,44.817,2.155,67.17,16.205c16.775,10.545,24.8,37.932,44.486,53.057
			c16.223,12.463,44.86,12.764,62.894,28.841c15.54,13.854,19.359,42.205,36.143,59.059c14.855,14.92,43.243,18.696,59.003,36.183
			c14.208,15.766,15.149,44.376,30.041,62.385c16.161,19.543,45.359,27.457,59.449,46.046
			c15.416,20.339,15.042,50.616,28.155,69.714c14.577,21.232,42.885,31.877,54.854,51.442c13.631,22.283,10.028,52.36,20.625,72.286
			c12.581,23.655,39.328,37.7,48.207,57.712c11.529,25.987,3.449,55.291,9.94,74.459c15.354,45.333,31.421,30.296,35.979,66.513"/>
	</g>
	<g>
		<path fill="none" stroke="#C40823" stroke-width="10" stroke-miterlimit="10" d="M616.635-57.21
			c33.396-1.356,20.52,16.695,63.376,29.461c17.529,5.222,44.68-4.103,68.77,6.7c18.08,8.107,29.839,34.111,51.439,46.349
			c17.798,10.083,46.199,6.396,66.295,19.807c17.317,11.557,25.044,39.1,44.009,53.455c16.789,12.707,45.426,12.496,63.466,27.62
			c16.265,13.635,21.178,41.836,38.431,57.597c18.724,17.104,48.74,20.876,65.279,37.324c18.098,17.997,21.94,48.03,37.584,65.118
			c17.391,18.997,46.903,25.597,61.479,43.308c16.6,20.169,17.219,50.455,30.486,68.712c15.751,21.674,44.191,31.858,55.769,50.439
			c15.034,24.13,11.11,54.275,20.206,72.353c21.514,42.755,35.332,25.628,44.885,60.858"/>
	</g>
	<g>
		<path fill="none" stroke="#C40823" stroke-width="10" stroke-miterlimit="10" d="M615.387-57.072
			c32.883-5.99,22.644,13.677,66.859,20.354c18.086,2.731,43.674-10.281,69.033-2.936c19.032,5.512,34.295,29.626,57.388,38.739
			c19.029,7.509,46.64-0.096,68.406,10.388c18.757,9.034,30.242,35.233,51.021,46.808c18.394,10.247,46.722,6.053,66.691,18.518
			c18.004,11.239,26.795,38.482,46.074,51.688c20.922,14.332,51.17,13.891,69.838,27.876c20.426,15.302,28.411,44.508,46.28,59.253
			c19.865,16.392,50.011,18.821,66.908,34.329c19.245,17.663,24.072,47.569,39.752,63.802
			c18.613,19.271,48.196,25.397,62.246,42.187c18.246,21.803,18.556,52.201,30.079,68.836
			c27.255,39.345,38.555,20.462,52.918,54.021"/>
	</g>
	<g>
		<path fill="none" stroke="#C40823" stroke-width="10" stroke-miterlimit="10" d="M614.17-56.761
			c31.729-10.509,24.326,10.393,69.041,10.852c18.29,0.188,41.819-16.26,67.953-12.516c19.614,2.81,38.085,24.565,62.221,30.375
			c19.889,4.787,46.173-6.585,69.188,0.767c19.831,6.335,34.85,30.681,57.036,39.252c19.641,7.587,47.111-0.509,68.62,9.057
			c19.394,8.624,31.89,34.378,52.819,44.773c22.713,11.28,52.604,6.634,73.037,17.885c22.356,12.311,34.33,40.12,54.076,52.234
			c21.953,13.468,52.143,11.678,71.035,24.684c21.516,14.812,30.46,43.756,48.245,57.648c21.115,16.493,51.263,18.444,67.513,33.115
			c21.104,19.051,25.641,49.109,39.367,63.979c32.466,35.169,41.027,14.896,59.921,46.13"/>
	</g>
	<g>
		<path fill="none" stroke="#C40823" stroke-width="10" stroke-miterlimit="10" d="M613.009-56.284
			c29.957-14.822,25.536,6.906,69.879,1.137c18.139-2.36,39.149-21.922,65.551-21.851c19.814,0.053,41.133,19.026,65.843,21.42
			c20.361,1.973,44.807-12.948,68.62-8.87c20.521,3.515,38.781,25.533,61.945,30.933c20.505,4.78,46.58-7.06,69.212-0.582
			c20.404,5.841,36.364,29.606,58.536,36.987c24.062,8.01,53.018-0.752,74.816,7.546c23.852,9.079,39.578,34.952,60.818,44.2
			c23.614,10.282,53.261,4.308,73.778,14.558c23.369,11.673,36.253,39.091,55.799,50.373c23.205,13.394,53.33,11.131,71.463,23.396
			c23.549,15.929,32.226,45.063,47.889,57.877c37.044,30.309,42.7,9.042,65.758,37.342"/>
	</g>
	<g>
		<path fill="none" stroke="#C40823" stroke-width="10" stroke-miterlimit="10" d="M611.925-55.65
			c27.603-18.848,26.248,3.285,69.357-8.6c17.634-4.861,35.717-27.157,61.871-30.761c19.629-2.705,43.381,13.116,68.184,12.048
			c20.438-0.88,42.568-19.058,66.717-18.333c20.811,0.624,41.958,19.887,65.648,22.01c20.971,1.88,45.146-13.474,68.458-10.208
			c21.018,2.944,40.129,24.257,63.113,28.48c24.941,4.583,52.396-8.124,75.138-2.94c24.883,5.671,44.058,29.104,66.379,35.306
			c24.814,6.895,53.34-3.147,75.086,4.148c24.765,8.308,41.341,33.665,62.267,42.117c24.843,10.034,54.359,3.6,74.024,13.223
			c25.536,12.496,38.183,40.139,55.477,50.649c40.902,24.858,43.544,3.011,70.314,27.827"/>
	</g>
	<g>
		<path fill="none" stroke="#C40823" stroke-width="10" stroke-miterlimit="10" d="M610.939-54.872
			c24.712-22.505,26.451-0.401,67.486-18.168c16.785-7.268,31.589-31.863,56.986-39.072c19.062-5.411,44.784,6.951,69.197,2.441
			c20.116-3.716,39.502-24.796,63.518-27.44c20.693-2.278,44.316,13.854,68.072,12.66c21.028-1.057,42.83-19.626,66.37-19.637
			c21.224-0.009,43.114,18.436,66.462,19.419c25.337,1.067,50.756-15.336,73.998-13.369c25.432,2.153,47.682,22.688,70.648,25.724
			c25.533,3.375,52.385-10.54,74.934-6.343c25.68,4.78,45.623,27.584,67.521,33.042c25.998,6.479,54.331-4,75.144,2.792
			c27.027,8.821,43.397,34.436,61.985,42.437c43.963,18.923,43.539-3.078,73.503,17.77"/>
	</g>
	<g>
		<path fill="none" stroke="#C40823" stroke-width="10" stroke-miterlimit="10" d="M610.073-53.964
			c21.339-25.725,26.137-4.077,64.3-27.383c15.61-9.533,26.848-35.95,50.995-46.624c18.123-8.011,45.315,0.65,68.863-7.213
			c19.402-6.48,35.666-30.053,59.079-36.013c20.176-5.136,45.814,7.551,69.172,3.063c20.677-3.974,39.682-25.396,62.991-28.683
			c21.016-2.963,45.263,12.255,68.519,9.98c25.24-2.47,48.128-22.25,71.418-23.537c25.483-1.407,50.374,15.832,73.541,15.641
			c25.754-0.212,50.406-17.728,73.32-16.709c26.096,1.16,49.018,20.966,71.463,23.323c26.646,2.797,53.245-11.523,74.801-7.693
			c27.991,4.973,47.768,28.06,67.289,33.396c46.169,12.621,42.687-9.108,75.26,7.367"/>
	</g>
	<g>
		<path fill="none" stroke="#C40823" stroke-width="10" stroke-miterlimit="10" d="M609.341-52.943
			c17.55-28.445,25.314-7.675,59.863-36.066c14.132-11.613,21.583-39.336,44.01-53.267c16.831-10.455,44.965-5.663,67.188-16.727
			c18.312-9.117,31.138-34.724,53.493-43.885c19.265-7.894,46.419,1.102,68.925-6.593c19.922-6.812,35.762-30.672,58.387-37.17
			c20.398-5.859,46.526,5.837,69.24,0.347c24.652-5.958,44.567-28.734,67.454-33.249c25.04-4.94,52.088,8.667,75.002,5.255
			c25.474-3.794,47.448-24.57,70.28-26.751c26.003-2.482,51.458,13.941,74.012,13.151c26.776-0.938,51.124-18.821,73.002-18.029
			c28.41,1.029,51.207,21.139,71.28,23.707c47.476,6.072,41.003-14.96,75.552-3.179"/>
	</g>
	<g>
		<path fill="none" stroke="#C40823" stroke-width="10" stroke-miterlimit="10" d="M608.758-51.832
			c13.421-30.611,24-11.124,54.261-44.046c12.378-13.467,15.899-41.957,36.169-58.873c15.213-12.696,43.739-11.865,64.207-25.915
			c16.865-11.577,26.001-38.719,46.864-50.902c17.979-10.499,46.12-5.37,67.336-16.123c18.78-9.519,31.146-35.35,52.646-44.934
			c19.385-8.641,46.886-0.695,68.615-9.292c23.583-9.332,40.135-34.657,62.17-42.313c24.108-8.376,52.787,1.334,75.003-5.234
			c24.697-7.302,43.568-30.935,65.874-36.271c25.404-6.078,52.896,6.643,75.121,2.722c26.385-4.655,48.008-25.753,69.783-28.013
			c28.277-2.936,53.65,13.806,73.885,13.555c47.858-0.594,38.522-20.521,74.375-13.663"/>
	</g>
	<g>
		<path fill="none" stroke="#C40823" stroke-width="10" stroke-miterlimit="10" d="M608.335-50.649
			c9.03-32.181,22.219-14.356,47.603-51.169c10.384-15.058,9.905-43.761,27.623-63.334c13.298-14.689,41.662-17.836,59.975-34.598
			c15.091-13.812,20.359-41.961,39.324-56.929c16.342-12.898,44.925-11.737,64.438-25.337c17.272-12.04,25.922-39.34,45.879-51.824
			c17.994-11.255,46.332-7.213,66.653-18.751c22.053-12.521,34.917-39.902,55.671-50.551c22.708-11.65,52.459-6.025,73.545-15.622
			c23.441-10.669,38.839-36.698,60.187-45.087c24.311-9.555,53.308-0.784,74.771-7.76c25.48-8.282,43.956-32.184,65.205-37.453
			c27.595-6.842,55.052,6.205,75.056,3.141c47.312-7.249,35.292-25.683,71.751-23.882"/>
	</g>
	<g>
		<path fill="none" stroke="#C40823" stroke-width="10" stroke-miterlimit="10" d="M608.081-49.42
			c4.463-33.124,20.004-17.309,40.018-57.296c8.187-16.357,3.718-44.714,18.539-66.562c11.125-16.397,38.775-23.461,54.578-42.609
			c13.021-15.776,14.32-44.386,31.018-61.848c14.389-15.047,42.854-17.874,60.284-34.058c15.429-14.326,20.194-42.564,38.221-57.704
			c16.252-13.649,44.878-13.591,63.396-27.845c20.095-15.469,29.023-44.374,48.093-57.806
			c20.865-14.698,51.109-13.268,70.655-25.707c21.729-13.827,33.354-41.745,53.325-53.024c22.744-12.845,52.68-8.195,72.963-18.09
			c24.08-11.748,39.05-37.988,59.358-46.163c26.374-10.616,55.379-1.517,74.762-7.336c45.842-13.763,31.374-30.344,67.729-33.634"/>
	</g>
	<g>
		<path fill="none" stroke="#C40823" stroke-width="10" stroke-miterlimit="10" d="M608-48.167
			c-0.189-33.423,17.401-19.924,31.655-62.308c5.83-17.337-2.542-44.796,9.095-68.494c8.734-17.786,35.133-28.629,48.116-49.79
			c10.699-17.436,8.005-45.948,22.109-65.563c12.154-16.903,39.949-23.664,54.957-42.117c13.285-16.334,14.073-44.961,29.817-62.461
			c14.195-15.779,42.55-19.705,58.903-36.397c17.747-18.115,22.565-47.981,39.58-63.937c18.617-17.458,48.766-20.252,66.391-35.289
			c19.592-16.717,27.218-45.981,45.426-59.93c20.735-15.885,51.026-15.447,69.734-28.069c22.211-14.985,33.383-43.053,52.356-53.975
			c24.64-14.184,54.63-9.21,73.015-17.67c43.479-20.009,26.845-34.415,62.388-42.733"/>
	</g>
	<g>
		<path fill="none" stroke="#C40823" stroke-width="10" stroke-miterlimit="10" d="M608.095-46.915
			c-4.84-33.071,14.459-22.152,22.675-66.107c3.361-17.979-8.751-44.007-0.525-69.094c6.174-18.829,30.805-33.24,40.718-56.001
			c8.168-18.755,1.532-46.614,12.77-68.002c9.684-18.43,36.266-28.993,48.56-49.354c10.883-18.024,7.681-46.482,20.835-66.004
			c11.86-17.601,39.395-25.435,53.266-44.241c15.053-20.409,15.668-50.655,30.297-68.823c16.006-19.88,45.473-26.842,60.832-44.187
			c17.075-19.28,20.556-49.322,36.646-65.669c18.323-18.616,48.379-22.398,65.15-37.501c19.908-17.93,27.064-47.28,44.334-60.736
			c22.426-17.475,52.816-16.724,69.844-27.66c40.272-25.865,21.795-37.817,55.835-51"/>
	</g>
	<g>
		<path fill="none" stroke="#C40823" stroke-width="10" stroke-miterlimit="10" d="M608.363-45.688
			c-9.396-32.076,11.235-23.949,13.254-68.62c0.826-18.272-14.791-42.36-10.137-68.348c3.492-19.504,25.879-37.205,32.527-61.124
			c5.479-19.709-4.971-46.374,3.181-69.117c7.024-19.598,31.88-33.758,41.22-55.632c8.269-19.364,1.136-47.099,11.446-68.262
			c9.295-19.08,35.47-30.669,46.589-51.223c12.066-22.305,8.466-52.342,20.424-72.37c13.083-21.913,41.293-32.908,54.09-52.22
			c14.227-21.47,13.491-51.704,27.148-70.13c15.555-20.985,44.793-28.914,59.298-46.204c17.22-20.527,20.222-50.587,35.45-66.315
			c19.776-20.426,49.975-23.912,65.314-37.111c36.28-31.219,16.319-40.482,48.193-58.275"/>
	</g>
	<g>
		<path fill="none" stroke="#C40823" stroke-width="10" stroke-miterlimit="10" d="M608.799-44.51
			c-13.768-30.456,7.793-25.279,3.575-69.796c-1.725-18.21-20.542-39.891-19.55-66.273c0.745-19.8,20.45-40.444,23.705-65.055
			c2.682-20.279-11.376-45.23-6.47-68.887c4.229-20.385,26.871-37.866,33.076-60.827c5.493-20.326-5.43-46.799,1.834-69.19
			c6.55-20.188,30.856-35.308,39.007-57.209c8.845-23.767,1.1-53.012,10.153-74.508c9.906-23.521,36.312-38.335,46.296-59.24
			c11.099-23.241,6.163-53.078,17.123-73.226c12.482-22.947,40.333-34.866,52.29-54.007c14.195-22.724,12.985-52.909,25.876-70.604
			c16.741-22.979,46.161-30.633,59.515-45.839c31.583-35.965,10.526-42.359,39.614-64.416"/>
	</g>
	<g>
		<path fill="none" stroke="#C40823" stroke-width="10" stroke-miterlimit="10" d="M609.395-43.405
			c-17.873-28.244,4.199-26.118-6.173-69.615c-4.243-17.792-25.895-36.643-28.584-62.906c-2.019-19.712,14.622-42.897,14.419-67.722
			c-0.167-20.456-17.56-43.208-15.993-67.316c1.35-20.775,21.338-41.238,24.287-64.84c2.611-20.893-11.89-45.587-7.813-68.771
			c3.675-20.903,25.643-39.259,30.665-62.081c5.451-24.767-6.29-52.648-0.316-75.196c6.537-24.67,30.624-43.015,37.602-65.106
			c7.757-24.559-1.283-53.419,6.767-74.896c9.167-24.46,35.088-40.14,44.265-60.759c10.896-24.478,5.495-54.201,15.799-73.518
			c13.38-25.085,41.448-36.76,52.557-53.676c26.271-40.01,4.529-43.413,30.264-69.301"/>
	</g>
	<g>
		<path fill="none" stroke="#C40823" stroke-width="10" stroke-miterlimit="10" d="M610.139-42.394
			c-21.629-25.482,0.523-26.448-15.802-68.079c-6.678-17.028-30.742-32.682-37.06-58.316c-4.742-19.239,8.509-44.514,4.854-69.069
			c-3.012-20.233-23.403-40.343-25.207-64.435c-1.555-20.761,15.392-43.807,15.027-67.589
			c-0.322-21.052-18.119-43.489-17.308-67.015c0.731-21.211,19.929-42.445,21.727-65.744c1.951-25.284-13.555-51.26-10.777-74.42
			c3.04-25.341,24.339-46.86,28.175-69.708c4.263-25.399-8.705-52.72-3.724-75.109c5.674-25.498,29.16-44.632,35.378-66.327
			c7.383-25.756-2.102-54.439,5.414-75.002c9.758-26.703,35.929-42.17,44.573-60.467c20.447-43.276-1.557-43.62,20.324-72.838"/>
	</g>
	<g>
		<path fill="none" stroke="#C40823" stroke-width="10" stroke-miterlimit="10" d="M611.016-41.495
			c-24.965-22.224-3.162-26.264-25.123-65.217c-8.983-15.934-34.991-28.086-44.815-52.591c-7.374-18.392,2.232-45.265-4.805-69.073
			c-5.798-19.617-28.79-36.693-33.929-60.3c-4.429-20.343,9.146-45.523,5.475-69.023c-3.249-20.803-23.995-40.544-26.466-63.954
			c-2.228-21.106,13.828-44.806,12.366-68.128c-1.587-25.311-20.558-48.875-21.03-72.196c-0.517-25.518,17.58-49.792,18.198-72.951
			c0.687-25.746-15.958-50.995-14.14-73.859c2.07-26.04,22.664-48.257,25.803-70.605c3.726-26.532-9.658-53.617-5.078-75.025
			c5.947-27.801,29.709-46.76,35.724-66.082c14.225-45.701-7.612-42.979,9.989-74.958"/>
	</g>
	<g>
		<path fill="none" stroke="#C40823" stroke-width="10" stroke-miterlimit="10" d="M612.01-40.728
			c-27.815-18.532-6.787-25.567-33.955-61.085c-11.113-14.528-38.559-22.943-51.699-45.842
			c-9.861-17.187-4.089-45.135-14.371-67.731c-8.473-18.62-33.616-32.329-41.991-54.991c-7.217-19.528,2.721-46.353-4.185-69.113
			c-6.113-20.147-29.404-36.81-35.109-59.648c-5.144-20.59,7.457-46.294,2.763-69.186c-5.094-24.843-27.16-45.539-30.873-68.567
			c-4.063-25.197,10.48-51.753,7.869-74.773c-2.903-25.591-22.899-48.278-24.282-71.173c-1.574-26.074,15.728-50.941,15.725-73.509
			c-0.003-26.793-17.025-51.75-15.469-73.588c2.02-28.358,22.913-50.439,26.18-70.411c7.726-47.235-13.52-41.501-0.54-75.619"/>
	</g>
	<g>
		<path fill="none" stroke="#C40823" stroke-width="10" stroke-miterlimit="10" d="M613.101-40.106
			c-30.124-14.48-10.279-24.374-42.126-55.765c-13.027-12.84-41.377-17.353-57.575-38.2c-12.158-15.646-10.332-44.127-23.659-65.073
			c-10.981-17.259-37.789-27.336-49.236-48.612c-9.864-18.334-3.756-46.28-13.762-67.858c-8.857-19.101-34.242-32.359-43.07-54.182
			c-7.959-19.674,0.942-46.881-6.892-68.897c-8.503-23.895-33.234-41.321-40.117-63.61c-7.53-24.386,3.175-52.708-2.614-75.14
			c-6.436-24.938-29.396-44.621-33.951-67.101c-5.188-25.601,8.485-52.632,5.342-74.98c-3.731-26.531-24.062-48.876-25.56-70.718
			c-1.946-28.363,15.67-53.137,16.126-73.369c1.077-47.85-19.163-39.215-11.059-74.807"/>
	</g>
	<g>
		<path fill="none" stroke="#C40823" stroke-width="10" stroke-miterlimit="10" d="M614.268-39.643
			c-31.846-10.147-13.572-22.707-49.478-49.36c-14.687-10.902-43.389-11.425-62.331-29.815
			c-14.217-13.802-16.373-42.259-32.484-61.146c-13.276-15.563-41.225-21.812-55.522-41.287
			c-12.32-16.782-10.161-45.307-23.073-65.282c-11.43-17.683-38.412-27.279-50.191-47.66c-10.62-18.375-5.592-46.556-16.414-67.268
			c-11.746-22.479-38.662-36.293-48.58-57.407c-10.851-23.101-4.19-52.637-13.046-74.045c-9.843-23.799-35.319-40.096-42.958-61.722
			c-8.7-24.629,1.078-53.301-5.145-74.995c-7.388-25.754-30.63-45.053-35.153-66.473c-5.875-27.816,8.123-54.8,5.758-74.898
			c-5.593-47.534-24.435-36.166-21.362-72.539"/>
	</g>
	<g>
		<path fill="none" stroke="#C40823" stroke-width="10" stroke-miterlimit="10" d="M615.487-39.346
			c-32.948-5.617-16.6-20.597-55.865-41.994c-16.061-8.752-44.558-5.275-65.875-20.851c-15.999-11.689-22.094-39.57-40.678-56.031
			c-15.313-13.563-43.859-15.861-60.728-33.157c-14.536-14.905-16.368-43.452-31.934-61.436
			c-13.779-15.919-41.834-21.667-56.335-40.21c-13.074-16.719-12.017-45.326-25.616-64.329
			c-14.758-20.623-43.333-30.554-56.092-50.081c-13.96-21.366-11.476-51.542-23.225-71.51
			c-13.061-22.198-40.556-34.791-51.131-55.144c-12.043-23.18-6.352-52.934-15.533-73.55c-10.9-24.475-36.603-40.351-44.063-60.934
			c-9.689-26.728,0.417-55.398-4.722-74.972c-12.154-46.294-29.231-32.414-31.25-68.862"/>
	</g>
	<g>
		<path fill="none" stroke="#C40823" stroke-width="10" stroke-miterlimit="10" d="M616.737-39.222
			c-33.41-0.977-19.305-18.086-61.167-33.81c-17.123-6.432-44.858,0.977-68.135-11.479c-17.47-9.349-27.386-36.109-48.08-49.824
			c-17.052-11.3-45.64-9.603-64.751-24.383c-16.469-12.737-22.256-40.75-40.173-56.394c-15.861-13.847-44.442-15.634-61.383-31.979
			c-15.274-14.736-18.208-43.211-34.319-60.138c-17.485-18.368-47.165-24.227-62.517-41.787
			c-16.798-19.215-18.538-49.443-32.951-67.582c-16.023-20.164-45.003-28.807-58.308-47.49
			c-15.152-21.278-13.657-51.535-25.619-70.673c-14.2-22.72-41.862-34.865-52.115-54.208c-13.314-25.12-7.297-54.917-15.11-73.585
			c-18.479-44.152-33.458-28.031-40.53-63.843"/>
	</g>
	<g>
		<path fill="none" stroke="#C40823" stroke-width="10" stroke-miterlimit="10" d="M617.991-39.272
			c-33.22,3.683-21.634-15.223-65.275-24.968c-17.852-3.986-44.285,7.21-69.07-1.885c-18.602-6.827-32.146-31.947-54.547-42.648
			c-18.458-8.817-46.532-3.157-67.515-15.134c-18.081-10.321-27.71-37.257-47.63-50.253c-17.634-11.505-46.186-9.297-65.237-23.125
			c-17.176-12.467-24.045-40.257-42.355-54.777c-19.871-15.756-50.077-17.426-67.724-32.68
			c-19.309-16.69-25.239-46.382-42.037-62.338c-18.673-17.738-48.574-22.264-64.35-38.914
			c-17.966-18.962-20.697-49.132-35.205-66.419c-17.225-20.522-46.307-28.699-59.152-46.428
			c-16.681-23.022-14.87-53.368-25.205-70.767c-24.444-41.15-37.033-23.102-49.021-57.581"/>
	</g>
	<g>
		<path fill="none" stroke="#C40823" stroke-width="10" stroke-miterlimit="10" d="M619.227-39.498
			c-32.384,8.27-23.542-12.064-68.115-15.641c-18.233-1.463-42.851,13.304-68.66,7.746c-19.371-4.172-36.279-27.163-59.951-34.642
			c-19.506-6.163-46.519,3.35-68.964-5.59c-19.341-7.704-32.625-33.037-54.161-43.135c-19.063-8.939-47.031-2.779-67.821-13.821
			c-18.744-9.955-29.414-36.519-49.566-48.349c-21.871-12.837-52.015-10.288-71.613-22.937
			c-21.443-13.84-31.447-42.417-50.301-55.879c-20.96-14.966-51.201-15.287-69.141-29.58c-20.43-16.277-27.333-45.774-44.106-60.874
			c-19.913-17.926-49.85-21.976-65.038-37.744c-19.723-20.477-22.152-50.779-34.808-66.571
			c-29.934-37.349-39.888-17.723-56.558-50.198"/>
	</g>
	<g>
		<path fill="none" stroke="#C40823" stroke-width="10" stroke-miterlimit="10" d="M620.419-39.893
			c-30.918,12.697-24.992-8.67-69.629-6.008c-18.259,1.089-40.583,19.138-66.914,17.226c-19.763-1.435-39.706-21.849-64.189-25.961
			c-20.174-3.388-45.6,9.791-69.071,4.062c-20.225-4.937-36.906-28.175-59.636-35.177c-20.122-6.199-46.96,3.793-69.084-4.248
			c-19.947-7.25-34.21-32.07-55.813-40.979c-23.444-9.668-52.94-2.948-74.108-12.747c-23.16-10.721-37.043-37.628-57.588-48.335
			c-22.839-11.904-52.83-8.013-72.583-19.669c-22.497-13.275-33.438-41.524-52.149-54.143
			c-22.214-14.98-52.424-14.824-69.658-28.325c-22.381-17.533-29.004-47.202-43.735-61.079
			c-34.84-32.819-41.966-11.999-62.993-41.838"/>
	</g>
	<g>
		<path fill="none" stroke="#C40823" stroke-width="10" stroke-miterlimit="10" d="M621.544-40.449
			c-28.85,16.876-25.955-5.108-69.788,3.74c-17.93,3.619-37.524,24.6-63.865,26.371c-19.77,1.33-42.361-16.11-67.178-16.774
			c-20.449-0.547-43.793,16.042-67.833,13.635c-20.715-2.074-40.468-22.765-63.952-26.536c-20.789-3.338-45.975,10.292-69.003,5.409
			c-20.762-4.403-38.34-26.997-60.973-32.813c-24.562-6.312-52.836,4.449-75.162-2.309c-24.427-7.394-41.92-32.106-63.754-39.851
			c-24.273-8.609-53.431-0.582-74.615-9.375c-24.125-10.016-38.892-36.467-59.177-46.358c-24.083-11.743-53.977-7.384-72.922-18.355
			c-24.603-14.247-35.291-42.706-51.809-54.397c-39.068-27.651-43.228-6.042-68.203-32.665"/>
	</g>
	<g>
		<path fill="none" stroke="#C40823" stroke-width="10" stroke-miterlimit="10" d="M622.581-41.157
			c-26.221,20.727-26.414-1.446-68.588,13.417c-17.251,6.08-33.735,29.583-59.574,35.002C475.027,11.33,450.229-2.796,425.562,0
			c-20.326,2.304-41.135,21.981-65.276,22.943c-20.803,0.829-43.243-16.911-67.023-17.376c-21.051-0.412-44.094,16.59-67.578,14.959
			c-21.172-1.471-41.724-21.398-64.946-24.008c-25.201-2.832-51.702,11.758-74.75,8.174c-25.22-3.922-45.982-25.96-68.683-30.59
			c-25.235-5.147-52.992,6.859-75.193,1.099c-25.284-6.56-43.587-30.699-65.052-37.67c-25.482-8.277-54.479,0.2-74.767-8.028
			c-26.346-10.685-40.891-37.378-58.875-46.657c-42.537-21.945-43.648,0.033-72.085-22.855"/>
	</g>
	<g>
		<path fill="none" stroke="#C40823" stroke-width="10" stroke-miterlimit="10" d="M623.51-42.003
			c-23.081,24.175-26.358,2.245-66.054,22.832c-16.237,8.421-29.29,33.989-54.122,42.953c-18.638,6.728-45.16-3.81-69.199,2.392
			c-19.808,5.11-37.675,27.492-61.447,31.805c-20.485,3.716-45.176-10.728-68.79-7.88c-20.903,2.521-41.357,22.565-64.839,24.219
			c-21.171,1.49-44.296-15.383-67.655-14.736c-25.35,0.703-49.563,18.839-72.886,18.498c-25.52-0.374-49.147-19.308-72.271-20.733
			C0.541,55.761-25.275,71.514-48.062,68.9c-25.951-2.978-47.436-24.334-69.662-28.251c-26.386-4.65-53.921,7.78-75.157,2.456
			c-27.577-6.914-45.694-31.324-64.795-38.009c-45.176-15.811-43.218,6.107-74.564-12.6"/>
	</g>
	<g>
		<path fill="none" stroke="#C40823" stroke-width="10" stroke-miterlimit="10" d="M624.312-42.969
			c-19.492,27.151-25.789,5.891-62.233,31.802C547.171-0.568,537.804,26.568,514.46,38.9c-17.52,9.256-45.25,2.513-68.192,12
			c-18.904,7.818-33.482,32.468-56.423,40.047c-19.769,6.531-46.229-4.336-69.216,1.771c-20.349,5.406-37.813,28.102-60.837,33.006
			c-20.757,4.422-46.005-9.068-69.047-5.176c-25.005,4.224-46.458,25.554-69.603,28.461c-25.323,3.181-51.357-12.28-74.454-10.474
			c-25.677,2.008-49.048,21.201-71.978,21.784c-26.113,0.663-50.361-17.496-72.917-18.281
			c-26.776-0.932-52.313,15.209-74.083,12.893c-28.271-3.009-49.609-24.66-69.455-28.622c-46.938-9.37-41.948,12.063-75.592-2.1"/>
	</g>
	<g>
		<path fill="none" stroke="#C40823" stroke-width="10" stroke-miterlimit="10" d="M624.971-44.038
			c-15.523,29.6-24.718,9.422-57.202,40.154c-13.287,12.57-18.787,40.747-40.187,56.208c-16.061,11.604-44.46,8.785-65.858,21.373
			c-17.632,10.373-28.638,36.812-50.3,47.51c-18.667,9.219-46.383,2.139-68.297,11.386c-19.398,8.186-33.534,33.091-55.651,41.153
			c-19.94,7.268-46.82-2.578-69.096,4.483c-24.177,7.664-42.455,31.772-64.972,37.873c-24.634,6.675-52.564-5.013-75.185-0.01
			c-25.147,5.562-45.62,27.82-68.245,31.588c-25.766,4.291-52.306-10.317-74.75-7.956c-26.646,2.803-49.687,22.342-71.567,23.077
			c-28.414,0.955-52.558-17.516-72.761-18.677c-47.784-2.746-39.86,17.784-75.147,8.441"/>
	</g>
	<g>
		<path fill="none" stroke="#C40823" stroke-width="10" stroke-miterlimit="10" d="M625.475-45.188
			c-11.254,31.472-23.167,12.771-51.057,47.724C563.01,16.834,561.486,45.5,542.446,63.79
			c-14.29,13.727-42.805,14.887-62.243,30.331c-16.017,12.725-23.236,40.439-43.199,54.048
			c-17.202,11.727-45.633,8.573-66.047,20.78c-18.071,10.806-28.603,37.436-49.382,48.497c-18.734,9.973-46.723,3.964-67.799,14.057
			c-22.875,10.954-37.62,37.372-59.068,46.547c-23.465,10.038-52.752,2.352-74.456,10.454
			c-24.128,9.008-41.304,33.899-63.184,40.779c-24.918,7.835-53.232-2.938-75.129,2.524c-25.996,6.484-46.094,29.039-67.659,32.812
			c-28.004,4.9-54.484-10.03-74.652-8.368c-47.701,3.931-36.997,23.158-73.241,18.818"/>
	</g>
	<g>
		<path fill="none" stroke="#C40823" stroke-width="10" stroke-miterlimit="10" d="M625.813-46.397
			c-6.763,32.732-21.163,15.872-43.917,54.366c-9.308,15.746-6.828,44.346-23.137,65.106
			c-12.241,15.582-40.317,20.701-57.416,38.699c-14.09,14.831-17.382,43.279-35.256,59.534
			c-15.402,14.007-43.996,14.841-62.512,29.77c-16.391,13.215-23.114,41.053-42.152,54.898
			c-17.165,12.483-45.717,10.428-65.184,23.355c-21.125,14.029-32.048,42.241-52.009,54.311
			c-21.84,13.206-51.911,9.671-72.277,20.716c-22.64,12.278-36.185,39.317-56.895,49.176c-23.586,11.227-53.124,4.5-74.048,12.957
			c-24.841,10.039-41.604,35.173-62.435,41.911c-27.05,8.75-55.351-2.351-75.092,2.103c-46.69,10.531-33.415,28.081-69.911,28.828"
			/>
	</g>
	<g>
		<path fill="none" stroke="#C40823" stroke-width="10" stroke-miterlimit="10" d="M625.981-47.641
			c-2.143,33.354-18.749,18.662-35.924,59.948c-7.025,16.888-0.589,44.864-13.851,67.692c-9.953,17.134-37.043,26.11-51.471,46.312
			c-11.889,16.647-11.19,45.277-26.628,63.861c-13.303,16.014-41.502,20.82-57.761,38.181c-14.392,15.368-17.176,43.87-34.102,60.23
			c-15.26,14.75-43.821,16.689-61.299,32.2c-18.967,16.833-25.857,46.291-43.943,61.021c-19.79,16.117-50.06,16.802-68.691,30.573
			c-20.711,15.31-30.361,43.971-49.497,56.615c-21.794,14.4-51.98,11.85-71.524,23.137c-23.202,13.398-36.305,40.62-55.994,50.191
			c-25.57,12.43-55.14,5.377-74.069,12.534c-44.77,16.927-29.181,32.458-65.218,38.276"/>
	</g>
	<g>
		<path fill="none" stroke="#C40823" stroke-width="10" stroke-miterlimit="10" d="M625.975-48.896
			c2.52,33.329-15.97,21.09-27.231,64.365c-4.606,17.702,5.661,44.509-4.294,68.961c-7.472,18.352-33.049,31.011-44.524,53.025
			c-9.457,18.14-4.78,46.394-17.481,66.945c-10.945,17.71-38.201,26.394-51.885,45.848c-12.113,17.221-10.903,45.833-25.388,64.39
			c-13.059,16.73-41.071,22.625-56.221,40.417c-16.44,19.31-19.164,49.438-35.023,66.543
			c-17.354,18.715-47.235,23.605-63.768,39.836c-18.379,18.043-23.945,47.768-41.136,62.952
			c-19.577,17.294-49.825,18.97-67.607,32.866c-21.111,16.497-30.299,45.277-48.465,57.496
			c-23.591,15.867-53.854,12.998-71.604,22.72c-41.979,22.993-24.379,36.204-59.256,46.981"/>
	</g>
	<g>
		<path fill="none" stroke="#C40823" stroke-width="10" stroke-miterlimit="10" d="M625.793-50.139
			c7.134,32.653-12.879,23.106-18.009,67.527c-2.099,18.17,11.8,43.29,5.345,68.889c-4.845,19.213-28.412,35.309-36.712,58.705
			c-6.839,19.279,1.724,46.608-7.994,68.727c-8.374,19.061-34.155,31.453-44.999,52.622c-9.599,18.74-4.418,46.905-16.18,67.296
			c-10.603,18.386-37.523,28.122-50.048,47.85c-13.593,21.409-12.097,51.625-25.422,70.77c-14.58,20.947-43.489,29.947-57.601,48.32
			c-15.688,20.425-17.064,50.637-31.975,68.066c-16.98,19.85-46.7,25.72-62.375,41.955c-18.61,19.276-23.702,49.054-39.991,63.682
			c-21.153,18.997-51.522,20.367-67.745,32.465c-38.371,28.612-19.104,39.245-52.142,54.771"/>
	</g>
	<g>
		<path fill="none" stroke="#C40823" stroke-width="10" stroke-miterlimit="10" d="M625.439-51.344
			c11.609,31.342-9.537,24.674-8.435,69.377c0.45,18.286,17.709,41.226,14.88,67.475c-2.124,19.7-23.222,38.919-28.186,63.243
			c-4.09,20.043,8.193,45.914,1.649,69.17c-5.64,20.041-29.446,35.9-37.237,58.372c-6.897,19.893,2.152,47.063-6.656,68.893
			c-7.941,19.683-33.244,33.07-42.902,54.35c-10.481,23.093-4.794,52.806-15.325,73.619c-11.522,22.772-38.898,35.708-50.316,55.866
			c-12.693,22.41-9.851,52.519-22.19,71.854c-14.052,22.021-42.667,31.969-55.93,50.229c-15.746,21.678-16.645,51.874-30.739,68.627
			c-18.304,21.756-48.186,27.34-62.567,41.578c-34.015,33.673-13.457,41.521-44.011,61.494"/>
	</g>
	<g>
		<path fill="none" stroke="#C40823" stroke-width="10" stroke-miterlimit="10" d="M624.922-52.488
			c15.859,29.422-6.01,25.762,1.303,69.876c2.991,18.045,23.275,38.36,24.126,64.747c0.639,19.805-17.579,41.772-19.108,66.551
			c-1.26,20.417,14.504,44.327,11.26,68.268c-2.795,20.63-24.163,39.649-28.751,62.987c-4.062,20.66,8.681,46.306,2.996,69.149
			c-5.125,20.596-28.318,37.375-34.92,59.791c-7.165,24.326,2.602,52.959-4.93,75.035c-8.241,24.154-33.55,40.774-42.051,62.325
			c-9.451,23.958-2.446,53.378-11.974,74.242c-10.851,23.762-37.802,37.596-48.395,57.523
			c-12.576,23.658-9.264,53.687-20.889,72.238c-15.098,24.091-43.912,33.779-56.172,49.88c-28.998,38.08-7.547,42.99-35.025,67.021"
			/>
	</g>
	<g>
		<path fill="none" stroke="#C40823" stroke-width="10" stroke-miterlimit="10" d="M624.251-53.549
			c19.799,26.928-2.367,26.347,11.015,69.015c5.474,17.453,28.387,34.747,32.902,60.759c3.389,19.523-11.594,43.812-9.661,68.562
			c1.594,20.394,20.532,41.877,20.651,66.037c0.103,20.819-18.41,42.626-19.705,66.376c-1.146,21.023,15.041,44.646,12.591,68.059
			c-2.208,21.108-22.841,40.952-26.26,64.069c-3.71,25.087,9.947,52.081,5.562,74.99c-4.8,25.066-27.549,45.047-32.968,67.571
			c-6.025,25.041,5.006,53.199-1.525,75.187c-7.438,25.04-32.202,42.49-39.918,63.698c-9.161,25.179-1.701,54.453-10.631,74.441
			c-11.598,25.958-38.783,39.562-48.684,57.212c-23.416,41.745-1.49,43.623-25.356,71.244"/>
	</g>
</g>
</svg>
