<?xml version="1.0" encoding="utf-8"?>
<!-- Generator: Adobe Illustrator 15.0.0, SVG Export Plug-In . SVG Version: 6.00 Build 0)  -->
<!DOCTYPE svg PUBLIC "-//W3C//DTD SVG 1.1//EN" "http://www.w3.org/Graphics/SVG/1.1/DTD/svg11.dtd">
<svg version="1.1" xmlns="http://www.w3.org/2000/svg" xmlns:xlink="http://www.w3.org/1999/xlink" x="0px" y="0px" width="1200px"
	 height="600px" viewBox="0 0 1200 600" enable-background="new 0 0 1200 600" xml:space="preserve">
<g id="Layer_1" display="none">
	<rect display="inline" fill="#00ADEE" stroke="#000000" stroke-width="5" width="100" height="100"/>
	<rect x="100" display="inline" fill="#E8DA34" stroke="#000000" stroke-width="5" width="100" height="100"/>
	<rect x="200" display="inline" fill="#00ADEE" stroke="#000000" stroke-width="5" width="100" height="100"/>
	<rect x="300" display="inline" fill="#00ADEE" stroke="#000000" stroke-width="5" width="100" height="100"/>
	<rect x="400" display="inline" stroke="#000000" stroke-width="5" width="100" height="100"/>
	<rect x="500" display="inline" fill="#00ADEE" stroke="#000000" stroke-width="5" width="100" height="100"/>
	<rect x="600" display="inline" fill="#E8DA34" stroke="#000000" stroke-width="5" width="100" height="100"/>
	<rect x="700" display="inline" fill="#00ADEE" stroke="#000000" stroke-width="5" width="100" height="100"/>
	<rect x="800" display="inline" stroke="#000000" stroke-width="5" width="100" height="100"/>
	<rect x="900" display="inline" fill="#00ADEE" stroke="#000000" stroke-width="5" width="100" height="100"/>
	<rect x="1000" display="inline" fill="#ED008D" stroke="#000000" stroke-width="5" width="100" height="100"/>
	<rect x="1100" display="inline" fill="#00ADEE" stroke="#000000" stroke-width="5" width="100" height="100"/>
	<rect y="100" display="inline" stroke="#000000" stroke-width="5" width="100" height="100"/>
	<rect x="100" y="100" display="inline" fill="#ED008D" stroke="#000000" stroke-width="5" width="100" height="100"/>
	<rect x="200" y="100" display="inline" fill="#E8DA34" stroke="#000000" stroke-width="5" width="100" height="100"/>
	<rect x="300" y="100" display="inline" fill="#ED008D" stroke="#000000" stroke-width="5" width="100" height="100"/>
	<rect x="400" y="100" display="inline" fill="#00ADEE" stroke="#000000" stroke-width="5" width="100" height="100"/>
	<rect x="500" y="100" display="inline" fill="#ED008D" stroke="#000000" stroke-width="5" width="100" height="100"/>
	<rect x="600" y="100" display="inline" fill="#00ADEE" stroke="#000000" stroke-width="5" width="100" height="100"/>
	<rect x="700" y="100" display="inline" stroke="#000000" stroke-width="5" width="100" height="100"/>
	<rect x="800" y="100" display="inline" fill="#ED008D" stroke="#000000" stroke-width="5" width="100" height="100"/>
	<rect x="900" y="100" display="inline" stroke="#000000" stroke-width="5" width="100" height="100"/>
	<rect x="1000" y="100" display="inline" fill="#00ADEE" stroke="#000000" stroke-width="5" width="100" height="100"/>
	<rect x="1100" y="100" display="inline" stroke="#000000" stroke-width="5" width="100" height="100"/>
	<rect y="200" display="inline" fill="#00ADEE" stroke="#000000" stroke-width="5" width="100" height="100"/>
	<rect x="100" y="200" display="inline" fill="#00ADEE" stroke="#000000" stroke-width="5" width="100" height="100"/>
	<rect x="200" y="200" display="inline" stroke="#000000" stroke-width="5" width="100" height="100"/>
	<rect x="300" y="200" display="inline" fill="#00ADEE" stroke="#000000" stroke-width="5" width="100" height="100"/>
	<rect x="400" y="200" display="inline" stroke="#000000" stroke-width="5" width="100" height="100"/>
	<rect x="500" y="200" display="inline" fill="#00ADEE" stroke="#000000" stroke-width="5" width="100" height="100"/>
	<rect x="600" y="200" display="inline" stroke="#000000" stroke-width="5" width="100" height="100"/>
	<rect x="700" y="200" display="inline" fill="#E8DA34" stroke="#000000" stroke-width="5" width="100" height="100"/>
	<rect x="800" y="200" display="inline" fill="#00ADEE" stroke="#000000" stroke-width="5" width="100" height="100"/>
	<rect x="900" y="200" display="inline" fill="#E8DA34" stroke="#000000" stroke-width="5" width="100" height="100"/>
	<rect x="1000" y="200" display="inline" fill="#00ADEE" stroke="#000000" stroke-width="5" width="100" height="100"/>
	<rect x="1100" y="200" display="inline" fill="#ED008D" stroke="#000000" stroke-width="5" width="100" height="100"/>
	<rect y="300" display="inline" stroke="#000000" stroke-width="5" width="100" height="100"/>
	<rect x="100" y="300" display="inline" fill="#E8DA34" stroke="#000000" stroke-width="5" width="100" height="100"/>
	<rect x="200" y="300" display="inline" stroke="#000000" stroke-width="5" width="100" height="100"/>
	<rect x="300" y="300" display="inline" fill="#ED008D" stroke="#000000" stroke-width="5" width="100" height="100"/>
	<rect x="400" y="300" display="inline" fill="#E8DA34" stroke="#000000" stroke-width="5" width="100" height="100"/>
	<rect x="500" y="300" display="inline" fill="#00ADEE" stroke="#000000" stroke-width="5" width="100" height="100"/>
	<rect x="600" y="300" display="inline" stroke="#000000" stroke-width="5" width="100" height="100"/>
	<rect x="700" y="300" display="inline" fill="#ED008D" stroke="#000000" stroke-width="5" width="100" height="100"/>
	<rect x="800" y="300" display="inline" fill="#00ADEE" stroke="#000000" stroke-width="5" width="100" height="100"/>
	<rect x="900" y="300" display="inline" stroke="#000000" stroke-width="5" width="100" height="100"/>
	<rect x="1000" y="300" display="inline" fill="#00ADEE" stroke="#000000" stroke-width="5" width="100" height="100"/>
	<rect x="1100" y="300" display="inline" stroke="#000000" stroke-width="5" width="100" height="100"/>
	<rect y="400" display="inline" fill="#ED008D" stroke="#000000" stroke-width="5" width="100" height="100"/>
	<rect x="100" y="400" display="inline" fill="#00ADEE" stroke="#000000" stroke-width="5" width="100" height="100"/>
	<rect x="200" y="400" display="inline" fill="#00ADEE" stroke="#000000" stroke-width="5" width="100" height="100"/>
	<rect x="300" y="400" display="inline" stroke="#000000" stroke-width="5" width="100" height="100"/>
	<rect x="400" y="400" display="inline" fill="#00ADEE" stroke="#000000" stroke-width="5" width="100" height="100"/>
	<rect x="500" y="400" display="inline" stroke="#000000" stroke-width="5" width="100" height="100"/>
	<rect x="600" y="400" display="inline" fill="#ED008D" stroke="#000000" stroke-width="5" width="100" height="100"/>
	<rect x="700" y="400" display="inline" fill="#00ADEE" stroke="#000000" stroke-width="5" width="100" height="100"/>
	<rect x="800" y="400" display="inline" fill="#E8DA34" stroke="#000000" stroke-width="5" width="100" height="100"/>
	<rect x="900" y="400" display="inline" fill="#00ADEE" stroke="#000000" stroke-width="5" width="100" height="100"/>
	<rect x="1000" y="400" display="inline" fill="#E8DA34" stroke="#000000" stroke-width="5" width="100" height="100"/>
	<rect x="1100" y="400" display="inline" fill="#00ADEE" stroke="#000000" stroke-width="5" width="100" height="100"/>
	<rect y="500" display="inline" stroke="#000000" stroke-width="5" width="100" height="100"/>
	<rect x="100" y="500" display="inline" fill="#ED008D" stroke="#000000" stroke-width="5" width="100" height="100"/>
	<rect x="200" y="500" display="inline" fill="#00ADEE" stroke="#000000" stroke-width="5" width="100" height="100"/>
	<rect x="300" y="500" display="inline" fill="#E8DA34" stroke="#000000" stroke-width="5" width="100" height="100"/>
	<rect x="400" y="500" display="inline" fill="#00ADEE" stroke="#000000" stroke-width="5" width="100" height="100"/>
	<rect x="500" y="500" display="inline" fill="#ED008D" stroke="#000000" stroke-width="5" width="100" height="100"/>
	<rect x="600" y="500" display="inline" stroke="#000000" stroke-width="5" width="100" height="100"/>
	<rect x="700" y="500" display="inline" fill="#00ADEE" stroke="#000000" stroke-width="5" width="100" height="100"/>
	<rect x="800" y="500" display="inline" stroke="#000000" stroke-width="5" width="100" height="100"/>
	<rect x="900" y="500" display="inline" fill="#ED008D" stroke="#000000" stroke-width="5" width="100" height="100"/>
	<rect x="1000" y="500" display="inline" fill="#00ADEE" stroke="#000000" stroke-width="5" width="100" height="100"/>
	<rect x="1100" y="500" display="inline" fill="#E8DA34" stroke="#000000" stroke-width="5" width="100" height="100"/>
</g>
<g id="Layer_2">
	<rect width="1200" height="600"/>
	<linearGradient id="SVGID_1_" gradientUnits="userSpaceOnUse" x1="-42.084" y1="-88.1943" x2="1080.9154" y2="675.8052">
		<stop  offset="0" style="stop-color:#8BBC11"/>
		<stop  offset="0.3742" style="stop-color:#C62A9A"/>
		<stop  offset="0.6748" style="stop-color:#FFEF59"/>
		<stop  offset="1" style="stop-color:#850ABF"/>
	</linearGradient>
	<path fill="url(#SVGID_1_)" d="M1314.146,273.099l-39.725-68.807l39.725-68.809c1.201-2.08,1.201-4.641,0-6.72l-41.666-72.168
		c-1.201-2.079-3.42-3.36-5.82-3.36h-79.455l-39.723-68.809c-1.199-2.079-3.42-3.36-5.818-3.36h-83.336
		c-2.4,0-4.619,1.281-5.82,3.36l-39.726,68.809h-75.573l-39.726-68.809c-1.201-2.079-3.42-3.36-5.82-3.36H808.33
		c-2.401,0-4.62,1.281-5.819,3.36l-39.726,68.809h-75.574l-39.725-68.809c-1.199-2.079-3.419-3.36-5.819-3.36h-83.334
		c-2.4,0-4.619,1.281-5.819,3.36l-39.727,68.809h-75.575l-39.724-68.809c-1.2-2.079-3.419-3.36-5.82-3.36h-83.333
		c-2.401,0-4.619,1.281-5.819,3.36L262.79,53.235h-75.574L147.49-15.574c-1.2-2.079-3.419-3.36-5.82-3.36H58.338
		c-2.4,0-4.62,1.281-5.82,3.36L12.792,53.235H-66.66c-2.4,0-4.619,1.281-5.819,3.36l-41.667,72.168c-1.2,2.079-1.2,4.64,0,6.72
		l39.728,68.809l-39.728,68.807c-1.2,2.079-1.2,4.641,0,6.72l39.728,68.808l-39.728,68.809c-1.2,2.078-1.2,4.641,0,6.72
		l39.728,68.81l-39.728,68.809c-1.2,2.078-1.2,4.641,0,6.72l41.667,72.169c1.2,2.078,3.419,3.359,5.819,3.359h83.333
		c2.4,0,4.619-1.281,5.819-3.359l39.725-68.81h75.574l39.726,68.81c1.2,2.078,3.419,3.359,5.82,3.359h83.334
		c2.4,0,4.619-1.281,5.819-3.359l39.725-68.81h75.574l39.727,68.81c1.2,2.078,3.419,3.359,5.82,3.359h83.333
		c2.401,0,4.62-1.281,5.82-3.359l39.726-68.81h75.575l39.725,68.81c1.201,2.078,3.419,3.359,5.819,3.359h83.335
		c2.4,0,4.619-1.281,5.819-3.359l39.723-68.81h75.574l39.728,68.81c1.201,2.078,3.419,3.359,5.819,3.359h0.004h83.33h0.003
		c2.4,0,4.619-1.281,5.819-3.359l39.723-68.81h75.574l39.725,68.81c1.199,2.078,3.42,3.359,5.82,3.359h83.332
		c2.4,0,4.619-1.281,5.82-3.359l41.666-72.169c1.201-2.079,1.201-4.642,0-6.72l-39.725-68.809l39.725-68.81
		c1.201-2.079,1.201-4.642,0-6.72l-39.725-68.809l39.725-68.808C1315.348,277.74,1315.348,275.178,1314.146,273.099z
		 M1300.568,132.123l-37.787,65.449h-75.574l-37.785-65.449l37.785-65.448h75.574L1300.568,132.123z M1137.783,558.413h-75.574
		l-37.783-65.448l37.783-65.45h75.574l2.939,5.091l34.844,60.359l-36.438,63.117L1137.783,558.413z M937.213,486.245l-37.787-65.45
		l37.787-65.447h75.569l37.786,65.447l-1.578,2.731l-36.208,62.719H937.213z M812.209,558.413l-37.783-65.448l37.783-65.45h75.574
		l37.787,65.45l-37.787,65.448H812.209z M687.212,486.245l-37.786-65.45l37.786-65.447h75.573l36.439,63.116l1.346,2.331
		l-2.939,5.091l-34.846,60.359H687.212z M562.213,558.413l-37.786-65.448l37.786-65.45h75.575l1.576,2.731l36.208,62.719
		l-37.784,65.448H562.213z M437.215,486.245l-37.787-65.45l37.787-65.447h75.572l37.787,65.447l-37.787,65.45H437.215z
		 M312.215,558.413l-37.785-65.448l37.785-65.45h75.574l0.545,0.943l37.24,64.507l-37.785,65.448H312.215z M187.216,486.245
		l-37.786-65.45l37.786-65.447h75.574l37.786,65.447L299,423.526l-36.209,62.719H187.216z M62.217,558.413l-37.785-65.448
		l37.785-65.45h75.574l2.912,5.043l34.874,60.407l-37.786,65.448H62.217z M137.791,138.843l1.312,2.272l36.474,63.177
		l-37.786,65.447H62.217l-37.785-65.447l37.785-65.449H137.791z M262.79,66.675l37.591,65.11l0.195,0.338l-0.68,1.177
		l-37.106,64.272h-75.574l-37.786-65.449l37.786-65.448H262.79z M387.789,138.843l37.785,65.449l-37.785,65.447h-75.574
		l-37.785-65.447l37.785-65.449H387.789z M512.787,66.675l37.787,65.448l-37.787,65.449h-75.572l-37.787-65.449l37.787-65.448
		H512.787z M637.788,138.843l0.679,1.177l37.105,64.272l-37.784,65.447h-75.575l-37.786-65.447l37.786-65.449H637.788z
		 M762.785,66.675l36.012,62.377l1.773,3.071l-2.181,3.775l-35.604,61.674h-75.573l-37.786-65.449l37.786-65.448H762.785z
		 M887.783,138.843l37.787,65.449l-37.787,65.447h-75.574l-37.783-65.447l37.783-65.449H887.783z M1012.782,66.675l37.591,65.11
		l0.195,0.338l-0.68,1.177l-37.106,64.272h-75.569l-37.787-65.449l37.787-65.448H1012.782z M1137.783,138.843l2.18,3.776
		l35.604,61.673l-36.438,63.117l-1.346,2.331h-75.574l-37.783-65.447l37.783-65.449H1137.783z M1175.566,348.627l-36.438,63.117
		l-1.346,2.331h-75.574l-37.783-65.448l37.783-65.448h75.574l2.18,3.776L1175.566,348.627z M937.213,341.907l-37.787-65.448
		l37.787-65.447h75.569l37.786,65.447l-0.68,1.177l-37.106,64.271H937.213z M812.209,414.075l-37.783-65.448l37.783-65.448h75.574
		l37.787,65.448l-37.787,65.448H812.209z M687.212,341.907l-37.786-65.448l37.786-65.447h75.573l36.439,63.117l1.346,2.331
		l-2.181,3.776l-35.604,61.672H687.212z M562.213,414.075l-37.786-65.448l37.786-65.448h75.575l0.679,1.177l37.105,64.271
		l-37.784,65.448H562.213z M437.215,341.907l-37.787-65.448l37.787-65.447h75.572l37.787,65.447l-37.787,65.448H437.215z
		 M312.215,414.075l-37.785-65.448l37.785-65.448h75.574l37.785,65.448l-37.785,65.448H312.215z M187.216,341.907l-37.786-65.448
		l37.786-65.447h75.574l37.786,65.447l-0.68,1.177l-37.106,64.271H187.216z M62.217,414.075l-37.785-65.448l37.785-65.448h75.574
		l1.312,2.274l36.474,63.174l-37.786,65.448H62.217z M1062.207-5.494h75.576l37.783,65.449l-36.01,62.378l-1.773,3.071h-75.574
		l-37.785-65.454L1062.207-5.494z M812.209-5.494h75.574l37.787,65.449l-37.787,65.449h-75.574l-37.784-65.449L812.209-5.494z
		 M562.213-5.494h75.575l37.784,65.449l-37.59,65.11l-0.194,0.338h-75.575l-37.786-65.451L562.213-5.494z M312.215-5.494h75.574
		l37.785,65.449l-37.785,65.449h-75.574l-37.786-65.45L312.215-5.494z M62.217-5.494h75.574l37.786,65.449l-37.399,64.779
		l-0.387,0.67H62.217L24.431,59.953L62.217-5.494z M-62.781,66.675h75.572l37.787,65.448l-37.787,65.449h-75.572l-37.787-65.449
		L-62.781,66.675z M-62.781,211.012h75.572l37.787,65.447l-37.787,65.448h-75.572l-37.787-65.448L-62.781,211.012z M-62.781,355.348
		h75.572l37.787,65.447l-0.545,0.943l-37.242,64.507h-75.572l-37.787-65.45L-62.781,355.348z M12.794,630.582h-75.575
		l-37.787-65.449l37.787-65.448h75.572l37.787,65.448L12.794,630.582z M262.792,630.582h-75.576l-37.786-65.449l37.786-65.448
		h75.574l37.786,65.448L262.792,630.582z M512.789,630.582h-75.574l-37.787-65.449l37.787-65.448h75.572l37.787,65.448
		L512.789,630.582z M762.787,630.582h-75.575l-37.786-65.449l37.786-65.448h75.573l36.439,63.117l1.346,2.331L762.787,630.582z
		 M937.213,630.582l-37.787-65.449l37.787-65.448h75.569l37.786,65.448l-37.785,65.449H937.213z M1262.781,630.582h-75.574
		l-37.785-65.449l37.785-65.448h75.574l37.787,65.448L1262.781,630.582z M1262.781,486.245h-75.574l-37.785-65.45l37.785-65.447
		h75.574l37.787,65.447L1262.781,486.245z M1262.781,341.907h-75.574l-37.785-65.448l37.785-65.447h75.574l37.787,65.447
		L1262.781,341.907z"/>
</g>
</svg>
