<?xml version="1.0" encoding="utf-8"?>
<!-- Generator: Adobe Illustrator 15.0.0, SVG Export Plug-In . SVG Version: 6.00 Build 0)  -->
<!DOCTYPE svg PUBLIC "-//W3C//DTD SVG 1.1//EN" "http://www.w3.org/Graphics/SVG/1.1/DTD/svg11.dtd">
<svg version="1.1" id="Layer_1" xmlns="http://www.w3.org/2000/svg" xmlns:xlink="http://www.w3.org/1999/xlink" x="0px" y="0px"
	 width="1200px" height="500px" viewBox="0 0 1200 500" enable-background="new 0 0 1200 500" xml:space="preserve">
<g id="Layer_2">
	<path fill="#F2E77C" d="M414.392,485.438c0.299-0.424,8.595,9.371,13.25,14.562h28.253c-2.794-5.725-9.899-18.303-9.899-18.303
		s8.385-0.778,9.573-1.725c1.188-0.943-12.433-51.062-13.975-51.682s-55.309,2.605-56.104,3.365
		c-0.434,0.412,2.182,52.523,3.438,68.342h29.805C417.072,494.791,414.101,485.853,414.392,485.438z M411.182,472.911
		c-0.571-0.401-1.555-8.4-1.15-8.978c0.4-0.571,16.133,0.57,16.91,0.591c0.776,0.019,2.975,5.904,2.768,6.482
		C429.499,471.586,411.82,473.359,411.182,472.911z"/>
	<path fill="#F2E77C" d="M229.493,479.141c-0.692-0.971-41.025,0.953-41.475-0.249c-0.448-1.204-1.029-6.938-0.061-7.631
		c0.971-0.69,44.805,0.565,44.594-0.631c-0.21-1.197-5.411-38.984-6.087-40.669c-0.676-1.685-60.003-3.064-61.216-2.139
		c-0.537,0.407-2.161,31.418-1.048,45.03c0.848,10.354,2.626,22.098,3.953,27.146h59.172
		C228.282,494.158,230.056,479.927,229.493,479.141z"/>
	<path fill="#F2E77C" d="M111.018,495.278c0.953,0.021,19.832-1.923,20.784-1.9c0.638,0.015,1.717,3.989,2.576,6.622h30.326
		c-0.828-8.025-15.431-70.762-16.282-72.569c-0.908-1.929-51.001,5.783-51.294,8.16c-0.261,2.109-8.759,53.001-9.852,64.409h22.176
		C109.955,497.932,110.425,495.265,111.018,495.278z M112.337,469.323c0.737-0.938,11.689-1.158,12.184-1.146
		c0.953,0.022,7.68,8.046,6.489,8.021c-1.191-0.027-19.571,0.975-20.28,0.72C110.021,476.66,111.6,470.261,112.337,469.323z"/>
	<path fill="#F2E77C" d="M236.229,430.844c-0.879,0.527-0.952,39.245-0.19,39.245c0.762,0,18.244,0,18.244,0.953
		s-2.477,28.958,0,28.958c2.478,0,36.579,0,37.532,0c0.952,0-4.191-28.577-4.191-28.577s19.019-1.521,19.398-2.286
		c0.381-0.762-2.479-39.437-3.622-39.437C302.26,429.7,237.183,430.271,236.229,430.844z"/>
	<path fill="#F2E77C" d="M374.285,429.319c-1.904-0.764-57.728,2.668-59.821,4.57c-1.136,1.035-4.764,66.11-2.667,66.11
		c2.096,0,65.156,0,69.919,0S376.191,430.081,374.285,429.319z M355.153,480.959c-0.777,0.583-24.48,0.194-25.26-0.583
		c-0.775-0.776-0.972-5.438-0.581-6.217c0.389-0.778,23.896-4.081,24.868-3.886C355.153,470.468,355.931,480.376,355.153,480.959z"
		/>
	<path fill="#F2E77C" d="M158.285,353.318c-1.904-0.762-57.726,2.668-59.821,4.572C97.328,358.925,93.7,424,95.797,424
		c2.096,0,65.156,0,69.919,0C170.479,424,160.191,354.081,158.285,353.318z M139.153,404.959c-0.777,0.583-24.48,0.194-25.258-0.583
		c-0.777-0.776-0.972-5.438-0.583-6.217s23.898-4.081,24.87-3.886C139.153,394.468,139.931,404.376,139.153,404.959z"/>
	<path fill="#F2E77C" d="M301.285,353.318c-1.904-0.762-57.726,2.668-59.821,4.572C240.328,358.925,236.7,424,238.797,424
		c2.096,0,65.156,0,69.919,0S303.191,354.081,301.285,353.318z M282.153,404.959c-0.777,0.583-24.48,0.194-25.258-0.583
		c-0.777-0.776-0.972-5.438-0.583-6.217s23.898-4.081,24.87-3.886C282.153,394.468,282.931,404.376,282.153,404.959z"/>
	<path fill="#F2E77C" d="M446.668,428.888c0.92-0.368,27.979-0.972,27.979-0.972l7.188,18.458c0,0,13.602-19.235,14.378-19.041
		c0.777,0.194,22.928,0.194,23.122,0.777c0.193,0.582-30.116,71.89-31.865,71.89s-28.173,0-29.145,0
		c-0.974,0,9.132-20.596,9.132-20.596S445.695,429.276,446.668,428.888z"/>
	<path fill="#F2E77C" d="M28.056,435.591c-0.874,1.166,0,64.409,1.166,64.409s27.104,0,28.562,0c1.457,0-0.875-12.532-0.875-12.532
		s14.864,0.874,16.03,0.874s2.623-14.572,1.457-14.572s-16.904,0.875-17.778,0.583c-0.874-0.29-1.166-2.912-0.292-2.912
		c0.875,0,30.311,0.872,32.059,0c1.748-0.874,3.692-41.191,2.915-42.162C90.522,428.305,28.93,434.425,28.056,435.591z"/>
	<path fill="#F2E77C" d="M87.75,356.75c-1.186,0.396-48.75,3-49.75,3.75s-5,41.25-4.25,41.25s40,3.5,40,3.5s0,3.75-1.25,3.75
		s-37.25-4-38-3.25S26.75,424,27.5,424s61,0,62.25,0s2.5-25.25,1.5-25.25s-41.75-1.5-42-2.5S48.75,394,50,394s37.75,0.25,39,0
		S88.5,356.5,87.75,356.75z"/>
	<path fill="#F2E77C" d="M168.75,354c-1,0.25,2,70,3.25,70s22.25,0,23.25,0s-0.75-15.75-0.75-15.75s4.25,0.25,4.75,1
		s2.5,14.75,2.5,14.75s32,0,33.25,0s-1-74.25-2-74.75S198,354,197,354s2.75,42.5,1.75,42.5s-2-0.25-3.25-0.25s-2-38-2.75-38.5
		S169.75,353.75,168.75,354z"/>
</g>
</svg>
