<?xml version="1.0" encoding="utf-8"?>
<!-- Generator: Adobe Illustrator 15.0.0, SVG Export Plug-In . SVG Version: 6.00 Build 0)  -->
<!DOCTYPE svg PUBLIC "-//W3C//DTD SVG 1.1//EN" "http://www.w3.org/Graphics/SVG/1.1/DTD/svg11.dtd">
<svg version="1.1" id="Layer_1" xmlns="http://www.w3.org/2000/svg" xmlns:xlink="http://www.w3.org/1999/xlink" x="0px" y="0px"
	 width="103px" height="66px" viewBox="0 0 103 66" enable-background="new 0 0 103 66" xml:space="preserve">
<path fill="#FFFFFF" d="M43.278,23.791c-2.803-0.697-13.317,0-13.317,0l0.701,2.083h2.454l1.753,15.637h-4.558l1.053,2.085h7.008
	l-0.35-2.085h-1.754l-0.349-6.95c0,0,5.957,0,8.76-1.737C47.483,31.087,46.083,24.484,43.278,23.791z M43.628,31.608
	c-1.051,0.869-7.361,0.695-7.361,0.695l-0.874-6.603c0,0,6.131-0.696,7.708,0.521C44.679,27.438,44.679,30.738,43.628,31.608z"/>
<path fill="#FFFFFF" d="M59.637,24.853c-3.245-0.536-11.35,0-11.35,0v1.429l2.162,0.179l0.36,14.47l-2.341,0.358v1.786l6.845-0.714
	v-1.43h-2.882l0.179-3.393l5.226-0.179l1.982,5.716h1.441l-1.983-5.537c0,0,3.424-0.715,4.324-2.144
	C64.502,33.964,62.878,25.39,59.637,24.853z M61.077,34.858c-1.801,1.071-8.467,0.714-8.467,0.714l-0.54-8.755
	c0,0,5.947-0.535,7.567,0C61.259,27.355,62.878,33.786,61.077,34.858z"/>
<polygon fill="#FFFFFF" points="66.93,24.804 66.589,26.151 67.949,26.151 68.289,41.819 65.91,41.987 66.08,43.672 80.352,43.504 
	80.352,40.134 78.993,40.134 78.993,41.482 70.157,41.482 69.987,36.259 76.104,35.755 76.104,33.732 70.157,33.901 70.157,26.657 
	78.652,25.983 78.822,28.174 80.691,27.836 80.012,23.961 "/>
<polygon fill="#FFFFFF" points="82.419,23.961 82.419,25.646 84.288,25.478 89.216,44.515 90.575,44.515 98.05,25.309 
	99.409,25.141 99.58,23.287 94.143,23.287 93.802,25.141 95.292,25.438 90.692,39.664 86.327,25.141 88.025,25.141 88.025,23.119 
	"/>
<polygon fill="#FFFFFF" points="22.636,0 -0.42,35.657 20.099,62.507 21.79,61.667 4.021,35.868 22.849,2.936 "/>
</svg>
