<?xml version="1.0" encoding="utf-8"?>
<!-- Generator: Adobe Illustrator 15.0.0, SVG Export Plug-In . SVG Version: 6.00 Build 0)  -->
<!DOCTYPE svg PUBLIC "-//W3C//DTD SVG 1.1//EN" "http://www.w3.org/Graphics/SVG/1.1/DTD/svg11.dtd">
<svg version="1.1" id="Layer_1" xmlns="http://www.w3.org/2000/svg" xmlns:xlink="http://www.w3.org/1999/xlink" x="0px" y="0px"
	 width="1200px" height="500px" viewBox="0 0 1200 500" enable-background="new 0 0 1200 500" xml:space="preserve">
<g id="monster_arm_drink">
	
		<linearGradient id="SVGID_1_" gradientUnits="userSpaceOnUse" x1="651.7832" y1="-23.8584" x2="615.0074" y2="-121.6209" gradientTransform="matrix(1 0 0 -1 -256 155)">
		<stop  offset="0" style="stop-color:#9424CF"/>
		<stop  offset="1" style="stop-color:#8320B7"/>
	</linearGradient>
	<path fill="url(#SVGID_1_)" d="M410.459,166.397c0,0-5.441,43.815-117.673,92.533c-13.587,5.896,2.643,65.604,37.419,62.215
		c34.778-3.391,101.134-63.438,126.877-113.086s25.997-73.731,22.525-80.907c-12.762-26.372-69.26-15.63-69.26-15.63
		L410.459,166.397z"/>
	<path fill="#6D19A3" d="M479.607,127.152c-0.03-0.062-0.064-0.121-0.095-0.184l-42.924,15.023c0,0,5.067,6.159,7.186,12.18
		c2.985-3.98,32.354-3.214,31.345,12.469C482.569,144.253,481.922,131.936,479.607,127.152z"/>
	
		<linearGradient id="SVGID_2_" gradientUnits="userSpaceOnUse" x1="676.6309" y1="51.9185" x2="671.4594" y2="13.6492" gradientTransform="matrix(1 0 0 -1 -256 155)">
		<stop  offset="0" style="stop-color:#A35521"/>
		<stop  offset="1" style="stop-color:#773E18"/>
	</linearGradient>
	<path fill="url(#SVGID_2_)" d="M346.372,117.672c0,0,30.067,6.93,37.077,11.067c11.694,6.899,14.187,11.594,22.987,13.001
		c14.078,2.249,57.661,10.056,70.606,11.47c12.944,1.416,19.55-43.081,7.584-45.865c-11.967-2.785-44.717-8.636-65.312-11.316
		c-20.594-2.679-14.589,2.276-27.839,4.67c-12.458,2.25-40.588-0.512-42.337,0.19C345.531,102.34,346.372,117.672,346.372,117.672z"
		/>
	<path fill="#AD6647" d="M380.926,104.013c0,0,11.033-0.306,15.17-1.992c4.137-1.687,9.806-3.064,10.879-2.911
		c1.073,0.153-0.459,5.057-0.459,5.057s-6.895,1.838-10.573,2.145c-3.677,0.306-15.324,0.306-15.324,0.306L380.926,104.013z"/>
	
		<linearGradient id="SVGID_3_" gradientUnits="userSpaceOnUse" x1="620.2197" y1="28.0107" x2="621.2927" y2="56.3585" gradientTransform="matrix(1 0 0 -1 -256 155)">
		<stop  offset="0" style="stop-color:#ECECEC"/>
		<stop  offset="0.2086" style="stop-color:#B2B2B2"/>
		<stop  offset="1" style="stop-color:#FFFFFF"/>
	</linearGradient>
	<path fill="url(#SVGID_3_)" d="M347,118.226l2.826-17.674l32.578,0.612c0,0,0.562,3.663-0.372,12.703
		c-0.936,9.042-2.751,13.219-2.751,13.219S350.171,118.349,347,118.226z"/>
	
		<linearGradient id="SVGID_4_" gradientUnits="userSpaceOnUse" x1="777.5723" y1="559.5859" x2="794.3573" y2="542.6378" gradientTransform="matrix(0.1578 -0.9875 -0.9875 -0.1578 767.6195 971.1158)">
		<stop  offset="0" style="stop-color:#A35521"/>
		<stop  offset="1" style="stop-color:#773E18"/>
	</linearGradient>
	<path fill="url(#SVGID_4_)" d="M342.225,118.25c0.381,2.202,4.054,2.727,4.996,0.839c0.943-1.886,2.572-15.803,2.765-18.931
		c0.194-3.13-3.851-2.95-4.981-1.532C343.875,100.043,341.845,116.048,342.225,118.25z"/>
	
		<linearGradient id="SVGID_5_" gradientUnits="userSpaceOnUse" x1="607.4238" y1="35.8574" x2="608.1277" y2="54.4554" gradientTransform="matrix(1 0 0 -1 -256 155)">
		<stop  offset="0" style="stop-color:#F2D857"/>
		<stop  offset="0.2086" style="stop-color:#B39F40"/>
		<stop  offset="1" style="stop-color:#F2D857"/>
	</linearGradient>
	<path fill="url(#SVGID_5_)" d="M350.133,118.842c0,0,1.969-9.944,1.841-18.259c0.565,0.026,1.204,0.001,1.204,0.001
		s0.882,5.967-2.015,18.548C350.74,119.003,350.133,118.842,350.133,118.842z"/>
	
		<linearGradient id="SVGID_6_" gradientUnits="userSpaceOnUse" x1="633.915" y1="28.396" x2="634.8812" y2="53.9226" gradientTransform="matrix(1 0 0 -1 -256 155)">
		<stop  offset="0" style="stop-color:#F2D857"/>
		<stop  offset="0.2086" style="stop-color:#B39F40"/>
		<stop  offset="1" style="stop-color:#F2D857"/>
	</linearGradient>
	<path fill="url(#SVGID_6_)" d="M377.64,126.595c0,0,1.783-7.187,2.337-13.431c0.555-6.244,0.403-12.029,0.403-12.029l-1.142,0.008
		c0,0-0.323,5.583-0.756,13.049c-0.433,7.466-2.233,11.991-2.233,11.991L377.64,126.595z"/>
	
		<linearGradient id="SVGID_7_" gradientUnits="userSpaceOnUse" x1="673.6953" y1="33.2476" x2="694.3974" y2="78.5337" gradientTransform="matrix(0.9936 -0.1134 -0.1134 -0.9936 -229.4958 261.9605)">
		<stop  offset="0" style="stop-color:#ECECEC"/>
		<stop  offset="0.2086" style="stop-color:#B2B2B2"/>
		<stop  offset="1" style="stop-color:#FFFFFF"/>
	</linearGradient>
	<path fill="url(#SVGID_7_)" d="M447.956,125.089c-0.256,0.057-0.589,0.91-0.844,1.707c-0.311-0.062-0.615-0.117-0.909-0.167
		c-8.662-1.463-26.927-1.404-33.216,6.729c-1.759,0.047-5.383,0.457-5.86,3.015c-0.38,2.034,2.28,3.237,4.178,3.83
		c0.939,2.354,3.62,3.115,3.62,3.115l51.841,8.547c0,0,4.964-0.996,5.65-5.881c0.699-4.963-3.342-9.347-8.77-12.711
		c0.491-1.376,1.037-3.058,0.948-3.499C464.435,128.994,448.443,124.978,447.956,125.089z"/>
	<path fill="#C9351C" d="M448.656,127.18c0.267-0.085,13.385,3.405,13.677,3.959c0.292,0.553-1.565,5.829-1.565,5.829l-13.494-4.31
		L448.656,127.18z"/>
	
		<linearGradient id="SVGID_8_" gradientUnits="userSpaceOnUse" x1="708.6279" y1="-1.7944" x2="711.2016" y2="28.2308" gradientTransform="matrix(1 0 0 -1 -256 155)">
		<stop  offset="0" style="stop-color:#F2D857"/>
		<stop  offset="0.2086" style="stop-color:#B39F40"/>
		<stop  offset="1" style="stop-color:#F2D857"/>
	</linearGradient>
	<path fill="url(#SVGID_8_)" d="M447.274,132.657l1.382-5.477c0.267-0.085,13.385,3.405,13.677,3.959
		c0.046,0.087,0.039,0.293-0.006,0.575c-0.242,1.512-1.558,5.254-1.558,5.254L447.274,132.657 M446.075,133.324l0.895,0.286
		l13.496,4.31l0.925,0.294l0.323-0.917c0.055-0.155,1.35-3.843,1.603-5.427c0.064-0.405,0.098-0.831-0.096-1.2
		c-0.238-0.453-0.396-0.75-7.465-2.715c-6.848-1.904-7.128-1.817-7.397-1.731l-0.533,0.168l-0.136,0.542l-1.383,5.478
		L446.075,133.324L446.075,133.324z"/>
	
		<linearGradient id="SVGID_9_" gradientUnits="userSpaceOnUse" x1="683.7246" y1="0.3408" x2="686.2983" y2="30.3664" gradientTransform="matrix(1 0 0 -1 -256 155)">
		<stop  offset="0" style="stop-color:#F2D857"/>
		<stop  offset="0.2086" style="stop-color:#B39F40"/>
		<stop  offset="1" style="stop-color:#F2D857"/>
	</linearGradient>
	<path fill="url(#SVGID_9_)" d="M445.046,128.376c-0.042,0.268-0.289,0.453-0.56,0.417c-0.2-0.027-20.221-2.531-29.232,5.69
		c-0.204,0.187-0.52,0.171-0.707-0.033s-0.172-0.521,0.032-0.706c9.355-8.535,29.196-6.053,30.038-5.944
		c0.273,0.036,0.466,0.287,0.431,0.561C445.047,128.366,445.046,128.372,445.046,128.376L445.046,128.376z"/>
	<path fill="#F2D857" d="M415.38,143.394l2.888,0.475c-3.155-1.527-4.409-3.024-4.424-3.041c-0.172-0.214-0.487-0.249-0.702-0.076
		c-0.215,0.171-0.25,0.485-0.079,0.702C413.108,141.506,413.786,142.334,415.38,143.394z"/>
	
		<linearGradient id="SVGID_10_" gradientUnits="userSpaceOnUse" x1="722.0469" y1="-2.9453" x2="724.6205" y2="27.0804" gradientTransform="matrix(1 0 0 -1 -256 155)">
		<stop  offset="0" style="stop-color:#F2D857"/>
		<stop  offset="0.2086" style="stop-color:#B39F40"/>
		<stop  offset="1" style="stop-color:#F2D857"/>
	</linearGradient>
	<path fill="url(#SVGID_10_)" d="M463.894,135.206c-0.167,0.223-0.118,0.536,0.103,0.7l0.397,0.29
		c1.993,1.443,6.662,4.821,5.785,10.296c-0.388,2.433-3.953,4.044-6.413,4.879l1.963,0.325c2.411-1.024,5.056-2.666,5.437-5.045
		c0.972-6.083-4.045-9.713-6.187-11.265l-0.387-0.281C464.372,134.938,464.059,134.985,463.894,135.206z"/>
	<path fill="#C9351C" d="M413.185,138.924c0,0,0.007-1.748,0.719-3.007c-1.688-1.641-5.219-2.11-3.993,0.874
		C409.102,138.486,410.185,139.67,413.185,138.924z"/>
	<path fill="#F2D857" d="M413.244,138.965c0,0,0.101-2.125,0.725-3.146c-0.266-0.213-0.568-0.408-0.568-0.408
		s-0.918,1.785-1.706,1.755c0.661,0.422,1.025,1.905,1.025,1.905L413.244,138.965z"/>
	<polygon fill="#F2D857" points="410.224,136.994 409.484,137.035 409.473,137.302 408.94,137.49 408.944,136.947 408.597,136.94 
		408.65,136.493 409.03,136.518 409.102,136.163 409.648,136.201 409.593,136.542 410.285,136.603 	"/>
	<path fill="#C9351C" d="M440.765,147.579l14.553,2.399c2.414-3.446,3.933-10.209,4.705-13.889
		c0.093-0.441-14.364-5.208-14.424-4.838C445.542,131.614,444.02,142.065,440.765,147.579z"/>
	
		<linearGradient id="SVGID_11_" gradientUnits="userSpaceOnUse" x1="705.1006" y1="-1.4927" x2="707.6743" y2="28.5334" gradientTransform="matrix(1 0 0 -1 -256 155)">
		<stop  offset="0" style="stop-color:#F2D857"/>
		<stop  offset="0.2086" style="stop-color:#B39F40"/>
		<stop  offset="1" style="stop-color:#F2D857"/>
	</linearGradient>
	<path fill="url(#SVGID_11_)" d="M445.256,130.302l-0.539,0.207l-0.106,0.584l-0.009,0.058l-0.045,0.284
		c-0.283,1.772-1.877,11.229-4.845,15.958l-0.008,0.011l1.055,0.175c2.954-5.002,4.491-14.13,4.787-15.984
		c0.03-0.191,0.049-0.308,0.053-0.342c0.06-0.37,14.497,4.39,14.425,4.838l0,0c-0.772,3.68-2.292,10.443-4.705,13.889l1.089,0.179
		c2.284-3.561,3.717-9.684,4.595-13.864c0-0.001,0-0.004,0-0.006c0.036-0.229,0.05-0.677-0.394-1.038
		c-0.64-0.52-4.504-1.865-7.633-2.903C445.976,130.026,445.611,130.166,445.256,130.302z"/>
	<g>
		<g>
			
				<linearGradient id="SVGID_12_" gradientUnits="userSpaceOnUse" x1="702.5771" y1="20.1724" x2="703.4966" y2="38.7146" gradientTransform="matrix(1 0 0 -1 -256 155)">
				<stop  offset="0" style="stop-color:#000000;stop-opacity:0.05"/>
				<stop  offset="1" style="stop-color:#000000;stop-opacity:0.15"/>
			</linearGradient>
			<path fill="url(#SVGID_12_)" d="M487.6,109.266c-0.824-0.979-1.81-1.649-2.973-1.92c-11.967-2.785-44.717-8.636-65.312-11.316
				c-0.579-0.076-1.131-0.143-1.669-0.207l-10.517,14.474c1.992,4.597,3.831,8.887,10.267,10.879
				c6.436,1.993,14.71-0.306,14.71-0.306s5.823,5.976,12.718,7.815s16.549-1.073,16.549-1.073s9.654,6.742,17.469,5.517
				C486.033,132,489.586,121.141,487.6,109.266z"/>
		</g>
	</g>
	<g>
		<g>
			
				<linearGradient id="SVGID_13_" gradientUnits="userSpaceOnUse" x1="680.9336" y1="15.5576" x2="681.8291" y2="33.6174" gradientTransform="matrix(1 0 0 -1 -256 155)">
				<stop  offset="0" style="stop-color:#000000;stop-opacity:0.05"/>
				<stop  offset="1" style="stop-color:#000000;stop-opacity:0.15"/>
			</linearGradient>
			<path fill="url(#SVGID_13_)" d="M406.09,141.68c0.116,0.02,0.229,0.042,0.346,0.061c7.216,1.153,22.184,3.766,36.806,6.229
				c-4.701-9.831-16.723-13.126-24.008-11.165c-1.225-6.895-5.057-12.872-12.105-15.17L406.09,141.68z"/>
		</g>
	</g>
	
		<linearGradient id="SVGID_14_" gradientUnits="userSpaceOnUse" x1="674.5244" y1="2.4424" x2="656.6295" y2="30.6551" gradientTransform="matrix(1 0 0 -1 -256 155)">
		<stop  offset="0" style="stop-color:#9424CF"/>
		<stop  offset="1" style="stop-color:#8320B7"/>
	</linearGradient>
	<path fill="url(#SVGID_14_)" d="M410.423,166.801c0.998-3.835-18.613-14.044-21.57-19.63c-2.956-5.584-4.656-20.693,2.366-25.528
		c7.021-4.835,16.626-2.935,21.273,4.82c3.003,5.012,2.987,12.182,2.987,12.182s21.998-3.489,27.583,11.953
		c5.585,15.441-7.883,27.458-11.826,28.444C427.293,180.026,403.757,192.429,410.423,166.801z"/>
	
		<linearGradient id="SVGID_15_" gradientUnits="userSpaceOnUse" x1="658.6865" y1="83.5488" x2="738.6746" y2="24.2474" gradientTransform="matrix(1 0 0 -1 -256 155)">
		<stop  offset="0" style="stop-color:#9424CF"/>
		<stop  offset="1" style="stop-color:#8320B7"/>
	</linearGradient>
	<path fill="url(#SVGID_15_)" d="M414.053,80.258c-5.555,5.692-11.745,20.568-7.669,28.926c4.076,8.357,17.671,9.457,24.292,6.188
		c5.788,9.364,16.337,11.134,26.595,6.267c1.875,4.162,15.038,9.346,21.746,2.123c6.708-7.223,11.306-21.11,6.772-26.708
		c-4.645-5.739-16.912-10.368-22.286-4.822c-2.271-9.821-22.682-10.48-27.06-4.995C434.784,79.465,419.607,74.566,414.053,80.258z"
		/>
	<path fill="#6D19A3" d="M430.676,115.372c5.788,9.364,16.337,11.134,26.595,6.267c1.875,4.162,15.039,9.346,21.746,2.123
		c6.331-6.819,10.78-19.572,7.446-25.688c0.59,6.893-2.554,15.487-7.199,17.699c-4.827,2.298-17.928-1.149-18.848-4.367
		c-0.919-3.218,3.088-19.173,3.088-19.173c-0.233-1.01-0.668-1.917-1.247-2.736c0.173,1.254,0.156,3.259-0.691,6.166
		c-1.609,5.516-3.448,15.974-11.377,15.399c-7.93-0.574-15.17-2.068-16.089-5.286s2.346-18.537,2.346-18.537
		c-0.264-1.235-0.871-2.397-1.726-3.457c0.197,1.046,0.315,2.269,0.185,3.491c-0.345,3.218-3.218,16.895-7.47,17.928
		c-4.252,1.035-18.388-1.149-20.572-4.367c-0.64-0.942-1.028-2.062-1.264-3.176c-0.824,4.209-0.765,8.341,0.788,11.526
		C410.46,117.541,424.055,118.641,430.676,115.372z"/>
	<path fill="#6D19A3" d="M443.819,153.159c-0.199-0.843-0.444-1.697-0.757-2.562c-5.585-15.441-27.583-11.953-27.583-11.953
		s0.016-7.17-2.987-12.182c-3.127-5.219-8.5-7.772-13.819-7.419c3.872,0.777,8.058,2.65,7.689,7.802
		c-0.459,6.436-3.099,11.615,3.524,16.244C416.403,147.641,435.891,139.99,443.819,153.159z"/>
	<path fill="#AD6647" d="M343.192,111.407c0,0,1.609-9.539,1.839-10.688c0.229-1.149,3.218-1.035,3.907-0.46
		c0.69,0.575-0.115,2.184-0.689,2.069c-0.575-0.115-2.528-1.264-2.873,0.574C345.031,104.741,343.192,111.407,343.192,111.407z"/>
</g>
</svg>
