<?xml version="1.0" encoding="utf-8"?>
<!-- Generator: Adobe Illustrator 15.0.0, SVG Export Plug-In . SVG Version: 6.00 Build 0)  -->
<!DOCTYPE svg PUBLIC "-//W3C//DTD SVG 1.1//EN" "http://www.w3.org/Graphics/SVG/1.1/DTD/svg11.dtd">
<svg version="1.1" id="Layer_1" xmlns="http://www.w3.org/2000/svg" xmlns:xlink="http://www.w3.org/1999/xlink" x="0px" y="0px"
	 width="1200px" height="500px" viewBox="0 0 1200 500" enable-background="new 0 0 1200 500" xml:space="preserve">
<g id="monster_body_copy">
	<g>
		<g>
			
				<linearGradient id="SVGID_1_" gradientUnits="userSpaceOnUse" x1="372.2017" y1="-127.6245" x2="1147.8047" y2="-127.6245" gradientTransform="matrix(1 0 0 -1 -256 155)">
				<stop  offset="0" style="stop-color:#9424CF"/>
				<stop  offset="1" style="stop-color:#8320B7"/>
			</linearGradient>
			<path fill="url(#SVGID_1_)" d="M847.881,426.23c-14.219-22.718-93.932,7.463-93.932,7.463s-115.194-17.229-170.246-19.135
				c-8.608-0.297-17.305-0.137-25.851,0.345c0.751-44.164-15.918-92.418-61.616-115.267
				c-84.034-42.016-156.151-20.068-143.606-57.067c12.543-37,6.898-63.338,6.898-63.338s-65.848,16.932-119.779,3.136
				c77.135-1.254,109.117-16.305,109.117-16.305s-12.542-89.677-84.66-99.711c-72.118-10.033-147.372,48.288-147.999,181.861
				C115.581,381.787,172.021,500,172.021,500s189.518,0,292.256,0h297.294c74.711,0,108.191-3.92,128.467-24.003
				C900.59,465.548,860.958,447.121,847.881,426.23z"/>
		</g>
	</g>
	<path fill="#6D19A3" d="M124.421,283.699c0,0-3.812,20.963-4.703,26.041C131.956,416.069,172.021,500,172.021,500
		c0,0,10.456,0,27.782,0c1.474-2.761,2.201-6.634,1.484-12.07c-2.717-20.563-36.845-24.773-34.939-33.35
		c2.908-13.084,6.035-54.947,8.893-85.758c1.003-10.811,1.407-31.041-3.684-50.842C160.948,276.711,124.421,283.699,124.421,283.699
		z"/>
	<circle fill="#FFFFFF" cx="310.732" cy="121.336" r="7.838"/>
	<circle fill="#6D19A3" cx="267.747" cy="124.53" r="29.218"/>
	<circle fill="#FFFFFF" cx="273.94" cy="124.985" r="19.441"/>
	<path d="M312.6,145.015c-1.261,0.457,0.782,6.276,1.505,6.201C314.827,151.14,315.248,144.051,312.6,145.015z"/>
	<path d="M306.579,144.953c-1.125,0.616-0.361,9.317,2.437,9.799C311.816,155.233,308.611,143.839,306.579,144.953z"/>
	<path fill="none" stroke="#6D19A3" stroke-width="4" stroke-linecap="round" d="M519.139,360.547
		c2.772-1.955,0.374-21.653-9.921-19.501c-10.293,2.151,4.254,18.708,5.022,12.102"/>
	<path fill="#6D19A3" d="M543.048,413.29c-0.436,0.978-0.891,1.942-1.357,2.902c5.284-0.536,10.688-0.979,16.157-1.288
		c0.582-34.539-9.491-71.578-35.772-97.012C537.359,337.68,559.815,375.789,543.048,413.29z"/>
	<path fill="#6D19A3" d="M795.876,484.754c0,0-314.447,20.01-473.576-9.528C200.63,452.64,154.278,355.482,154.278,355.482
		l-13.771,57.242C155.554,465.498,172.021,500,172.021,500s516.99,0,587.011,0c15.527,0,29.27-0.17,41.487-0.619L795.876,484.754z"
		/>
	
		<linearGradient id="SVGID_2_" gradientUnits="userSpaceOnUse" x1="1071.3945" y1="-234.3223" x2="1151.9243" y2="-373.2317" gradientTransform="matrix(1 0 0 -1 -256 155)">
		<stop  offset="0" style="stop-color:#2E2E2E"/>
		<stop  offset="1" style="stop-color:#000000"/>
	</linearGradient>
	<path fill="url(#SVGID_2_)" d="M753.949,433.693c0,0,33.809,5.49,42.07,29.457c8.424,24.445-10.487,36.847-10.487,36.847
		s32.71,0.003,54.513,0.006c14.772,0.003,34.673,3.457,66.721-24.528c28.916-25.25,26.404-102.752-39.9-91.963
		C788.411,396.279,753.949,433.693,753.949,433.693z"/>
	<path fill="#7D7D7D" d="M854.851,414.537c8.993-11.328,3.646-28.196,3.592-28.365l-0.906,0.295
		c0.054,0.164,5.241,16.555-3.431,27.48c-8.295,10.452-64.83,26.607-74.916,29.424c0.357,0.224,0.712,0.46,1.066,0.694
		C792.455,440.658,846.467,425.104,854.851,414.537z"/>
	<path fill="#7D7D7D" d="M871.042,459.992c-15.081,3.615-59.922,23.357-77.362,31.159c-0.318,0.515-0.644,1.009-0.971,1.478
		c16.323-7.318,63.139-28.014,78.555-31.709c17.615-4.221,33.083,16.285,33.234,16.488l0.388-1.036
		C904.732,476.162,889.271,455.623,871.042,459.992z"/>
	<path fill="#FFFFFF" d="M869.625,382.127c-0.06,0.008-0.119,0.014-0.179,0.021c-0.849,0.114-1.706,0.238-2.577,0.379
		c-1.532,0.251-3.041,0.512-4.541,0.78c-0.199,0.035-0.398,0.073-0.598,0.108c-1.441,0.261-2.866,0.531-4.274,0.809
		c-0.007,0.002-0.016,0.003-0.022,0.005l0,0c-71.783,14.158-103.484,49.465-103.484,49.465s0.953,0.158,2.553,0.52
		c-0.266-0.078-0.535-0.155-0.798-0.225c10.761-9.752,44.017-35.717,102.774-47.408c40.877,20.881,53.612,65.68,46.02,90.828
		c0,0,0.002-0.251,0,0c0.752-0.633,1.502-1.268,2.268-1.934c8.438-7.365,14.285-19.314,16.664-32.251
		C929.219,412.545,915.798,376.092,869.625,382.127z"/>
	<path fill="#FFFFFF" d="M839.762,423.866c0.309,15.942-0.18,42.007-5.824,55.874c-1.191,2.924,0.215,6.26,3.139,7.45
		c0.707,0.288,1.436,0.425,2.154,0.425c2.256,0,4.395-1.346,5.297-3.563c7.232-17.763,7.061-50.79,6.523-66.212
		C848.213,419.78,844.308,421.818,839.762,423.866z"/>
	<path fill="#EBEBEB" d="M851.049,417.84c-2.836,1.94-6.741,3.979-11.289,6.025c0.03,1.557,0.053,3.208,0.063,4.936
		c4.796-2.11,8.515-4.044,11.37-5.768C851.154,421.147,851.104,419.398,851.049,417.84z"/>
	<path fill="#FFFFFF" d="M872.1,476.654c-2.913,0-5.4-2.213-5.686-5.17c-4.344-45.166-23.871-56.339-24.064-56.438
		c-2.812-1.437-3.929-4.88-2.492-7.69c1.436-2.812,4.879-3.93,7.691-2.492c1.027,0.524,25.24,13.458,30.247,65.527
		c0.302,3.145-2.001,5.937-5.144,6.238C872.467,476.646,872.281,476.654,872.1,476.654L872.1,476.654z"/>
	<path fill="#FFFFFF" d="M812.063,422.521c14.665,8.512,26.45,18.881,46.442,41.487c4.737-1.723,8.811-3.064,11.845-3.839
		c-22.939-26.271-35.89-37.869-52.548-47.539c-2.731-1.584-6.229-0.654-7.814,2.076
		C808.404,417.438,809.332,420.938,812.063,422.521z"/>
	<path fill="#FFFFFF" d="M808.656,435.476c-1.703,41.78-5.378,56.605-5.447,56.88c-0.799,3.048,1.018,6.17,4.066,6.977
		c0.491,0.131,0.983,0.192,1.469,0.192c2.529,0,4.844-1.693,5.521-4.255c0.191-0.718,4.315-16.799,5.986-63.732
		C816.381,432.909,812.464,434.231,808.656,435.476z"/>
	<path fill="#EBEBEB" d="M808.4,441.217c3.479-1.398,7.364-2.938,11.656-4.61c0.068-1.651,0.135-3.333,0.195-5.067
		c-3.871,1.37-7.788,2.692-11.596,3.938C808.575,437.456,808.488,439.355,808.4,441.217z"/>
	<path fill="#FFFFFF" d="M828.2,476.119c3.646-1.539,7.317-3.069,10.922-4.544c-19.514-26.324-51.272-45.202-52.735-46.062
		c-2.721-1.6-6.222-0.693-7.824,2.027c-1.603,2.72-0.695,6.225,2.025,7.827C780.914,435.56,809.889,452.807,828.2,476.119z"/>
	<path fill="#EBEBEB" d="M923.43,443.224c3.379-17.912,0.207-37.788-12.206-50.031c8.921,14.374,7.708,38.698-4.875,62.868
		c0.601,7.556-0.045,15.365-1.851,21.348c0,0,0.002-0.251,0,0c0.752-0.633,1.502-1.268,2.268-1.934
		C915.203,468.107,921.051,456.16,923.43,443.224z"/>
	<path fill="#EBEBEB" d="M851.172,439.271c-0.127,5.064-0.383,10.399-0.837,15.693c0.495,0.534,0.991,1.074,1.496,1.625
		c0.421-4.912,0.663-11.49,0.788-15.838C852.133,440.248,851.651,439.758,851.172,439.271z"/>
	<path fill="#EBEBEB" d="M818.328,465.018c0.598,0.604,1.191,1.213,1.78,1.829c0.481-4.665,0.983-11.069,1.265-14.844
		c-0.664-0.62-1.328-1.231-1.994-1.836C819.055,455.694,818.699,460.641,818.328,465.018z"/>
</g>
</svg>
