<?xml version="1.0" encoding="utf-8"?>
<!-- Generator: Adobe Illustrator 15.0.0, SVG Export Plug-In . SVG Version: 6.00 Build 0)  -->
<!DOCTYPE svg PUBLIC "-//W3C//DTD SVG 1.1//EN" "http://www.w3.org/Graphics/SVG/1.1/DTD/svg11.dtd">
<svg version="1.1" id="Layer_1" xmlns="http://www.w3.org/2000/svg" xmlns:xlink="http://www.w3.org/1999/xlink" x="0px" y="0px"
	 width="1200px" height="500px" viewBox="0 0 1200 500" enable-background="new 0 0 1200 500" xml:space="preserve">
<g id="monster_arm_drink">
	
		<linearGradient id="SVGID_1_" gradientUnits="userSpaceOnUse" x1="631.0176" y1="-31.584" x2="596.4904" y2="-123.3692" gradientTransform="matrix(0.9021 0.4316 0.4316 -0.9021 -146.3692 -83.124)">
		<stop  offset="0" style="stop-color:#9424CF"/>
		<stop  offset="1" style="stop-color:#8320B7"/>
	</linearGradient>
	<path fill="url(#SVGID_1_)" d="M426.692,213.118c0,0-22.363,34.904-137.154,30.681c-13.896-0.51-24.348,56.633,6.479,67.854
		c30.828,11.222,111.357-12.743,153.279-44.359c41.921-31.614,51.895-51.908,51.863-59.393
		c-0.122-27.506-52.325-41.303-52.325-41.303L426.692,213.118z"/>
	<path fill="#6D19A3" d="M501.158,207.901c-0.001-0.065-0.006-0.128-0.007-0.193l-42.441-4.671c0,0,1.796,7.27,1.151,13.227
		c4.142-2.162,28.703,10.389,21.493,23.262C496.735,223.585,501.179,212.892,501.158,207.901z"/>
	
		<linearGradient id="SVGID_2_" gradientUnits="userSpaceOnUse" x1="654.3467" y1="39.5615" x2="649.4913" y2="3.6321" gradientTransform="matrix(0.9021 0.4316 0.4316 -0.9021 -146.3692 -83.124)">
		<stop  offset="0" style="stop-color:#A35521"/>
		<stop  offset="1" style="stop-color:#773E18"/>
	</linearGradient>
	<path fill="url(#SVGID_2_)" d="M392.161,145.882c0,0,22.657,18.054,26.916,24.399c7.108,10.582,7.317,15.566,14.199,20.325
		c11.011,7.609,44.759,31.882,55.149,38.326c10.389,6.443,34.014-28.564,25.009-35.77c-9.006-7.208-34.371-25.436-50.728-36.05
		c-16.355-10.614-13.277-3.984-25.468-7.327c-11.464-3.143-34.167-16.88-35.933-16.995
		C397.662,132.557,392.161,145.882,392.161,145.882z"/>
	<path fill="#AD6647" d="M426.96,148.317c0,0,9.467,4.211,13.655,4.459c4.187,0.249,9.546,1.379,10.393,1.944
		c0.846,0.564-2.438,4.096-2.438,4.096s-6.585-1.237-9.824-2.468c-3.239-1.231-13.102-5.95-13.102-5.95L426.96,148.317z"/>
	
		<linearGradient id="SVGID_3_" gradientUnits="userSpaceOnUse" x1="601.3848" y1="17.1143" x2="602.392" y2="43.729" gradientTransform="matrix(0.9021 0.4316 0.4316 -0.9021 -146.3692 -83.124)">
		<stop  offset="0" style="stop-color:#ECECEC"/>
		<stop  offset="0.2086" style="stop-color:#B2B2B2"/>
		<stop  offset="1" style="stop-color:#FFFFFF"/>
	</linearGradient>
	<path fill="url(#SVGID_3_)" d="M392.468,146.607l9.555-13.824l27.342,13.72c0,0-1.007,3.331-5.463,10.607
		c-4.456,7.278-7.687,10.081-7.687,10.081S395.104,147.996,392.468,146.607z"/>
	
		<linearGradient id="SVGID_4_" gradientUnits="userSpaceOnUse" x1="762.9854" y1="574.7314" x2="778.7457" y2="558.818" gradientTransform="matrix(0.5686 -0.8227 -0.8227 -0.5686 424.9496 1094.5438)">
		<stop  offset="0" style="stop-color:#A35521"/>
		<stop  offset="1" style="stop-color:#773E18"/>
	</linearGradient>
	<path fill="url(#SVGID_4_)" d="M388.415,144.692c-0.57,2.02,2.329,3.952,3.891,2.735c1.562-1.215,8.581-12.341,10.014-14.913
		c1.433-2.572-2.067-4.059-3.599-3.315C397.19,129.941,388.984,142.672,388.415,144.692z"/>
	
		<linearGradient id="SVGID_5_" gradientUnits="userSpaceOnUse" x1="589.3716" y1="24.4819" x2="590.0324" y2="41.9421" gradientTransform="matrix(0.9021 0.4316 0.4316 -0.9021 -146.3692 -83.124)">
		<stop  offset="0" style="stop-color:#F2D857"/>
		<stop  offset="0.2086" style="stop-color:#B39F40"/>
		<stop  offset="1" style="stop-color:#F2D857"/>
	</linearGradient>
	<path fill="url(#SVGID_5_)" d="M394.872,148.397c0,0,5.697-7.624,8.958-14.717c0.468,0.25,1.019,0.489,1.019,0.489
		s-1.67,5.411-9.223,14.892C395.32,148.78,394.872,148.397,394.872,148.397z"/>
	
		<linearGradient id="SVGID_6_" gradientUnits="userSpaceOnUse" x1="614.2432" y1="17.4761" x2="615.1503" y2="41.4423" gradientTransform="matrix(0.9021 0.4316 0.4316 -0.9021 -146.3692 -83.124)">
		<stop  offset="0" style="stop-color:#F2D857"/>
		<stop  offset="0.2086" style="stop-color:#B39F40"/>
		<stop  offset="1" style="stop-color:#F2D857"/>
	</linearGradient>
	<path fill="url(#SVGID_6_)" d="M415.027,166.109c0,0,4.422-5.363,7.421-10.427c3-5.063,5.216-10.025,5.216-10.025l-0.971-0.455
		c0,0-2.536,4.598-5.928,10.745c-3.393,6.148-6.751,9.25-6.751,9.25L415.027,166.109z"/>
	
		<linearGradient id="SVGID_7_" gradientUnits="userSpaceOnUse" x1="649.1543" y1="26.9824" x2="668.5886" y2="69.4952" gradientTransform="matrix(0.9452 0.3266 0.3266 -0.9452 -168.3719 25.2903)">
		<stop  offset="0" style="stop-color:#ECECEC"/>
		<stop  offset="0.2086" style="stop-color:#B2B2B2"/>
		<stop  offset="1" style="stop-color:#FFFFFF"/>
	</linearGradient>
	<path fill="url(#SVGID_7_)" d="M475.188,193.33c-0.241-0.056-0.868,0.531-1.406,1.102c-0.238-0.178-0.474-0.348-0.703-0.509
		c-6.742-4.75-22.235-12.1-30.857-7.762c-1.509-0.672-4.743-1.794-6.184,0.179c-1.146,1.569,0.619,3.666,1.986,4.938
		c-0.159,2.374,1.804,4.104,1.804,4.104l40.44,28.247c0,0,4.608,1.168,7.168-2.691c2.603-3.919,0.958-9.27-2.275-14.319
		c0.973-0.967,2.117-2.169,2.221-2.578C487.561,203.314,475.645,193.433,475.188,193.33z"/>
	<path fill="#C9351C" d="M474.933,195.384c0.26,0.036,9.957,8.308,9.979,8.896c0.023,0.586-3.688,4.302-3.688,4.302l-9.682-9.118
		L474.933,195.384z"/>
	
		<linearGradient id="SVGID_8_" gradientUnits="userSpaceOnUse" x1="684.3867" y1="-10.8691" x2="686.803" y2="17.3204" gradientTransform="matrix(0.9021 0.4316 0.4316 -0.9021 -146.3692 -83.124)">
		<stop  offset="0" style="stop-color:#F2D857"/>
		<stop  offset="0.2086" style="stop-color:#B39F40"/>
		<stop  offset="1" style="stop-color:#F2D857"/>
	</linearGradient>
	<path fill="url(#SVGID_8_)" d="M471.544,199.462l3.389-4.078c0.26,0.036,9.957,8.308,9.979,8.896
		c0.003,0.092-0.087,0.263-0.239,0.484c-0.817,1.182-3.449,3.817-3.449,3.817L471.544,199.462 M470.257,199.541l0.642,0.605
		l9.682,9.118l0.664,0.625l0.646-0.646c0.109-0.109,2.7-2.708,3.557-3.945c0.218-0.319,0.419-0.665,0.404-1.055
		c-0.018-0.48-0.031-0.797-5.222-5.326c-5.028-4.387-5.3-4.427-5.562-4.464l-0.521-0.074l-0.334,0.403l-3.392,4.079L470.257,199.541
		L470.257,199.541z"/>
	
		<linearGradient id="SVGID_9_" gradientUnits="userSpaceOnUse" x1="661.0078" y1="-8.8623" x2="663.4238" y2="19.3238" gradientTransform="matrix(0.9021 0.4316 0.4316 -0.9021 -146.3692 -83.124)">
		<stop  offset="0" style="stop-color:#F2D857"/>
		<stop  offset="0.2086" style="stop-color:#B39F40"/>
		<stop  offset="1" style="stop-color:#F2D857"/>
	</linearGradient>
	<path fill="url(#SVGID_9_)" d="M471.391,194.934c-0.145,0.21-0.428,0.266-0.643,0.127c-0.159-0.104-16.101-10.338-27.063-7.027
		c-0.248,0.076-0.509-0.065-0.585-0.314c-0.075-0.249,0.066-0.51,0.313-0.585c11.382-3.438,27.18,6.705,27.848,7.138
		c0.216,0.142,0.278,0.432,0.138,0.65C471.396,194.925,471.393,194.93,471.391,194.934L471.391,194.934z"/>
	<path fill="#F2D857" d="M440.181,195.63l2.253,1.574c-2.053-2.573-2.509-4.348-2.514-4.369c-0.06-0.251-0.312-0.407-0.564-0.349
		c-0.251,0.059-0.408,0.312-0.35,0.563C439.022,193.111,439.261,194.088,440.181,195.63z"/>
	
		<linearGradient id="SVGID_10_" gradientUnits="userSpaceOnUse" x1="696.9863" y1="-11.9473" x2="699.4026" y2="16.2413" gradientTransform="matrix(0.9021 0.4316 0.4316 -0.9021 -146.3692 -83.124)">
		<stop  offset="0" style="stop-color:#F2D857"/>
		<stop  offset="0.2086" style="stop-color:#B39F40"/>
		<stop  offset="1" style="stop-color:#F2D857"/>
	</linearGradient>
	<path fill="url(#SVGID_10_)" d="M484.585,208.355c-0.232,0.121-0.317,0.406-0.197,0.634l0.219,0.407
		c1.103,2.028,3.688,6.781,0.727,11.063c-1.314,1.904-4.987,1.824-7.408,1.534l1.532,1.071c2.456,0.109,5.361-0.21,6.648-2.07
		c3.288-4.759,0.509-9.866-0.676-12.047l-0.213-0.395C485.1,208.322,484.815,208.235,484.585,208.355z"/>
	<path fill="#C9351C" d="M440.133,190.956c0,0,0.715-1.478,1.828-2.256c-0.765-2.074-3.565-3.902-3.737-0.878
		C436.853,188.93,437.291,190.372,440.133,190.956z"/>
	<path fill="#F2D857" d="M440.167,191.015c0,0,0.947-1.759,1.889-2.37c-0.139-0.288-0.316-0.576-0.316-0.576
		s-1.501,1.14-2.156,0.795c0.389,0.624,0.097,2.027,0.097,2.027L440.167,191.015z"/>
	<polygon fill="#F2D857" points="438.408,188.122 437.764,187.856 437.647,188.078 437.12,188.021 437.343,187.562 437.052,187.417 
		437.278,187.059 437.589,187.233 437.794,186.961 438.241,187.216 438.057,187.482 438.618,187.814 	"/>
	<path fill="#C9351C" d="M459.984,209.461l11.353,7.929c3.441-1.94,7.469-7.052,9.613-9.856c0.258-0.336-10.055-10.232-10.255-9.942
		C470.499,197.876,464.975,206.111,459.984,209.461z"/>
	
		<linearGradient id="SVGID_11_" gradientUnits="userSpaceOnUse" x1="681.0762" y1="-10.582" x2="683.4921" y2="17.6034" gradientTransform="matrix(0.9021 0.4316 0.4316 -0.9021 -146.3692 -83.124)">
		<stop  offset="0" style="stop-color:#F2D857"/>
		<stop  offset="0.2086" style="stop-color:#B39F40"/>
		<stop  offset="1" style="stop-color:#F2D857"/>
	</linearGradient>
	<path fill="url(#SVGID_11_)" d="M470.788,196.65l-0.54-0.044l-0.326,0.452l-0.031,0.045l-0.153,0.223
		c-0.958,1.387-6.141,8.749-10.571,11.551l-0.011,0.007l0.822,0.574c4.529-3.039,9.529-10.146,10.532-11.597
		c0.103-0.15,0.166-0.241,0.183-0.268c0.202-0.289,10.5,9.591,10.256,9.942l0,0c-2.145,2.805-6.172,7.917-9.612,9.857l0.85,0.592
		c3.377-2.089,7.072-6.695,9.509-9.879c0.001-0.001,0.002-0.003,0.003-0.004c0.123-0.18,0.317-0.554,0.087-1.04
		c-0.332-0.699-3.059-3.404-5.289-5.551C471.511,196.707,471.144,196.678,470.788,196.65z"/>
	<g>
		<g>
			
				<linearGradient id="SVGID_12_" gradientUnits="userSpaceOnUse" x1="678.707" y1="9.7544" x2="679.5701" y2="27.1623" gradientTransform="matrix(0.9021 0.4316 0.4316 -0.9021 -146.3692 -83.124)">
				<stop  offset="0" style="stop-color:#000000;stop-opacity:0.05"/>
				<stop  offset="1" style="stop-color:#000000;stop-opacity:0.15"/>
			</linearGradient>
			<path fill="url(#SVGID_12_)" d="M515.175,195.992c-0.301-1.163-0.864-2.129-1.74-2.83c-9.007-7.208-34.371-25.435-50.728-36.05
				c-0.459-0.298-0.9-0.579-1.33-0.851l-14.772,7.996c-0.175,4.7-0.356,9.079,4.287,13.375c4.644,4.294,12.583,5.701,12.583,5.701
				s2.509,7.42,7.604,11.772c5.095,4.352,14.45,5.797,14.45,5.797s5.444,9.622,12.56,11.751
				C504.634,214.611,512.044,206.854,515.175,195.992z"/>
		</g>
	</g>
	<g>
		<g>
			
				<linearGradient id="SVGID_13_" gradientUnits="userSpaceOnUse" x1="658.3848" y1="5.4224" x2="659.2255" y2="22.3779" gradientTransform="matrix(0.9021 0.4316 0.4316 -0.9021 -146.3692 -83.124)">
				<stop  offset="0" style="stop-color:#000000;stop-opacity:0.05"/>
				<stop  offset="1" style="stop-color:#000000;stop-opacity:0.15"/>
			</linearGradient>
			<path fill="url(#SVGID_13_)" d="M433.009,190.414c0.089,0.064,0.176,0.128,0.267,0.192c5.645,3.9,17.262,12.179,28.647,20.19
				c0.001-10.23-8.844-17.893-15.809-19.184c1.756-6.337,0.933-12.95-4.105-17.753L433.009,190.414z"/>
		</g>
	</g>
	
		<linearGradient id="SVGID_14_" gradientUnits="userSpaceOnUse" x1="652.3672" y1="-6.8892" x2="635.5661" y2="19.5989" gradientTransform="matrix(0.9021 0.4316 0.4316 -0.9021 -146.3692 -83.124)">
		<stop  offset="0" style="stop-color:#9424CF"/>
		<stop  offset="1" style="stop-color:#8320B7"/>
	</linearGradient>
	<path fill="url(#SVGID_14_)" d="M426.498,213.446c2.399-2.845-10.072-19.437-10.312-25.367c-0.241-5.927,4.441-19.412,12.348-20.66
		c7.905-1.25,15.27,4.251,16.063,12.702c0.512,5.461-2.406,11.527-2.406,11.527s20.043,5.959,18.516,21.299
		c-1.527,15.341-17.803,20.062-21.542,19.298C435.426,231.482,410.467,232.449,426.498,213.446z"/>
	
		<linearGradient id="SVGID_15_" gradientUnits="userSpaceOnUse" x1="637.502" y1="69.2563" x2="712.5992" y2="13.5807" gradientTransform="matrix(0.9021 0.4316 0.4316 -0.9021 -146.3692 -83.124)">
		<stop  offset="0" style="stop-color:#9424CF"/>
		<stop  offset="1" style="stop-color:#8320B7"/>
	</linearGradient>
	<path fill="url(#SVGID_15_)" d="M464.642,141.623c-7.011,2.569-18.281,12.66-18.216,21.391
		c0.065,8.729,11.133,15.169,18.064,15.084c1.107,10.276,9.325,16.05,19.985,16.084c-0.099,4.284,8.948,14.01,17.556,10.61
		c8.607-3.398,18.128-13.297,16.559-19.874c-1.609-6.743-10.122-15.635-16.921-13.116c2.056-9.237-14.963-18.067-20.894-15.194
		C482.52,149.352,471.652,139.053,464.642,141.623z"/>
	<path fill="#6D19A3" d="M464.49,178.097c1.107,10.276,9.325,16.05,19.985,16.084c-0.099,4.284,8.949,14.01,17.556,10.61
		c8.125-3.209,17.061-12.208,16.715-18.737c-2.293,6.077-8.438,12.081-13.27,12.072c-5.019-0.009-14.718-8.238-14.192-11.336
		c0.526-3.098,10.385-14.988,10.385-14.988c0.211-0.949,0.21-1.893,0.052-2.823c-0.361,1.134-1.188,2.824-3.084,4.943
		c-3.598,4.019-9.393,12.131-15.875,8.432c-6.483-3.7-12.01-7.899-11.484-10.997c0.525-3.098,9.498-14.749,9.498-14.749
		c0.278-1.153,0.234-2.384-0.06-3.627c-0.258,0.966-0.652,2.048-1.259,3.031c-1.596,2.585-9.572,13.004-13.592,12.156
		c-4.021-0.847-15.107-8.424-15.652-12.035c-0.161-1.057-0.036-2.163,0.215-3.201c-2.403,3.231-4.027,6.754-4.002,10.081
		C446.491,171.742,457.559,178.183,464.49,178.097z"/>
	<path fill="#6D19A3" d="M460.309,215.424c0.173-0.794,0.312-1.616,0.397-2.477c1.527-15.34-18.516-21.299-18.516-21.299
		s2.918-6.066,2.406-11.527c-0.534-5.687-4.049-10.026-8.698-11.883c2.965,2.227,5.751,5.509,3.352,9.724
		c-2.997,5.265-7.332,8.581-3.598,15.184C439.327,199.641,458.931,201.06,460.309,215.424z"/>
	<path fill="#AD6647" d="M392.006,139.289c0,0,5.229-7.427,5.889-8.307c0.66-0.879,3.145,0.428,3.496,1.194
		c0.351,0.766-0.982,1.803-1.423,1.474c-0.44-0.331-1.629-2.096-2.667-0.678C396.265,134.388,392.006,139.289,392.006,139.289z"/>
</g>
<g id="monster_body_copy">
	<g>
		<g>
			
				<linearGradient id="SVGID_16_" gradientUnits="userSpaceOnUse" x1="382.2578" y1="-148.2266" x2="1084.8613" y2="-148.2266" gradientTransform="matrix(1 0 0 -1 -256 155)">
				<stop  offset="0" style="stop-color:#9424CF"/>
				<stop  offset="1" style="stop-color:#8320B7"/>
			</linearGradient>
			<path fill="url(#SVGID_16_)" d="M789.072,433.316c-12.882-20.58-85.09,6.761-85.09,6.761s-104.354-15.606-154.224-17.333
				c-7.798-0.27-15.677-0.125-23.418,0.312c0.68-40.007-14.42-83.72-55.816-104.417C394.4,280.575,329.07,300.457,340.434,266.94
				c11.363-33.517,6.249-57.376,6.249-57.376s-59.65,15.339-108.505,2.841c69.875-1.136,98.847-14.771,98.847-14.771
				s-11.361-81.237-76.692-90.327c-65.331-9.089-133.501,43.743-134.069,164.745c-0.568,121.002,50.561,228.09,50.561,228.09
				s171.681,0,264.75,0h269.314c67.679,0,98.009-3.551,116.374-21.744C836.82,468.934,800.919,452.24,789.072,433.316z"/>
		</g>
	</g>
	<path fill="#6D19A3" d="M133.703,304.199c0,0-3.453,18.99-4.26,23.59c11.085,96.322,47.379,172.354,47.38,172.354
		c0,0,9.472,0,25.167,0c1.335-2.5,1.994-6.009,1.344-10.934c-2.461-18.629-33.377-22.442-31.65-30.211
		c2.635-11.854,5.467-49.775,8.056-77.687c0.909-9.794,1.275-28.12-3.337-46.058C166.792,297.869,133.703,304.199,133.703,304.199z"
		/>
	<circle fill="#FFFFFF" cx="302.479" cy="157.118" r="7.101"/>
	<circle fill="#6D19A3" cx="263.539" cy="160.011" r="26.468"/>
	<circle fill="#FFFFFF" cx="269.15" cy="160.424" r="17.612"/>
	<path d="M304.17,178.568c-1.142,0.415,0.708,5.686,1.364,5.617C306.189,184.117,306.569,177.695,304.17,178.568z"/>
	<path d="M298.717,178.512c-1.02,0.558-0.328,8.44,2.208,8.877C303.461,187.825,300.558,177.503,298.717,178.512z"/>
	<path fill="none" stroke="#6D19A3" stroke-width="4" stroke-linecap="round" d="M491.271,373.814
		c2.511-1.771,0.338-19.615-8.988-17.666c-9.325,1.949,3.854,16.947,4.549,10.963"/>
	<path fill="#6D19A3" d="M512.93,421.594c-0.396,0.886-0.808,1.76-1.23,2.629c4.787-0.485,9.682-0.887,14.636-1.167
		c0.527-31.288-8.598-64.841-32.406-87.88C507.776,353.1,528.118,387.621,512.93,421.594z"/>
	<path fill="#6D19A3" d="M741.962,486.331c0,0-284.852,18.128-429.003-8.632C202.74,457.24,160.75,369.228,160.75,369.228
		l-12.474,51.854c13.63,47.807,28.547,79.061,28.547,79.061s468.332,0,531.763,0c14.065,0,26.514-0.154,37.582-0.561
		L741.962,486.331z"/>
	
		<linearGradient id="SVGID_17_" gradientUnits="userSpaceOnUse" x1="1015.6426" y1="-244.8813" x2="1088.5927" y2="-370.7161" gradientTransform="matrix(1 0 0 -1 -256 155)">
		<stop  offset="0" style="stop-color:#2E2E2E"/>
		<stop  offset="1" style="stop-color:#000000"/>
	</linearGradient>
	<path fill="url(#SVGID_17_)" d="M703.982,440.077c0,0,30.626,4.972,38.109,26.685c7.631,22.145-9.5,33.379-9.5,33.379
		s29.631,0.002,49.381,0.004c13.383,0.004,31.41,3.133,60.441-22.221c26.194-22.871,23.92-93.08-36.145-83.305
		C735.199,406.184,703.982,440.077,703.982,440.077z"/>
	<path fill="#7D7D7D" d="M795.386,422.725c8.147-10.264,3.303-25.545,3.253-25.697l-0.82,0.268
		c0.049,0.148,4.748,14.997-3.107,24.894c-7.515,9.47-58.729,24.104-67.865,26.655c0.324,0.203,0.645,0.417,0.966,0.629
		C738.863,446.387,787.791,432.295,795.386,422.725z"/>
	<path fill="#7D7D7D" d="M810.053,463.901c-13.662,3.274-54.281,21.158-70.082,28.226c-0.287,0.467-0.582,0.914-0.878,1.338
		c14.786-6.629,57.196-25.378,71.161-28.725c15.957-3.824,29.969,14.754,30.107,14.938l0.35-0.939
		C840.572,478.549,826.566,459.943,810.053,463.901z"/>
	<path fill="#FFFFFF" d="M808.77,393.364c-0.054,0.006-0.107,0.011-0.162,0.019c-0.768,0.102-1.545,0.215-2.336,0.343
		c-1.387,0.227-2.754,0.464-4.111,0.707c-0.182,0.032-0.361,0.066-0.543,0.098c-1.305,0.236-2.596,0.481-3.871,0.733
		c-0.007,0.002-0.016,0.002-0.021,0.003l0,0c-65.026,12.827-93.743,44.811-93.743,44.811s0.861,0.144,2.312,0.47
		c-0.241-0.07-0.485-0.141-0.724-0.203c9.748-8.834,39.875-32.355,93.102-42.945c37.029,18.916,48.567,59.498,41.689,82.278
		c0,0,0-0.228,0,0c0.68-0.573,1.36-1.147,2.053-1.753c7.643-6.672,12.941-17.494,15.096-29.213
		C862.754,420.918,850.596,387.896,808.77,393.364z"/>
	<path fill="#FFFFFF" d="M781.717,431.176c0.28,14.441-0.162,38.051-5.275,50.614c-1.08,2.647,0.193,5.67,2.843,6.749
		c0.64,0.261,1.302,0.385,1.952,0.385c2.043,0,3.979-1.219,4.797-3.229c6.553-16.091,6.396-46.01,5.91-59.979
		C789.372,427.474,785.834,429.318,781.717,431.176z"/>
	<path fill="#EBEBEB" d="M791.942,425.715c-2.57,1.759-6.108,3.604-10.228,5.459c0.027,1.41,0.049,2.905,0.058,4.471
		c4.345-1.912,7.714-3.663,10.3-5.225C792.037,428.711,791.99,427.127,791.942,425.715z"/>
	<path fill="#FFFFFF" d="M811.01,478.994c-2.637,0-4.891-2.004-5.148-4.683c-3.936-40.915-21.625-51.036-21.801-51.127
		c-2.548-1.301-3.559-4.421-2.257-6.968c1.3-2.547,4.419-3.559,6.968-2.256c0.931,0.475,22.864,12.19,27.4,59.359
		c0.273,2.848-1.813,5.377-4.66,5.652C811.344,478.987,811.176,478.994,811.01,478.994L811.01,478.994z"/>
	<path fill="#FFFFFF" d="M756.626,429.956c13.284,7.71,23.96,17.104,42.071,37.583c4.291-1.561,7.982-2.775,10.729-3.478
		c-20.78-23.798-32.512-34.306-47.603-43.064c-2.474-1.435-5.643-0.593-7.078,1.88S754.152,428.521,756.626,429.956z"/>
	<path fill="#FFFFFF" d="M753.539,441.691c-1.543,37.848-4.871,51.277-4.934,51.525c-0.725,2.762,0.922,5.59,3.683,6.32
		c0.444,0.119,0.891,0.175,1.331,0.175c2.291,0,4.389-1.534,5.002-3.854c0.172-0.65,3.908-15.219,5.422-57.733
		C760.537,439.366,756.988,440.564,753.539,441.691z"/>
	<path fill="#EBEBEB" d="M753.308,446.892c3.151-1.267,6.671-2.661,10.559-4.176c0.062-1.495,0.122-3.019,0.177-4.591
		c-3.506,1.241-7.055,2.439-10.504,3.566C753.466,443.486,753.387,445.207,753.308,446.892z"/>
	<path fill="#FFFFFF" d="M771.244,478.51c3.302-1.394,6.628-2.78,9.893-4.117c-17.677-23.846-46.446-40.947-47.771-41.727
		c-2.465-1.449-5.637-0.629-7.089,1.837c-1.451,2.464-0.63,5.639,1.836,7.091C728.408,441.768,754.655,457.391,771.244,478.51z"/>
	<path fill="#EBEBEB" d="M857.51,448.711c3.062-16.227,0.188-34.233-11.057-45.322c8.081,13.021,6.982,35.055-4.416,56.949
		c0.544,6.845-0.041,13.919-1.676,19.339c0,0,0-0.228,0,0c0.68-0.573,1.36-1.147,2.053-1.753
		C850.057,471.252,855.355,460.43,857.51,448.711z"/>
	<path fill="#EBEBEB" d="M792.053,445.131c-0.115,4.587-0.346,9.42-0.758,14.215c0.448,0.484,0.898,0.974,1.355,1.473
		c0.381-4.451,0.602-10.408,0.715-14.348C792.924,446.014,792.488,445.57,792.053,445.131z"/>
	<path fill="#EBEBEB" d="M762.301,468.453c0.542,0.545,1.079,1.098,1.612,1.656c0.437-4.227,0.892-10.027,1.147-13.446
		c-0.603-0.562-1.205-1.116-1.807-1.663C762.959,460.008,762.637,464.486,762.301,468.453z"/>
</g>
<g id="monster_arm_prop">
	
		<linearGradient id="SVGID_18_" gradientUnits="userSpaceOnUse" x1="421.1875" y1="-149.9907" x2="366.8069" y2="-360.6075" gradientTransform="matrix(1 0 0 -1 -256 155)">
		<stop  offset="0" style="stop-color:#9424CF"/>
		<stop  offset="1" style="stop-color:#8320B7"/>
	</linearGradient>
	<path fill="url(#SVGID_18_)" d="M160.462,447.775c3.034-11.757,12.199-52.99,15.825-72.22
		c6.618-35.103,10.206-111.454-36.662-104.638c-20.274,2.951-40.05,67.32-45.163,109.926c-3.271,27.258-5.365,57.93-6.795,81.318
		c-16.401,2.59-27.334,6.906-37.405,12.085c-10.07,5.179-12.948,25.896-0.863,25.896c12.084,0,125.881-0.001,130.341-0.001
		s16.113-1.437,14.098-16.687C191.377,464.826,155.858,465.613,160.462,447.775z"/>
	<g display="none">
		<g display="inline">
			<path fill="#6D19A3" d="M194,485.061c-1.872,8.502-13.631,13.374-38.789,4.077c-0.692,6.919-1.785,8.567-3.644,11.004
				c0.002,0,0.005,0,0.007,0c15.485,0,26.818,0,28.166,0C184.037,500.142,195.009,498.803,194,485.061z M163.664,458.521
				c-2.9-2.778-4.39-6.139-3.201-10.746c3.034-11.757,12.199-52.99,15.825-72.22c3.417-18.127,6.025-47.257,1.295-70.25
				c-0.713,12.858-2.986,36.651-9.639,64.927c-10.358,44.023-19.422,72.94-11.653,83.082
				C157.887,455.4,160.478,457.088,163.664,458.521z"/>
		</g>
	</g>
	<path display="none" fill="#6D19A3" d="M102.628,472.232c0,0-24.169,1.15-32.801,9.207c-8.632,8.057-3.453,18.703,1.151,18.703
		c4.604,0,52.367,0,52.367,0L102.628,472.232z"/>
	<path display="none" fill="#60059B" d="M112.987,472.809c-6.042,3.165-15.538,27.334-2.302,27.334c13.235,0,25.321,0,33.952,0
		c8.632,0,4.316-25.896-6.618-28.773C127.085,468.492,119.029,469.643,112.987,472.809z"/>
	<path fill="#6D19A3" d="M148.377,471.371c0,0,18.955,9.205,4.281,28.771h-36.83c0,0-5.395-2.806-2.913-8.416
		c3.668,4.532,20.5,5.395,28.414,1.942C149.241,490.217,152.693,481.01,148.377,471.371z"/>
	<path fill="#6D19A3" d="M121.187,467.918c-12.084,10.215-9.926,32.225-2.158,32.225l-40.857,0.287c0,0-7.481-3.165-6.474-12.371
		c4.46,7.193,26.758,7.049,30.786,2.302C106.513,485.613,111.98,470.074,121.187,467.918z"/>
	<path fill="#6D19A3" d="M90.176,468.449c0,0-13.083,3.022-18.856,8.678c-5.771,5.656-3.745,10.366-7.422,14.491
		c-1.752,1.965-17.436,5.3-22.148,1.296c-0.037,0-0.067,0.006-0.103,0.008c0.643,4.109,3.071,7.221,7.75,7.221
		c3.357,0,14.569,0,29.101,0C58.671,482.51,90.176,468.449,90.176,468.449z"/>
	<path fill="#6D19A3" d="M193.266,492.047c-8.488,7.414-37.229,0.929-37.229,0.929s-3.085,4.759-5.268,7.166
		c7.701,0,17.15,0,25.007,0c2.166,0,3.545,0,3.963,0C183.155,500.142,190.782,499.292,193.266,492.047z"/>
</g>
</svg>
