<?xml version="1.0" encoding="utf-8"?>
<!-- Generator: Adobe Illustrator 15.0.0, SVG Export Plug-In . SVG Version: 6.00 Build 0)  -->
<!DOCTYPE svg PUBLIC "-//W3C//DTD SVG 1.1//EN" "http://www.w3.org/Graphics/SVG/1.1/DTD/svg11.dtd">
<svg version="1.1" id="Layer_1" xmlns="http://www.w3.org/2000/svg" xmlns:xlink="http://www.w3.org/1999/xlink" x="0px" y="0px"
	 width="1200px" height="500px" viewBox="0 0 1200 500" enable-background="new 0 0 1200 500" xml:space="preserve">
<g id="monster_arm_prop">
	
		<linearGradient id="SVGID_1_" gradientUnits="userSpaceOnUse" x1="427.1318" y1="-128.7192" x2="366.8634" y2="-362.1396" gradientTransform="matrix(1 0 0 -1 -256 155)">
		<stop  offset="0" style="stop-color:#9424CF"/>
		<stop  offset="1" style="stop-color:#8320B7"/>
	</linearGradient>
	<path fill="url(#SVGID_1_)" d="M165.896,441.963c3.363-13.03,13.52-58.728,17.538-80.039
		c7.334-38.902,11.31-123.522-40.632-115.966c-22.468,3.269-44.386,74.609-50.052,121.827c-3.625,30.209-5.946,64.202-7.531,90.124
		c-18.176,2.869-30.294,7.652-41.454,13.393S29.415,500,42.808,500c13.393,0,139.51-0.001,144.453-0.001
		c4.943,0,17.857-1.593,15.625-18.493C200.159,460.859,160.793,461.733,165.896,441.963z"/>
	<g display="none">
		<g display="inline">
			<path fill="#6D19A3" d="M203.065,483.285c-2.075,9.422-15.106,14.822-42.989,4.518c-0.767,7.669-1.978,9.496-4.038,12.196
				c0.002,0,0.005,0,0.008,0c17.162,0,29.722,0,31.215,0C192.023,499.999,204.183,498.515,203.065,483.285z M169.444,453.871
				c-3.214-3.078-4.865-6.803-3.548-11.908c3.363-13.03,13.52-58.728,17.538-80.039c3.787-20.09,6.678-52.373,1.436-77.856
				c-0.791,14.251-3.31,40.621-10.683,71.958c-11.479,48.789-21.524,80.836-12.915,92.076
				C163.042,450.412,165.913,452.283,169.444,453.871z"/>
		</g>
	</g>
	<path display="none" fill="#6D19A3" d="M101.8,469.068c0,0-26.786,1.275-36.353,10.204S61.621,500,66.724,500
		c5.103,0,58.037,0,58.037,0L101.8,469.068z"/>
	<path display="none" fill="#60059B" d="M113.28,469.706C106.583,473.214,96.061,500,110.729,500c14.668,0,28.062,0,37.629,0
		s4.783-28.7-7.335-31.889C128.905,464.923,119.977,466.197,113.28,469.706z"/>
	<path fill="#6D19A3" d="M152.502,468.112c0,0,21.007,10.204,4.744,31.888h-40.817c0,0-5.979-3.109-3.229-9.327
		c4.065,5.022,22.72,5.978,31.49,2.152S157.286,478.794,152.502,468.112z"/>
	<path fill="#6D19A3" d="M122.368,464.285C108.975,475.606,111.367,500,119.977,500l-45.281,0.318c0,0-8.292-3.508-7.175-13.711
		c4.943,7.973,29.655,7.813,34.12,2.552C106.105,483.898,112.165,466.676,122.368,464.285z"/>
	<path fill="#6D19A3" d="M88,464.876c0,0-14.5,3.349-20.897,9.616c-6.397,6.269-4.151,11.488-8.227,16.061
		c-1.942,2.178-19.324,5.874-24.546,1.436c-0.04,0.002-0.074,0.008-0.114,0.01c0.713,4.553,3.404,8.002,8.59,8.002
		c3.72,0,16.146,0,32.251,0C53.083,480.459,88,464.876,88,464.876z"/>
	<path fill="#6D19A3" d="M202.251,491.027c-9.407,8.218-41.26,1.029-41.26,1.029s-3.419,5.273-5.837,7.942
		c8.534,0,19.007,0,27.714,0c2.4,0,3.929,0,4.392,0C191.045,499.999,199.499,499.057,202.251,491.027z"/>
</g>
</svg>
