<?xml version="1.0" encoding="utf-8"?>
<!-- Generator: Adobe Illustrator 14.0.0, SVG Export Plug-In . SVG Version: 6.00 Build 43363)  -->
<!DOCTYPE svg PUBLIC "-//W3C//DTD SVG 1.1//EN" "http://www.w3.org/Graphics/SVG/1.1/DTD/svg11.dtd" [
	<!ENTITY ns_extend "http://ns.adobe.com/Extensibility/1.0/">
	<!ENTITY ns_ai "http://ns.adobe.com/AdobeIllustrator/10.0/">
	<!ENTITY ns_graphs "http://ns.adobe.com/Graphs/1.0/">
	<!ENTITY ns_vars "http://ns.adobe.com/Variables/1.0/">
	<!ENTITY ns_imrep "http://ns.adobe.com/ImageReplacement/1.0/">
	<!ENTITY ns_sfw "http://ns.adobe.com/SaveForWeb/1.0/">
	<!ENTITY ns_custom "http://ns.adobe.com/GenericCustomNamespace/1.0/">
	<!ENTITY ns_adobe_xpath "http://ns.adobe.com/XPath/1.0/">
]>
<svg version="1.1" xmlns:x="&ns_extend;" xmlns:i="&ns_ai;" xmlns:graph="&ns_graphs;"
	 xmlns="http://www.w3.org/2000/svg" xmlns:xlink="http://www.w3.org/1999/xlink" x="0px" y="0px" width="1200px" height="500px"
	 viewBox="0 0 1200 500" enable-background="new 0 0 1200 500" xml:space="preserve">
<metadata>
	<sfw  xmlns="&ns_sfw;">
		<slices></slices>
		<sliceSourceBounds  height="16383" width="1200" x="0" y="-7942" bottomLeftOrigin="true"></sliceSourceBounds>
	</sfw>
</metadata>
<g id="Layer_1" display="none">
	<rect display="inline" fill="#1A1B1C" width="1200" height="500"/>
</g>
<g id="city_1" display="none">
	<polygon display="inline" fill="#6B5C51" points="933.236,388.247 849.428,390.124 849.428,242.52 933.236,247.523 	"/>
	<polygon display="inline" fill="#77675C" points="775,388.247 849.428,390.124 849.428,242.52 775,247.523 	"/>
	<polygon display="inline" fill="#EFE77B" points="849.428,242.52 775,247.523 775,244.396 849.428,239.393 933.236,244.396 
		933.236,247.523 	"/>
	<polygon display="inline" fill="#7C6C61" points="851.304,333.834 827.537,334.46 828.162,391.375 851.304,392 	"/>
	<polygon display="inline" fill="#726359" points="851.304,333.834 875.07,334.46 874.445,391.375 851.304,392 	"/>
</g>
<g id="monster_1" display="none">
	<path display="inline" fill="#519E20" d="M559,323c0,0-52.5,46.702-182,19.5c77.5,33.5,166.729,7.997,196-19.5
		c2,76.667-36,177.143-36,177.143H76c0,0,4-94.143,77-52.143c48.111,27.681,84.772-6.047,105.232-62.123
		c10.585-29.011,7.675-325.145,171.888-333.344S559,323,559,323z"/>
	<g display="inline">
		<path fill="#FFFFFF" d="M461.588,264.769c-40.254,0-73.002-32.749-73.002-73.003c0-40.254,32.749-73.002,73.002-73.002
			c40.253,0,73.002,32.749,73.002,73.002C534.59,232.02,501.842,264.769,461.588,264.769L461.588,264.769z"/>
		<path fill="#3E7A17" d="M461.588,123.763c37.557,0,68.002,30.446,68.002,68.002c0,37.557-30.445,68.003-68.002,68.003
			c-37.557,0-68.002-30.446-68.002-68.003C393.586,154.209,424.032,123.763,461.588,123.763 M461.588,113.763
			c-43.011,0-78.002,34.992-78.002,78.002c0,43.011,34.992,78.003,78.002,78.003c43.01,0,78.002-34.992,78.002-78.003
			C539.59,148.754,504.599,113.763,461.588,113.763L461.588,113.763z"/>
	</g>
	<g display="inline">
		<g>
			<path fill="#F4F0EA" d="M513.642,148.024c6.899,10.639,10.921,23.317,10.921,36.941c0,37.557-30.445,68.002-68.002,68.002
				c-20.896,0-39.581-9.433-52.055-24.264c12.119,18.689,33.149,31.064,57.083,31.064c37.557,0,68.002-30.446,68.002-68.003
				C529.59,175.104,523.589,159.85,513.642,148.024z"/>
		</g>
	</g>
	<circle display="inline" cx="481.693" cy="200.045" r="27.792"/>
	<path display="inline" fill="#519E20" d="M389.151,190.288c2.957-24.835,24.541-54.106,73.324-53.219
		c48.784,0.887,53.219-9.46,55.584-17.148L441,100.333L371.412,152L389.151,190.288z"/>
	<path display="inline" fill="none" stroke="#3E7A17" stroke-width="11" stroke-linecap="round" d="M389.151,190.288
		c2.957-24.835,24.541-54.106,73.324-53.219c48.784,0.887,53.219-9.46,55.584-17.148"/>
	<circle display="inline" fill="#F4F0EA" cx="175.017" cy="380.982" r="85.017"/>
	<polygon display="inline" fill="#FFFFFF" points="440,358 449,301.5 466.5,357.5 	"/>
	<polygon display="inline" fill="#FFFFFF" points="520.5,349 531,296 543,341.5 	"/>
</g>
<g id="monster_1_copy">
	<path fill="#519E20" d="M559,323c0,0-52.5,46.702-182,19.5c77.5,33.5,166.729,7.997,196-19.5c2,76.667-36,177.143-36,177.143H83
		c0,0,22.001-57.809,79.334-44.143s75.439-14.047,95.899-70.123c10.585-29.011,7.675-325.145,171.888-333.344S559,323,559,323z"/>
	<path fill="#FFFFFF" d="M498.453,134.636c-7.992,1.742-19.432,2.734-35.978,2.433c-31.694-0.576-51.897,11.581-62.98,26.977
		c-3.787,8.468-5.909,17.843-5.909,27.719c0,37.557,30.446,68.003,68.002,68.003c37.557,0,68.002-30.446,68.002-68.003
		C529.59,167.801,517.183,146.747,498.453,134.636z"/>
	<path fill="#F4F0EA" d="M513.642,148.024c6.899,10.639,10.921,23.317,10.921,36.941c0,37.557-30.445,68.002-68.002,68.002
		c-20.896,0-39.581-9.433-52.055-24.264c12.119,18.689,33.149,31.064,57.083,31.064c37.557,0,68.002-30.446,68.002-68.003
		C529.59,175.104,523.589,159.85,513.642,148.024z"/>
	<circle cx="481.693" cy="200.045" r="27.792"/>
	<path fill="#3E7A17" d="M508.5,137.75c13.25-6.25,8.75-20.5,8.75-20.5s-19.299,14.25-62,14.25c-44.115,0-76.25,22.23-76.25,62.803
		S411.84,270,454,270c43.01,0,80.5-32.239,80.5-75.25C534.5,172.077,523.998,152.013,508.5,137.75z M461.588,259.769
		c-37.557,0-68.002-30.488-68.002-68.003c0-28.015,22.12-49.187,67.763-48.371c20.98,0.382,34.478-1.3,43.335-4.203
		c15.199,12.469,24.907,31.38,24.907,52.573C529.59,229.322,499.146,259.769,461.588,259.769z"/>
	<circle fill="#F4F0EA" cx="203.776" cy="409.741" r="61.259"/>
	<path fill="#F4F0EA" d="M465.667,361c0,0,1.085-11.518,4.5-24.833s7.037-28.084,7.037-28.084c0,0,5.297,14.418,8.963,27.751
		s4.872,24.378,4.872,24.378L465.667,361z"/>
	<path fill="#FFFFFF" d="M486.833,361.501c0,0-0.666-8.835-3-23.501s-6.63-29.917-6.63-29.917c0,0,5.297,14.418,8.963,27.751
		s4.872,24.378,4.872,24.378L486.833,361.501z"/>
	<path fill="#F4F0EA" d="M530.333,349c0,0,0.5-8.499,3.333-22.166s6.333-26.5,6.333-26.5l10.99,41.483L530.333,349z"/>
	<path fill="#FFFFFF" d="M550.99,341.817c0,0-0.744-7.648-3.322-17.792S540,300.334,540,300.334s3.627,16.386,5.261,26.958
		s2.063,15.815,2.063,15.815L550.99,341.817z"/>
	<path fill="#519E20" d="M377,342.5c77.5,33.5,166.729,7.997,196-19.5c2,76.667-36,177.143-36,177.143L377,342.5z"/>
</g>
</svg>
