<?xml version="1.0" encoding="utf-8"?>
<!-- Generator: Adobe Illustrator 15.0.0, SVG Export Plug-In . SVG Version: 6.00 Build 0)  -->
<!DOCTYPE svg PUBLIC "-//W3C//DTD SVG 1.1//EN" "http://www.w3.org/Graphics/SVG/1.1/DTD/svg11.dtd">
<svg version="1.1" id="Layer_1" xmlns="http://www.w3.org/2000/svg" xmlns:xlink="http://www.w3.org/1999/xlink" x="0px" y="0px"
	 width="1200px" height="500px" viewBox="0 0 1200 500" enable-background="new 0 0 1200 500" xml:space="preserve">
<g id="Layer_3">
	
		<linearGradient id="SVGID_1_" gradientUnits="userSpaceOnUse" x1="370.0645" y1="-313" x2="370.0645" y2="-345.0156" gradientTransform="matrix(1 0 0 -1 -256 155)">
		<stop  offset="0" style="stop-color:#404A6E"/>
		<stop  offset="1" style="stop-color:#1F2435"/>
	</linearGradient>
	<path fill="url(#SVGID_1_)" d="M111.255,493.492c0.134-0.189,3.844,4.19,5.928,6.514h12.64c-1.25-2.561-4.431-8.188-4.431-8.188
		s3.751-0.349,4.283-0.771c0.533-0.423-5.56-22.841-6.25-23.118c-0.691-0.276-24.743,1.165-25.099,1.505
		c-0.193,0.186,0.977,23.497,1.538,30.572h13.333C112.454,497.676,111.125,493.678,111.255,493.492z M109.82,487.888
		c-0.256-0.179-0.695-3.757-0.516-4.015c0.18-0.257,7.217,0.255,7.565,0.264c0.348,0.008,1.331,2.643,1.238,2.9
		C118.014,487.295,110.105,488.089,109.82,487.888z"/>
	
		<linearGradient id="SVGID_2_" gradientUnits="userSpaceOnUse" x1="514.9878" y1="-313" x2="514.9878" y2="-345.0156" gradientTransform="matrix(1 0 0 -1 -256 155)">
		<stop  offset="0" style="stop-color:#404A6E"/>
		<stop  offset="1" style="stop-color:#1F2435"/>
	</linearGradient>
	<path fill="url(#SVGID_2_)" d="M257.057,494.692c0.134-0.19,16.409-0.575,16.941-0.998s-2.3-25.521-2.989-25.8
		c-0.691-0.275-26.721,1.198-27.077,1.538c-0.193,0.186,0.976,23.497,1.538,30.572h13.333
		C258.06,497.676,256.927,494.877,257.057,494.692z M255.839,489.045c-0.256-0.18-0.696-3.759-0.516-4.016
		c0.181-0.256,7.218,0.254,7.565,0.264c0.349,0.009,1.331,2.643,1.239,2.9C264.033,488.452,256.125,489.244,255.839,489.045z"/>
	
		<linearGradient id="SVGID_3_" gradientUnits="userSpaceOnUse" x1="337.6958" y1="-313" x2="337.6958" y2="-345.0156" gradientTransform="matrix(1 0 0 -1 -256 155)">
		<stop  offset="0" style="stop-color:#404A6E"/>
		<stop  offset="1" style="stop-color:#1F2435"/>
	</linearGradient>
	<path fill="url(#SVGID_3_)" d="M75.14,497.939c0.417,0.009,8.683-0.843,9.1-0.832c0.278,0.006,0.751,1.744,1.128,2.897h13.277
		c-0.362-3.514-5.683-30.075-6.055-30.866c-0.398-0.845-23.403,1.626-23.531,2.667c-0.114,0.923-3.835,23.205-4.314,28.199h9.71
		C74.675,499.101,74.88,497.933,75.14,497.939z M75.718,486.575c0.323-0.41,5.118-0.506,5.335-0.503
		c0.417,0.011,3.362,3.522,2.84,3.513c-0.522-0.013-8.569,0.425-8.878,0.314C74.703,489.787,75.395,486.986,75.718,486.575z"/>
	
		<linearGradient id="SVGID_4_" gradientUnits="userSpaceOnUse" x1="606.7627" y1="-313" x2="606.7627" y2="-345.0156" gradientTransform="matrix(1 0 0 -1 -256 155)">
		<stop  offset="0" style="stop-color:#404A6E"/>
		<stop  offset="1" style="stop-color:#1F2435"/>
	</linearGradient>
	<path fill="url(#SVGID_4_)" d="M344.206,497.939c0.417,0.009,8.683-0.843,9.1-0.832c0.279,0.006,0.751,1.744,1.129,2.897h13.278
		c-0.363-3.514-5.684-30.075-6.057-30.866c-0.398-0.845-23.403,0.911-23.531,1.951c-0.113,0.923-3.834,23.921-4.312,28.915h9.709
		C343.741,499.101,343.947,497.933,344.206,497.939z M344.783,486.575c0.323-0.41,5.119-0.506,5.335-0.503
		c0.418,0.011,3.362,3.522,2.841,3.513c-0.522-0.013-8.569,0.426-8.879,0.314C343.77,489.787,344.461,486.986,344.783,486.575z"/>
	
		<linearGradient id="SVGID_5_" gradientUnits="userSpaceOnUse" x1="433.5073" y1="-313" x2="433.5073" y2="-345.0156" gradientTransform="matrix(1 0 0 -1 -256 155)">
		<stop  offset="0" style="stop-color:#404A6E"/>
		<stop  offset="1" style="stop-color:#1F2435"/>
	</linearGradient>
	<path fill="url(#SVGID_5_)" d="M170.809,497.894c0.426,0.012,8.873-0.858,9.298-0.85c0.286,0.006,0.769,1.785,1.153,2.962h13.566
		c-0.371-3.59-7.913-30.354-8.293-31.164c-0.407-0.863-23.728-0.766-23.859,0.298c-0.117,0.944-1.997,25.764-2.486,30.866h9.921
		C170.333,499.08,170.544,497.889,170.809,497.894z M171.399,486.283c0.329-0.419,5.228-0.52,5.45-0.514
		c0.426,0.011,3.436,3.6,2.902,3.588c-0.533-0.013-8.755,0.436-9.072,0.321C170.363,489.565,171.069,486.703,171.399,486.283z"/>
	
		<linearGradient id="SVGID_6_" gradientUnits="userSpaceOnUse" x1="546.7622" y1="-313" x2="546.7622" y2="-345.0156" gradientTransform="matrix(1 0 0 -1 -256 155)">
		<stop  offset="0" style="stop-color:#404A6E"/>
		<stop  offset="1" style="stop-color:#1F2435"/>
	</linearGradient>
	<path fill="url(#SVGID_6_)" d="M302.941,468.388c-0.851-0.341-25.823,1.192-26.761,2.045c-0.508,0.462-2.131,29.573-1.193,29.573
		s29.147,0,31.278,0C308.396,500.006,303.793,468.729,302.941,468.388z M294.382,491.488c-0.348,0.262-10.951,0.087-11.299-0.262
		c-0.348-0.347-0.435-2.434-0.26-2.781c0.173-0.348,10.691-1.825,11.125-1.737C294.382,486.795,294.73,491.228,294.382,491.488z"/>
	
		<linearGradient id="SVGID_7_" gradientUnits="userSpaceOnUse" x1="401.104" y1="-313" x2="401.104" y2="-345.0156" gradientTransform="matrix(1 0 0 -1 -256 155)">
		<stop  offset="0" style="stop-color:#404A6E"/>
		<stop  offset="1" style="stop-color:#1F2435"/>
	</linearGradient>
	<path fill="url(#SVGID_7_)" d="M157.508,466.792c-0.584,0.194-24.077,1.48-24.571,1.853c-0.494,0.37-2.47,20.372-2.099,20.372
		c0.37,0,19.756,1.729,19.756,1.729s0,1.852-0.618,1.852c-0.618,0-18.397-1.976-18.768-1.604c-0.37,0.37,0.575,9.013,0.945,9.013
		c0.37,0,25.725,0,26.342,0c0.618,0,1.235-12.471,0.741-12.471c-0.494,0-20.62-0.741-20.744-1.235
		c-0.124-0.493-0.248-1.109,0.37-1.109c0.618,0,18.645,0.123,19.262,0C158.742,485.065,157.878,466.668,157.508,466.792z"/>
	
		<linearGradient id="SVGID_8_" gradientUnits="userSpaceOnUse" x1="304.2778" y1="-313" x2="304.2778" y2="-345.0156" gradientTransform="matrix(1 0 0 -1 -256 155)">
		<stop  offset="0" style="stop-color:#404A6E"/>
		<stop  offset="1" style="stop-color:#1F2435"/>
	</linearGradient>
	<path fill="url(#SVGID_8_)" d="M66.345,470.146c0.224,0.446-4.026,29.858-4.584,29.858c-0.56,0-11.52,0-11.967,0
		c-0.447,0-3.578-6.822-3.914-6.822s-3.021,6.822-3.467,6.822c-0.447,0-5.592,0-5.927,0s-6.71-29.749-6.263-30.084
		c0.448-0.335,12.526-1.677,12.862-1.677c0.334,0,0.334,15.88,0.67,15.88c0.335,0,2.685-3.02,3.132-3.02
		c0.447,0,2.907,4.139,3.354,4.139c0.447,0-1.342-15.771-1.006-16.104C49.571,468.804,66.121,469.698,66.345,470.146z"/>
	
		<linearGradient id="SVGID_9_" gradientUnits="userSpaceOnUse" x1="465.2075" y1="-313" x2="465.2075" y2="-345.0156" gradientTransform="matrix(1 0 0 -1 -256 155)">
		<stop  offset="0" style="stop-color:#404A6E"/>
		<stop  offset="1" style="stop-color:#1F2435"/>
	</linearGradient>
	<path fill="url(#SVGID_9_)" d="M227.758,469.35c0.229,0.458-4.134,30.656-4.708,30.656c-0.574,0-11.827,0-12.286,0
		s-3.673-7.004-4.018-7.004c-0.345,0-3.101,7.004-3.56,7.004c-0.458,0-5.74,0-6.085,0c-0.344,0-6.89-30.541-6.43-30.886
		c0.459-0.346,12.861-1.723,13.205-1.723c0.344,0,0.344,16.304,0.689,16.304c0.344,0,2.755-3.101,3.215-3.101
		s2.984,4.248,3.444,4.248s-1.378-16.188-1.033-16.533C210.535,467.972,227.529,468.89,227.758,469.35z"/>
	
		<linearGradient id="SVGID_10_" gradientUnits="userSpaceOnUse" x1="483.5244" y1="-313" x2="483.5244" y2="-345.0156" gradientTransform="matrix(1 0 0 -1 -256 155)">
		<stop  offset="0" style="stop-color:#404A6E"/>
		<stop  offset="1" style="stop-color:#1F2435"/>
	</linearGradient>
	<path fill="url(#SVGID_10_)" d="M226.275,494.581c-0.277,0.111-1.661,2.878-1.328,3.21c0.332,0.333,1.661,0.886,1.661,0.886
		s0,1.494,0.332,1.329s3.1-3.101,3.21-3.765C230.261,495.577,226.552,494.469,226.275,494.581z"/>
	
		<linearGradient id="SVGID_11_" gradientUnits="userSpaceOnUse" x1="576.1528" y1="-313" x2="576.1528" y2="-345.0156" gradientTransform="matrix(1 0 0 -1 -256 155)">
		<stop  offset="0" style="stop-color:#404A6E"/>
		<stop  offset="1" style="stop-color:#1F2435"/>
	</linearGradient>
	<path fill="url(#SVGID_11_)" d="M306.995,468.338c-0.436,0.087,2.215,31.668,2.659,31.668c0.442,0,22.254,0,22.696,0
		c0.444,0,1.328-11.183,0.887-11.183c-0.443,0-12.733,1.105-12.4,1.105c0.332,0,0.885-21.037,0.332-21.037
		C320.615,468.893,307.548,468.228,306.995,468.338z"/>
	
		<linearGradient id="SVGID_12_" gradientUnits="userSpaceOnUse" x1="639.0742" y1="-313" x2="639.0742" y2="-345.0156" gradientTransform="matrix(1 0 0 -1 -256 155)">
		<stop  offset="0" style="stop-color:#404A6E"/>
		<stop  offset="1" style="stop-color:#1F2435"/>
	</linearGradient>
	<path fill="url(#SVGID_12_)" d="M369.244,500.005c-0.485,0-2.55-30.505-2.307-30.98c0.243-0.478,9.707-1.312,10.193-1.312
		c0.485,0,7.159,17.041,7.159,17.041s-1.335-17.638-0.971-17.638c0.363,0,15.651,0.001,15.896,0.478s-2.426,32.411-2.79,32.411
		s-12.499,0-12.983,0c-0.485,0-5.099-8.341-5.099-8.341s0.729,8.341,0.244,8.341S369.244,500.005,369.244,500.005z"/>
	
		<linearGradient id="SVGID_13_" gradientUnits="userSpaceOnUse" x1="671.6504" y1="-313" x2="671.6504" y2="-345.0156" gradientTransform="matrix(1 0 0 -1 -256 155)">
		<stop  offset="0" style="stop-color:#404A6E"/>
		<stop  offset="1" style="stop-color:#1F2435"/>
	</linearGradient>
	<path fill="url(#SVGID_13_)" d="M430.809,480.939c-0.237-11.798-10.248-13.584-13.466-13.704
		c-3.216-0.119-16.682,0.237-16.682,0.237c-0.358,0.12-0.119,32.531,0.239,32.531c0.356,0,21.807,0,23.236,0
		C425.567,500.005,431.047,492.736,430.809,480.939z M419.37,492.856c-0.833,0.595-10.367,1.19-10.726,1.19
		c-0.357,0-0.835-6.077-0.835-6.077s10.131,0,11.799,0.477S420.204,492.26,419.37,492.856z"/>
</g>
</svg>
